<?xml version="1.0" encoding="utf-8"?>
<!-- Generator: Adobe Illustrator 26.2.1, SVG Export Plug-In . SVG Version: 6.00 Build 0)  -->
<svg version="1.1" id="Слой_1" xmlns="http://www.w3.org/2000/svg" xmlns:xlink="http://www.w3.org/1999/xlink" x="0px" y="0px"
	 viewBox="0 0 512 512" style="enable-background:new 0 0 512 512;" xml:space="preserve">
<style type="text/css">
	.st0{display:none;}
	.st1{fill:#FFFF7E;stroke:#000000;stroke-width:4;stroke-miterlimit:10;}
</style>
<path class="st0" d="M0,0h512v512H0V0z"/>
<g transform="translate(0,0)">
	<path class="st1" d="M255.9,21.8c-57.7,0-110.5,20.8-151.4,55.3l0,0c-14.9,11.3-27.8,25.1-38.1,40.7c-28.6,38.9-45.6,87-45.6,139
		c0,60,22.6,114.8,59.7,156.4l-0.4,0.4c2.5,2.5,5,4.9,7.5,7.2c42.7,43.8,102.4,71.1,168.3,71.1C385.6,492,491,386.6,491,256.9
		C491,127.1,385.6,21.8,255.9,21.8L255.9,21.8z M274.5,41.3c110.9,9.4,197.9,102.2,197.9,215.6c0,93.9-59.7,173.7-143.2,203.7
		c21.8-10.1,42.1-24,60-41.9c83.7-83.7,81.5-221.6-4.1-308.1C357.7,76.2,318.9,51.2,274.5,41.3z M203.5,62.5
		c50.4,0,94.8,25.5,120.8,64.4c-23.6-22.8-55.3-36.4-87.1-37.6c-1.7-0.1-3.5-0.1-5.2-0.1c-26.1,0.2-52,8.8-73.2,27.7
		c-37,33-47.4,93.7-11.3,132.7c25,27,70.2,34.7,98.4,6.8c9.4-9.3,15.1-21.7,16.1-34.7c1-13-3.1-26.9-13.7-36.9l0,0
		c-6.7-6.4-15.5-10.2-24.7-10.7c-9.2-0.5-19.3,2.7-26.2,10.8c-4.1,4.9-6.4,10.9-6.5,17.4c-0.1,6.5,2.6,13.8,8.8,18.5l0,0l0,0
		c3.5,2.6,7.5,4,12.1,3.8c4.6-0.1,10.3-2.6,13.3-7.7v0c1.6-2.8,2.2-5.4,1.8-8.7c-0.4-3.3-3-8.2-7.6-10c-2.5-1-3.9-1.1-6.5-0.5
		c-0.6,0.1-1.3,0.4-2.1,0.7c0.3-0.5,0.5-1.1,0.8-1.4c2.8-3.3,6.4-4.5,10.9-4.2c4.5,0.3,9.6,2.4,12.9,5.6c6.2,5.9,8.5,13.6,7.9,21.9
		c-0.6,8.3-4.6,17-10.6,22.9c-19.7,19.5-53,13.9-71.5-6.2c-28.3-30.5-19.8-79.5,10-106c43.1-38.4,110.8-25.8,147.4,17.1
		c16.6,19.5,26.9,44.2,29.8,69.8l0.2,0c-5.1,75.8-68,135.5-145.1,135.5c-80.4,0-145.4-65-145.4-145.4c0-29.5,8.8-56.9,23.8-79.8
		c9.9-13.3,21.3-25.5,33.9-36.2C140.2,73.4,170.5,62.5,203.5,62.5L203.5,62.5z M427.3,225.4c14,63.7-3.1,131.8-51.4,180.1
		C301.1,480.3,178.8,480.1,99,406c-33.9-35.7-55.8-83-59-135.4c17.8,89.7,96.9,157.3,191.8,157.3c108,0,195.6-87.6,195.6-195.6
		C427.4,229.9,427.3,227.7,427.3,225.4L427.3,225.4z"/>
</g>
</svg>
