<?xml version="1.0" encoding="utf-8"?>
<!-- Generator: Adobe Illustrator 26.2.1, SVG Export Plug-In . SVG Version: 6.00 Build 0)  -->
<svg version="1.1" id="Слой_1" xmlns="http://www.w3.org/2000/svg" xmlns:xlink="http://www.w3.org/1999/xlink" x="0px" y="0px"
	 viewBox="0 0 512 512" style="enable-background:new 0 0 512 512;" xml:space="preserve">
<style type="text/css">
	.st0{fill:#805080;stroke:#000000;stroke-width:4;stroke-miterlimit:10;}
</style>
<g transform="translate(0,0)">
	<path class="st0" d="M256.2,20.7c-32.8,0-64,6.8-92.4,19c-8.2-10.6-21-17.5-35.4-17.5c-24.7,0-44.8,20-44.8,44.8
		c0,8.4,2.3,16.2,6.3,22.9c-42.6,42.7-69.1,101.5-69.1,166.3c0,129.6,105.8,234.7,235.4,234.7c129.6,0,234.7-105.1,234.7-234.7
		C491,126.5,385.9,20.7,256.2,20.7z M256.2,40c119.5,0,216.1,96.6,216.1,216.1s-96.6,216.1-216.1,216.1
		c-119.5,0-216.8-96.6-216.8-216.1c0-59.6,24.2-113.4,63.2-152.5c7.3,5.1,16.2,8.1,25.7,8.1c24.7,0,44.8-20,44.8-44.8
		c0-3.5-0.4-6.8-1.1-10C197.9,46,226.4,40,256.2,40L256.2,40z M256.1,91.8c-91.3,0-165.9,74.6-165.9,165.9
		c0,91.3,74.6,165.4,165.9,165.4c35.1,0,67.7-11,94.5-29.7c7.1,4.2,15.5,6.7,24.3,6.7c26.4,0,47.8-21.4,47.8-47.8
		c0-12.8-5-24.4-13.2-32.9c7.7-19.1,11.9-39.9,11.9-61.7C421.5,166.4,347.4,91.8,256.1,91.8L256.1,91.8z M256.1,110.9
		c81.2,0,146.8,65.6,146.8,146.8c0,17.8-3.2,34.9-9,50.7c-5.8-2.5-12.2-3.9-19-3.9c-26.4,0-47.8,21.4-47.8,47.8
		c0,10.6,3.5,20.4,9.3,28.3c-23.1,15.1-50.7,23.8-80.3,23.8c-81.2,0-147.2-65.6-147.2-146.8S174.9,110.9,256.1,110.9L256.1,110.9z
		 M255.1,130.5c-7.5,32-21.8,62.1-42.9,83.2c-21.1,21.1-48.7,32.9-80.7,40.4c32,7.5,62.1,21.7,83.2,42.9
		c21.1,21.1,32.9,48.8,40.4,80.8c7.5-32,19.2-59.6,40.3-80.8c21.1-21.1,51.3-35.4,83.2-42.9c-32.2-7.4-59.5-19.1-80.7-40.4
		C276.7,192.5,262.5,162.8,255.1,130.5L255.1,130.5z M255.2,217.1c20.5,0,37.1,16.6,37.1,37.1c0,20.5-16.6,37.1-37.1,37.1
		c-20.5,0-37.1-16.6-37.1-37.1C218,233.7,234.7,217.1,255.2,217.1L255.2,217.1z"/>
</g>
</svg>
