<?xml version="1.0" encoding="utf-8"?>
<!-- Generator: Adobe Illustrator 26.2.1, SVG Export Plug-In . SVG Version: 6.00 Build 0)  -->
<svg version="1.1" xmlns="http://www.w3.org/2000/svg" xmlns:xlink="http://www.w3.org/1999/xlink" x="0px" y="0px"
	 viewBox="0 0 1024 1024" style="enable-background:new 0 0 1024 1024;" xml:space="preserve">
<style type="text/css">
	.st0{fill:#805080;stroke:#000000;stroke-width:5;stroke-miterlimit:10;}
</style>
<g id="Слой_2">
	<path class="st0" d="M886.81,518.39C886.81,311.62,719.19,144,512.42,144c-206.76,0-374.38,167.62-374.38,374.39
		c0,206.76,167.62,374.39,374.38,374.39c74.32,0,143.59-21.66,201.83-59.02c15.4,12.35,34.96,19.74,56.25,19.74
		c49.71,0,90-40.29,90-90c0-22.95-8.58-43.88-22.72-59.77C868.98,649.09,886.81,585.82,886.81,518.39z M680.5,763.5
		c0,14.14,3.26,27.51,9.06,39.41c-51.32,31.91-111.89,50.34-176.77,50.34c-185.14,0-335.23-150.08-335.23-335.23
		c0-185.14,150.09-335.23,335.23-335.23s335.23,150.09,335.23,335.23c0,59.06-15.27,114.55-42.08,162.73
		c-10.87-4.67-22.85-7.25-35.44-7.25C720.79,673.5,680.5,713.79,680.5,763.5z"/>
	<path class="st0" d="M512,0.5c-99.96,0-193.22,28.67-272,78.25c-16.18-15.64-38.22-25.25-62.5-25.25c-49.71,0-90,40.29-90,90
		c0,21.17,7.31,40.64,19.54,56C40.24,285.92,0.5,394.32,0.5,512c0,282.49,229.01,511.5,511.5,511.5s511.5-229.01,511.5-511.5
		S794.49,0.5,512,0.5z M512.5,969.5c-252.95,0-458-205.05-458-458c0-106.29,36.2-204.12,96.95-281.83
		c8.24,2.49,16.99,3.83,26.05,3.83c49.71,0,90-40.29,90-90c0-6.13-0.61-12.12-1.78-17.9c71.22-45.64,155.91-72.1,246.78-72.1
		c252.95,0,458,205.05,458,458S765.45,969.5,512.5,969.5z"/>
</g>
<g id="Слой_3">
	<path class="st0" d="M608.5,415.5l-97-143l-95,144l-144.49,95.49L414.5,607.5l97,143.98l97-144.98l142.49-94.51L608.5,415.5z
		 M511.5,601.5c-49.71,0-90-40.29-90-90c0-49.71,40.29-90,90-90s90,40.29,90,90C601.5,561.21,561.21,601.5,511.5,601.5z"/>
</g>
</svg>
