<?xml version="1.0" encoding="utf-8"?>
<!-- Generator: Adobe Illustrator 26.2.1, SVG Export Plug-In . SVG Version: 6.00 Build 0)  -->
<svg version="1.1" id="Слой_1" xmlns="http://www.w3.org/2000/svg" xmlns:xlink="http://www.w3.org/1999/xlink" x="0px" y="0px"
	 viewBox="0 0 512 512" style="enable-background:new 0 0 512 512;" xml:space="preserve">
<style type="text/css">
	.st0{fill:#23AC9D;stroke:#000000;stroke-width:4;stroke-miterlimit:10;}
</style>
<g transform="translate(0,0)">
	<path class="st0" d="M186.2,21.2c1.3,7.7,2.8,14.9,4.4,21.6h-25l10.5,14.8c0,0,13.7,19.3,21.8,43.8c4,12.2,6.6,25.6,5.6,38
		c-1,12.4-5.1,23.7-15.1,33.7c-20.3,20.3-47.9,40.2-71,64.4c-23.1,24.2-41.8,53.5-41.8,91.7c0,2,0,39.5,0,76.8
		c0,18.7,0,37.3-0.1,51.6c0,7.1,0,13.2,0,17.5c0,4.4-0.1,7.6-0.1,7.3l-0.3,9.6l9.6,0.1l312.5,2.3l9.8,0.1l-0.3-9.8
		c0,0.2,0-3.1-0.1-7.6c0-4.5,0-10.6-0.1-17.8c0-14.4-0.1-33.3-0.1-52.2c0-37.7-0.1-75.5-0.1-77.9c0-39-19.5-68.7-43.5-93
		c-24-24.3-52.7-44.1-73.8-64.4c-10-9.6-13.8-20.5-14.4-32.6c-0.6-12.1,2.5-25.3,7.2-37.5c9-23.5,23-42,24-43.3l15.5-15.6h-32.5
		c1.6-6.7,3.1-13.9,4.4-21.6H186.2z M217,99.8c14.5,15.5,31.1,15.6,45.7,0.1c-4.3,12.5-7.3,26.3-6.6,40.3
		c0.8,15.8,6.6,32.1,20.1,45.1v0c22.7,21.9,51.2,41.5,73.5,64.1c22.3,22.6,38.1,47.1,38.1,79.9c0,2.5,0,40.2,0.1,78
		c0,18.9,0.1,37.7,0.1,52.2c0,6.6,0,11.9,0.1,16.3l-293.7-2.2c0-4.2,0-9.4,0-15.8c0-14.3,0-32.9,0.1-51.6c0-37.4,0-74.7,0-76.8
		c0-32.1,15.2-56.3,36.7-78.8c21.4-22.4,48.8-42.2,70.7-64.1c13.2-13.3,19.3-29.5,20.5-45.4C223.3,126.6,220.8,112.5,217,99.8
		L217,99.8z M251.5,198.6c-17.3,0-31.5,14.2-31.5,31.5c0,17.3,14.2,31.5,31.5,31.5c17.3,0,31.5-14.2,31.5-31.5
		C283,212.8,268.8,198.6,251.5,198.6L251.5,198.6z M251.5,217.2c7.2,0,12.8,5.6,12.8,12.8c0,7.2-5.6,12.8-12.8,12.8
		c-7.2,0-12.8-5.6-12.8-12.8C238.6,222.9,244.3,217.2,251.5,217.2L251.5,217.2z M131.5,277.6c-10.6,15-18.1,31.6-18.1,52
		c0,5.3-0.1,119.6-0.3,124.7l256.1,3.8c-0.3-6.4-0.5-121.9-0.5-128.5c0-20.4-7.5-37.1-18.1-52h-37c3.2,5.6,5,12,5,18.8
		c0,21-17.2,38.2-38.2,38.2c-21,0-38.2-17.2-38.2-38.2c0-6.8,1.8-13.3,5-18.8L131.5,277.6L131.5,277.6z M275.5,277.6
		c-8.5,2.1-14.6,9.6-14.6,18.8c0,10.9,8.6,19.5,19.5,19.5c10.9,0,19.5-8.6,19.5-19.5c0-9.2-6.2-16.7-14.7-18.8L275.5,277.6
		L275.5,277.6z M211.3,319.5c18.9,0,34.4,15.5,34.4,34.4c0,18.9-15.5,34.5-34.4,34.5s-34.5-15.5-34.5-34.5
		C176.9,335,192.4,319.5,211.3,319.5L211.3,319.5z M211.3,338.2c-8.8,0-15.8,6.9-15.8,15.8s7,15.8,15.8,15.8s15.8-7,15.8-15.8
		S220.2,338.2,211.3,338.2z M304.3,348.3c25.5,0,46.4,20.9,46.4,46.4c0,25.5-20.9,46.4-46.4,46.4c-25.5,0-46.4-20.9-46.4-46.4
		C257.9,369.2,278.8,348.3,304.3,348.3L304.3,348.3z M304.3,367c-15.4,0-27.8,12.3-27.8,27.8s12.3,27.8,27.8,27.8
		s27.8-12.3,27.8-27.8C332.1,379.3,319.7,367,304.3,367z"/>
</g>
</svg>
