<?xml version="1.0" encoding="utf-8"?>
<!-- Generator: Adobe Illustrator 26.2.1, SVG Export Plug-In . SVG Version: 6.00 Build 0)  -->
<svg version="1.1" xmlns="http://www.w3.org/2000/svg" xmlns:xlink="http://www.w3.org/1999/xlink" x="0px" y="0px"
	 viewBox="0 0 1024 1024" style="enable-background:new 0 0 1024 1024;" xml:space="preserve">
<style type="text/css">
	.st0{fill:#23AC9D;stroke:#000000;stroke-width:5;stroke-miterlimit:10;}
</style>
<g id="Слой_2">
	<path class="st0" d="M608.5,335.82V224.5h1v-40.11c22.88-23.64,37-55.8,37-91.09c0-35.64-29.16-64.8-64.8-64.8H443.3
		c-17.82,0-34.02,7.29-45.76,19.04C385.79,59.28,378.5,75.48,378.5,93.3c0,35.29,14.12,67.45,37,91.09v148.16l-258,210.95v478h705
		v-478L608.5,335.82z M193.61,989.5v-446l240.84-192l13.05-10.4v-87.6h131v88.38l12.07,9.62l240.93,192l0.49,446H193.61z"/>
	<path class="st0" d="M755.71,832.85c0,51.01-41.35,92.36-92.36,92.36c-51.01,0-92.35-41.35-92.35-92.36s41.34-92.35,92.35-92.35
		C714.36,740.5,755.71,781.84,755.71,832.85z"/>
	<path class="st0" d="M663.75,947.5c-63.1,0-114.25-51.15-114.25-114.25S600.65,719,663.75,719S778,770.15,778,833.25
		S726.85,947.5,663.75,947.5z M490.18,749.88c-39.67,0-71.82-32.15-71.82-71.82c0-39.66,32.15-71.82,71.82-71.82
		c39.66,0,71.82,32.16,71.82,71.82C562,717.73,529.84,749.88,490.18,749.88z M489.93,619.76c-32.07,0-58.06,25.99-58.06,58.05
		c0,32.07,25.99,58.06,58.06,58.06s58.06-25.99,58.06-58.06C547.99,645.75,522,619.76,489.93,619.76z M736.75,543.5
		c1.48,6.47,2.25,13.2,2.25,20.1c0,51.14-42.53,92.61-94.98,92.61c-52.46,0-94.98-41.47-94.98-92.61c0-6.9,0.77-13.63,2.25-20.1
		H223.5v413h576v-413H736.75z M643.69,638.14c42.4,0,76.78-33.51,76.78-74.86c0-6.85-0.94-13.48-2.71-19.78H569.62
		c-1.77,6.3-2.71,12.93-2.71,19.78C566.91,604.63,601.28,638.14,643.69,638.14z"/>
	<path class="st0" d="M562.18,371.24c-38.56,0-69.82,31.26-69.82,69.82s31.26,69.82,69.82,69.82c38.56,0,69.82-31.26,69.82-69.82
		S600.74,371.24,562.18,371.24z M561.94,497.26c-31.17,0-56.44-25.27-56.44-56.44s25.27-56.44,56.44-56.44s56.44,25.27,56.44,56.44
		S593.11,497.26,561.94,497.26z"/>
</g>
<g id="Слой_3">
</g>
</svg>
