<?xml version="1.0" encoding="utf-8"?>
<!-- Generator: Adobe Illustrator 26.2.1, SVG Export Plug-In . SVG Version: 6.00 Build 0)  -->
<svg version="1.1" id="Слой_2" xmlns="http://www.w3.org/2000/svg" xmlns:xlink="http://www.w3.org/1999/xlink" x="0px" y="0px"
	 viewBox="0 0 1024 1024" style="enable-background:new 0 0 1024 1024;" xml:space="preserve">
<style type="text/css">
	.st0{fill:#3ACAF0;stroke:#000000;stroke-width:5;stroke-miterlimit:10;}
</style>
<path class="st0" d="M973.54,525.59c0,49.16-39.86,89.01-89.02,89.01c-43.37,0-79.5-31.02-87.4-72.09
	C783.23,604.32,728.01,650.5,662,650.5c-63.59,0-117.18-42.86-133.44-101.28C517.52,614.66,460.58,664.5,392,664.5
	c-64.47,0-118.66-44.06-134.09-103.71C243.93,609.33,202.69,644.5,154,644.5c-60.2,0-109-53.76-109-120.07
	c0-13.8,2.12-27.08,6.03-39.43c14.8,46.94,55.32,80.63,102.97,80.63s88.17-33.69,102.97-80.63c2.72,8.59,4.57,17.63,5.45,26.98
	C282.2,564.29,332.76,601.5,392,601.5c61.4,0,113.46-39.95,131.62-95.28c1.26-3.83,2.36-7.75,3.28-11.72
	c0.04-0.15,0.07-0.3,0.1-0.44c14.1,61.53,69.19,107.44,135,107.44c65.25,0,119.96-45.12,134.63-105.86
	c0.65-2.68,1.22-5.39,1.71-8.13c0.63,3.51,1.12,7.06,1.48,10.66c0.42,4.21,0.64,8.48,0.67,12.8c12.14,34.72,45.18,59.63,84.04,59.63
	c41.56,0,76.47-28.49,86.27-67.01C972.59,510.63,973.54,518,973.54,525.59z"/>
<path class="st0" d="M826.17,865.64c-2.64,0.11-5.3,0.16-7.98,0.16c-75.67,0-139.44-43.46-158.79-102.69
	C646.27,829.47,578.51,880,496.91,880c-76.72,0-141.2-44.67-159.56-105.15c-16.64,49.22-65.71,84.88-123.65,84.88
	c-71.63,0-129.7-54.51-129.7-121.74c0-13.99,2.52-27.46,7.18-39.98c17.61,47.59,65.83,81.75,122.53,81.75S318.62,745.59,336.23,698
	c3.24,8.71,5.44,17.88,6.49,27.36c23.54,53.04,83.7,90.77,154.19,90.77c73.06,0,135.01-40.51,156.62-96.61
	c1.5-3.88,2.81-7.86,3.9-11.88c0.05-0.15,0.08-0.3,0.12-0.45c16.78,62.39,82.33,108.94,160.64,108.94
	c28.95,0,56.16-6.36,79.81-17.53"/>
<path class="st0" d="M512,0.5C229.51,0.5,0.5,229.51,0.5,512s229.01,511.5,511.5,511.5s511.5-229.01,511.5-511.5S794.49,0.5,512,0.5
	z M511.5,974.5c-255.16,0-462-206.84-462-462s206.84-462,462-462s462,206.84,462,462S766.66,974.5,511.5,974.5z"/>
</svg>
