<?xml version="1.0" encoding="utf-8"?>
<!-- Generator: Adobe Illustrator 26.2.1, SVG Export Plug-In . SVG Version: 6.00 Build 0)  -->
<svg version="1.1" id="Слой_1" xmlns="http://www.w3.org/2000/svg" xmlns:xlink="http://www.w3.org/1999/xlink" x="0px" y="0px"
	 viewBox="0 0 512 512" style="enable-background:new 0 0 512 512;" xml:space="preserve">
<style type="text/css">
	.st0{fill:#3CD4FC;stroke:#000000;stroke-width:4;stroke-miterlimit:10;}
</style>
<g transform="translate(0,0)">
	<path class="st0" d="M256.4,14.2C124.1,14.2,16.7,121.6,16.7,254s107.5,239.8,239.8,239.8c132.3,0,239.8-107.5,239.8-239.8
		S388.8,14.2,256.4,14.2L256.4,14.2z M256.4,32.1c122.7,0,221.9,99.2,221.9,221.9c0,4.5-0.1,9-0.4,13.5
		c-30.9,8.1-68.1-14.2-85.4-43.8c-47.6,66.1-89.7,73.2-129.2-1.6c-36.9,67.6-104.2,73.2-137.1,20.1c-33.7,46-56.7,52.1-91.1,28.6
		c-0.4-5.5-0.6-11.1-0.6-16.7C34.5,131.3,133.8,32.1,256.4,32.1L256.4,32.1z M394.9,277.3c20.2,40.2,58.6,27.5,82,1.6
		c-4.7,42.5-21.4,81.3-46.6,113c-33.7,18.6-58.9,7.2-89.6-45.6c-41.9,74.8-109.8,67.6-160.3,1.6c-17.5,28.2-62.9,49.8-97.3,44.8
		c-21.9-27.3-37.4-59.9-44.4-95.7c23.5,22.1,63.9,29.2,84.4-3.6c32.4,48.7,100.4,51.5,140.2-5.1
		C287.2,322.3,349.3,352.8,394.9,277.3L394.9,277.3z M177.8,401.5c48.5,75.5,137.6,45,162.9,11c17.2,19.6,37.5,20.8,57.7,12.1
		c-38.5,32.1-88,51.3-142,51.3c-54.7,0-104.7-19.8-143.4-52.5C137.2,431.6,163.6,428.1,177.8,401.5L177.8,401.5z"/>
</g>
</svg>
