<?xml version="1.0" encoding="utf-8"?>
<!-- Generator: Adobe Illustrator 26.2.1, SVG Export Plug-In . SVG Version: 6.00 Build 0)  -->
<svg version="1.1" id="Слой_1" xmlns="http://www.w3.org/2000/svg" xmlns:xlink="http://www.w3.org/1999/xlink" x="0px" y="0px"
	 viewBox="0 0 512 512" style="enable-background:new 0 0 512 512;" xml:space="preserve">
<style type="text/css">
	.st0{fill:#876636;stroke:#000000;stroke-width:4;stroke-miterlimit:10;}
</style>
<g transform="translate(0,0)">
	<path class="st0" d="M348.9,15.6c-1.4,0-2.8,0-4.2,0.1l0,0C331.4,16.7,318,22.9,305,35c-20.1-5.9-37.1-10.6-57.2-0.6
		C210,22.6,172.1,21.4,143.3,53.7c-42.5-10.1-87.2,9.9-76.5,59c-47.1,15-56.4,78.2-0.6,73.6c7.9,46.8,41.1,55.9,83.5,40.9
		c19.4,24,46.5,39.2,77.3,46.4c0.3,5.1,0.1,10.3-0.6,15.7C220.6,337.1,175.6,394.6,105,444l-23.9,16.7l29.2-1.4
		c29-1.3,48.1-2.4,58.9-1.5c-5.8,6.6-11.3,12.4-16.3,17.3L134,493.9l26.3-4.4c23.9-4,44.4-7.9,59.9-8.4c15.5-0.4,24.4,2.2,29.9,9.6
		l7.3,9.9l6.6-10.4c6.5-10.3,13.6-12.9,27.2-12.3c13.6,0.6,32.8,6,57,13.3l29.7,8.9l-21-22.8c-8-8.7-16-18.1-23.4-27.8
		c2.5,0.1,5.2,0.3,8,0.6c12.1,1.3,26.9,4,40.7,8.1l26.1,7.8l-17.1-21.2c-32.2-39.8-64.6-69.9-69.8-104.7
		c-2.6-17.4,0.9-36.8,15.3-61.4c2-3.3,4.1-6.8,6.5-10.3c7.9-2.3,15.8-4.9,23.6-7.9c27.1,24.1,78,4.1,50.8-27.4
		c58.7-14.5,105.9-59.6,26.9-95.2c46.6-36.1,17.4-90.4-40.3-88.2C389.7,28.6,369.7,15.9,348.9,15.6L348.9,15.6z M360.2,81.1
		c-42.6,32.7-49,37.2-53.5,65.8c0.3,3.5,0.6,7,1.1,10.1c3.2,19.3,10.2,32.6,21.4,39.9c11.2,7.2,24.8,7.6,38.8,5.3
		c3.9-0.6,7.9-1.4,11.9-2.4c-26.8,26.3-45.6,49.4-57.7,70.3c-15.8,27-20.6,50.8-17.4,72.4c5.3,35.6,30.6,63.3,56.9,93.6
		c-6.3-1.1-12.6-2.1-18.2-2.8c-8.9-1-16.1-1.5-22.2-1c-15.8-23.4-27.1-46.8-28.4-64l-16.9,1.2c2.2,30.8,24,66.2,49.8,97.6
		c-12.4-3.3-23.6-5.7-33.7-6.1c-13.7-0.6-26.4,3.2-35.8,12.2c-9.7-7.2-22.6-9.4-36.5-9c-11.2,0.3-23.9,2.2-37.4,4.4
		c44.1-49.2,105-137.4,104-226.4l-16.9,0.2c0.8,73.7-47.8,152-88.2,201.3c-11.9-3.4-25.7-3.4-44.1-2.6c60.2-47,99.9-99.6,106-149.8
		c3.4-28.1-4.5-55.4-25.1-78c-16.1-17.7-39.9-32.5-71.6-44.1c7.6-1.9,15-4.4,21.5-9.2c6.7-5,11.3-13.4,12.1-23.9
		c4.8,6,9.4,10.2,15.8,12c4,1.1,8.9,0.4,12.4-1.8c1.2-0.8,2.1-1.7,3-2.6c1,13.4,2.2,26.1,5,35.5c1.3,4.4,2.8,8.5,6.9,11.9
		c4.1,3.4,11.5,3.4,16,0.8c3-1.7,5.6-4.2,8.3-7.1c0.5,5.7,1.8,10.5,4.1,14.6c1.4,2.5,3.5,5,6.6,6.5c3.1,1.5,6.7,1.5,9.6,0.7
		c5.7-1.6,9.4-5.4,13.3-10.1c8.4-10.2,17.2-27.2,25.4-49.5c-1.6-26.6-3.5-39.1-35.5-58.8C296,101.3,318.6,108.8,360.2,81.1
		L360.2,81.1z"/>
</g>
</svg>
