<?xml version="1.0" encoding="utf-8"?>
<!-- Generator: Adobe Illustrator 26.2.1, SVG Export Plug-In . SVG Version: 6.00 Build 0)  -->
<svg version="1.1" id="Слой_1" xmlns="http://www.w3.org/2000/svg" xmlns:xlink="http://www.w3.org/1999/xlink" x="0px" y="0px"
	 viewBox="0 0 512 512" style="enable-background:new 0 0 512 512;" xml:space="preserve">
<style type="text/css">
	.st0{fill:#FFC0FF;stroke:#000000;stroke-width:4;stroke-miterlimit:10;}
	.st1{fill:#FFC0FF;}
	.st2{fill:#C090C0;stroke:#000000;stroke-width:4;stroke-miterlimit:10;}
</style>
<g transform="translate(0,0)">
	<path class="st0" d="M320.1,19.7c-72.3,14.6-19.2,71.7-74.3,108.8c4.8-0.5,9.7-0.7,14.7-0.6c16.3,0.3,32.8,3.7,48.6,10.7
		c5,2.2,9.7,4.7,14.2,7.4C335.3,98.6,286.1,49.7,320.1,19.7L320.1,19.7z M136.8,44.5c-40.8,61.4,37,64.3,24.4,129.4
		c17.4-21.3,41.2-35.9,67.2-42.3C203.3,89.4,133.9,89.6,136.8,44.5L136.8,44.5z M434.1,119.9c-32.5,0.9-45.5,46.3-96.6,36.2
		c21.4,17.4,36,41.2,42.5,67.3c42.3-24.9,42.1-94.5,87.3-91.6C453.8,122.9,443.2,119.6,434.1,119.9L434.1,119.9z M256.1,146.5
		c-23.7,0.5-46.5,8.8-64.9,23.6l18.7,36.2L170,193.2c-3.6,5.3-6.7,10.9-9.4,16.9c-8.7,19.7-11,40.6-7.8,60.3l44.8,2.1l-34,30.3
		c10.8,20.6,28.4,37.9,51.4,48c3.1,1.4,6.2,2.6,9.3,3.6l24.5-38.2l9.1,43.8c27.3,0.1,53.7-10.4,73.6-29.2l-19.2-37.1l38.4,12.7
		c1.8-3.2,3.5-6.5,5-9.9c9.7-22,11.5-45.5,6.4-67.2l-37.6-1.8l27.7-24.7c-10.8-20.2-28.2-37.1-50.9-47.1c-1.4-0.6-2.7-1.2-4.1-1.7
		l-25.9,40.3l-9.9-47.8c-0.5,0-1,0-1.5,0C258.7,146.5,257.4,146.5,256.1,146.5L256.1,146.5z M133.4,186.5
		c-41.7,0.7-82.5,34.8-108.7,5.1c14.6,72.2,71.7,19.3,108.8,74.3c-2.2-21,0.9-42.8,10.1-63.4c2.2-4.9,4.6-9.6,7.3-14.1
		C145.1,187,139.2,186.4,133.4,186.5L133.4,186.5z M382.9,240.5c2.2,21-0.9,42.9-10,63.6l-0.2,0.4c-2.1,4.8-4.6,9.4-7.2,13.8
		c47.5,12.2,96.5-37.1,126.5-3.2C477.3,242.7,420,296.1,382.9,240.5L382.9,240.5z M136.5,283.4c-42.1,25-41.9,94.4-87.1,91.5
		c61.4,40.8,64.3-37.1,129.6-24.3C157.7,333.2,143,309.4,136.5,283.4L136.5,283.4z M355.6,332.3c-17.4,21.5-41.2,36.2-67.3,42.7
		c24.9,42.3,94.5,42,91.7,87.2C420.8,400.7,342.5,397.9,355.6,332.3L355.6,332.3z M193.4,360.7c-12,47.5,37.1,96.3,3.2,126.2
		c72.3-14.6,19.2-71.8,74.5-108.9c-21,2.2-42.9-0.9-63.6-10.1C202.6,365.8,197.9,363.4,193.4,360.7L193.4,360.7z"/>
</g>
<path class="st1" d="M-466.6-29.7"/>
<path class="st2" d="M256.1,146.5c-23.7,0.5-46.5,8.8-64.9,23.6l18.7,36.2L170,193.2c-3.6,5.3-6.7,10.9-9.4,16.9
	c-8.7,19.7-11,40.6-7.8,60.3l44.8,2.1l-34,30.3c10.8,20.6,28.4,37.9,51.4,48c3.1,1.4,6.2,2.6,9.3,3.6l24.5-38.2l9.1,43.8
	c27.3,0.1,53.7-10.4,73.6-29.2l-19.2-37.1l38.4,12.7c1.8-3.2,3.5-6.5,5-9.9c9.7-22,11.5-45.5,6.4-67.2l-37.6-1.8l27.7-24.7
	c-10.8-20.2-28.2-37.1-50.9-47.1c-1.4-0.6-2.7-1.2-4.1-1.7l-25.9,40.3l-9.9-47.8c-0.5,0-1,0-1.5,0
	C258.7,146.5,257.4,146.5,256.1,146.5L256.1,146.5z"/>
<path class="st1" d="M-135.8,111.5"/>
<path class="st1" d="M-272.2,128.7L-272.2,128.7"/>
</svg>
