<?xml version="1.0" encoding="utf-8"?>
<!-- Generator: Adobe Illustrator 26.2.1, SVG Export Plug-In . SVG Version: 6.00 Build 0)  -->
<svg version="1.1" id="Слой_2" xmlns="http://www.w3.org/2000/svg" xmlns:xlink="http://www.w3.org/1999/xlink" x="0px" y="0px"
	 viewBox="0 0 1024 1024" style="enable-background:new 0 0 1024 1024;" xml:space="preserve">
<style type="text/css">
	.st0{opacity:0.28;stroke:#000000;stroke-width:0.75;stroke-miterlimit:10;}
	.st1{fill:#FFC0FF;stroke:#000000;stroke-width:5;stroke-miterlimit:10;}
	.st2{fill:#C090C0;stroke:#000000;stroke-width:5;stroke-miterlimit:10;}
</style>
<g id="Слой_3">
	<circle class="st0" cx="505.5" cy="503.5" r="247"/>
</g>
<path class="st1" d="M1004.27,593.68c-40.77-66.18-206.51-42.54-251.01-143.79C825.5,431.5,816.5,282.5,921.88,214.84
	C840.5,205.5,719.5,358.5,642.71,290.65C670.5,182.5,569.5,55.5,595.74,5.21c-74.92,62.23-68.24,191.29-143.79,251
	C394.5,179.5,272.38,148.89,216.9,87.59c-12.4,64.91,93.6,155.91,75.81,279.17C195.5,348.5,50.5,432.5,7.27,413.73
	c7.23,51.77,206.23,69.77,251,143.8C172.5,606.5,174.5,717.5,89.65,792.58c127.85-4.08,205.22-126.06,279.17-75.81
	c-27.6,56.57,54.68,170.73,46.97,285.44c71.74-69.4,90.71-191.71,143.8-251.01c27.2,56.8,165.91,87.3,235.05,168.62
	C784.5,810.5,715.3,710.61,718.83,640.66C791.74,664.38,896.5,593.5,1004.27,593.68z M505.5,742.5c-132,0-239-107-239-239
	s107-239,239-239s239,107,239,239S637.5,742.5,505.5,742.5z"/>
<path class="st2" d="M678.87,608.78l-63.56-22.73l40.04,53.52c7.23,9.66,5.88,23.3-3.19,31.26C613,705.18,561.68,726,505.5,726
	c-0.56,0-1.12,0-1.67-0.01c-12.2-0.09-22.22-9.69-22.88-21.88l-4-74.31l-38.36,65.26c-6.02,10.23-18.88,14.13-29.57,8.98
	c-43.43-20.93-79.01-55.54-101.16-98.24c-5.19-10.01-2.47-22.3,6.57-29.04l61.18-45.62l-68.23,3.79
	c-12.73,0.71-23.64-9.1-24.18-21.84c-0.14-3.18-0.2-6.38-0.2-9.6c0-32.98,7.17-64.28,20.04-92.43c4.99-10.91,17.45-16.24,28.75-12.2
	l69.56,24.87l-44.17-59.05c-7.37-9.85-5.84-23.82,3.65-31.64c34.15-28.19,93.97-45.65,127.47-51.2
	c13.03-2.16,25.16,7.17,26.49,20.31l7.68,76.05l37.03-70.34c5.55-10.54,18.18-15.24,29.23-10.78
	c50.54,20.4,91.88,58.82,116.03,107.3c5.25,10.53,1.77,23.33-8.04,29.83l-63.75,42.25h71.84c12.55,0,22.9,10,23.15,22.55
	c0.03,1.49,0.04,2.98,0.04,4.48c0,33.25-7.29,64.79-20.36,93.11C702.62,607.51,690.16,612.82,678.87,608.78z"/>
</svg>
