<?xml version="1.0" encoding="utf-8"?>
<!-- Generator: Adobe Illustrator 26.2.1, SVG Export Plug-In . SVG Version: 6.00 Build 0)  -->
<svg version="1.1" xmlns="http://www.w3.org/2000/svg" xmlns:xlink="http://www.w3.org/1999/xlink" x="0px" y="0px"
	 viewBox="0 0 1024 1024" style="enable-background:new 0 0 1024 1024;" xml:space="preserve">
<style type="text/css">
	.st0{fill:#C05050;stroke:#000000;stroke-width:5;stroke-miterlimit:10;}
</style>
<g id="Слой_2">
	<path class="st0" d="M972.8,976.2C660.47,831.78,325.4,686.35,260.11,552.89c19.91-34.73,41.34-67.12,64.31-97.13
		c57.32,67.01,215.34,150.04,363.97,231.58c-80.64-150.39-160.53-292.39-234.16-362.99c29.95-23.08,61.69-43.38,95.27-60.85
		C694.11,375.57,833.73,666.07,972.8,976.2z"/>
	<path class="st0" d="M638.82,637.18c-128.31-75.54-265.34-152.96-298.98-208.02c17.17-40.57,48.02-70.48,90.96-90.96
		C493.19,390.37,565.46,510.06,638.82,637.18z"/>
	<path class="st0" d="M341.79,275.43l-70.38,67.65c-2.4,2.31-6.19,2.31-8.59,0L91.55,178.45c-0.08-0.08-0.17-0.16-0.26-0.24l0,0
		c-2.75-2.36-2.9-6.55-0.33-9.11l69.46-69.02c2.5-2.49,6.57-2.39,8.95,0.22l3.2,3.5c0.09,0.1,0.18,0.19,0.28,0.29l168.94,162.39
		C344.33,268.93,344.33,272.99,341.79,275.43z"/>
	<path class="st0" d="M77.15,166.48c-40.8-0.95-74.01-34-74.64-75.33c-0.63-41.03,31.81-75.61,72.8-77.56
		c43.06-2.05,79.14,31.72,80.17,74.58C155.5,88.86,77.15,166.48,77.15,166.48z"/>
	<path class="st0" d="M92.57,175.34"/>
</g>
<g id="Слой_3">
	<path class="st0" d="M164.5,646.5c7-279,304-493,479-479c10.67,37.45-0.29,69.04-32,95c-28.53-13.73-59.81-14.59-94.5,0.53
		C403.11,321.9,313.38,402.86,261.03,518c-16.32,29.13-13.32,60.65,0.47,93.5C232.16,648.77,200.53,666.47,164.5,646.5z"/>
</g>
</svg>
