<?xml version="1.0" encoding="utf-8"?>
<!-- Generator: Adobe Illustrator 26.2.1, SVG Export Plug-In . SVG Version: 6.00 Build 0)  -->
<svg version="1.1" id="Слой_1" xmlns="http://www.w3.org/2000/svg" xmlns:xlink="http://www.w3.org/1999/xlink" x="0px" y="0px"
	 viewBox="0 0 512 512" style="enable-background:new 0 0 512 512;" xml:space="preserve">
<style type="text/css">
	.st0{fill:#C05050;stroke:#000000;stroke-width:4;stroke-miterlimit:10;}
</style>
<g transform="translate(0,0)">
	<path class="st0" d="M43.5,15.8c-15.7,0-28.3,12.6-28.3,28.3c0,14.1,10.1,25.6,23.5,27.9l4-4l26.1-26.1l2.6-2.6
		C69.2,25.9,57.6,15.8,43.5,15.8z M77.2,59.9l-17,17c15.9,39.4,43.4,66.7,78.8,87.4c8.2-8.6,16.6-16.9,25.4-24.9
		C141.9,104.2,112.9,77.1,77.2,59.9z M322.6,79l-51.2,4.3C192,131.5,127.5,191.4,84.6,269.9l-4.3,51.5l44.2-18.7l-2.9-34.1l-0.2-3.1
		l1.6-2.6c35.9-58.5,79.9-109.4,141.5-141.2l2.4-1.2l2.7,0.2l34.1,2.9L322.6,79L322.6,79z M260.2,145.4c-10,5.9-19.5,12.3-28.6,19.3
		c46.7,47.9,87.2,108.6,114.7,166.5l11.2,23.7l-23.7-11.3c-58-27.6-117.9-67.6-165.7-113.9c-7.2,9.4-14,19.2-20.6,29.3
		c101.9,94.9,227.1,177.3,347.8,234.7C438.3,373.6,355.3,247.5,260.2,145.4L260.2,145.4z M217.1,176.6
		c-13.4,11.7-25.7,24.6-37.3,38.4c39.4,38.5,88.1,72.8,136.7,98.8C290.5,265.3,255.8,216.1,217.1,176.6z"/>
</g>
</svg>
