<?xml version="1.0" encoding="utf-8"?>
<!-- Generator: Adobe Illustrator 26.2.1, SVG Export Plug-In . SVG Version: 6.00 Build 0)  -->
<svg version="1.1" id="Слой_1" xmlns="http://www.w3.org/2000/svg" xmlns:xlink="http://www.w3.org/1999/xlink" x="0px" y="0px"
	 viewBox="0 0 512 512" style="enable-background:new 0 0 512 512;" xml:space="preserve">
<style type="text/css">
	.st0{fill:#9F6409;stroke:#000000;stroke-width:4;stroke-miterlimit:10;}
</style>
<g transform="translate(0,0)">
	<path class="st0" d="M179.3,38.9c-24.6,38.8-36.6,100.8-10.9,147l-16.3,9.2c-6.7-11.9-11.2-24.4-13.9-37.2
		c-34.5-6.3-69.4-7.5-105-2.1c34.1,10.1,52.8,23.7,76.7,46.7c-26.8,9.7-60.2,30.2-92.9,70.2c35.5-8.8,64.8-11.5,89.4-6.3
		c-36.9,22.5-64.1,56.1-88.3,114.1C54,363.3,82.9,361.7,121,361.7c-23.1,32.7-35.3,77.2-36.3,112.8c24.5-26,57.6-60.2,87.2-79
		c3,29.9,15,58.3,35.9,85.3c-0.2-43.9,10.3-88.3,31.6-133.4c-18.8,9-32.4,18.1-49.9,29.3c6.2-27.9,12.4-55.8,18.7-83.7
		c-23.3,2.4-39,10-60.5,18.5c16.3-33.1,32.7-66.1,49.1-99.2l16.8,8.3L185.2,278c18.4-4.4,28.7-4.1,45.7-1.3
		c-4.5,20.4-9,40.7-13.6,61c65.3-36.2,148.3-45.9,226.7-50c7.6-12.9,13.8-24.2,18.8-34.8l-6.3-24.4l-24.4,30.8l-7.8-27.5L401.8,261
		l-7.5-26.1l-23.9,31.5l-7.7-28.2l-23.8,31.4l1.2-41.1l22.6-42.7l7.6,28.3l23.9-31.5l7.6,28.2l23.5-30l6.5,26.9l24.5-30.8l7.8,27.5
		l24.6-32c2.3-10.8,4.6-22.4,7.4-35.7c-55.5-3.7-106.3,4.8-154,9.8c-38-20.8-80.8-26.8-121.9-18.5C206.6,98.3,193,68.6,179.3,38.9
		L179.3,38.9z M325.5,158.3c-4.5,14.2-13,18.3-24.7,20.6c-16.1-4.4-28.3-15.5-34.4-30.2C286.8,144.9,308.8,152.1,325.5,158.3
		L325.5,158.3z"/>
</g>
</svg>
