<?xml version="1.0" encoding="utf-8"?>
<!-- Generator: Adobe Illustrator 26.2.1, SVG Export Plug-In . SVG Version: 6.00 Build 0)  -->
<svg version="1.1" xmlns="http://www.w3.org/2000/svg" xmlns:xlink="http://www.w3.org/1999/xlink" x="0px" y="0px"
	 viewBox="0 0 1024 1024" style="enable-background:new 0 0 1024 1024;" xml:space="preserve">
<style type="text/css">
	.st0{fill:#F9967F;stroke:#000000;stroke-width:5;stroke-miterlimit:10;}
	.st1{fill:none;stroke:#000000;stroke-width:15;stroke-miterlimit:10;}
	.st2{fill:none;stroke:#000000;stroke-width:5;stroke-miterlimit:10;}
</style>
<g id="Слой_2_00000157267638499552908180000007158426314262528447_">
	<path class="st0" d="M223.5,794.46C97.6,760.13,53.42,588.17,39.5,533.99C26.16,482.05,8.55,413.53,21.26,341.71
		c3.38-19.11,8.91-38.45,17.24-57.78c16.53-38.38,41.91-71.62,73.52-99.89c64.57-57.76,155.13-94.8,249.4-112.71
		c72.56-13.79,147.31-16.25,214.08-8.09c7.33,0.89,14.72,1.94,22.16,3.12c124.18,19.8,261.1,79.82,344.34,167.57
		c40.1,42.27,67.74,90.98,75.5,144.72c11.16,77.39-13.73,201.14-102,229.22c-50.94,16.2-79.44-29.82-134.61-48.44
		c-13.34-4.5-28.24-7.41-45.39-7.44c-14.85-0.03-28.22,2.05-40.63,5.88C609.12,584.28,568.95,693.76,399.5,763.2
		C336.39,789.07,283.39,810.79,223.5,794.46z"/>
	<path class="st0" d="M641.36,587.96L426.5,856.97c0,0-18,0.95-30-8.52s-12-27.47-12-27.47l64.95-82.8"/>
	<path class="st1" d="M690.99,552.95c-44.63,21.69-88.63,42.55-131.22,61.55c-17.66,7.89-35.09,15.46-52.22,22.64
		c-149.86,62.83-276.97,95.86-344.3,50.59c-78.51-81.07-34.78-193.39,83.8-199.68"/>
	<path class="st1" d="M287.68,598.89c124.82-218.35,225.25,37.58,225.25,37.58"/>
	<path class="st1" d="M586.03,343.9c148,37.89,109,196.07-35.03,274.7"/>
	<path class="st1" d="M819,424.69c-47.84,6.74-85.21,65.95-43.71,126.72"/>
	<path class="st1" d="M715.88,244.15c-79,164.81,172,164.81,221.5-10.22"/>
	<path class="st1" d="M544.43,493.02c0,0-204.84-171.16,29.62-210.84s29.62-210.84,29.62-210.84"/>
	<path class="st1" d="M538.5,211.95c-103.01,21.89-159-29.36-177.08-140.61"/>
	<path class="st1" d="M293.79,193.21C565.61,378.63,58.61,551.97,27.37,349.27"/>
	<path class="st1" d="M251.29,313.58c-84.82,35.96-135.47,2.8-139.27-125.13"/>
	<line class="st2" x1="931.52" y1="230.24" x2="938.44" y2="234.92"/>
	<line class="st2" x1="600.99" y1="75.82" x2="588.74" y2="65.56"/>
	<line class="st2" x1="605.24" y1="74.44" x2="597.33" y2="68.21"/>
	<line class="st2" x1="608.21" y1="73.85" x2="603.26" y2="69.3"/>
	<line class="st2" x1="599.01" y1="70.69" x2="596.04" y2="67.91"/>
	<line class="st2" x1="117.16" y1="193.21" x2="116.98" y2="179.69"/>
	<line class="st2" x1="112.02" y1="194.51" x2="113.41" y2="185.01"/>
	<line class="st2" x1="32.7" y1="350.9" x2="26.77" y2="327.19"/>
	<line class="st2" x1="27.37" y1="353.67" x2="25.05" y2="330.07"/>
	<line class="st2" x1="24" y1="352.88" x2="23.21" y2="341.87"/>
	<line class="st2" x1="29.74" y1="353.54" x2="29.14" y2="343.25"/>
	<line class="st2" x1="27.37" y1="330.99" x2="25.72" y2="321.21"/>
</g>
<g id="Слой_3">
	<line class="st2" x1="773.54" y1="548.78" x2="783.21" y2="560.24"/>
	<line class="st2" x1="778.38" y1="547.38" x2="786.68" y2="561.52"/>
	<line class="st2" x1="770.51" y1="546.99" x2="774.07" y2="554.51"/>
	<path class="st2" d="M718.29,551.41c-6.66-5.96-16.21-7.99-31.76-2.05"/>
	<line class="st2" x1="686.53" y1="557.27" x2="700.09" y2="554.45"/>
	<line class="st2" x1="686.53" y1="551.41" x2="697.71" y2="554.45"/>
	<line class="st2" x1="698.24" y1="550.75" x2="703.91" y2="554.45"/>
	<line class="st2" x1="692.12" y1="549.63" x2="708" y2="549.89"/>
	<line class="st2" x1="708" y1="547.91" x2="709.71" y2="550.75"/>
	<line class="st2" x1="701.54" y1="554.45" x2="712.22" y2="550.75"/>
	<line class="st2" x1="710.51" y1="552.6" x2="714.59" y2="550.75"/>
</g>
</svg>
