<?xml version="1.0" encoding="utf-8"?>
<!-- Generator: Adobe Illustrator 26.2.1, SVG Export Plug-In . SVG Version: 6.00 Build 0)  -->
<svg version="1.1" xmlns="http://www.w3.org/2000/svg" xmlns:xlink="http://www.w3.org/1999/xlink" x="0px" y="0px"
	 viewBox="0 0 1024 1024" style="enable-background:new 0 0 1024 1024;" xml:space="preserve">
<style type="text/css">
	.st0{opacity:0.76;fill:#333333;}
	.st1{fill:#E6BE44;stroke:#000000;stroke-width:5;stroke-miterlimit:10;}
</style>
<g id="Слой_3">
	<polygon class="st0" points="409,853.52 409,871 386.74,871 	"/>
	<polygon class="st0" points="641.73,215.57 635.06,226.06 594.64,185.64 	"/>
	<polygon class="st0" points="594.64,185.64 563.88,166.08 569.48,160.48 	"/>
	<path class="st0" d="M893.39,411.39l-48.69,48.69l-48.39-48.39L665.2,542.8L523.68,401.28L409,581.69v194.26l101.06-79.36
		l37.68,47.97L409,853.52L386.74,871H151v-96.25c-10.37-8.35-17-21.15-17-35.5V603.76l-0.45,1.11L38.74,566.4l9.98-24.6
		c16.71-41.18,60.26-63.4,102.28-54.66V338h107.19l139.2-218.99c14.69-23.11,45.34-29.94,68.45-15.24l98.04,62.31l30.76,19.56
		L733.5,324.5L770,288L893.39,411.39z"/>
	<polygon class="st0" points="386.74,871 384.94,872.41 383.83,871 	"/>
	<polygon class="st0" points="713.89,296.11 709.72,300.72 659.45,250.45 661.27,248.44 	"/>
</g>
<g id="Слой_2">
	<path class="st1" d="M497.61,46c-55.54,37.57-109.69,67.45-168.58,92.89c-5.83,35.58-8.09,70.68-8.3,105.69
		c59.24,31.57,114.94,67.31,170.74,101.7l14.43,8.9l-7.03,15.33c-24.83,54.45-49.85,96.48-94.75,144.04l-10.62,11.29l-13.24-8
		c-67.56-40.93-152.59-79.34-232.3-110.54l13.99-35.6c75.38,29.51,153.9,66.22,221.6,105.53c31.55-35.24,51.89-68.34,71.13-108.37
		C365.67,313.74,278.2,259.23,178.7,224.15c-47.15,41.71-77.26,92.7-106.43,144.94c17.06,52.24,13.51,109.37-13.51,158.71
		c99.54-1.22,200.79,4.57,308.71,21.02l11.59,1.71l3.66,11.15c18.13,54.22,24.16,111.48,17.06,171.27l-2.02,17.28l-17.35-0.38
		c-83-1.77-164.28-4.38-242.13,0.48c3.35,32.66-4.73,63.46-15.83,92.25c27.51,58.48,56.1,114.33,98.94,162.67
		c84.56-39.03,150.73-64.11,237.54-87.8c-6.98-28.11-14.17-54.01-22.74-68.89c-10.49-18.24-20.91-26.75-36.57-31.26
		c-31.32-9.02-91.25,4.7-190.34,39.86l-12.79-36.05c100.21-35.56,163.31-55.1,213.67-40.61c18.71,5.38,34.59,16.4,47.26,31.68
		c29.68-15.63,58.22-34.4,86.17-55.31c25.28-94.09,76.41-166.83,136.51-229.7c-14.81-27.7-27.06-55.74-42.13-83.21l-6.95-12.64
		l10.24-10.17c47.69-47.39,97-82.28,147.26-107.54l17.2,34.25c-42.93,21.58-85.04,53.09-126.62,92.51
		c25.43,48.99,45.62,93.23,80.85,132.83c76.81-55.58,153.56-105.3,239.4-153.55c-28.6-62.44-64.22-119.57-115.33-162.81
		c-65.98,27.42-128.12,35.63-189.75,25.18c-29.14,27.15-61.66,45.55-99.9,47.82c-59.45,3.53-124.45-32.25-203.2-118.17l14.05-12.9
		l0.03-0.06l0.01,0.01l14.1-12.94c75.2,82.05,130.6,108.33,172.77,105.83c37.93-2.25,71.78-30.63,105.9-72.55
		C638.98,153.89,566.55,96.25,497.61,46L497.61,46z M79.23,567.65c-12.42,0.05-24.8,0.2-37.17,0.46
		c3.43,53.86,11.29,105.09,28.79,151.07c94.01-11.92,191.18-10.16,289.21-7.93c3.11-43.58-0.52-85.42-12.41-125.42
		C254.37,572.38,166.13,567.33,79.23,567.65z"/>
</g>
</svg>
