<?xml version="1.0" encoding="utf-8"?>
<!-- Generator: Adobe Illustrator 26.2.1, SVG Export Plug-In . SVG Version: 6.00 Build 0)  -->
<svg version="1.1" id="Слой_1" xmlns="http://www.w3.org/2000/svg" xmlns:xlink="http://www.w3.org/1999/xlink" x="0px" y="0px"
	 viewBox="0 0 512 512" style="enable-background:new 0 0 512 512;" xml:space="preserve">
<style type="text/css">
	.st0{fill:#E6BE44;stroke:#000000;stroke-width:4;stroke-miterlimit:10;}
</style>
<g transform="translate(0,0)">
	<path class="st0" d="M243.5,23.3c-27.1,18.3-53.5,32.9-82.3,45.3c-2.8,17.4-3.9,34.5-4.1,51.6c28.9,15.4,56.1,32.9,83.3,49.6l7,4.3
		l-3.4,7.5c-12.1,26.6-24.3,47.1-46.2,70.3l-5.2,5.5l-6.5-3.9c-33-20-74.5-38.7-113.4-53.9l6.8-17.4c36.8,14.4,75.1,32.3,108.2,51.5
		c15.4-17.2,25.3-33.4,34.7-52.9c-43.4-26.9-86.1-53.5-134.7-70.6c-23,20.4-37.7,45.2-51.9,70.7c8.3,25.5,6.6,53.4-6.6,77.5
		c48.6-0.6,98,2.2,150.7,10.3l5.7,0.8l1.8,5.4c8.9,26.5,11.8,54.4,8.3,83.6l-1,8.4l-8.5-0.2c-40.5-0.9-80.2-2.1-118.2,0.2
		c1.6,15.9-2.3,31-7.7,45c13.4,28.5,27.4,55.8,48.3,79.4c41.3-19,73.6-31.3,115.9-42.9c-3.4-13.7-6.9-26.4-11.1-33.6
		c-5.1-8.9-10.2-13.1-17.9-15.3c-15.3-4.4-44.5,2.3-92.9,19.5l-6.2-17.6c48.9-17.4,79.7-26.9,104.3-19.8c9.1,2.6,16.9,8,23.1,15.5
		c14.5-7.6,28.4-16.8,42.1-27c12.3-45.9,37.3-81.4,66.6-112.1c-7.2-13.5-13.2-27.2-20.6-40.6l-3.4-6.2l5-5
		c23.3-23.1,47.3-40.2,71.9-52.5l8.4,16.7c-21,10.5-41.5,25.9-61.8,45.2c12.4,23.9,22.3,45.5,39.5,64.8
		c37.5-27.1,74.9-51.4,116.8-74.9c-14-30.5-31.3-58.4-56.3-79.5c-32.2,13.4-62.5,17.4-92.6,12.3c-14.2,13.2-30.1,22.2-48.8,23.3
		c-29,1.7-60.7-15.7-99.2-57.7l6.9-6.3l0,0l0,0l6.9-6.3c36.7,40,63.7,52.9,84.3,51.7c18.5-1.1,35-14.9,51.7-35.4
		C312.5,75.9,277.2,47.8,243.5,23.3L243.5,23.3z M39.3,277.9c-6.1,0-12.1,0.1-18.1,0.2c1.7,26.3,5.5,51.3,14.1,73.7
		c45.9-5.8,93.3-5,141.1-3.9c1.5-21.3-0.3-41.7-6.1-61.2C124.8,280.2,81.7,277.7,39.3,277.9z"/>
</g>
</svg>
