<?xml version="1.0" encoding="utf-8"?>
<!-- Generator: Adobe Illustrator 26.2.1, SVG Export Plug-In . SVG Version: 6.00 Build 0)  -->
<svg version="1.1" xmlns="http://www.w3.org/2000/svg" xmlns:xlink="http://www.w3.org/1999/xlink" x="0px" y="0px"
	 viewBox="0 0 1024 1024" style="enable-background:new 0 0 1024 1024;" xml:space="preserve">
<style type="text/css">
	.st0{fill:#3A4000;stroke:#000000;stroke-width:5;stroke-miterlimit:10;}
</style>
<g id="Слой_2">
	<path class="st0" d="M526.75,62h-32.5C326.22,62,190,198.22,190,366.25v1.03c0,42.61,23.92,81.6,61.88,100.93
		c4.88,2.48,9.61,5.11,14.17,7.94c33.08,20.54,52.95,56.94,52.95,95.87V702h383V575.3c0-35.68,16.65-69.49,45.37-90.66
		c7.39-5.45,15.32-10.37,23.66-14.91c36.75-19.98,59.97-58.1,59.97-99.93v-3.55C831,198.22,694.78,62,526.75,62z M413.61,508.51
		c-111.2-7.92-159.47-64.33-143.47-170.26c-0.64-16.3,14.93-25.22,54.95-23.02c19.73,1.09,36.96,14.06,42.5,32.6
		c10.05,33.62,35.05,57.65,77.54,70.48c29,8.76,39.76,43.66,19.76,65.75c-5.46,6.04-12.34,11.56-20.31,16.69
		C435.45,506.62,424.54,509.29,413.61,508.51z M530.78,638.15c-7.99,7.65-18.84,12.35-30.78,12.35c-11.59,0-22.14-4.43-30.05-11.68
		c-8.52-7.8-13.99-18.89-14.42-31.25l17.62-37.06l25.59-53.81l26.47,52.63l19.26,38.28C544.04,619.61,538.87,630.39,530.78,638.15z
		 M602.11,496.17c-11.39-0.65-22.28-4.96-30.92-12.4c-7.54-6.5-13.9-13.27-18.74-20.4c-17.71-26.07-2.01-61.53,29.05-66.87
		c45.5-7.82,74.45-29.86,89.25-64.05c8.15-18.86,27.64-30.25,48.12-28.73c41.56,3.09,56.44,14.63,53.63,31.78
		C775.02,449.71,717.81,502.84,602.11,496.17z"/>
	<path class="st0" d="M346.94,720.71L346.94,720.71c-13.31-3.46-27.03,4.6-30.49,17.91l-6.29,24.2
		c-3.46,13.31,4.6,27.03,17.91,30.49h0c13.31,3.46,27.03-4.6,30.49-17.91l6.29-24.2C368.3,737.88,360.24,724.17,346.94,720.71z"/>
	<path class="st0" d="M424.58,731.12L424.58,731.12c-13.54-2.4-26.58,6.71-28.99,20.24l-5.42,30.52
		c-2.4,13.54,6.71,26.58,20.24,28.99h0c13.54,2.4,26.58-6.71,28.99-20.24l5.42-30.52C447.23,746.57,438.12,733.53,424.58,731.12z"/>
	<path class="st0" d="M500.5,723.5L500.5,723.5c-13.75,0-25,11.25-25,25v31c0,13.75,11.25,25,25,25h0c13.75,0,25-11.25,25-25v-31
		C525.5,734.75,514.25,723.5,500.5,723.5z"/>
	<path class="st0" d="M581.56,730.63L581.56,730.63c-13.7,1.21-23.92,13.4-22.71,27.1l1.49,16.93c1.21,13.7,13.4,23.92,27.1,22.71h0
		c13.7-1.21,23.92-13.4,22.71-27.1l-1.49-16.93C607.45,739.64,595.26,729.42,581.56,730.63z"/>
	<path class="st0" d="M664.43,736.99L664.43,736.99c-13.57,2.23-22.85,15.15-20.62,28.72l4.05,24.67
		c2.23,13.57,15.15,22.85,28.72,20.62h0c13.57-2.23,22.85-15.15,20.62-28.72l-4.05-24.67C690.92,744.05,678,734.77,664.43,736.99z"
		/>
	<path class="st0" d="M1000.5,807.36c0,97.83-220.05,177.14-491.5,177.14S17.5,905.19,17.5,807.36c0-39.47,35.82-75.92,96.38-105.36
		c-14.51,15.28-22.38,31.67-22.38,48.72c0,83.1,186.92,150.47,417.5,150.47s417.5-67.37,417.5-150.47
		c0-17.05-7.87-33.44-22.38-48.72C964.68,731.44,1000.5,767.89,1000.5,807.36z"/>
</g>
<g id="Слой_3">
</g>
</svg>
