<?xml version="1.0" encoding="utf-8"?>
<!-- Generator: Adobe Illustrator 26.2.1, SVG Export Plug-In . SVG Version: 6.00 Build 0)  -->
<svg version="1.1" id="Слой_1" xmlns="http://www.w3.org/2000/svg" xmlns:xlink="http://www.w3.org/1999/xlink" x="0px" y="0px"
	 viewBox="0 0 512 512" style="enable-background:new 0 0 512 512;" xml:space="preserve">
<style type="text/css">
	.st0{fill:#3A4000;stroke:#000000;stroke-width:4;stroke-miterlimit:10;}
</style>
<g transform="translate(0,0)">
	<path class="st0" d="M254.6,20.1c-59.6,0-99.1,26.4-125.2,65.8c-25.1,37.9-36.7,88.1-37.6,136.7c35.1,17.2,56,35.3,65.1,54.4
		c8,16.9,5,34.4-5,48c22,20,59.5,32.4,98.1,33c38.9,0.6,77.9-10.4,102.9-33.2c-5-6-8.8-12.4-10.6-19.4c-2.5-9.8-0.8-20.5,4.7-30.1
		c10.5-18.4,33.3-34.8,70.4-52.7c-0.9-46-12.3-96.2-37.2-134.7C354.1,47.7,314.6,20.1,254.6,20.1L254.6,20.1z M178.8,146
		c46.2,10.9,95,10.7,145.8,0.2C298.7,183.8,200.7,183.9,178.8,146L178.8,146z M158.5,159.6c7.7,30.4,30.6,47.8,73.3,46l-1.1,33.6
		c-39.4,20.1-72.6,2-103.7-19h0C122.2,189.5,126.8,165.4,158.5,159.6L158.5,159.6z M345.2,159.6c31.7,5.8,36.3,30,31.5,60.5h0
		c-31.1,21-64.3,39.2-103.7,19l-1.1-33.6C314.6,207.3,337.5,190,345.2,159.6L345.2,159.6z M251,252.2c12.1,21.8,21.7,43.6,26.5,65.5
		c-13,9.7-36.3,11.1-52.9,0C230.9,295.8,238.7,274,251,252.2L251,252.2z M100.4,353.1c-50.2,13.6-82.6,33.8-82.6,56.2
		c0,41,106.5,74.4,237.7,74.4s237.7-33.3,237.7-74.4c0-22.3-32.1-42.6-82-56.2c17.2,8.9,27.5,19.2,27.5,30.4
		c0,32.1-82.3,58.5-183.2,58.5S72.9,415.7,72.9,383.6C72.9,372.3,83,362,100.4,353.1L100.4,353.1L100.4,353.1z M162.9,355.7
		L148,379.2c6.6,5.3,14.3,10,22.9,14l10.9-28.8C175.2,361.8,168.9,359,162.9,355.7L162.9,355.7z M340.5,356.3
		c-5.8,3.1-11.8,5.9-18,8.3l10.7,28.5c8-3.6,15.6-7.8,22.7-12.7L340.5,356.3L340.5,356.3z M199.6,369.9l-11.3,30
		c9.5,3.1,19.7,5.5,30.3,7.1l3.9-32.5C214.7,373.4,207,371.9,199.6,369.9L199.6,369.9z M304.7,370.2c-7.5,2-15.1,3.4-22.9,4.5
		l3.8,32.1c10.3-1.6,20.4-4,30.1-7.1L304.7,370.2L304.7,370.2z M241,376.3l-3.9,32.7c9.9,0.6,19.9,0.6,29.9-0.1l-3.9-32.5
		c-4.5,0.2-9,0.3-13.6,0.2C246.8,376.6,243.9,376.4,241,376.3L241,376.3z"/>
</g>
</svg>
