<?xml version="1.0" encoding="utf-8"?>
<!-- Generator: Adobe Illustrator 26.2.1, SVG Export Plug-In . SVG Version: 6.00 Build 0)  -->
<svg version="1.1" id="Слой_1" xmlns="http://www.w3.org/2000/svg" xmlns:xlink="http://www.w3.org/1999/xlink" x="0px" y="0px"
	 viewBox="0 0 512 512" style="enable-background:new 0 0 512 512;" xml:space="preserve">
<style type="text/css">
	.st0{fill:#809D80;stroke:#000000;stroke-width:4;stroke-miterlimit:10;}
	.st1{fill:#607660;stroke:#000000;stroke-width:4;stroke-miterlimit:10;}
</style>
<g transform="translate(0,0)">
	<path class="st0" d="M170.4,18.6c-1.2,0-2.3,0-3.5,0c-25.2,0.4-49.1,5.1-68.8,13.9c84.1,7.9,157,61.8,119.3,122.5
		c-2,3.3-4,6.4-6,9.6l0.5,0.2c-0.9,2.4-0.6,5.2,2.3,9.5c2.9,4.3,8.3,9.2,14.8,13c6.4,3.8,13.8,6.4,20.3,7.2c6,0.8,10.8-0.1,14-1.9
		c1.7-2.7,3.4-5.4,5.2-8.2c21.7-8.6,57.9,11.5,65.2,29.2c1.3-14.2,6.5-29.9,15.3-45.2c6.7-11.6,14.6-21.5,23.2-29.2
		c-20.3,7.3-30-6.8-38.6-34.2c-8.2-26.4-36.4-47.4-58.2-59.8C244.1,27.4,206.2,18.6,170.4,18.6L170.4,18.6z M409.4,140.5
		c-4,0-9.3,1.6-15.6,5.6c-9.6,6.1-20.3,17.3-28.7,31.8c-8.4,14.5-12.7,29.4-13.2,40.8c-0.5,11.4,2.7,17.9,6.7,20.2
		c4,2.3,11.2,1.8,20.8-4.3c9.6-6.1,20.3-17.3,28.7-31.8s12.7-29.4,13.2-40.8c0.5-11.4-2.7-17.9-6.7-20.2c-1-0.6-2.2-1-3.6-1.2
		C410.5,140.6,410,140.5,409.4,140.5L409.4,140.5z M198.6,184.8C80.9,367.2,4.3,418.8,21.9,462.9c8.1,20.2,31.5,36.4,55.2,28.8
		c49.3-15.7,60-94,173.1-278.1c-1.1-0.1-2.3-0.2-3.4-0.3c-9.5-1.2-18.9-4.8-27.3-9.7C211.1,198.6,203.7,192.4,198.6,184.8
		C198.6,184.9,198.6,184.8,198.6,184.8L198.6,184.8z M492,257l-110.4,22.4l51.3,15.5l31.5,148.9l18.3-3.8l-31.5-148.8L492,257z
		 M291.9,272.8l-80,79.4l51.4-15.2l68.1,67.6l-23.1,84.9l18.1,4.9l20.3-74.7l24.7,24.5l13.2-13.2l-32.2-32l14-51.5l52.1-12.6
		l-109-28.8l38.8,36.6L337,383.9l-60.5-60L291.9,272.8L291.9,272.8z"/>
</g>
<polygon class="st1" points="492,257 381.5,279.4 432.8,294.9 464.3,443.9 482.6,440 451.1,291.2 "/>
<polyline class="st1" points="211.8,352.2 263.3,337 331.4,404.6 308.2,489.5 326.3,494.4 346.6,419.8 371.3,444.2 384.5,431 
	352.3,399 366.3,347.5 418.4,335 309.4,306.2 348.2,342.8 337,383.9 276.5,323.9 291.8,272.8 291.8,272.8 211.8,352.2 "/>
</svg>
