<?xml version="1.0" encoding="utf-8"?>
<!-- Generator: Adobe Illustrator 26.2.1, SVG Export Plug-In . SVG Version: 6.00 Build 0)  -->
<svg version="1.1" xmlns="http://www.w3.org/2000/svg" xmlns:xlink="http://www.w3.org/1999/xlink" x="0px" y="0px"
	 viewBox="0 0 1024 1024" style="enable-background:new 0 0 1024 1024;" xml:space="preserve">
<style type="text/css">
	.st0{fill:#809D80;stroke:#000000;stroke-width:5;stroke-miterlimit:10;}
	.st1{fill:#5E745E;stroke:#000000;stroke-width:5;stroke-miterlimit:10;}
</style>
<g id="Слой_2">
	<path class="st0" d="M735.85,304.87l-54.85,95c-4.24,7.35-13.64,9.87-20.99,5.63l-15.72-9.08l-79.47-45.88
		c-7.42-4.29-16.91-1.74-21.2,5.68l-11.12,19.26c-7.1,12.3-22.83,16.52-35.14,9.42l-58.47-33.77c-13.27-7.66-17.82-24.63-10.16-37.9
		l17.87-30.94c0,0,7.58-13.46,16.45-29.4c1.08-1.94,2.19-3.92,3.3-5.92c-5.02-29.48-17.62-56.5-39.82-80.41l-7.15-3.89L230.28,59.85
		c-7.79-4.24-6.56-15.82,1.96-18.27C268.42,31.18,307.6,25.5,348.5,25.5c160.08,0,293.69,87.02,325.04,202.83
		c1.48,5.46,5.09,10.1,9.99,12.93l41.73,24.1C739.1,273.34,743.84,291.04,735.85,304.87z"/>
	<ellipse transform="matrix(0.5 -0.866 0.866 0.5 55.9347 856.8395)" class="st0" cx="770.01" cy="379.98" rx="117.4" ry="54.89"/>
	<path class="st0" d="M497.06,441.07L241.66,907.8c-0.43,0.79-0.89,1.54-1.38,2.27C226,948.85,188.73,976.5,145,976.5
		c-56.06,0-101.5-45.44-101.5-101.5c0-28.68,11.9-54.59,31.03-73.04c0.74-1.51,1.63-2.96,2.66-4.36l312.14-421.61
		c8.65-11.68,24.67-15.02,37.27-7.77l59.62,34.31C499.72,410.29,504.53,427.42,497.06,441.07z"/>
</g>
<g id="Слой_3">
	<path class="st1" d="M976.7,548.35l-83.42,16.3c66.72,420.1,68.89,400.14-36.31,7.1l-83.42,16.3l-4.03-20.61l203.16-39.7
		L976.7,548.35z"/>
	<path class="st1" d="M782.49,700.9l-79.33-30.52c-166.73,391.33-154.28,375.57-34.53-13.29l-79.33-30.52l7.54-19.6l193.2,74.33
		L782.49,700.9z"/>
	<path class="st1" d="M598.49,580.3l-70.06,48.13c228.25,358.94,222.3,339.76-30.5,20.95l-70.06,48.13l-11.89-17.31l170.62-117.2
		L598.49,580.3z"/>
</g>
</svg>
