<?xml version="1.0" encoding="utf-8"?>
<!-- Generator: Adobe Illustrator 26.2.1, SVG Export Plug-In . SVG Version: 6.00 Build 0)  -->
<svg version="1.1" id="Слой_1" xmlns="http://www.w3.org/2000/svg" xmlns:xlink="http://www.w3.org/1999/xlink" x="0px" y="0px"
	 viewBox="0 0 512 512" style="enable-background:new 0 0 512 512;" xml:space="preserve">
<style type="text/css">
	.st0{fill:#910809;stroke:#000000;stroke-width:4;stroke-miterlimit:10;}
</style>
<g transform="translate(0,0)">
	<path class="st0" d="M87.8,30.7c-5.1,0-10.3,0.3-15.7,0.9c5.1,68.6,43.9,95.4,127.8,66.2C173.4,54.7,137.1,30.4,87.8,30.7
		L87.8,30.7z M431.7,30.7c-49.3-0.3-85.6,24-112,67.1c83.9,29.1,122.7,2.4,127.8-66.2C442,31,436.8,30.7,431.7,30.7L431.7,30.7z
		 M13.8,146.4c-0.8,4.5-1.2,9.2-1.2,13.9c0,46.1,41.2,86.7,104.1,111.1c23.5,13,31,83.9,19.7,117.2c-2.5,7.3-12.9,26.8-12.9,35.6
		c0,12,9.7,22,21.8,22c12,0,21.8-9.9,21.8-22c0-8.9-11.1-28.2-13.1-35.6c-8.8-31.9-10.4-102.9,18.2-101.2c25.4,5.1,52.8,7.9,81.4,8
		h0.1c19,1.8,24.6,30.4,15.8,56.2c-1.9,5.5-9.4,20.1-9.4,26.8c0,9.1,7.4,16.5,16.5,16.5c9.1,0,16.5-7.4,16.5-16.5
		c0-6.8-8.3-21.2-9.9-26.8c-5.9-26.5-4.6-39.7,12.8-41.7c20-2.2,29,77.4,17.3,111.7c-3.1,9.1-16,34-16,45.2
		c0,15.1,12.2,27.3,27.3,27.3c15.1,0,27.3-12.2,27.3-27.3c0-11.2-13.9-35.8-16.5-45.2c-11.1-40.2-6.9-130.3,18.5-138.1
		c0,0,0,0,0.1,0c0.4-0.1,0.8-0.2,1.2-0.3c0,0,0,0,0,0c2.3-0.6,4.5-1.2,6.8-1.8c52.2-11.8,35.9,18,56.1,18c16.3,0,5.7-34.7,31.3-59
		c29.5-22.4,46.9-50,46.9-80c0-4.7-0.4-9.3-1.2-13.9c-13.1,54.7-115.9,96.4-240.6,96.4C129.7,242.9,26.9,201.1,13.8,146.4
		L13.8,146.4z M418,341.9c-12,0-21.8,9.7-21.8,21.8s9.7,21.7,21.8,21.7s21.7-9.7,21.7-21.7C439.7,351.7,430,341.9,418,341.9z"/>
</g>
</svg>
