<?xml version="1.0" encoding="utf-8"?>
<!-- Generator: Adobe Illustrator 26.2.1, SVG Export Plug-In . SVG Version: 6.00 Build 0)  -->
<svg version="1.1" id="Слой_1" xmlns="http://www.w3.org/2000/svg" xmlns:xlink="http://www.w3.org/1999/xlink" x="0px" y="0px"
	 viewBox="0 0 512 512" style="enable-background:new 0 0 512 512;" xml:space="preserve">
<style type="text/css">
	.st0{fill:#E1FFFF;stroke:#000000;stroke-width:4;stroke-miterlimit:10;}
</style>
<g transform="translate(0,0)">
	<path class="st0" d="M238.4,26.8c-9.7,0.1-18.9,2.7-30.4,7.1l-157.3,57c-21,7.7-21.6,11.8-22.3,33.3l-7.4,234
		c-1.2,27.5-0.7,33.2,23.2,43.6L230,483.2c19.3,8.3,31.9,7.7,45.2,3.2l181.9-56.5c22-7.3,25-9.6,25.9-36.8l7.7-250.2
		c0.7-17.4-5.7-24.7-18.8-29.6L271.1,34.4C258.1,29,248.1,26.7,238.4,26.8L238.4,26.8z M239.2,51.7c23.6-0.1,45.6,8.4,87.9,24.9
		c95.5,37.1,131.7,53.8,69.7,77.9c-74,28.8-128.2,45.1-172.3,25.8l-111-48.6c-34.6-15.1-44.7-27.5,17.8-50.1
		C187,61.5,214.1,51.8,239.2,51.7L239.2,51.7z M283.9,95.5c-38.3,0.4-55.3,21.2-56.8,38.9c-0.9,10.1,2.9,19.6,12.4,26.2
		c9.5,6.6,25.4,10.6,49,5.9c35.8-7,61.5-15.1,77.5-22.8c8-3.9,13.5-7.7,16.5-10.8s3.5-4.9,3.4-6c0-1.1-0.4-2.7-3.3-5.4
		c-2.9-2.7-8-6-15.2-9.2c-14.4-6.2-36.8-11.9-65.7-15.7C295.3,95.8,289.4,95.4,283.9,95.5L283.9,95.5z M59.2,134
		c10.4-0.3,29.2,7.2,63.9,22.7c140.9,62.8,140.5,65.9,131,200.7c-7.8,109.8-8.8,109.9-128.5,59.3c-73.2-30.9-86.8-40.9-85.2-89
		l5.5-162.9C46.6,144.7,47.5,134.3,59.2,134L59.2,134z M441.2,164.9c29.2-0.4,29.1,28.1,26.8,105.2c-4.1,135.1-9,140.2-120.4,173.7
		c-70.4,21.2-81.5,25.6-79-12l11-164.2c3.2-48,7.6-51.5,94.8-83.9C405.7,172.1,426.9,165.1,441.2,164.9L441.2,164.9z M420.8,205.6
		c-0.3,0-0.7,0-1,0c-5.2,0.3-10.2,2.8-14.2,8.4c-4,5.6-6.8,14.7-5.7,27.9c1.4,17-4.5,38.1-15.2,56.9c-10.6,18.8-26.5,35.9-47.8,38.8
		c-29.1,4-42.4,23.6-43.5,42.1c-0.5,9.2,2.1,18,7.7,24.6s14.1,11.3,27.2,12c41.1,2.2,71.3-10.8,91.6-39.2
		c20.3-28.4,30.4-73.8,25.9-136.6C443.9,214.5,431,205.6,420.8,205.6L420.8,205.6z M174.5,214.4c-0.6,0-1.2,0.1-1.7,0.2
		c-2,0.5-3.7,1.5-5.7,4.8c-1.9,3.2-3.7,8.6-4.4,16.3l-0.1,0.7c-1.4,16.7-8.1,28.6-17.8,35.1c-9.7,6.5-20.8,7.8-31.1,9.1
		c-10.3,1.3-20.2,2.4-28.2,5.8c-8,3.4-14.4,8.4-19.5,19.8c-7.2,16.1-7.1,28-3.1,38.6c4,10.5,12.7,20.1,24.7,28.8
		c24,17.3,60.3,30,88.9,41.8c11.4,4.7,20.5,6.5,27.3,6.1c6.8-0.4,11.3-2.4,15.4-6.6c8.2-8.3,14.1-27.7,15-57.3
		c2-63.6-18.8-110.3-38.7-130.9C186.9,217.6,179,214.4,174.5,214.4L174.5,214.4z M358.7,221.2c-1,0-1.9,0-3,0.1
		c-35.5,2-48.5,12.9-52.5,24.1c-4,11.2,0.8,27.1,10.8,39.8c11.5,14.6,20.6,15.7,30.4,12.3c9.8-3.5,20.5-14.1,27.4-26.9
		s9.5-27.4,7.2-36.3c-1.2-4.4-3.1-7.4-6.5-9.6C369.7,222.7,365.4,221.3,358.7,221.2L358.7,221.2z"/>
</g>
</svg>
