<?xml version="1.0" encoding="utf-8"?>
<!-- Generator: Adobe Illustrator 26.2.1, SVG Export Plug-In . SVG Version: 6.00 Build 0)  -->
<svg version="1.1" id="Слой_2" xmlns="http://www.w3.org/2000/svg" xmlns:xlink="http://www.w3.org/1999/xlink" x="0px" y="0px"
	 viewBox="0 0 1024 1024" style="enable-background:new 0 0 1024 1024;" xml:space="preserve">
<style type="text/css">
	.st0{fill:#E1FFFF;stroke:#000000;stroke-width:5;stroke-miterlimit:10;}
</style>
<path class="st0" d="M464.2,37.28c-19.46,0.83-38,6.58-60.95,16.1L89.55,177.96c-41.85,16.71-42.81,25.19-43.02,68.48l-0.61,472.42
	c-0.75,55.56,0.71,66.97,49.55,86.42l379.65,152.81c39.51,15.53,64.81,13.49,91.32,3.72l363.45-125.14
	c43.82-16.05,49.91-20.95,49.93-75.89l0.19-504.95c0.27-35.07-12.94-49.46-39.69-58.59L530.52,50.47
	C504.02,40.48,483.66,36.44,464.2,37.28L464.2,37.28z M467.36,87.39c47.66-1.55,92.4,14.22,178.74,44.79
	c194.95,69.02,268.91,100.44,145.31,152.91c-147.48,62.61-255.73,98.83-345.85,62.6l-226.89-91.2
	c-70.64-28.39-91.81-52.64,32.92-102.12C362.56,110.35,416.62,89.04,467.36,87.39L467.36,87.39z M538,170.66
	c-87.85,3.59-125.42,52.52-127.7,93.33c-1.3,23.32,8.14,44.78,30.3,59.39c22.17,14.61,58.94,22.47,112.82,10.22
	c81.73-18.59,140.2-38.85,176.3-57.83c18.05-9.49,30.37-18.7,37.12-26.04c6.75-7.34,7.58-11.58,7.47-14.01
	c-0.11-2.43-1.2-6.11-7.98-12.18c-6.78-6.07-18.85-13.3-35.57-19.96c-33.44-13.31-85.2-24.7-151.94-31.51
	C564.18,170.58,550.55,170.15,538,170.66L538,170.66z M109.46,264.34c20.9-1.22,59.36,12.73,130.26,41.78
	c288.04,118,287.41,124.25,276.4,396.64c-8.98,221.93-11.02,222.07-255.45,127.41C111.26,772.32,83.11,753.1,83.43,655.97
	l1.06-328.93C84.62,286.6,85.77,265.72,109.46,264.34L109.46,264.34z M881.6,303.29c58.81-2.56,60.4,54.84,60.39,210.62
	c-0.04,272.77-9.67,283.26-232.13,357.7c-140.72,47.08-162.77,56.64-159.99-19.43L562,520.46c3.55-97.07,12.15-104.34,186.07-175.02
	C810.53,320.07,852.87,304.55,881.6,303.29L881.6,303.29z M853.98,361.85c-0.74,0.02-1.51,0.08-2.24,0.14
	c-11.69,0.94-22.74,6.91-31.24,19.82c-8.5,12.91-14.27,33.45-10.85,62.97c4.41,38.1-7.51,85.76-30.11,128.71
	c-22.6,42.94-56.98,82.33-104.58,90.29c-65.04,10.88-93.5,55.76-94.68,97.28c-0.59,20.76,5.95,40.29,18.91,54.63
	c12.96,14.34,32.36,24.46,61.78,25.13c92.41,2.1,159.23-29,202.73-94.03c43.5-65.04,63.14-167.47,48.73-308.06
	C906.45,380.36,877.07,361.27,853.98,361.85L853.98,361.85z M348.78,403.88c-1.41,0.04-2.67,0.22-3.76,0.52
	c-4.36,1.22-7.98,3.6-12.09,10.94c-3.99,7.12-7.52,19.16-8.58,36.16l-0.1,1.45c-1.93,36.81-15.87,63.3-36.82,78.13
	c-20.95,14.82-45.11,18.52-67.7,22.03c-22.58,3.51-44.12,6.59-61.4,14.49c-17.28,7.9-30.95,19.35-41.4,44.7
	c-14.73,35.76-13.81,61.98-4.29,84.83c9.52,22.85,29.18,43.28,56.09,61.45c53.81,36.34,134.25,61.72,197.88,85.9
	c25.3,9.61,45.41,12.86,60.28,11.63c14.87-1.24,24.59-6.07,33.3-15.42c17.43-18.72,29-61.7,29.1-126.83
	c0.2-139.75-48.69-240.75-93.54-284.62C376.12,410.04,358.68,403.57,348.78,403.88L348.78,403.88z M712.53,422.16
	c-2.19,0.06-4.45,0.22-6.85,0.43c-81.76,7.08-111.05,33.11-119.56,59.25c-8.51,26.14,3.8,62.46,27.83,91.11
	c27.55,32.87,48.65,34.9,71.15,26.23c22.5-8.67,46.45-34.02,61.34-64.06c14.89-30.04,20.05-63.94,14.06-84.29
	c-3-10.18-7.78-16.92-15.62-21.78C738.03,424.8,727.84,421.73,712.53,422.16L712.53,422.16z"/>
</svg>
