<?xml version="1.0" encoding="utf-8"?>
<!-- Generator: Adobe Illustrator 26.2.1, SVG Export Plug-In . SVG Version: 6.00 Build 0)  -->
<svg version="1.1" id="Слой_1" xmlns="http://www.w3.org/2000/svg" xmlns:xlink="http://www.w3.org/1999/xlink" x="0px" y="0px"
	 viewBox="0 0 512 512" style="enable-background:new 0 0 512 512;" xml:space="preserve">
<style type="text/css">
	.st0{fill:#01AC00;stroke:#000000;stroke-width:4;stroke-miterlimit:10;}
	.st1{fill:#008A00;stroke:#000000;stroke-width:4;stroke-miterlimit:10;}
	.st2{fill:#01AC00;}
</style>
<g transform="translate(0,0)">
	<path class="st0" d="M161.6,19.3C171.7,30,178.3,43,182.1,56.9c6.2,22.7,5.8,48.1,3.7,74.1c-4.2,51.9-14.6,106.5-2.4,140.4
		c11.4,31.8,29.7,50.7,49.9,60c8.7,4,17.9,6.2,27.2,6.8c22.2-65.1,17.5-148.1-19.1-204.3c48.4,48.2,71.2,121.1,56.4,197.4l-8.8,3.5
		c2.7-0.8,5.4-1.8,8.1-2.8c41.8-16.9,76-66.3,61.8-138.7c-6.5-33.3-29-80.2-66.5-116.5C260,45.4,216.6,21.7,161.6,19.3L161.6,19.3z
		 M445.5,202.8c-0.8,12.1-4.6,23.5-10.6,33.9c-10.4,18.1-26.4,33.8-43.9,48.6c-34.9,29.7-75.1,57.2-88.3,85.2
		c-12.6,26.6-12.9,49.3-6.2,67.3c2.9,7.9,7.2,14.9,12.6,21C362.9,432,411,377.9,423,320.8c0.1,59.6-30.6,118.7-86.6,156.9
		c35.8,14.5,86.3,5,121.7-47.8c16.4-24.5,31.6-67.3,30.8-112.9C488.3,278.3,476.7,237.8,445.5,202.8L445.5,202.8z M20.7,276.3
		c-9.5,45.9,0.7,86.8,19.5,120.7c22.1,39.8,56.7,69.4,83.1,82.3c57.1,28,105.5,11,129.2-19.5c-67.6-5.1-123.7-40.9-153.4-92.6
		c39,43.4,107.7,66.3,167.6,62.6c1.7-8,1.9-16.2,0.5-24.5c-3.2-19-14.9-38.4-39-55.2c-25.5-17.7-74-21.4-119.1-29.6
		c-22.5-4.1-44.2-9.6-62.3-20.1C36.4,294.4,27.4,286.3,20.7,276.3L20.7,276.3z"/>
</g>
<path class="st1" d="M297.2,332c41.8-16.9,76-66.3,61.8-138.7c-6.5-33.3-29-80.2-66.5-116.5C260,45.4,216.6,21.7,161.6,19.3l0,0
	C171.7,30,178.3,43,182.1,56.9c6.2,22.7,5.8,48.1,3.7,74.1c-4.2,51.9-14.6,106.5-2.4,140.4c11.4,31.8,29.7,50.7,49.9,60
	c8.7,4,17.9,6.2,27.2,6.8c22.2-65.1,17.5-148.1-19.1-204.3c48.4,48.2,71.2,121.1,56.4,197.4"/>
<path class="st2" d="M-159.5,100.5"/>
</svg>
