<?xml version="1.0" encoding="utf-8"?>
<!-- Generator: Adobe Illustrator 26.2.1, SVG Export Plug-In . SVG Version: 6.00 Build 0)  -->
<svg version="1.1" xmlns="http://www.w3.org/2000/svg" xmlns:xlink="http://www.w3.org/1999/xlink" x="0px" y="0px"
	 viewBox="0 0 1024 1024" style="enable-background:new 0 0 1024 1024;" xml:space="preserve">
<style type="text/css">
	.st0{fill:#FFD7C0;stroke:#000000;stroke-width:5;stroke-miterlimit:10;}
</style>
<g id="Слой_2">
	
		<rect x="600.5" y="1005.15" transform="matrix(-1 -1.224647e-16 1.224647e-16 -1 1349.0879 2028.9614)" class="st0" width="148.09" height="18.66"/>
	<path class="st0" d="M739.5,1021.5l0.05,0.47l-0.7,2.14c3.58-0.08,7.17-0.01,10.75-0.02c0.24-0.03,0.48-0.05,0.74-0.05
		c0.39,0,0.79,0.02,1.18,0.02c0.53-0.01,1.06-0.01,1.59-0.02c0.37-0.01,0.71,0.02,1.04,0.07c1.35,0.04,2.71,0.09,4.06,0.14
		c0.08,0,0.16-0.01,0.24-0.01c0.16,0,0.32,0.01,0.48,0.02l75.49-230.8l75.19,24.59l45.68-139.64l-0.01,0
		c0.17-0.48,0.32-0.96,0.48-1.44l7.97-24.38c23.7-72.45-14.13-150.92-84.45-178.1c37.65-15.22,70.23-49.71,85.31-95.8
		c24.78-75.75-7.11-154.16-71.23-175.14c-50.22-16.43-105.31,7.25-138.74,54.68c-4.3,6.11-8.24,12.62-11.78,19.47
		c-4.05,7.89-7.57,16.25-10.44,25.03c-6.99,21.37-9.46,42.94-7.98,63.38c0.55,7.68,1.66,15.2,3.31,22.49
		c3.42,15.14,9.13,29.27,16.85,41.77c-40.59-11.19-82.52-3.5-115.85,18.03c-10.69,6.9-20.48,15.22-29.07,24.81
		c-12.81,14.29-22.92,31.38-29.25,50.71l-7.97,24.38c-0.16,0.48-0.32,0.97-0.46,1.45l-0.01,0L516.3,689.41l74.37,24.32l-89.46,273.5
		l126.27,41.3c0.67-0.91,1.4-1.8,2.2-2.65c0.02-0.07,0.05-0.14,0.08-0.21c-1.58-0.09-3.17-0.24-4.77-0.51
		c-4.35-0.72-4.54-6.57-1.57-8.87c-0.52-0.6-0.92-1.3-1.16-2.04c-0.16,0-0.33,0.01-0.49,0.01c-6.45,0.06-6.43-9.94,0-10
		c0.88-0.01,1.77-0.03,2.65-0.05l-94.84-31.02l89.87-274.75l-75.12-24.57l41.08-125.6c24.89-76.11,106.77-117.63,182.88-92.73
		c0,0-37.44-80.93-17.34-142.36c22.35-68.33,83.37-109.68,136.31-92.36s77.73,86.74,55.38,155.06
		c-19.61,59.94-93.53,106.1-93.53,106.1c74.63,24.41,115.33,104.69,90.92,179.32l-41.96,128.29l-74.55-24.38l-78.48,239.94"/>
	<line class="st0" x1="745.06" y1="1005.15" x2="744.5" y2="1007.5"/>
	
		<rect x="246.53" y="1004.91" transform="matrix(-1 -1.224647e-16 1.224647e-16 -1 641.1429 2028.4835)" class="st0" width="148.09" height="18.66"/>
	<path class="st0" d="M256.54,1021.28l-0.05,0.47l0.7,2.14c-3.58-0.08-7.17-0.01-10.75-0.02c-0.24-0.03-0.48-0.05-0.74-0.05
		c-0.39,0-0.79,0.02-1.18,0.02c-0.53-0.01-1.06-0.01-1.59-0.02c-0.37-0.01-0.71,0.02-1.04,0.07c-1.35,0.04-2.71,0.09-4.06,0.14
		c-0.08,0-0.16-0.01-0.24-0.01c-0.16,0-0.32,0.01-0.48,0.02l-75.49-230.8l-75.19,24.59L40.75,678.2l0.01,0
		c-0.17-0.48-0.32-0.96-0.48-1.44l-7.97-24.38c-23.7-72.45,14.13-150.92,84.45-178.1c-37.65-15.22-70.23-49.71-85.31-95.8
		c-24.78-75.75,7.11-154.16,71.23-175.14c50.22-16.43,105.31,7.25,138.74,54.68c4.3,6.11,8.24,12.62,11.78,19.47
		c4.05,7.89,7.57,16.25,10.44,25.03c6.99,21.37,9.46,42.94,7.98,63.38c-0.55,7.68-1.66,15.2-3.31,22.49
		c-3.42,15.14-9.13,29.27-16.85,41.77c40.59-11.19,82.52-3.5,115.85,18.03c10.69,6.9,20.48,15.22,29.07,24.81
		c12.81,14.29,22.92,31.38,29.25,50.71l7.97,24.38c0.16,0.48,0.32,0.97,0.46,1.45l0.01,0l45.68,139.64l-74.37,24.32l89.46,273.5
		l-126.27,41.3c-0.67-0.91-1.4-1.8-2.2-2.65c-0.02-0.07-0.05-0.14-0.08-0.21c1.58-0.09,3.17-0.24,4.77-0.51
		c4.35-0.72,4.54-6.57,1.57-8.87c0.52-0.6,0.92-1.3,1.16-2.04c0.16,0,0.33,0.01,0.49,0.01c6.45,0.06,6.43-9.94,0-10
		c-0.88-0.01-1.77-0.03-2.65-0.05l94.84-31.02l-89.87-274.75l75.12-24.57l-41.08-125.6c-24.89-76.11-106.77-117.63-182.88-92.73
		c0,0,37.44-80.93,17.34-142.36c-22.35-68.33-83.37-109.68-136.31-92.36s-77.73,86.74-55.38,155.06
		c19.61,59.94,93.53,106.1,93.53,106.1C72.29,506.18,31.58,586.46,55.99,661.09l41.96,128.29l74.55-24.38l78.48,239.94"/>
	<path class="st0" d="M708.48,593.85c0,0.5,0,1.02-0.01,1.52h0.01v146.92h-79.11v287.76H372.91V742.29h-78.24V595.37h0.01
		c-0.01-0.5-0.01-1.02-0.01-1.52V568.2c0-20.34,4.29-39.73,12.03-57.29c5.18-11.78,11.9-22.73,19.92-32.62
		c24.99-30.83,62.45-51.17,104.51-53.15c-11.22-9.48-21.05-21.13-29-34.46c-3.83-6.42-7.22-13.21-10.14-20.34
		c-7.76-18.97-12.12-40.24-12.12-62.72c0-9.24,0.74-18.28,2.14-27.04c1.23-7.62,2.95-15.02,5.14-22.17
		c17.03-55.47,62.03-95.11,114.87-95.11c67.46,0,122.14,64.61,122.14,144.31c0,48.49-20.25,91.4-51.3,117.57
		c75.28,3.97,135.63,66.79,135.63,143.02V593.85z"/>
</g>
<g id="Слой_3">
</g>
</svg>
