<?xml version="1.0" encoding="utf-8"?>
<!-- Generator: Adobe Illustrator 26.2.1, SVG Export Plug-In . SVG Version: 6.00 Build 0)  -->
<svg version="1.1" id="Слой_1" xmlns="http://www.w3.org/2000/svg" xmlns:xlink="http://www.w3.org/1999/xlink" x="0px" y="0px"
	 viewBox="0 0 512 512" style="enable-background:new 0 0 512 512;" xml:space="preserve">
<style type="text/css">
	.st0{fill:#CCAC99;stroke:#000000;stroke-width:4;stroke-miterlimit:10;}
	.st1{fill:#FFD7C0;stroke:#000000;stroke-width:4;stroke-miterlimit:10;}
	.st2{fill:#CCAC99;}
</style>
<g transform="translate(0,0)">
	<path class="st0" d="M250.3,18.5c-25.1,3.3-47.2,32.3-47.2,69.3c0,20.5,7.1,38.6,17.5,51.2l10.1,12.2l-15.6,2.9
		c-13.7,2.6-23.8,9.9-32.3,21.5c-8.5,11.6-14.9,27.7-19.3,46.1c-8.2,33.9-9.9,75.2-10.1,111.3h44l11.9,159.5h96.4l10.5-159.5h41.9
		c0-36.4-0.4-78.3-7.8-112.5c-4-18.5-10.2-34.6-18.8-46.1c-8.6-11.5-19.2-18.8-34.5-21.2l-15.9-2.5l10-12.6
		c10-12.5,16.7-30.4,16.7-50.4c0-39.5-24.8-69.3-52.4-69.3C252.6,18.6,250.8,18.4,250.3,18.5L250.3,18.5z M428.9,19.6
		C397.1,19,367.8,46,357.8,83.1c-4.6,17.1-4.8,35.3-0.8,51.1c-11,1.3-21,5.2-29.8,11c5.6,3.6,10.5,7.9,14.9,12.8
		c8-4.3,16.7-6.3,27.1-5.5l15.8,1.2l-6.6-14.4c-5.9-12.8-7.3-33.6-2.6-51.4c8.1-30.3,31.5-49.8,52.8-49.6c1.4,0,2.8,0.1,4.2,0.3l0,0
		c0.3,0,1.8,0.6,4.4,1.3c23.7,6.4,38.4,37.9,29.2,72.3c-4.7,17.4-16,34.6-27,42.7l-13,9.6l14.7,6.5c13.1,5.8,20.8,13.9,25.9,24.3
		c5,10.5,7.1,23.7,6.8,38.7c-0.5,27.4-8.9,60.1-17.2,91.4l-36.9-9.9l-51.2,153.7l-42.7,0.1l-1.2,18.7l57.4-0.1l49.9-149.8l37.9,10.2
		l2.4-9c9-33.7,19.6-71.1,20.2-104.9c0.3-16.9-1.9-33-8.7-47.1c-5-10.4-12.7-19.6-23.1-26.6c10.8-11.6,19.2-27.1,23.6-43.6
		c11.3-42.1-6.2-85.5-42.4-95.2l0,0c-1.1-0.3-3.3-1.3-6.8-1.7h0l-2.8-0.4l-0.3,0.1C431.1,19.7,430,19.6,428.9,19.6L428.9,19.6z
		 M79.6,20c-4.5,0.1-9,0.7-13.5,1.9c-0.1,0-0.3,0.1-0.4,0.1l-0.6-0.6l-5.8,2.4h0c-32,13.2-46.2,53.8-35.6,93.3
		c4.6,17.1,13.5,33,24.8,44.7c-9.3,7-16.3,15.9-21.1,26c-6.5,13.9-9,29.8-9.1,46.6c-0.3,33.5,8.8,71,17.8,104.8l2.4,9l40-10.7
		L129.7,487l60.5,0.2l-1.4-18.7l-45.7-0.1L90.7,315l-38.7,10.4c-8-30.9-15.1-63.5-14.9-90.8c0.1-15,2.4-28.3,7.4-38.8
		c4.9-10.6,12.2-18.6,23.9-24.1l14.3-6.9l-12.9-9.2c-11.5-8.1-23.1-25.4-27.9-43.2C33.1,80,45.6,49.7,66.4,41.1l0,0
		c0.2-0.1,1.9-0.4,4.5-1.1h0l0,0c3-0.8,6-1.2,9.1-1.2c21.5,0,44.3,19.1,52.3,49.2c4.7,17.4,3.5,37.9-2,50.5l-6.4,14.8l16-1.7
		c13.4-1.4,23.7,1.2,32.9,7c4.3-4.9,9.1-9.2,14.5-12.7c-0.7-0.5-1.5-1.1-2.2-1.6c-9.6-6.5-20.8-10.6-33.3-11.5
		c3.6-15.5,3.1-33.1-1.3-49.6C140.5,46.3,111,19.6,79.6,20L79.6,20z"/>
</g>
<path class="st1" d="M250.5,19c-25.1,3.3-47.2,32.3-47.2,69.3c0,20.5,7.1,38.6,17.5,51.2l10.1,12.2l-15.6,2.9
	c-13.7,2.6-23.8,9.9-32.3,21.5c-8.5,11.6-14.9,27.7-19.3,46.1c-8.2,33.9-9.9,75.2-10.1,111.3h44l11.9,159.5h96.4l10.5-159.5h41.9
	c0-36.4-0.4-78.3-7.8-112.5c-4-18.5-10.2-34.6-18.8-46.1c-8.6-11.5-19.2-18.8-34.5-21.2l-15.9-2.5l10-12.6
	c10-12.5,16.7-30.4,16.7-50.4c0-39.5-24.8-69.3-52.4-69.3C252.8,19,251,18.9,250.5,19L250.5,19z"/>
<path class="st0" d="M30.6,258.2"/>
<path class="st2" d="M-10.8,82"/>
</svg>
