<?xml version="1.0" encoding="utf-8"?>
<!-- Generator: Adobe Illustrator 26.2.1, SVG Export Plug-In . SVG Version: 6.00 Build 0)  -->
<svg version="1.1" xmlns="http://www.w3.org/2000/svg" xmlns:xlink="http://www.w3.org/1999/xlink" x="0px" y="0px"
	 viewBox="0 0 1024 1024" style="enable-background:new 0 0 1024 1024;" xml:space="preserve">
<style type="text/css">
	.st0{fill:#FF5A01;stroke:#000000;stroke-width:5;stroke-miterlimit:10;}
	.st1{fill:#FF5A01;}
</style>
<g id="Слой_3">
	<path class="st0" d="M721.45,937.79c40.98-28.76,78.98-70.44,114.05-126.29c37.87-101.43,53.27-244.18-23-332
		c-40.86,83.75-50.23,132.69-82,159c-83.45-99.5-227.34-200.91-352-207c94.26,125.26,145.59,284.48,51,362
		c-9.53-50.41-24.33-71.17-45-59c-66.04,30.65-95.45,85.12-95,159c136.4,82.37,255.72,114.62,358.77,81.18
		c-169.69,69.27-375.53,39.85-540.77-284.18c-0.42-95.12,20.57-200.55,63-224c88.6,323.32,279.39,355.01,119-77
		c-35.26-120.45-12.63-226.46,44-262c6.97,85.77,32.81,185.45,92,214c26.5,9.58,52.82,1.3,79-23
		c70.33,276.37,343.53,213.59,228.02-32.83C832.96,321.54,958.5,634.5,958.5,634.5C1019.86,629.33,902.06,829.43,721.45,937.79z"/>
	<path class="st0" d="M721.45,937.79c-23.42,16.43-47.8,28.65-73.18,36.89C673.55,964.36,698.03,951.85,721.45,937.79z"/>
	<path class="st0" d="M479.5,924.5c77.98-67.44,114.35-151.74,99-257C843.39,761.71,654.92,978.59,479.5,924.5z"/>
</g>
<g id="Слой_2">
	<path class="st0" d="M512.5,0.5c-282.77,0-512,229.23-512,512s229.23,512,512,512s512-229.23,512-512S795.27,0.5,512.5,0.5z
		 M512.5,947.5c-240.24,0-435-194.76-435-435s194.76-435,435-435s435,194.76,435,435S752.74,947.5,512.5,947.5z"/>
</g>
<g id="Слой_4">
	<polygon class="st1" points="963.61,644.32 839,808 874.67,695.16 874.38,609.48 931.99,580.8 	"/>
	<polygon class="st1" points="303,916 84.09,760.99 121.66,624.05 168.91,637.01 	"/>
</g>
</svg>
