<?xml version="1.0" encoding="utf-8"?>
<!-- Generator: Adobe Illustrator 26.2.1, SVG Export Plug-In . SVG Version: 6.00 Build 0)  -->
<svg version="1.1" id="Слой_1" xmlns="http://www.w3.org/2000/svg" xmlns:xlink="http://www.w3.org/1999/xlink" x="0px" y="0px"
	 viewBox="0 0 512 512" style="enable-background:new 0 0 512 512;" xml:space="preserve">
<style type="text/css">
	.st0{fill:#FF5A01;stroke:#000000;stroke-width:4;stroke-miterlimit:10;}
</style>
<path class="st0" d="M258,17.5c-132.4,0-239.8,107.4-239.8,239.8c0,32.6,6.5,63.8,18.3,92.1c18.9,45.5,51.5,84,92.7,110.2
	c37.2,23.7,81.4,37.5,128.8,37.5c38.6,0,75.1-9.1,107.5-25.4C417.1,445.8,458,401.8,480,348c11.4-28,17.8-58.6,17.8-90.7
	C497.8,124.9,390.4,17.5,258,17.5z M35.9,257.3c0-65.6,28.4-124.5,73.7-165.2c-42.2,84.8,96.9,175,49.3,255.4
	C126.1,403,52.4,321,57.6,229c-9.2,23.3-15.2,45.3-18.6,66C37,282.7,35.9,270.1,35.9,257.3z M309.3,473.5
	c24.7-16.2,38.2-33.6,43.7-49.9c6-17.8,3-34.8-5.5-50.2c-14.4-26.2-46.5-44.6-79.2-45.9c12.6,14.8,20.9,30.9,21.3,47.5
	c0.5,22.5-8.7,44.1-22.9,62.2c-12.8,16.3-29.7,30.1-48.3,38.7c-34-6.1-65.3-19.9-92-39.6c2.5-19.7,16.7-41.2,48.5-54.8l14.8-6.6
	l-2.7,15.8c-1.3,7.8-0.3,13,1.1,15.8c1.4,2.8,2.9,3.3,5.5,3.8c5.1,1,15.9-2.2,24.6-13.7c17.4-22.9,27.2-75-25.1-156.2l-3.8-6l-13-18
	l21.8,9.3l4.9,1.6c75.6,23.8,126.5,54.7,163.3,105.4c20.2-21.4,36.2-53.1,41-85.8l3.3-25.7l12.6,22.4
	c23.9,42.8,28.3,98.1,10.4,146.3c-0.9,2.3-1.8,4.7-2.8,7C400.1,434.6,357.8,462,309.3,473.5z M475.8,300.8
	c-12.1-62.9-49.8-132.4-110.7-191.6c0,0.7,0,1.4,0,2C439,285.1,237.5,288.1,253.6,122c-35.8,86.2-110.5,12.5-92.4-64.6
	c29.3-14.2,62.1-22.1,96.8-22.1c122.7,0,222.1,99.4,222.1,222.1C480.1,272.2,478.6,286.8,475.8,300.8z"/>
</svg>
