<?xml version="1.0" encoding="utf-8"?>
<!-- Generator: Adobe Illustrator 26.2.1, SVG Export Plug-In . SVG Version: 6.00 Build 0)  -->
<svg version="1.1" id="Слой_1" xmlns="http://www.w3.org/2000/svg" xmlns:xlink="http://www.w3.org/1999/xlink" x="0px" y="0px"
	 viewBox="0 0 512 512" style="enable-background:new 0 0 512 512;" xml:space="preserve">
<style type="text/css">
	.st0{fill:#3030B3;stroke:#000000;stroke-width:4;stroke-miterlimit:10;}
	.st1{fill:#4040EE;stroke:#000000;stroke-width:4;stroke-miterlimit:10;}
</style>
<g transform="translate(0,0)">
	<path class="st0" d="M117.4,17.8l-94.9,96.3c16.2,19.2,43.7,35.5,66.2,40.2c15.3,3,30.6,1.8,43.3-4.7c29.3,28.9,58.2,58.3,87,87.9
		l22.2-22.3l-87.6-87.5c6.3-12.6,8.5-27.9,4.5-42.8C149.9,54.4,136.9,37.3,117.4,17.8z M242.5,27.3c-9.3,0.1-18.5,0.9-27.5,2.7
		c117.1,70.5,204.6,164.7,273.6,273.7c2.8-59.2-21.2-120.2-59.3-169.7c-15,5.5-33.5,0.6-46.4-12.2c-12.8-12.9-17.7-31.4-12.2-46.4
		C331.4,45.5,286.4,27.1,242.5,27.3L242.5,27.3z M128.4,60.2c5.7,9.5,9.5,19.2,11.3,28.3c3.3,16.5,0.2,30.1-8.6,38.9
		c-8.7,8.7-22.3,11.8-38.8,8.6c-9.1-1.8-18.8-5.6-28.4-11.3L128.4,60.2z M391.9,76.1c-7.2,7-6.6,21.6,4.3,32.4
		c10.8,10.9,25.3,11.4,32.5,4.3c7.1-7.2,6.9-22-4.3-32.5C415.7,72.2,401.3,66.8,391.9,76.1z M335.6,147.3L22.3,460.7
		c4.2,11.5,10.7,20.4,24.5,24.9L360.3,172C352.8,163.3,344.5,155.1,335.6,147.3L335.6,147.3z M292.4,266.4l-23.1,23.1
		c32.5,34,65,68.3,97.4,102.5c-15.6,14.5-31.7,27.2-46.5,36.1c55.9,56,124.9,78.1,162,54.5c22.8-37.3,1.1-106.5-54.5-162.1
		c-9.6,15-22,30.7-35.5,45.7L292.4,266.4z"/>
</g>
<g transform="translate(0,0)">
	<path class="st1" d="M242.9,26.9c-9.3,0.1-18.5,0.9-27.5,2.7C332.5,100.1,420,194.3,489,303.3c2.8-59.2-21.2-120.2-59.3-169.7
		c-15,5.5-33.5,0.6-46.4-12.2C370.5,108.5,365.6,90,371.1,75C331.8,45.1,286.8,26.7,242.9,26.9L242.9,26.9z M392.3,75.7
		c-7.2,7-6.6,21.6,4.3,32.4c10.8,10.9,25.3,11.4,32.5,4.3c7.1-7.2,6.9-22-4.3-32.5C416.1,71.7,401.7,66.4,392.3,75.7z M336,146.9
		L22.7,460.3c4.2,11.5,10.7,20.4,24.5,24.9l313.5-313.6C353.2,162.9,344.9,154.7,336,146.9L336,146.9z"/>
</g>
</svg>
