<?xml version="1.0" encoding="utf-8"?>
<!-- Generator: Adobe Illustrator 26.2.1, SVG Export Plug-In . SVG Version: 6.00 Build 0)  -->
<svg version="1.1" xmlns="http://www.w3.org/2000/svg" xmlns:xlink="http://www.w3.org/1999/xlink" x="0px" y="0px"
	 viewBox="0 0 1024 1024" style="enable-background:new 0 0 1024 1024;" xml:space="preserve">
<style type="text/css">
	.st0{fill:#2F2FA1;stroke:#000000;stroke-width:5;stroke-miterlimit:10;}
	.st1{fill:none;stroke:#000000;stroke-width:5;stroke-miterlimit:10;}
	.st2{fill:#4040EE;stroke:#000000;stroke-width:5;stroke-miterlimit:10;}
</style>
<g id="Слой_3">
	<path class="st0" d="M239.39,254.85c-1.79,0.46-3.6,0.89-5.43,1.27c-7.7,1.59-15.66,2.43-23.82,2.43
		c-33.17,0-63.11-13.89-84.31-36.17l101.11-101.11c17.4,20.33,27.9,46.73,27.9,75.58c0,16.12-3.28,31.48-9.2,45.44
		C243.8,246.62,241.71,250.81,239.39,254.85z"/>
	<path class="st0" d="M981.87,972.87c0,0-162.41,61.96-257.1,23.15c-0.58-0.24-1.15-0.48-1.72-0.72l-62.84-58.62L551.75,835.52
		l103.6-111.07l4.61-4.95L240.29,299.83c-1.89-1.89-3.54-3.94-4.93-6.11c-15.68,5.8-32.55,9.19-50.14,9.71
		c-1.57,0.05-3.14,0.07-4.72,0.07c-37.99,0-72.85-13.41-100.1-35.75c-18.56-15.22-33.6-34.58-43.69-56.67L206.93,40.86
		c0.52-0.52,1.07-0.97,1.65-1.37c14.56,6.58,27.94,15.32,39.74,25.79c32.62,28.94,53.18,71.18,53.18,118.22
		c0,12.23-1.39,24.13-4.02,35.56c-0.95,4.15-2.07,8.25-3.35,12.27c3.01,1.64,5.84,3.74,8.38,6.28l417.51,417.51l1.13-1.21
		L826.4,541.06l115.79,108l55.49,51.76c0.32,0.54,0.63,1.07,0.92,1.61C1050.02,794.24,981.87,972.87,981.87,972.87z"/>
	<path class="st0" d="M658.89,718.43l1.07,1.07l-4.61,4.95C656.49,722.43,657.68,720.42,658.89,718.43z"/>
	<path class="st0" d="M721.15,653.91l-1.13,1.21l-0.27-0.27C720.21,654.53,720.68,654.22,721.15,653.91z"/>
	<line class="st1" x1="997.68" y1="700.82" x2="942.19" y2="649.06"/>
	<path class="st0" d="M723.05,995.3c0.57,0.24,1.14,0.48,1.72,0.72l-0.44,0.47L723.05,995.3z"/>
	<path class="st0" d="M998.98,702.03l-0.38,0.4c-0.29-0.54-0.6-1.07-0.92-1.61L998.98,702.03z"/>
</g>
<g id="Слой_2">
	<path class="st2" d="M850.25,185.28l-10.03-10.03c-14.35-14.35-37.84-14.35-52.2,0L62.74,900.54c-14.35,14.35-14.35,37.84,0,52.2
		l10.03,10.03c14.35,14.35,37.84,14.35,52.2,0l725.29-725.29C864.6,223.12,864.6,199.64,850.25,185.28z"/>
	<path class="st2" d="M962.81,552.5c0.1,0,0.19,0.01,0.29,0.01c8.14-92.44-38.93-212.61-131.88-314.25
		C720.49,117.2,578.88,59.84,482.16,88.09c0.01,0.48-0.05,0.95-0.16,1.41L960.67,553C961.27,552.68,961.98,552.5,962.81,552.5z"/>
</g>
</svg>
