<?xml version="1.0" encoding="utf-8"?>
<!-- Generator: Adobe Illustrator 26.2.1, SVG Export Plug-In . SVG Version: 6.00 Build 0)  -->
<svg version="1.1" id="Слой_1" xmlns="http://www.w3.org/2000/svg" xmlns:xlink="http://www.w3.org/1999/xlink" x="0px" y="0px"
	 viewBox="0 0 512 512" style="enable-background:new 0 0 512 512;" xml:space="preserve">
<style type="text/css">
	.st0{fill:#E35759;stroke:#000000;stroke-width:4;stroke-miterlimit:10;}
</style>
<g transform="translate(0,0)">
	<path class="st0" d="M424.2,85.6c0.3,0.1-0.9,0.1-3.3,0.1c-18.5,0-35.8,20.1-35.8,47.5c0,13.8,4.7,26.2,11.6,34.8l10.2,12.6
		l-16.1,2.5c-10.6,1.6-17.7,6.4-23.6,14.3s-10.3,19.2-13.2,32.3c-5.2,23.5-5.6,52.4-5.6,78.2h30.4l0.6,8.7l7.1,106.6h65.8l8-106.7
		l0.7-8.6h32c-0.2-25.4-1.6-53.9-7.3-77.2c-3.2-13.1-7.8-24.4-13.7-32.4c-5.9-8-12.7-12.9-22.1-14.6l-15.7-2.9l10.3-12.2
		c7.2-8.6,12.2-21.1,12.2-35.3c0-25.7-15.5-45.4-32.3-47.6L424.2,85.6L424.2,85.6z M179.4,89c-45.9,0-99.8,5.4-161.6,17.9V126
		c268-37.6,341.5,38.1,226.2,79.3C126.7,247.3,33.6,457.6,403.5,475.9c4.4,0.4,8.9,0.7,13.4,0.7c22.3,0,42.3-5.5,56.1-13.6
		c13.8-8.1,20.6-18.1,20.6-27.9s-6.8-19.8-20.6-27.9c-0.2-0.1-0.5-0.3-0.7-0.4l-2,26.5l-0.7,8.7H369l-0.6-8.8l-3.3-49.5
		c-128.2,2.8-163.3-100.5-80.1-130.5c20.4-7.3,37.1-15.8,50.2-25c0.2-0.8,0.3-1.7,0.5-2.5c3.3-14.8,8.3-28.5,16.6-39.6
		c4.9-6.6,11.2-12.1,18.7-16C367.9,127.6,302.7,89,179.4,89L179.4,89z"/>
</g>
</svg>
