<?xml version="1.0" encoding="utf-8"?>
<!-- Generator: Adobe Illustrator 26.2.1, SVG Export Plug-In . SVG Version: 6.00 Build 0)  -->
<svg version="1.1" xmlns="http://www.w3.org/2000/svg" xmlns:xlink="http://www.w3.org/1999/xlink" x="0px" y="0px"
	 viewBox="0 0 1024 1024" style="enable-background:new 0 0 1024 1024;" xml:space="preserve">
<style type="text/css">
	.st0{fill:#CDCD9A;stroke:#000000;stroke-width:5;stroke-miterlimit:10;}
	.st1{fill:#FFFFC0;stroke:#000000;stroke-width:5;stroke-miterlimit:10;}
</style>
<g id="Слой_2">
	<path class="st0" d="M734.5,719.5c0,40.05-27.71,73.64-65,82.62V988.5h-286v-91.04c-33.08-11.63-56.8-43.15-56.8-80.2
		c0-25.75,31.58-72.27,56.8-96.19V574.5h128v-157h31v157h127v41.69C695.43,636.52,734.5,690.87,734.5,719.5z"/>
</g>
<g id="Слой_3">
	<path class="st1" d="M715.5,354.5c0,112.25-57.68,163.81-136.59,178.44c29.15-27.06,48.59-75.8,48.59-131.44
		c0-85.05-45.44-154-101.5-154s-101.5,68.95-101.5,154c0,55.42,19.3,104.01,48.26,131.13C394.02,517.2,336.5,463.6,336.5,351.5
		c0-136.14,189.5-307,189.5-307S715.5,218.36,715.5,354.5z"/>
</g>
</svg>
