<?xml version="1.0" encoding="utf-8"?>
<!-- Generator: Adobe Illustrator 26.2.1, SVG Export Plug-In . SVG Version: 6.00 Build 0)  -->
<svg version="1.1" id="Слой_1" xmlns="http://www.w3.org/2000/svg" xmlns:xlink="http://www.w3.org/1999/xlink" x="0px" y="0px"
	 viewBox="0 0 512 512" style="enable-background:new 0 0 512 512;" xml:space="preserve">
<style type="text/css">
	.st0{fill:#CDCD9A;stroke:#000000;stroke-width:4;stroke-miterlimit:10;}
	.st1{fill:#FFFFC0;stroke:#000000;stroke-width:4;stroke-miterlimit:10;}
</style>
<g transform="translate(0,0)">
	<path class="st0" d="M258.8,23.6c-27.9,0-93.9,87.2-93.9,158.6c0,59.4,29,79.7,68.6,94.9c-15.5-15.6-26-43.8-26-76.2
		c0-49.2,31.3-89.2,53.2-89.2c21.1,0,53.2,40,53.2,89.2c0,30.4-9.4,56.8-23.3,72.9c36.1-18,61.9-35.7,61.9-91.6
		C352.6,110.8,285.8,23.6,258.8,23.6L258.8,23.6z M265.5,199.5l-18.5,2.7c5.8,39.4,6.7,69,4.2,97.9c-25-1-49.7-6-73.7-14.8v95.5
		c-3.3,25.7-22.4,30.5-22.1,53.5c0.3,19.5,15,26,22.1,17.6v36.3h164.7v-88.3c8.6,10.9,27.2,3.1,27.5-21.3
		c0.4-29.1-24.6-34.6-27.5-68.8v-24.4c-23.9,8.9-48.2,13.7-72.3,14.7C272.2,270.2,271.3,239.2,265.5,199.5L265.5,199.5z"/>
	<path class="st1" d="M258.8,23.6c-27.9,0-93.9,87.2-93.9,158.6c0,59.4,29,79.7,68.6,94.9c-15.5-15.6-26-43.8-26-76.2
		c0-49.2,31.3-89.2,53.2-89.2c21.1,0,53.2,40,53.2,89.2c0,30.4-9.4,56.8-23.3,72.9c36.1-18,61.9-35.7,61.9-91.6
		C352.6,110.8,285.8,23.6,258.8,23.6L258.8,23.6z"/>
</g>
</svg>
