<?xml version="1.0" encoding="utf-8"?>
<!-- Generator: Adobe Illustrator 26.2.1, SVG Export Plug-In . SVG Version: 6.00 Build 0)  -->
<svg version="1.1" id="Слой_1" xmlns="http://www.w3.org/2000/svg" xmlns:xlink="http://www.w3.org/1999/xlink" x="0px" y="0px"
	 viewBox="0 0 512 512" style="enable-background:new 0 0 512 512;" xml:space="preserve">
<style type="text/css">
	.st0{fill:#8080A0;stroke:#000000;stroke-width:4;stroke-miterlimit:10;}
</style>
<g transform="translate(0,0)">
	<path class="st0" d="M179.6,22.3l-16.4,36.6c-3.3-0.4-6.5-0.6-9.7-0.6c-10.6-0.1-20.9,1.8-30.5,5.3L99.8,31l-44,32.2l24.1,33.7
		c-7.2,10.4-12.3,22.5-14.5,35.8l-42.7,4.7l5.3,54.2l45.5-5c5.1,10.2,12.1,19.4,20.6,27l-19.4,43.4L124,279l19.5-43.6
		c11.7,1.2,23.1,0.1,33.8-3l28.1,38.5l31.7-23.2l11.7,20.2c-14.7,11.2-27.8,24.4-39.1,39.1l-49.2-28.3l-25.7,46.7l48.1,27.9
		c-7.1,16.9-12,35-14.3,53.8h-56v53.7h56.2c1.7,12.1,4.4,23.8,8,35.1h169.3c-23.9-10.8-40.6-34.8-40.6-62.7
		c0-38,30.8-68.8,68.7-68.8c38,0,68.8,30.8,68.8,68.8c0,27.9-16.7,52-40.6,62.7h91.5V200.4l-11.7-6.4l-27.6,48
		c-16.8-7.2-34.8-12.2-53.6-14.7v-55.5h-53.7v55.5c-18.3,2.4-35.8,7.2-52.3,14L267.8,194l-36,20.2l-9.2-13
		c7.1-9.2,12.4-19.9,15.5-31.7l44.4-4.8l-5.3-54.2l-42.2,4.2c-4.9-12.6-12.6-24-22.6-33.1L229,44.4C229,44.4,179.6,22.3,179.6,22.3z
		 M152.3,106.6c23.3-0.2,42.9,17.8,44.4,41.3c1.5,24.3-17,45.1-41.3,46.6c-24.3,1.5-45.1-17-46.6-41.2c-1.5-24.3,17-45.1,41.2-46.6
		C150.8,106.6,151.5,106.6,152.3,106.6z"/>
</g>
</svg>
