<?xml version="1.0" encoding="utf-8"?>
<!-- Generator: Adobe Illustrator 26.2.1, SVG Export Plug-In . SVG Version: 6.00 Build 0)  -->
<svg version="1.1" xmlns="http://www.w3.org/2000/svg" xmlns:xlink="http://www.w3.org/1999/xlink" x="0px" y="0px"
	 viewBox="0 0 1024 1024" style="enable-background:new 0 0 1024 1024;" xml:space="preserve">
<style type="text/css">
	.st0{fill:#8080A0;stroke:#000000;stroke-width:5;stroke-miterlimit:10;}
	.st1{fill:none;stroke:#000000;stroke-width:5;stroke-miterlimit:10;}
</style>
<g id="Слой_2">
	<path class="st0" d="M1023.67,560.09c1.72-1-0.09-163.86-0.09-163.86l-45.42-26.22c-5.71-3.3-13.09-1.32-16.39,4.4l-62,107.38
		c-0.54,0.94-0.94,1.91-1.2,2.91c-23.88-9.13-48.82-16.11-74.59-20.72c0.34-1.1,0.52-2.27,0.52-3.48v-124c0-6.6-5.4-12-12-12h-124
		c-6.6,0-12,5.4-12,12v124c0,1.21,0.18,2.38,0.52,3.48c-26.63,4.76-52.38,12.06-76.99,21.65c-0.15-0.33-0.32-0.66-0.5-0.98
		l-62-107.39c-3.3-5.71-10.68-7.69-16.4-4.39l-107.38,62c-5.72,3.3-7.7,10.68-4.4,16.39l62,107.39c0.88,1.51,2.04,2.77,3.38,3.72
		c-14.55,12.95-28.18,26.9-40.77,41.75c-0.97-1.42-2.27-2.65-3.85-3.56l-107.39-62c-5.71-3.3-13.09-1.32-16.39,4.39l-62,107.39
		c-3.3,5.72-1.32,13.09,4.39,16.39l107.39,62c1.4,0.8,2.9,1.3,4.42,1.5c-7.38,20.21-13.23,41.16-17.4,62.71
		c-2.02-3.82-6.03-6.44-10.63-6.44h-124c-6.6,0-12,5.4-12,12v124c0,6.6,5.4,12,12,12h124c2.72,0,5.23-0.92,7.25-2.45
		c4.62,32.13,12.91,63.07,24.45,92.38c60.62,154.05,663.3,123.07,661.49,1.25C1023.53,880.4,1020.5,655.5,1023.67,560.09z
		 M750.5,1029.5c-86.71,0-157-70.29-157-157s70.29-157,157-157s157,70.29,157,157S837.21,1029.5,750.5,1029.5z"/>
	<line class="st1" x1="364.5" y1="1024.5" x2="1025.5" y2="1024.5"/>
</g>
<g id="Слой_3">
	<path class="st0" d="M496.5,252.5h-56c-3.66,0-6.96,1.66-9.16,4.27c-8.95-33.17-27.18-62.52-51.75-85.09
		c4.53,0.43,9.13-1.75,11.55-5.93l28-48.5c3.3-5.71,1.32-13.09-4.39-16.39l-48.5-28c-5.71-3.3-13.09-1.32-16.39,4.39l-28,48.5
		c-1.81,3.13-2.03,6.75-0.92,9.94c-19.44-7.23-40.48-11.19-62.44-11.19c-21.04,0-41.23,3.63-59.98,10.3
		c2.79-3.73,3.27-8.92,0.8-13.2l-28-48.5c-3.3-5.71-10.67-7.69-16.39-4.39l-48.5,28c-5.71,3.3-7.69,10.68-4.39,16.39l28,48.5
		c2.52,4.37,7.41,6.55,12.13,5.86c-31.3,26.78-53.25,64.18-60.26,106.62c-2.05-1.62-4.62-2.58-7.41-2.58h-56c-6.6,0-12,5.4-12,12v56
		c0,6.6,5.4,12,12,12h56c4.21,0,7.93-2.2,10.08-5.5c8.14,33.43,25.67,63.19,49.64,86.32c-3.32,0.63-6.36,2.64-8.18,5.78l-28,48.5
		c-3.3,5.72-1.32,13.09,4.39,16.39l48.5,28c5.72,3.3,13.09,1.33,16.39-4.39l28-48.5c1.18-2.03,1.68-4.28,1.58-6.48
		c19.21,7.04,39.96,10.88,61.6,10.88c24,0,46.9-4.73,67.82-13.3c0.16,0.36,0.34,0.71,0.54,1.05l28,48.5
		c3.3,5.71,10.68,7.69,16.39,4.39l48.5-28c5.71-3.3,7.69-10.68,4.39-16.39l-28-48.5c-1.45-2.51-3.68-4.3-6.22-5.23
		c23.57-25.48,39.83-57.82,45.43-93.69c1.56,0.75,3.31,1.17,5.15,1.17h56c6.6,0,12-5.4,12-12v-56
		C508.5,257.9,503.1,252.5,496.5,252.5z M258.5,400.5c-53.57,0-97-43.43-97-97s43.43-97,97-97s97,43.43,97,97
		S312.07,400.5,258.5,400.5z"/>
</g>
</svg>
