<?xml version="1.0" encoding="utf-8"?>
<!-- Generator: Adobe Illustrator 26.2.1, SVG Export Plug-In . SVG Version: 6.00 Build 0)  -->
<svg version="1.1" id="Слой_1" xmlns="http://www.w3.org/2000/svg" xmlns:xlink="http://www.w3.org/1999/xlink" x="0px" y="0px"
	 viewBox="0 0 512 512" style="enable-background:new 0 0 512 512;" xml:space="preserve">
<style type="text/css">
	.st0{fill:#E1B371;stroke:#000000;stroke-width:6;stroke-miterlimit:10;}
	.st1{fill:none;stroke:#000000;stroke-width:6;stroke-miterlimit:10;}
</style>
<path class="st0" d="M98.3,16.7C79.7,43.8,68.5,69,65.5,89.6l23.9,39.2l28.6-33.5 M472.5,19.6C444,36.1,423.1,54,411.6,71.2
	l4.8,45.7L456.6,99C466.5,80.2,472.5,52.7,472.5,19.6L472.5,19.6z M381.4,47.8c-10.2,21-17.4,39.9-20.8,57.4l18.4,57.7l19.8-34.2
	l-6.5-62.2L381.4,47.8 M27.2,80.8c-0.1,23.4,2.4,44.1,6.9,61.3l41.4,44.2l3.1-39.4L46,93.5l0,0C40.2,89.2,33.9,84.9,27.2,80.8
	L27.2,80.8z M160.1,91.3c-8.4,3.5-16.3,7.2-23.6,11.1l-39.2,46l-3.1,39.4l50.4-39.1C151.3,132.8,156.7,113.4,160.1,91.3z M340.7,111
	c-24,58.1-19.5,99.8,4.5,110.5l19.1-40.8L340.7,111 M496.2,113.5c-4.5,0-21.8-0.3-26.1-0.1L414.9,138l-19.8,34.3l62.3-13.7
	C470.4,147.2,483.6,132,496.2,113.5 M257.2,121.9c-23.2,23.2-38.8,46-45.5,65.7l16.4,42.9l34.2-27.8
	C267.1,182,265.8,153.8,257.2,121.9z M16.4,159.1c3.3,62.8,27.5,95.3,53.8,94.6l3.3-42.2l-44.1-47C25.3,162.6,20.9,160.8,16.4,159.1
	L16.4,159.1z M157.6,166l-65.4,46.9l-3.3,41.8C115.3,262.2,144,229.7,157.6,166 M179.6,169.9c-4.4,22.9-9.6,45.8-8.3,63.6l32.7,51
	l10.2-38.2L179.6,169.9 M443.1,180.9l-60.6,13.2l-20.9,36.2c20.7,18.2,60.4,6,100.1-45.6C455.3,183.2,449.1,182,443.1,180.9z
	 M301.3,202.5l-69.1,48.6L222,289.3l56.7-29.3C288.2,245.6,294,223.6,301.3,202.5 M459.5,231.5c-25.9,20.3-44,41.1-53,59.8
	l11.2,44.5l37.3-23.5C462.1,292.4,464.2,264.3,459.5,231.5L459.5,231.5z M336.2,240.1c-34.4,77.6-59.4,159.1-63,253h18.7
	c3.6-90.8,27.6-169.4,61.3-245.4 M152.4,243.1c-8.2,62.3,8.1,102.6,34.1,106.6l11-40.9L152.4,243.1 M374.9,266.9
	c-7.1,22.2-13.1,47.5-14,65.2l26.4,54.6L402,350L374.9,266.9 M70.1,273.1c-8.7,74.6-8.1,147.8,12.2,220.1h19.4
	c-20.9-70.8-21.8-143-13.1-217.9L70.1,273.1L70.1,273.1z M291.3,281l-75.8,32.8l-10.8,40.4C229.3,366.4,266.3,341.2,291.3,281
	 M496.3,321.1c-9.1,0.8-17.7,2.1-25.8,3.6l-51.2,32.2l-14.7,36.7l59.8-22.3C475.5,358.1,486.5,341.2,496.3,321.1L496.3,321.1z
	 M341.6,341.4c-15.5,60.9-4.8,100.9,20.6,108l15.7-39.3L341.6,341.4 M183.2,368.7c0,0-22.3,82.5-26.8,124.4h18.8
	c4.5-39.7,13.7-79.2,25.9-119 M395.2,417.1l-15.6,38.9c23.1,15.1,60.7-2.6,92.6-59.4c-6.6-0.6-13-1-19.1-1.2 M356.5,469
	c-1.9,7.7-3.2,15.8-3.7,24.1h18.7c0.5-6.7,1.5-13.2,3.1-19.7L356.5,469L356.5,469z"/>
<line class="st1" x1="180.4" y1="368" x2="203.8" y2="375.2"/>
<line class="st1" x1="333.6" y1="239" x2="355.9" y2="248.9"/>
<line class="st1" x1="393.5" y1="418.8" x2="454.6" y2="395.1"/>
<line class="st1" x1="118.1" y1="97.6" x2="98.3" y2="16.7"/>
</svg>
