<?xml version="1.0" encoding="utf-8"?>
<!-- Generator: Adobe Illustrator 26.2.1, SVG Export Plug-In . SVG Version: 6.00 Build 0)  -->
<svg version="1.1" id="Слой_1" xmlns="http://www.w3.org/2000/svg" xmlns:xlink="http://www.w3.org/1999/xlink" x="0px" y="0px"
	 viewBox="0 0 512 512" style="enable-background:new 0 0 512 512;" xml:space="preserve">
<style type="text/css">
	.st0{fill:#B5B5CD;stroke:#000000;stroke-width:4;stroke-miterlimit:10;}
</style>
<g transform="translate(0,0)">
	<path class="st0" d="M322.2,85.7l-260.8,139L20.3,334.7l7.2,3.9l153.7,81.8l308.5-164.2l-37.8-99.9L322.2,85.7L322.2,85.7z
		 M441.3,180.9l25.1,66.4l-102.6,54.6l66.6-115.3L441.3,180.9L441.3,180.9z M351.7,228.3L285,343.9l-41.7,22.2l72.2-118.6
		L351.7,228.3L351.7,228.3z M72.4,248.8l28.2,14.9l-54,54L72.4,248.8z M283.2,264.5l-72,118.3l0.3,0.2l-17.2,9.2l5.8-83.6
		L283.2,264.5L283.2,264.5z M117.9,272.9l17,9l-60.4,60.4l-16.9-9L117.9,272.9L117.9,272.9z M181.4,306.9l-6.2,89.1l-54.1-28.8
		L181.4,306.9z"/>
</g>
</svg>
