<?xml version="1.0" encoding="utf-8"?>
<!-- Generator: Adobe Illustrator 26.2.1, SVG Export Plug-In . SVG Version: 6.00 Build 0)  -->
<svg version="1.1" id="Слой_2" xmlns="http://www.w3.org/2000/svg" xmlns:xlink="http://www.w3.org/1999/xlink" x="0px" y="0px"
	 viewBox="0 0 1024 1024" style="enable-background:new 0 0 1024 1024;" xml:space="preserve">
<style type="text/css">
	.st0{fill:#B5B5CD;stroke:#000000;stroke-width:5;stroke-miterlimit:10;}
</style>
<g id="Слой_2_00000139280425846419205120000001520039284250110849_">
	<path class="st0" d="M654.14,126.79L102.95,420.61L16,652.95l15.29,8.14l324.76,172.87L1008,486.92l-79.78-211.13L654.14,126.79
		L654.14,126.79z M905.7,327.95l53.07,140.43L742.03,583.76l140.66-243.61L905.7,327.95L905.7,327.95z M716.4,428.16L575.34,672.48
		l-88.06,46.88l152.57-250.68L716.4,428.16L716.4,428.16z M126.09,471.46l59.62,31.56L71.56,617.17L126.09,471.46z M571.64,504.79
		l-152.2,250.06l0.55,0.34l-36.37,19.36l12.25-176.71L571.64,504.79L571.64,504.79z M222.23,522.35l35.85,18.98L130.34,669.07
		l-35.78-19.05L222.23,522.35L222.23,522.35z M356.53,594.29l-13.05,188.23l-114.33-60.86L356.53,594.29z"/>
</g>
</svg>
