<?xml version="1.0" encoding="utf-8"?>
<!-- Generator: Adobe Illustrator 26.2.1, SVG Export Plug-In . SVG Version: 6.00 Build 0)  -->
<svg version="1.1" id="Слой_1" xmlns="http://www.w3.org/2000/svg" xmlns:xlink="http://www.w3.org/1999/xlink" x="0px" y="0px"
	 viewBox="0 0 512 512" style="enable-background:new 0 0 512 512;" xml:space="preserve">
<style type="text/css">
	.st0{fill:#EFAD81;stroke:#000000;stroke-width:4;stroke-miterlimit:10;}
	.st1{fill:#B88D70;stroke:#000000;stroke-width:4;stroke-miterlimit:10;}
</style>
<g transform="translate(0,0)">
	<path class="st0" d="M257.6,25.2c353.2,276.9,16.9,408.9-87.9,293.2l-40.8,37.1l50.8,50.3C397.3,587.2,704.5,153.8,257.6,25.2z
		 M110.8,364.3c-5.5,1.1-9,3-11.3,5.2c-2,1.9-3.2,4.6-4.2,7.6l55.2,52.8c5.5-1,9.3-2.8,11.3-4.7c2-1.9,3.1-3.9,3.1-7.5L110.8,364.3z
		 M86,394.6l-55.6,50.7c-16.7,27,14.7,61.2,51.1,44.7l51.5-50.3L86,394.6L86,394.6z"/>
</g>
<path class="st0" d="M110.7,364.9c-5.5,1.1-9,3-11.3,5.2c-2,1.9-3.2,4.6-4.2,7.6l55.2,52.8c5.5-1,9.3-2.8,11.3-4.7
	c2-1.9,3.1-3.9,3.1-7.5L110.7,364.9z"/>
<path class="st1" d="M85.9,395.3l-55.6,50.7c-16.7,27,14.7,61.2,51.1,44.7l51.5-50.3L85.9,395.3L85.9,395.3z"/>
</svg>
