<?xml version="1.0" encoding="utf-8"?>
<!-- Generator: Adobe Illustrator 26.2.1, SVG Export Plug-In . SVG Version: 6.00 Build 0)  -->
<svg version="1.1" id="Слой_1" xmlns="http://www.w3.org/2000/svg" xmlns:xlink="http://www.w3.org/1999/xlink" x="0px" y="0px"
	 viewBox="0 0 512 512" style="enable-background:new 0 0 512 512;" xml:space="preserve">
<style type="text/css">
	.st0{fill:#6A0005;stroke:#000000;stroke-width:4;stroke-miterlimit:10;}
</style>
<g transform="translate(0,0)">
	<path class="st0" d="M267.3,18c-59.8,0.5-121.6,26.7-150.7,82.1L76.7,489.9h292.8v-0.1h64.9l0.8-8.5l30-331.4l0.4-4.2l-2.9-3.1
		l-68.8-72.1C367.3,35.8,318.1,17.6,267.3,18L267.3,18z M258.8,52.3c49.2,0.1,91.1,27.8,95.7,64.9c3.9,31.2-19.8,59.7-56.2,72.3
		l9.7,50.3l-39.4-17.8l-27.3,30.3l-22.8-38.4l-45.5,17.6l20.5-53c-17.9-11.6-30-28.1-32.4-47.1c-4.9-39.6,34.4-74.8,87.8-78.7
		C252.2,52.4,255.5,52.3,258.8,52.3L258.8,52.3z M300.3,101.8c-14.6,0-26.4,11.8-26.4,26.4s11.8,26.4,26.4,26.4s26.4-11.8,26.4-26.4
		C326.7,113.6,314.9,101.8,300.3,101.8L300.3,101.8z M205.8,104c-11.4,0-20.7,9.3-20.7,20.7s9.3,20.7,20.7,20.7s20.7-9.3,20.7-20.7
		C226.5,113.2,217.3,104,205.8,104L205.8,104z M408.2,112.6l38,39.9l-28.9,318.7h-45.9l26.7-260.5l28.4-13.3l-42.3-15.8v0.1l-21-8.7
		l39.8-9.3L408.2,112.6L408.2,112.6z M248.1,151.6l-21.9,31.2l36.6,4.2L248.1,151.6L248.1,151.6z M139.6,230.8
		c54.6,58.5,149.4,118.8,222.3,142.2c-1.7,17.4-10.1,33-20.2,41c-58.6-52.7-153.9-115.3-222.4-131.9
		C118.6,260.9,127,241.9,139.6,230.8L139.6,230.8z M349.2,237.1c14.3,11.4,23.1,26,20.8,46.8c-24.5,7.5-54.4,19.3-85.7,33.4
		c-8.7-5-17.5-10.2-26.2-15.7C293.3,280.2,325.3,257.1,349.2,237.1L349.2,237.1z M197,335.2c7.6,4.2,15.3,8.6,23,13.2
		c-34,17.6-66.6,36.2-92.8,53.2c-10.5-7.5-15.8-18.1-15.8-35.1C138.7,360.4,168,349.2,197,335.2L197,335.2z"/>
</g>
</svg>
