<?xml version="1.0" encoding="utf-8"?>
<!-- Generator: Adobe Illustrator 26.2.1, SVG Export Plug-In . SVG Version: 6.00 Build 0)  -->
<svg version="1.1" xmlns="http://www.w3.org/2000/svg" xmlns:xlink="http://www.w3.org/1999/xlink" x="0px" y="0px"
	 viewBox="0 0 1024 1024" style="enable-background:new 0 0 1024 1024;" xml:space="preserve">
<style type="text/css">
	.st0{fill:none;stroke:#000000;stroke-width:5;stroke-miterlimit:10;}
	.st1{fill:#6A0005;stroke:#000000;stroke-width:5;stroke-miterlimit:10;}
</style>
<g id="Слой_3">
	<path class="st0" d="M384.95,658.45"/>
	<path class="st1" d="M863.13,934h-92.99l19.82-723.09C795.09,136.12,751.52,69.88,687.11,42c76.9,19.57,134.61,65.52,176.02,151.77
		V934z M634.15,28.64c-4.94-0.42-9.94-0.64-14.99-0.64H384.85c-89.79,0-164.33,69.38-170.76,158.94L188.5,961.5l581-4h129.79v-761
		C843.19,76.4,757.21,32.31,634.15,28.64z M497.5,105.5c107.14,0,194,62.68,194,140c0,51.12-90.02,120.45-90.02,120.45l-4.1,106.39
		l-68.78-2.64l-11.28-36.76l-15.28,35.73l-44.57-1.71l-14.77-48.08l-19.99,46.74l-49.78-1.91l4.09-106.4
		c0,0-73.52-66.03-73.52-111.81C303.5,168.18,390.36,105.5,497.5,105.5z M266.5,805.5c-62.13-25.53-56.27-25.89-69-76
		c68.11-18.1,130.02-42.3,187.45-71.05l41.41,25.69C366.16,716.09,311.75,755.52,266.5,805.5z M639.5,832.5
		c-111.71-124.58-249.38-212.34-416-259c-1.29-56.95,19.95-98.22,62-125c123.7,129.33,264.63,224.15,421,288
		C707.18,822.89,680.77,845.24,639.5,832.5z M733.5,578.3c-64.4,14.98-128.27,32.24-189.01,54.17l-52.83-35.35
		c57.96-37.63,111.8-79.56,163.85-123.65C716.94,464.58,746.75,522.52,733.5,578.3z M592.69,305.7c33.46,0,60.59-24.45,60.59-54.6
		c0-30.16-27.13-54.6-60.59-54.6s-60.59,24.44-60.59,54.6C532.1,281.25,559.23,305.7,592.69,305.7z M485.69,380.5
		c11.66,0,21.19-9.54,21.19-21.19v-22.62c0-5.83-2.38-11.12-6.22-14.96c-3.84-3.85-9.14-6.23-14.97-6.23
		c-11.65,0-21.19,9.54-21.19,21.19v22.62C464.5,370.96,474.04,380.5,485.69,380.5z M455.1,248.5c0-25.96-23.64-47-52.8-47
		c-29.16,0-52.8,21.04-52.8,47c0,25.96,23.64,47,52.8,47C431.46,295.5,455.1,274.46,455.1,248.5z"/>
	<path class="st0" d="M790.28,193.52"/>
</g>
<g id="Слой_2">
	<ellipse class="st1" cx="402.3" cy="248.5" rx="52.8" ry="47"/>
	<path class="st1" d="M506.88,336.69v22.62c0,11.65-9.53,21.19-21.19,21.19c-11.65,0-21.19-9.54-21.19-21.19v-22.62
		c0-11.65,9.54-21.19,21.19-21.19c5.83,0,11.13,2.38,14.97,6.23C504.5,325.57,506.88,330.86,506.88,336.69z"/>
	<ellipse class="st1" cx="592.69" cy="251.1" rx="60.59" ry="54.6"/>
	<path class="st1" d="M592.69,196.5c-33.46,0-60.59,24.44-60.59,54.6c0,30.15,27.13,54.6,60.59,54.6s60.59-24.45,60.59-54.6
		C653.28,220.94,626.15,196.5,592.69,196.5z M485.69,315.5c-11.65,0-21.19,9.54-21.19,21.19v22.62c0,11.65,9.54,21.19,21.19,21.19
		c11.66,0,21.19-9.54,21.19-21.19v-22.62c0-5.83-2.38-11.12-6.22-14.96C496.82,317.88,491.52,315.5,485.69,315.5z M402.3,201.5
		c-29.16,0-52.8,21.04-52.8,47c0,25.96,23.64,47,52.8,47c29.16,0,52.8-21.04,52.8-47C455.1,222.54,431.46,201.5,402.3,201.5z"/>
</g>
</svg>
