<?xml version="1.0" encoding="utf-8"?>
<!-- Generator: Adobe Illustrator 26.2.1, SVG Export Plug-In . SVG Version: 6.00 Build 0)  -->
<svg version="1.1" id="Слой_1" xmlns="http://www.w3.org/2000/svg" xmlns:xlink="http://www.w3.org/1999/xlink" x="0px" y="0px"
	 viewBox="0 0 1024 1024" style="enable-background:new 0 0 1024 1024;" xml:space="preserve">
<style type="text/css">
	.st0{opacity:0.8;fill:#CBCAF2;stroke:#000000;stroke-width:5;stroke-miterlimit:10;enable-background:new    ;}
	.st1{fill:#A4A3C3;stroke:#000000;stroke-width:5;stroke-miterlimit:10;}
	.st2{opacity:0.66;stroke:#000000;stroke-width:5;stroke-miterlimit:10;enable-background:new    ;}
</style>
<g id="Слой_2_00000085973475668604724450000008120481833011149751_">
	<polygon class="st0" points="11.61,967.14 831.5,899.5 832.73,1017.77 	"/>
	<polygon class="st0" points="8.61,591.89 828.5,524.24 829.73,642.51 	"/>
	<polygon class="st0" points="10.61,718.89 830.5,651.24 831.73,769.51 	"/>
	<polygon class="st0" points="6.61,207.89 826.5,140.24 827.73,258.51 	"/>
	<path class="st0" d="M804.25,31.52c-8.15-4.28-16.95-10.28-26.41-10.62c-2.82-0.1-4.4-2.08-4.75-4.25L6.61,79.89l821.12,50.63
		l-0.91-87.29C819.25,39.42,811.75,35.46,804.25,31.52z"/>
	<polygon class="st0" points="6.61,335.89 826.5,268.24 827.73,386.51 	"/>
	<polygon class="st0" points="8.61,463.89 828.5,396.24 829.73,514.51 	"/>
	<polygon class="st0" points="10.61,844.89 830.5,777.24 831.73,895.51 	"/>
</g>
<g id="Слой_3">
</g>
<g id="Слой_4">
	<path class="st1" d="M1023.5,509.75c0,0.58,0,1.17-0.01,1.75h0.01v169h-91v331h-295v-331h-90v-169h0.01
		c-0.01-0.58-0.01-1.17-0.01-1.75v-29.5c0-23.4,4.94-45.7,13.84-65.9c5.96-13.55,13.69-26.15,22.91-37.52
		c28.74-35.46,71.83-58.86,120.21-61.14c-12.91-10.9-24.21-24.31-33.36-39.64c-4.41-7.38-8.31-15.2-11.66-23.4
		c-8.93-21.82-13.94-46.29-13.94-72.15c0-10.63,0.85-21.03,2.46-31.1c1.41-8.76,3.39-17.28,5.91-25.5
		C673.46,60.09,725.22,14.5,786,14.5c77.6,0,140.5,74.32,140.5,166c0,55.78-23.29,105.14-59.01,135.24
		c86.59,4.57,156.01,76.83,156.01,164.51V509.75z"/>
	<path class="st2" d="M827.39,134.6l-179.43,14.8c1.41-8.76,3.39-17.28,5.91-25.5L827.39,134.6z"/>
	<path class="st2" d="M831.39,392.07l-270.05,22.28c5.96-13.55,13.69-26.15,22.91-37.52L831.39,392.07z"/>
	<path class="st2" d="M833.39,519.07L547.5,542.66V511.5h0.01c-0.01-0.58-0.01-1.17-0.01-1.75v-8.31L833.39,519.07z"/>
	<polygon class="st2" points="834.39,775.07 637.5,791.31 637.5,762.93 	"/>
	<polyline class="st2" points="547.5,670.57 832.39,647.07 547.5,629.5 	"/>
	<polygon class="st2" points="834.39,897.07 637.5,913.31 637.5,884.93 	"/>
	<path class="st2" d="M828.39,263.07L671.1,276.05c-4.41-7.38-8.31-15.2-11.66-23.4L828.39,263.07z"/>
</g>
</svg>
