<?xml version="1.0" encoding="utf-8"?>
<!-- Generator: Adobe Illustrator 26.2.1, SVG Export Plug-In . SVG Version: 6.00 Build 0)  -->
<svg version="1.1" id="Слой_1" xmlns="http://www.w3.org/2000/svg" xmlns:xlink="http://www.w3.org/1999/xlink" x="0px" y="0px"
	 viewBox="0 0 512 512" style="enable-background:new 0 0 512 512;" xml:space="preserve">
<style type="text/css">
	.st0{fill:#CDCCF4;stroke:#000000;stroke-width:4;stroke-miterlimit:10;}
	.st1{fill:#A4A3C3;stroke:#000000;stroke-width:4;stroke-miterlimit:10;}
</style>
<g id="Слой_1_00000107566641062530148420000016315979153370175380_">
	<g transform="translate(0,0)">
		<path class="st0" d="M396.1,17.3c-0.2,0-1.9,0.1-5,0.1c-22,0-42.2,18.9-49.4,46.6l75.7,12.6l-78.5,13.1c0.6,16.2,5.5,31,13.1,42.4
			l54.4,9.6L365,149l0.5,0.6l-15.9,2.5c-15.3,2.4-25.9,9.6-34.5,21.2c-2.5,3.4-4.8,7.2-7,11.3l90.8,13.2l-101,14.7
			c-0.6,2.2-1.1,4.5-1.6,6.9c-1.7,7.6-3,15.6-4,23.9l115.3,14.1l-117.8,14.4c-0.5,9.1-0.8,18.2-1,27.3l114.1,16.4l-113.3,16.3h40.8
			l2.1,32.5l82,11.4L334,386.9l2.5,38.1l75.6,10.9L338,446.5l2.9,44.6h96.3l11.9-159.4h44c-0.2-36-1.9-77.3-10.1-111.2
			c-4.5-18.4-10.8-34.4-19.3-46.1c-8.5-11.6-18.6-19-32.2-21.5l-15.6-2.9l10.1-12.2c10.4-12.6,17.5-30.7,17.5-51.1
			c0-37.1-22.1-66-47.1-69.3h-0.1L396.1,17.3L396.1,17.3z M342.5,22.4L16.8,46l304.9,22.1C324.8,50.4,332.1,34.5,342.5,22.4
			L342.5,22.4z M320.1,84.5l-303.4,22L329,129.1c-5.7-12.6-9-27-9-42.4C320.1,85.9,320.1,85.2,320.1,84.5L320.1,84.5z M317.5,145.2
			L16.8,167l270,19.5c3.6-8.9,8-17.1,13.4-24.4C305,155.5,310.8,149.8,317.5,145.2z M279.7,208.4l-263,19L273.2,246
			c1.2-10.5,2.8-20.8,4.9-30.7C278.6,213,279.2,210.7,279.7,208.4L279.7,208.4z M271.4,266.2L16.8,284.6L270,303
			C270.2,290.9,270.6,278.5,271.4,266.2L271.4,266.2z M269.9,326.8L16.8,345.1L314,366.7l-1.1-16.3h-43.1v-9.3
			C269.9,336.4,269.8,331.7,269.9,326.8L269.9,326.8z M315.1,384L16.8,405.6L318,427.5L315.1,384L315.1,384z M319.1,444.2
			L16.8,466.1L322,488.2L319.1,444.2L319.1,444.2z"/>
	</g>
	<path class="st1" d="M396.1,17.3c-0.2,0-1.9,0.1-5,0.1c-22,0-42.2,18.9-49.4,46.6l75.7,12.6l-78.5,13.1c0.6,16.2,5.5,31,13.1,42.4
		l54.4,9.6L365,149l0.5,0.6l-15.9,2.5c-15.3,2.4-25.9,9.6-34.5,21.2c-2.5,3.4-4.8,7.2-7,11.3l90.8,13.2l-101,14.7
		c-0.6,2.2-1.1,4.5-1.6,6.9c-1.7,7.6-3,15.6-4,23.9l115.3,14.1l-117.8,14.4c-0.5,9.1-0.8,18.2-1,27.3l114.1,16.4l-113.3,16.3h40.8
		l2.1,32.5l82,11.4L334,386.9l2.5,38.1l75.6,10.9L338,446.5l2.9,44.6h96.3l11.9-159.4h44c-0.2-36-1.9-77.3-10.1-111.2
		c-4.5-18.4-10.8-34.4-19.3-46.1c-8.5-11.6-18.6-19-32.2-21.5l-15.6-2.9l10.1-12.2c10.4-12.6,17.5-30.7,17.5-51.1
		c0-37.1-22.1-66-47.1-69.3h-0.1L396.1,17.3L396.1,17.3z"/>
	<path class="st1" d="M473.4,58"/>
	<path class="st1" d="M473.4,179"/>
	<path class="st1" d="M473.3,239.4"/>
	<path class="st1" d="M473.3,239.4"/>
	<path class="st1" d="M473.4,296.6"/>
	<path class="st1" d="M473.4,296.6"/>
	<path class="st1" d="M473.4,357.1"/>
	<path class="st1" d="M473.4,357.1"/>
	<path class="st1" d="M473.4,417.6"/>
	<path class="st1" d="M473.4,417.6"/>
	<path class="st1" d="M473.4,478.1"/>
	<path class="st1" d="M473.4,478.1"/>
</g>
</svg>
