<?xml version="1.0" encoding="utf-8"?>
<!-- Generator: Adobe Illustrator 26.2.1, SVG Export Plug-In . SVG Version: 6.00 Build 0)  -->
<svg version="1.1" id="Слой_1" xmlns="http://www.w3.org/2000/svg" xmlns:xlink="http://www.w3.org/1999/xlink" x="0px" y="0px"
	 viewBox="0 0 512 512" style="enable-background:new 0 0 512 512;" xml:space="preserve">
<style type="text/css">
	.st0{fill:#D5D4EC;stroke:#000000;stroke-width:4;stroke-miterlimit:10;}
</style>
<g transform="translate(0,0)">
	<path class="st0" d="M239,34.5c-19,1.4-37.3,5.2-54.6,11.2L388,249.4l10.1,10.2l-13.8,3.7l-161.5,43.2l-12.6,47.1l266.4-71.4
		c0.3-2.9,0.6-5.9,0.9-8.9L239,34.5z M167.5,52.2c-1.9,0.8-3.8,1.7-5.7,2.6l-88,328.3c11.2,16,24.5,30.5,39.4,43.1l74.4-277.6
		l3.7-13.9l10.1,10.2l118.5,118.5l46.3-12.4L167.5,52.2z M200.7,373.3l-13.9,3.7l3.7-13.9L234,200.9l-34.1-34.1l-72.5,270.4
		c3.3,2.4,6.7,4.6,10.1,6.8l314.9-84.4c9.7-18.4,16.9-38.4,21.2-59.4L200.7,373.3z"/>
</g>
<path class="st0" d="M256,16.2C123.6,16.2,16.2,123.6,16.2,256S123.6,495.8,256,495.8S495.8,388.4,495.8,256S388.4,16.2,256,16.2z
	 M256,478.1c-43.5,0-84.1-12.5-118.4-34.2c-3.4-2.2-6.8-4.4-10.1-6.8c-4.9-3.5-9.6-7.1-14.2-11c-15-12.6-28.2-27-39.4-43.1
	c-25.2-36-39.9-79.8-39.9-127.1c0-89,52.3-165.8,127.9-201.2c1.9-0.9,3.8-1.7,5.7-2.6c5.5-2.4,11.1-4.6,16.9-6.5
	C201.7,39.8,220,36,239,34.5c5.6-0.4,11.3-0.6,17-0.6c122.7,0,222.1,99.4,222.1,222.1c0,5.8-0.2,11.6-0.7,17.4c-0.2,3-0.5,6-0.9,8.9
	c-0.7,6-1.7,12-2.8,17.9c-4.2,21-11.5,41-21.2,59.4C415.3,430,341.3,478.1,256,478.1z"/>
<image style="overflow:visible;" width="512" height="128" xlink:href="../../Downloads/T6aspects.png"  transform="matrix(0.75 0 0 0.75 -426.9561 421.2198)">
</image>
</svg>
