<?xml version="1.0" encoding="utf-8"?>
<!-- Generator: Adobe Illustrator 26.2.1, SVG Export Plug-In . SVG Version: 6.00 Build 0)  -->
<svg version="1.1" xmlns="http://www.w3.org/2000/svg" xmlns:xlink="http://www.w3.org/1999/xlink" x="0px" y="0px"
	 viewBox="0 0 1024 1024" style="enable-background:new 0 0 1024 1024;" xml:space="preserve">
<style type="text/css">
	.st0{fill:#D5D4EC;}
	.st1{fill:#BEBDD2;}
	.st2{fill:#BEBDD2;stroke:#000000;stroke-width:5;stroke-miterlimit:10;}
</style>
<g id="Слой_3">
	<g>
		<g>
			<path class="st0" d="M362.67,430.91c-0.55,9.52-2.3,18.91-5.18,28c-0.58,1.84,2.31,2.63,2.89,0.8c2.96-9.34,4.73-19.02,5.29-28.8
				C365.78,428.98,362.78,428.98,362.67,430.91L362.67,430.91z"/>
		</g>
	</g>
	<g>
		<g>
			<path class="st0" d="M359.75,430.38c-0.97,12.88-4.85,25.19-11.25,36.4c-3.84,6.72,6.53,12.77,10.36,6.06
				c7.48-13.1,11.76-27.42,12.89-42.46C372.33,422.68,360.33,422.71,359.75,430.38L359.75,430.38z"/>
		</g>
	</g>
	<g>
		<g>
			<path class="st0" d="M399.55,407.23c-9.33,28.5-20.84,56.17-34.48,82.88c-3.51,6.86,6.84,12.94,10.36,6.06
				c14.1-27.61,26.04-56.28,35.68-85.75C413.52,403.07,401.94,399.92,399.55,407.23L399.55,407.23z"/>
		</g>
	</g>
	<g>
		<g>
			<path class="st0" d="M371.97,478.95c1.26,5.47-1.72,10.53-4.37,15.1c-2.61,4.51-5.11,8.96-6.56,13.99
				c-2.14,7.44,9.44,10.61,11.57,3.19c1.81-6.29,5.96-11.43,8.64-17.33c2.67-5.88,3.75-11.8,2.28-18.14
				C381.8,468.23,370.23,471.42,371.97,478.95L371.97,478.95z"/>
		</g>
	</g>
	<g>
		<g>
			<path class="st0" d="M360.3,508.31c-1.82,7.82-4.27,15.41-7.36,22.83c-1.26,3.01,1.36,6.57,4.19,7.38
				c3.44,0.99,6.14-1.22,7.38-4.19c3.09-7.41,5.54-15,7.36-22.83C373.62,503.99,362.05,500.78,360.3,508.31L360.3,508.31z"/>
		</g>
	</g>
	<g>
		<g>
			<path class="st0" d="M353.03,530.11c-3.27,9.46-6.53,18.92-9.8,28.38c-2.53,7.31,9.06,10.46,11.57,3.19
				c3.27-9.46,6.53-18.92,9.8-28.38C367.13,525.98,355.54,522.84,353.03,530.11L353.03,530.11z"/>
		</g>
	</g>
	<g>
		<g>
			<path class="st0" d="M343.81,556.4c-4.6,16.29-10.34,32.2-17.34,47.61c-3.17,6.98,7.17,13.09,10.36,6.06
				c7.43-16.36,13.66-33.18,18.55-50.47C357.48,552.14,345.91,548.97,343.81,556.4L343.81,556.4z"/>
		</g>
	</g>
	<g>
		<g>
			<path class="st0" d="M302.28,596.61c-2.01,22.09-4.46,44.14-7.44,66.13c-0.44,3.24,0.78,6.4,4.19,7.38
				c2.79,0.8,6.95-0.98,7.38-4.19c3.12-23.05,5.76-46.15,7.86-69.32C314.97,588.93,302.97,588.97,302.28,596.61L302.28,596.61z"/>
		</g>
	</g>
	<g>
		<g>
			<path class="st0" d="M318.47,602.58c0,0.66,0,1.32,0,1.98c0,1.54,0.67,3.15,1.76,4.24c0.54,0.59,1.19,1,1.93,1.24
				c0.72,0.38,1.49,0.55,2.31,0.52c1.55-0.07,3.16-0.58,4.24-1.76c1.08-1.17,1.76-2.62,1.76-4.24c0-0.66,0-1.32,0-1.98
				c0-1.54-0.67-3.15-1.76-4.24c-0.54-0.59-1.19-1-1.93-1.24c-0.72-0.38-1.49-0.55-2.31-0.52c-1.55,0.07-3.16,0.58-4.24,1.76
				C319.15,599.51,318.47,600.96,318.47,602.58L318.47,602.58z"/>
		</g>
	</g>
	<g>
		<g>
			<path class="st0" d="M322.81,603.39c-1.56,7.67-3.85,15.13-7.1,22.26c-3.18,6.97,7.16,13.08,10.36,6.06
				c3.69-8.09,6.53-16.4,8.31-25.13C335.92,599.05,324.35,595.82,322.81,603.39L322.81,603.39z"/>
		</g>
	</g>
	<g>
		<g>
			<path class="st0" d="M322.53,612.87c-0.39,5.15-2.23,9.79-5.1,14.06c-4.32,6.43,6.08,12.44,10.36,6.06
				c4.06-6.05,6.19-12.88,6.74-20.11C335.11,605.17,323.11,605.21,322.53,612.87L322.53,612.87z"/>
		</g>
	</g>
	<g>
		<g>
			<path class="st0" d="M313.33,631.46c0,1.32,0,2.64,0,3.96c0,3.14,2.76,6.15,6,6c3.25-0.15,6-2.64,6-6c0-1.32,0-2.64,0-3.96
				c0-3.14-2.76-6.15-6-6C316.08,625.61,313.33,628.1,313.33,631.46L313.33,631.46z"/>
		</g>
	</g>
	<g>
		<g>
			<path class="st0" d="M321.7,639.44c7.72,0,7.73-12,0-12C313.98,627.44,313.97,639.44,321.7,639.44L321.7,639.44z"/>
		</g>
	</g>
	<g>
		<g>
			<path class="st0" d="M313.04,637.49c-5.6,14.06-12.1,27.73-19.37,41.01c-3.71,6.78,6.65,12.84,10.36,6.06
				c7.76-14.2,14.59-28.85,20.57-43.88C327.46,633.51,315.86,630.4,313.04,637.49L313.04,637.49z"/>
		</g>
	</g>
	<g>
		<g>
			<path class="st0" d="M306.78,654.9c-4.5,9.46-9.58,18.84-12.87,28.81c-2.42,7.35,9.16,10.5,11.57,3.19
				c2.95-8.97,7.61-17.44,11.66-25.94C320.45,654.02,310.1,647.93,306.78,654.9L306.78,654.9z"/>
		</g>
	</g>
	<g>
		<g>
			<path class="st0" d="M301.46,670.01c-3.27,9.21-7.75,17.78-13.25,25.85c-4.36,6.4,6.03,12.41,10.36,6.06
				c6.09-8.93,10.85-18.54,14.46-28.71C315.62,665.91,304.03,662.78,301.46,670.01L301.46,670.01z"/>
		</g>
	</g>
	<g>
		<g>
			<path class="st0" d="M293.52,690.01c-0.1,4.31-3.46,9.31-5.17,13.2c-2.01,4.59-4.01,9.18-6.02,13.76
				c-3.06,7.01,7.27,13.12,10.36,6.06c2.51-5.73,5.01-11.47,7.52-17.2c2.22-5.09,5.17-10.16,5.3-15.82
				C305.7,682.29,293.7,682.29,293.52,690.01L293.52,690.01z"/>
		</g>
	</g>
	<g>
		<g>
			<path class="st0" d="M285.39,715.33c-5.54,11.37-11.08,22.75-16.62,34.12c-3.37,6.91,6.98,13.01,10.36,6.06
				c5.54-11.37,11.08-22.75,16.62-34.12C299.12,714.47,288.78,708.38,285.39,715.33L285.39,715.33z"/>
		</g>
	</g>
	<g>
		<g>
			<path class="st0" d="M274.81,741.36c-1.82,9.23-8.59,16.51-11.39,25.46c-2.31,7.39,9.27,10.55,11.57,3.19
				c2.81-8.97,9.54-16.06,11.39-25.46C287.87,737.01,276.3,733.78,274.81,741.36L274.81,741.36z"/>
		</g>
	</g>
	<g>
		<g>
			<path class="st0" d="M269.36,756.47c-1.62,9.86-8.04,19.3-11.78,28.51c-1.86,4.58-3.42,9.26-4.51,14.09
				c-1.11,4.93-1.76,10.05-4.02,14.62c-3.41,6.9,6.94,12.99,10.36,6.06c4.66-9.42,5.28-20.18,9.09-29.96
				c3.84-9.85,10.7-19.64,12.43-30.14C282.17,752.11,270.61,748.86,269.36,756.47L269.36,756.47z"/>
		</g>
	</g>
	<g>
		<g>
			<path class="st0" d="M253.46,827.35c7.72,0,7.73-12,0-12C245.74,815.35,245.73,827.35,253.46,827.35L253.46,827.35z"/>
		</g>
	</g>
	<g>
		<g>
			<path class="st0" d="M253.46,827.55c7.72,0,7.73-12,0-12C245.74,815.55,245.73,827.55,253.46,827.55L253.46,827.55z"/>
		</g>
	</g>
	<g>
		<g>
			<path class="st0" d="M188.06,737.69c1.89,4.43,5.79,7.42,7.92,11.67c1,1.98,1.74,4.01,3.02,5.84c1.41,2,4.18,3.97,5.1,6.22
				c2.87,7.06,14.48,3.97,11.57-3.19c-2.1-5.18-6.38-8.57-8.72-13.6c-2.24-4.79-6.47-8.19-8.53-13.01
				C195.41,724.55,185.07,730.66,188.06,737.69L188.06,737.69z"/>
		</g>
	</g>
	<g>
		<g>
			<path class="st0" d="M210.43,768.84c5.64,9.84,12.24,19.04,19.66,27.63c5.06,5.85,13.51-2.67,8.49-8.49
				c-6.76-7.82-12.64-16.24-17.78-25.2C216.96,756.08,206.58,762.12,210.43,768.84L210.43,768.84z"/>
		</g>
	</g>
	<g>
		<g>
			<path class="st0" d="M232.09,799.84c2.57,5.1,5.72,9.77,9.3,14.22c2.03,2.53,6.37,2.12,8.49,0c2.5-2.5,2.04-5.95,0-8.49
				c-2.91-3.63-5.34-7.64-7.42-11.79c-1.46-2.89-5.54-3.72-8.21-2.15C231.3,793.35,230.63,796.93,232.09,799.84L232.09,799.84z"/>
		</g>
	</g>
	<g>
		<g>
			<path class="st0" d="M250.69,821.81c7.72,0,7.73-12,0-12C242.97,809.81,242.96,821.81,250.69,821.81L250.69,821.81z"/>
		</g>
	</g>
	<g>
		<g>
			<path class="st0" d="M214.1,770.38c7.72,0,7.73-12,0-12C206.38,758.38,206.36,770.38,214.1,770.38L214.1,770.38z"/>
		</g>
	</g>
	<g>
		<g>
			<path class="st0" d="M198.67,734.19c2.88-2.3,4.82-5.54,5.5-9.17c0.25-1.36-0.07-2.91,0.18-4.2c0.34-1.75,1.52-3.41,2.24-5.12
				c1.55-3.67,2.47-7.55,3.93-11.25c1.72-4.38,3.94-8.56,6.09-12.73c3.53-6.85-6.82-12.93-10.36-6.06
				c-3.71,7.21-6.97,14.39-9.5,22.1c-1.07,3.28-3.58,6.28-4.34,9.56c-0.82,3.53,1.03,5.79-2.22,8.39
				C184.15,730.52,192.69,738.97,198.67,734.19L198.67,734.19z"/>
		</g>
	</g>
	<g>
		<g>
			<path class="st0" d="M219.33,683.78c5.62-15.73,11.66-31.32,18.19-46.7c1.28-3,0.88-6.4-2.15-8.21c-2.51-1.5-6.94-0.83-8.21,2.15
				c-6.94,16.34-13.43,32.85-19.4,49.57C205.16,687.87,216.75,691.01,219.33,683.78L219.33,683.78z"/>
		</g>
	</g>
	<g>
		<g>
			<path class="st0" d="M239.88,628.96c4.01-13.92,10.62-26.93,16.62-40.06c3.19-6.97-7.15-13.08-10.36-6.06
				c-6.43,14.06-13.54,28.03-17.83,42.93C226.16,633.2,237.74,636.38,239.88,628.96L239.88,628.96z"/>
		</g>
	</g>
	<g>
		<g>
			<path class="st0" d="M257.93,582.43c6.32-11.56,11.14-23.83,14.29-36.62c1.85-7.5-9.72-10.7-11.57-3.19
				c-2.92,11.83-7.24,23.06-13.08,33.75C243.87,583.15,254.22,589.21,257.93,582.43L257.93,582.43z"/>
		</g>
	</g>
	<g>
		<g>
			<path class="st0" d="M273.59,540.89c5.89-12.55,11.3-25.31,16.22-38.27c2.75-7.23-8.85-10.35-11.57-3.19
				c-4.56,11.99-9.56,23.79-15.01,35.4C259.97,541.78,270.31,547.88,273.59,540.89L273.59,540.89z"/>
		</g>
	</g>
	<g>
		<g>
			<path class="st0" d="M290.64,498.14c3.9-6.39,4.51-14.26,8.06-20.95c3.57-6.72,7.55-13.1,10.49-20.14
				c2.97-7.12-8.64-10.23-11.57-3.19c-2.74,6.56-6.84,12.45-10.06,18.77c-1.5,2.94-2.87,6.01-3.91,9.14
				c-1.14,3.44-1.46,7.18-3.37,10.31C276.25,498.7,286.62,504.73,290.64,498.14L290.64,498.14z"/>
		</g>
	</g>
	<g>
		<g>
			<path class="st0" d="M304.57,461.18c7.68-13.26,9.6-28.85,17.06-42.17c3.78-6.74-6.58-12.8-10.36-6.06
				c-7.48,13.35-9.41,28.95-17.06,42.17C290.33,461.82,300.69,467.87,304.57,461.18L304.57,461.18z"/>
		</g>
	</g>
	<g>
		<g>
			<path class="st0" d="M323.59,412.67c7.19-12.21,12.59-25.37,16.02-39.12c1.87-7.49-9.7-10.69-11.57-3.19
				c-3.2,12.81-8.11,24.88-14.81,36.26C309.3,413.29,319.67,419.33,323.59,412.67L323.59,412.67z"/>
		</g>
	</g>
	<g>
		<g>
			<path class="st0" d="M326.5,373.2c-2.73,4.67-4.92,9.63-6.6,14.76c-1.01,3.08,1.17,6.55,4.19,7.38c3.26,0.89,6.37-1.1,7.38-4.19
				c1.37-4.19,3.16-8.09,5.39-11.9C340.76,372.58,330.4,366.53,326.5,373.2L326.5,373.2z"/>
		</g>
	</g>
	<g>
		<g>
			<path class="st0" d="M342.53,366.27c3.84-14.19,11.6-26.89,15.8-40.97c2.21-7.42-9.37-10.58-11.57-3.19
				c-4.2,14.07-11.95,26.77-15.8,40.97C328.93,370.54,340.51,373.73,342.53,366.27L342.53,366.27z"/>
		</g>
	</g>
	<g>
		<g>
			<path class="st0" d="M361.26,319.08c6.09-15.49,12.04-31.03,17.83-46.63c2.69-7.25-8.9-10.38-11.57-3.19
				c-5.8,15.6-11.74,31.14-17.83,46.63C346.86,323.08,358.46,326.2,361.26,319.08L361.26,319.08z"/>
		</g>
	</g>
	<g>
		<g>
			<path class="st0" d="M380.86,266.71c4.8-11.77,9.37-23.63,13.73-35.57c2.65-7.27-8.94-10.4-11.57-3.19
				c-4.36,11.94-8.93,23.8-13.73,35.57C366.38,270.67,377.98,273.78,380.86,266.71L380.86,266.71z"/>
		</g>
	</g>
	<g>
		<g>
			<path class="st0" d="M396.68,225.49c2.24-5.9,5-11.55,8.25-16.97c2.9-4.83,5.41-9.23,5.79-14.96c0.52-7.71-11.48-7.68-12,0
				c-0.32,4.76-4.61,9.47-6.79,13.54c-2.63,4.9-4.85,10-6.82,15.2C382.37,229.52,393.97,232.65,396.68,225.49L396.68,225.49z"/>
		</g>
	</g>
	<g>
		<g>
			<path class="st0" d="M408.25,198.81c-0.66-2.51,2.1-8.3,2.85-10.63c1.25-3.9,2.73-7.67,4.51-11.36
				c3.33-6.93-7.02-13.02-10.36-6.06c-2.48,5.17-4.59,10.5-6.27,15.98c-1.47,4.82-3.63,10.21-2.3,15.25
				C398.65,209.46,410.23,206.3,408.25,198.81L408.25,198.81z"/>
		</g>
	</g>
	<g>
		<g>
			<path class="st0" d="M409.12,183.28c2.22,4.42,4.54,8.71,7.71,12.54c2.79,3.37,6.11,6.03,7.95,10.08
				c3.18,7.02,13.53,0.93,10.36-6.06c-1.87-4.12-5.06-7.24-8.08-10.53c-3.27-3.56-5.43-7.8-7.58-12.09
				C416.01,170.32,405.66,176.39,409.12,183.28L409.12,183.28z"/>
		</g>
	</g>
	<g>
		<g>
			<path class="st0" d="M408.46,412.64c-8.77,38.59-20.07,76.56-33.82,113.67c-2.7,7.28,8.82,10.3,11.57,3.19
				c12.54-32.48,25.08-64.96,37.62-97.44c-3.86-1.06-7.71-2.13-11.57-3.19c-15.18,60.56-47,115.22-63.9,175.22
				c-2.13,7.56,8.91,10.3,11.57,3.19c19.63-52.37,30.01-107.46,40.22-162.27c-3.86-1.06-7.71-2.13-11.57-3.19
				c-4.78,29.03-11.3,57.75-19.6,85.97c-8.03,27.28-20.83,54.38-21.88,83.16c-0.21,5.8,8.51,8.37,11.18,3.03
				c25.34-50.73,36.04-106.88,40.17-163.06c0.5-6.76-10.24-8.13-11.79-1.6c-7.81,33.04-15.62,66.08-23.42,99.12
				c-3.87,16.36-7.73,32.72-11.6,49.08c-3.7,15.65-8.83,31.68-9.19,47.86c-0.13,5.83,8.41,8.33,11.18,3.03
				c4.97-9.52,6.58-19.98,8.54-30.42c2.14-11.41,4.29-22.83,6.43-34.24c4.29-22.83,8.57-45.66,12.86-68.49
				c1.16-6.17-7.98-11.26-10.97-4.62c-11.5,25.58-22.43,51.41-32.74,77.49c-5.12,12.95-10.08,25.96-14.9,39.03
				c-4.79,13-10.09,25.96-11.05,39.92c-0.21,2.99,2.93,6.33,6,6c9.83-1.07,12.3-10.96,15.58-18.86
				c4.21-10.16,8.07-20.46,11.59-30.88c6.94-20.55,12.47-41.54,16.68-62.81c1.48-7.5-9.68-10.76-11.57-3.19
				c-11.17,44.75-22.35,89.51-33.52,134.26c-1.87,7.49,9.6,10.67,11.57,3.19c9.14-34.73,18.28-69.47,27.42-104.2
				c1.1-4.19-2.93-8.92-7.38-7.38c-9.9,3.42-11.71,16.3-14.39,25.11c-3.59,11.81-6.68,23.77-9.28,35.84
				c-2.5,11.67-4.51,23.43-6.09,35.26c-1.56,11.66-2.9,23.76,1.74,34.92c2.17,5.23,9.71,6.13,11.57,0
				c6.35-20.91,8.27-42.83,10.4-64.49c2.24-22.8,4.1-45.63,5.63-68.48c0.38-5.75-8.73-8.45-11.18-3.03
				c-4.5,9.96-8.11,20.19-10.66,30.82c-1.8,7.51,9.77,10.71,11.57,3.19c2.3-9.6,5.38-18.95,9.45-27.95
				c-3.73-1.01-7.45-2.02-11.18-3.03c-1.48,22.19-3.28,44.36-5.43,66.5c-2.07,21.28-3.92,42.73-10.16,63.28c3.86,0,7.71,0,11.57,0
				c-3.87-9.31-2.95-19.13-1.69-28.91c1.35-10.45,3.13-20.85,5.26-31.17c2.04-9.92,4.42-19.77,7.14-29.53
				c1.44-5.18,2.98-10.34,4.61-15.47c0.63-1.99,2.05-10.5,4.32-11.29c-2.46-2.46-4.92-4.92-7.38-7.38
				c-9.14,34.73-18.28,69.47-27.42,104.2c3.86,1.06,7.71,2.13,11.57,3.19c11.17-44.75,22.35-89.51,33.52-134.26
				c-3.86-1.06-7.71-2.13-11.57-3.19c-3.66,18.5-8.31,36.78-14.04,54.75c-2.86,8.98-5.98,17.88-9.35,26.68
				c-1.57,4.11-3.2,8.2-4.89,12.26c-1,2.42-1.96,4.88-3.09,7.24c-0.53,1.11-2.29,2.96-0.92,2.81c2,2,4,4,6,6
				c0.92-13.32,6.71-26.16,11.29-38.56c4.6-12.45,9.34-24.86,14.22-37.2c9.93-25.12,20.45-49.99,31.53-74.63
				c-3.66-1.54-7.31-3.08-10.97-4.62c-4.16,22.18-8.33,44.35-12.49,66.53c-2.02,10.76-4.04,21.52-6.06,32.29
				c-1.97,10.48-3.07,21.9-8.07,31.47c3.73,1.01,7.45,2.02,11.18,3.03c0.35-15.68,5.63-31.42,9.22-46.59
				c3.87-16.36,7.73-32.72,11.6-49.08c7.66-32.4,15.31-64.8,22.97-97.19c-3.93-0.53-7.86-1.06-11.79-1.6
				c-3.96,53.96-14.18,108.26-38.53,157c3.73,1.01,7.45,2.02,11.18,3.03c0.52-14.15,4.45-27.71,8.89-41.06
				c4.5-13.55,9.11-27.04,13.1-40.75c8.06-27.63,14.38-55.74,19.06-84.13c1.24-7.51-10.15-10.83-11.57-3.19
				c-10.21,54.81-20.59,109.9-40.22,162.27c3.86,1.06,7.71,2.13,11.57,3.19c16.9-60,48.72-114.66,63.9-175.22
				c1.91-7.64-8.84-10.27-11.57-3.19c-12.54,32.48-25.08,64.96-37.62,97.44c3.86,1.06,7.71,2.13,11.57,3.19
				c13.75-37.11,25.05-75.08,33.82-113.67C421.74,408.31,410.17,405.1,408.46,412.64L408.46,412.64z"/>
		</g>
	</g>
	<g>
		<g>
			<path class="st0" d="M333.41,663.57c-10.76,12.64-21.51,25.28-32.27,37.92c-8.67,10.18-21.05,20.94-21.62,35.23
				c-0.17,4.1,3.95,6.57,7.6,5.79c8.53-1.83,14.62-8.76,19.85-15.28c5.49-6.85,10.2-14.24,14.45-21.92
				c9.5-17.18,17.63-35.17,25.11-53.31c-3.86-1.06-7.71-2.13-11.57-3.19c-7.14,24.84-15.7,49.26-25.8,73.06
				c3.66,1.54,7.31,3.08,10.97,4.62c6.86-28.23,20.05-55.09,20.2-84.65c0.03-5.78-8.37-8.39-11.18-3.03
				c-14.74,28.17-27.06,57.57-36.8,87.84c-1.74,5.42,6.27,10.65,10.03,5.84c10.89-13.94,17.96-29.83,23.86-46.41
				c6.05-16.99,13.03-34.91,11.89-53.25c-0.41-6.53-9.99-8.42-11.79-1.6c-5.27,19.98-10.54,39.96-15.8,59.94
				c-2.59,9.83-5.18,19.66-7.78,29.49c-2.35,8.93-6.1,18.51-3.3,27.74c0.96,3.17,4.15,4.98,7.38,4.19
				c7.46-1.82,12.35-9.41,16.92-15.07c5.05-6.25,9.82-12.73,14.24-19.45c8.89-13.53,16.2-27.94,22.23-42.95
				c2.52-6.26-5.98-9.02-10.03-5.84c-26.7,20.99-51.05,44.76-72.69,70.94c-2.45,2.97-2.34,7.28,1.21,9.42
				c4.73,2.85,9.92,2.63,15.1,1.14c6.2-1.78,12.27-3.98,18.47-5.75c6.09-1.74,12.23-3.32,18.4-4.74c3.4-0.78,6.8-1.51,10.22-2.2
				c2.27-0.45,6.07-1.96,8.21-0.73c-0.4-3.14-0.81-6.28-1.21-9.42c-6.12,4.86-13.28,7.66-20.93,8.94
				c-7.6,1.27-4.38,12.84,3.19,11.57c9.81-1.64,18.48-5.87,26.23-12.02c3.07-2.44,1.83-7.67-1.21-9.42
				c-5.03-2.89-10.16-1.91-15.6-0.85c-6.53,1.27-13.03,2.72-19.48,4.35c-6.14,1.55-12.25,3.26-18.3,5.12
				c-4.06,1.25-12.96,6.12-17.04,3.66c0.4,3.14,0.81,6.28,1.21,9.42c21.63-26.18,45.99-49.95,72.69-70.94
				c-3.34-1.95-6.69-3.89-10.03-5.84c-5.2,12.95-11.65,25.39-19.13,37.17c-3.76,5.92-7.78,11.68-12.09,17.22
				c-1.96,2.51-3.98,4.97-6.04,7.4c-1.99,2.33-4.64,6.55-7.74,7.31c2.46,1.4,4.92,2.79,7.38,4.19c-1.42-4.68,0.09-9.18,1.29-13.75
				c1.17-4.44,2.34-8.88,3.51-13.32c2.43-9.2,4.85-18.39,7.28-27.59c4.93-18.71,9.87-37.42,14.8-56.13
				c-3.93-0.53-7.86-1.06-11.79-1.6c1.04,16.71-5.43,32.91-10.88,48.42c-5.28,15.03-11.48,30.1-21.36,42.76
				c3.34,1.95,6.69,3.89,10.03,5.84c9.43-29.31,21.31-57.7,35.59-84.97c-3.73-1.01-7.45-2.02-11.18-3.03
				c-0.14,28.34-13.18,54.36-19.77,81.46c-1.53,6.28,8.21,11.13,10.97,4.62c10.5-24.77,19.57-50.07,27.01-75.93
				c2.2-7.63-8.72-10.12-11.57-3.19c-6.65,16.14-14.01,32.05-22.26,47.44c-3.63,6.77-7.52,13.43-12.05,19.64
				c-4.12,5.65-9.48,13.5-16.7,15.05c2.53,1.93,5.06,3.86,7.6,5.79c0.23-5.76,4.23-10.4,7.78-14.61c4.71-5.58,9.47-11.12,14.2-16.69
				c9.47-11.12,18.93-22.25,28.4-33.37C346.87,666.21,338.42,657.68,333.41,663.57L333.41,663.57z"/>
		</g>
	</g>
	
		<rect x="242.3" y="578.46" transform="matrix(0.9842 -0.1769 0.1769 0.9842 -111.1859 107.1259)" class="st1" width="605.48" height="197"/>
	
		<rect x="329.13" y="348.61" transform="matrix(0.6337 0.7736 -0.7736 0.6337 564.6696 -331.044)" class="st1" width="605.48" height="164.16"/>
	
		<rect x="74.11" y="415.46" transform="matrix(0.345 -0.9386 0.9386 0.345 -218.2291 675.3902)" class="st1" width="601.39" height="157.19"/>
	<g>
		<g>
			<path class="st1" d="M321.81,393.81c-6.35,18.63-12.7,37.26-19.05,55.89c-2.5,7.33,9.09,10.47,11.57,3.19
				c6.35-18.63,12.7-37.26,19.05-55.89C335.88,389.68,324.29,386.53,321.81,393.81L321.81,393.81z"/>
		</g>
	</g>
	<g>
		<g>
			<path class="st1" d="M246.24,774.33c2.58,8.97,7.51,17.28,11.37,25.75c1.9,4.18,4.02,8.86,3.59,13.57
				c-0.06,0.7-0.58,4.91-1.76,4.92c0.12,0-1.03-5.21-1.13-5.8c-1.4,2.46-2.79,4.92-4.19,7.38c11.71-2.54,15.63-17.9,17.09-28.14
				c0.87-6.11-7.59-11.27-10.97-4.62c-2.19,4.32-4.39,8.64-6.58,12.97c-3.49,6.87,6.86,12.95,10.36,6.06
				c2.19-4.32,4.39-8.64,6.58-12.97c-3.66-1.54-7.31-3.08-10.97-4.62c-0.74,5.19-2.55,18.42-8.71,19.76
				c-3.39,0.74-4.71,4.33-4.19,7.38c1.18,6.96,5.12,14.76,13.35,14.55c7.29-0.18,11.65-7.23,12.75-13.68
				c2.82-16.47-10.72-30.7-15.03-45.69C255.68,763.73,244.1,766.88,246.24,774.33L246.24,774.33z"/>
		</g>
	</g>
	<g>
		<g>
			<path class="st1" d="M259.76,803.53c-2.14-12.79-4.49-25.54-7.05-38.26c-1.52-7.56-13.09-4.36-11.57,3.19
				c2.56,12.71,4.91,25.47,7.05,38.26C249.46,814.32,261.03,811.09,259.76,803.53L259.76,803.53z"/>
		</g>
	</g>
	<g>
		<g>
			<path class="st1" d="M254.14,809.28c-12.91-19.57-26.45-38.71-40.62-57.38c-4.61-6.07-15.03-0.1-10.36,6.06
				c14.17,18.68,27.72,37.81,40.62,57.38C248.01,821.76,258.41,815.76,254.14,809.28L254.14,809.28z"/>
		</g>
	</g>
	<g>
		<g>
			<path class="st1" d="M199.58,754.54c10.14,5.28,21.84,9.57,29.09,18.76c7.13,9.03,12.72,19.43,16.72,30.19
				c2.73,7.34,12.71,4.4,11.57-3.19c-2.02-13.51-4.04-27.02-6.06-40.52c-1.14-7.61-12.7-4.38-11.57,3.19
				c2.02,13.51,4.04,27.02,6.06,40.52c3.86-1.06,7.71-2.13,11.57-3.19c-4.58-12.32-10.75-23.84-18.83-34.23
				c-8.35-10.74-20.71-15.74-32.5-21.89C198.8,740.62,192.72,750.97,199.58,754.54L199.58,754.54z"/>
		</g>
	</g>
	<g>
		<g>
			<path class="st1" d="M232.63,763.99c0,1.05,0,2.11,0,3.16c0,1.54,0.67,3.15,1.76,4.24c1.04,1.04,2.75,1.82,4.24,1.76
				c3.25-0.15,6-2.64,6-6c0-1.05,0-2.11,0-3.16c0-1.54-0.67-3.15-1.76-4.24c-1.04-1.04-2.75-1.82-4.24-1.76
				C235.38,758.13,232.63,760.63,232.63,763.99L232.63,763.99z"/>
		</g>
	</g>
	<g>
		<g>
			<path class="st1" d="M198.27,748.1c7.72,0,7.73-12,0-12C190.55,736.1,190.54,748.1,198.27,748.1L198.27,748.1z"/>
		</g>
	</g>
	<g>
		<g>
			<path class="st1" d="M194.55,740.38c7.11-2.89,11.5-9.94,15.46-16.21c4.13-6.55-6.25-12.58-10.36-6.06
				c-1.46,2.32-2.99,4.61-4.68,6.77c-0.88,1.12-2.33,3.41-3.61,3.93c-3,1.22-5.12,3.99-4.19,7.38
				C187.95,739.03,191.53,741.61,194.55,740.38L194.55,740.38z"/>
		</g>
	</g>
	<g>
		<g>
			<path class="st1" d="M207.77,734.98c0.8-7.28,4.3-14.64,6.66-21.53c2.38-6.95,4.78-13.88,7.28-20.79
				c4.85-13.44,10.74-26.67,13.3-40.8c1.37-7.55-10.2-10.79-11.57-3.19c-2.67,14.74-8.92,28.57-13.95,42.6
				c-2.59,7.21-5.08,14.46-7.56,21.71c-2.47,7.24-5.33,14.35-6.16,22C194.93,742.64,206.94,742.58,207.77,734.98L207.77,734.98z"/>
		</g>
	</g>
	<g>
		<g>
			<path class="st1" d="M200.19,729.51c5.67-10.66,7.57-22.73,13.24-33.42c6.23-11.72,11.99-23.64,17.61-35.67
				c3.25-6.95-7.09-13.05-10.36-6.06c-5.62,12.02-11.38,23.95-17.61,35.67c-5.69,10.7-7.6,22.81-13.24,33.42
				C186.2,730.27,196.56,736.34,200.19,729.51L200.19,729.51z"/>
		</g>
	</g>
	<g>
		<g>
			<path class="st1" d="M224.28,669.27c4.69-17.33,15.06-32.15,23.49-47.77c3.67-6.79-6.69-12.86-10.36-6.06
				c-8.94,16.55-19.73,32.28-24.7,50.63C210.69,673.54,222.26,676.73,224.28,669.27L224.28,669.27z"/>
		</g>
	</g>
	<g>
		<g>
			<path class="st1" d="M239.1,631.75c3.57-5.26,5.61-11.26,7.6-17.25c2.39-7.17,4.77-14.34,7.15-21.5
				c2.44-7.35-9.14-10.49-11.57-3.19c-2.18,6.54-4.35,13.09-6.53,19.63c-1.89,5.68-3.63,11.26-7.01,16.25
				C224.39,632.1,234.79,638.11,239.1,631.75L239.1,631.75z"/>
		</g>
	</g>
	<g>
		<g>
			<path class="st1" d="M254.46,594.96c6.55-18.42,13.09-36.84,19.64-55.27c2.59-7.29-9-10.43-11.57-3.19
				c-6.55,18.42-13.09,36.84-19.64,55.27C240.3,599.06,251.89,602.2,254.46,594.96L254.46,594.96z"/>
		</g>
	</g>
	<g>
		<g>
			<path class="st1" d="M276.47,536.46c7.88-16,13.5-32.9,18.98-49.84c2.38-7.37-9.2-10.52-11.57-3.19
				c-5.16,15.95-10.35,31.91-17.77,46.98C262.71,537.3,273.05,543.39,276.47,536.46L276.47,536.46z"/>
		</g>
	</g>
	<g>
		<g>
			<path class="st1" d="M296.22,483.6c6.88-14.21,12.65-28.9,17.18-44.03c2.22-7.41-9.36-10.58-11.57-3.19
				c-4.24,14.14-9.53,27.87-15.97,41.16C282.5,484.46,292.85,490.55,296.22,483.6L296.22,483.6z"/>
		</g>
	</g>
	<g>
		<g>
			<path class="st1" d="M314.84,436.86c7.24-14.94,12.94-30.51,16.88-46.63c1.83-7.5-9.74-10.7-11.57-3.19
				c-3.7,15.12-8.88,29.76-15.67,43.77C301.12,437.72,311.47,443.82,314.84,436.86L314.84,436.86z"/>
		</g>
	</g>
	<g>
		<g>
			<path class="st1" d="M333.2,387.23c7.53-14.15,13.65-28.99,18.24-44.35c2.22-7.42-9.36-10.58-11.57-3.19
				c-4.3,14.4-9.97,28.22-17.03,41.49C319.21,387.99,329.56,394.06,333.2,387.23L333.2,387.23z"/>
		</g>
	</g>
	<g>
		<g>
			<path class="st1" d="M353.11,339.82c4.96-9.28,10.26-18.27,11.25-28.95c0.71-7.69-11.29-7.64-12,0
				c-0.77,8.26-5.79,15.74-9.61,22.89C339.11,340.57,349.47,346.64,353.11,339.82L353.11,339.82z"/>
		</g>
	</g>
	<g>
		<g>
			<path class="st1" d="M348.02,318.79c-0.05,0.56-0.11,1.11-0.18,1.67c0.17-1.3-0.12,0.64-0.16,0.89
				c-0.21,1.19-0.48,2.37-0.77,3.54c-0.77,3.04,0.98,6.65,4.19,7.38c3.11,0.71,6.56-0.93,7.38-4.19c0.77-3.05,1.24-6.16,1.54-9.29
				c0.3-3.13-2.97-6.14-6-6C350.51,312.95,348.34,315.43,348.02,318.79L348.02,318.79z"/>
		</g>
	</g>
	<g>
		<g>
			<path class="st1" d="M360.01,318.61c4.64-5.69,6.44-13.38,8.9-20.19c1.1-3.05-1.24-6.57-4.19-7.38
				c-3.33-0.92-6.28,1.13-7.38,4.19c-1.02,2.83-2.04,5.66-3.06,8.49c-0.76,2.1-1.31,4.64-2.75,6.4c-2.05,2.51-2.45,6.03,0,8.49
				C353.64,320.72,357.95,321.13,360.01,318.61L360.01,318.61z"/>
		</g>
	</g>
	<g>
		<g>
			<path class="st1" d="M371.02,294.4c5.77-13.98,11.15-28.11,16.14-42.38c2.55-7.3-9.04-10.44-11.57-3.19
				c-4.99,14.27-10.37,28.4-16.14,42.38C356.51,298.35,368.11,301.45,371.02,294.4L371.02,294.4z"/>
		</g>
	</g>
	<g>
		<g>
			<path class="st1" d="M386.55,251.31c7.7-15.28,14.08-31.18,19-47.56c2.23-7.41-9.35-10.58-11.57-3.19
				c-4.63,15.41-10.55,30.32-17.79,44.7C372.72,252.13,383.07,258.22,386.55,251.31L386.55,251.31z"/>
		</g>
	</g>
	<g>
		<g>
			<path class="st1" d="M409.51,194.59c2.32-6.59,5.98-13.8,6.31-20.85c0.36-7.72-11.64-7.7-12,0c-0.13,2.83-1.71,5.84-2.64,8.47
				c-1.08,3.06-2.16,6.13-3.24,9.19C395.37,198.7,406.96,201.84,409.51,194.59L409.51,194.59z"/>
		</g>
	</g>
	<g>
		<g>
			<path class="st1" d="M408.75,185.89c1.22,2.95,2.99,5.17,4.62,7.86c1.46,2.42,1.83,5.31,3.4,7.71c3.05,4.64,9.02,3.29,10.97-1.43
				c1.57-3.82,0.28-8.29-1.97-11.57c-1.76-2.56-5.28-4.79-6.31-7.75c-3.34,1.95-6.69,3.89-10.03,5.84
				c4.22,4.33,6.42,10.17,10.96,14.29c5.71,5.18,14.22-3.28,8.49-8.49c-4.47-4.06-6.73-9.95-10.96-14.29
				c-4.03-4.14-12.04,0.07-10.03,5.84c1.09,3.14,2.81,5.61,5.08,8.02c1.08,1.15,3.89,3.25,3.2,4.91c3.66-0.48,7.31-0.96,10.97-1.43
				c-1.37-2.09-1.72-4.69-2.92-6.89c-1.09-2.01-3.02-3.71-3.89-5.82c-1.24-2.99-3.98-5.13-7.38-4.19
				C410.11,179.29,407.5,182.88,408.75,185.89L408.75,185.89z"/>
		</g>
	</g>
	<g>
		<g>
			<path class="st1" d="M491.09,404.72c4.23,3.41,6.95,7.97,10.05,12.36c3.3,4.68,6.72,9.27,10.23,13.8
				c7.15,9.22,14.72,18.08,22.69,26.59c5.29,5.65,13.76-2.85,8.49-8.49c-8.04-8.58-15.72-17.5-22.88-26.84
				c-6.44-8.4-11.8-19.22-20.1-25.92C493.62,391.42,485.08,399.86,491.09,404.72L491.09,404.72z"/>
		</g>
	</g>
	<g>
		<g>
			<path class="st1" d="M538.9,460.34c8.2,10.83,19.05,19.59,26.16,31.23c4.02,6.58,14.4,0.56,10.36-6.06
				c-7.17-11.73-17.93-20.36-26.16-31.23C544.66,448.2,534.23,454.17,538.9,460.34L538.9,460.34z"/>
		</g>
	</g>
	<g>
		<g>
			<path class="st1" d="M556.33,482.42c22.09,23.76,41.89,49.38,61.89,74.89c4.76,6.07,13.2-2.47,8.49-8.49
				c-20-25.51-39.8-51.12-61.89-74.89C559.54,468.27,551.07,476.77,556.33,482.42L556.33,482.42z"/>
		</g>
	</g>
	<g>
		<g>
			<path class="st1" d="M628.26,567.78c7.41-2.8,15.7-1.8,23.47-2.79c7.88-1,15.69-2.58,23.51-3.98c16.1-2.9,32.31-5.52,47.97-10.35
				c7.36-2.27,4.32-13.54-3.19-11.57c-11.31,2.96-22.62,5.92-33.93,8.88c-7.46,1.95-4.3,13.53,3.19,11.57
				c11.31-2.96,22.62-5.92,33.93-8.88c-1.06-3.86-2.13-7.71-3.19-11.57c-15.67,4.83-31.87,7.45-47.97,10.35
				c-7.97,1.43-15.98,3.2-24.05,3.99c-7.7,0.75-15.56,0-22.93,2.79C617.92,558.91,621.02,570.52,628.26,567.78L628.26,567.78z"/>
		</g>
	</g>
	<g>
		<g>
			<path class="st1" d="M619.73,557.8c-6.95-0.13-13.51,3.18-20.4,3.96c-7.21,0.82-14.44,1.18-21.49,3.05
				c-7.46,1.97-4.3,13.55,3.19,11.57c6.61-1.75,13.37-2,20.12-2.83c2.94-0.36,5.89-0.78,8.77-1.51c3.28-0.83,6.38-2.3,9.81-2.24
				C627.45,569.95,627.45,557.95,619.73,557.8L619.73,557.8z"/>
		</g>
	</g>
	<g>
		<g>
			<path class="st1" d="M619.99,559.38c-5.5,0.13-10.5,2.65-15.8,3.91c-5.66,1.35-11.35,1.87-17.17,1.84c-7.72-0.03-7.73,11.97,0,12
				c5.65,0.02,11.27-0.48,16.83-1.52c5.23-0.98,10.9-4.11,16.14-4.23C627.7,571.19,627.73,559.19,619.99,559.38L619.99,559.38z"/>
		</g>
	</g>
	<g>
		<g>
			<path class="st1" d="M572.74,563.68c-12.73,5.35-26.28,6.67-39.91,7.75c-7.65,0.61-7.71,12.61,0,12
				c14.62-1.16,29.44-2.44,43.1-8.18c3.01-1.26,5.09-3.96,4.19-7.38C579.38,565.05,575.73,562.43,572.74,563.68L572.74,563.68z"/>
		</g>
	</g>
	<g>
		<g>
			<path class="st1" d="M550.68,569.59c-23.81,0.96-46.52,9.47-70.29,10.51c-7.69,0.34-7.73,12.34,0,12
				c23.8-1.04,46.51-9.56,70.29-10.51C558.38,581.28,558.41,569.28,550.68,569.59L550.68,569.59z"/>
		</g>
	</g>
	<g>
		<g>
			<path class="st1" d="M469.75,581.7c-16.85,3.79-33.66,7.75-50.43,11.87c-7.5,1.84-4.32,13.42,3.19,11.57
				c16.77-4.12,33.58-8.08,50.43-11.87C480.47,591.58,477.29,580.01,469.75,581.7L469.75,581.7z"/>
		</g>
	</g>
	<g>
		<g>
			<path class="st1" d="M476.25,593.81c7.72,0,7.73-12,0-12C468.53,581.81,468.52,593.81,476.25,593.81L476.25,593.81z"/>
		</g>
	</g>
	<g>
		<g>
			<path class="st1" d="M431.61,591.59c6.88-19.25,13.66-38.53,20.35-57.84c2.53-7.31-9.06-10.45-11.57-3.19
				c-6.69,19.31-13.47,38.59-20.35,57.84C417.43,595.69,429.03,598.82,431.61,591.59L431.61,591.59z"/>
		</g>
	</g>
	<g>
		<g>
			<path class="st1" d="M452.51,527.17c0.6-1.59,1.2-3.18,1.8-4.77c0.52-1.38,0.11-3.4-0.6-4.62c-0.73-1.24-2.16-2.43-3.59-2.76
				c-1.54-0.35-3.26-0.27-4.62,0.6c-1.38,0.89-2.18,2.05-2.76,3.59c-0.6,1.59-1.2,3.18-1.8,4.77c-0.52,1.38-0.11,3.4,0.6,4.62
				c0.73,1.24,2.16,2.43,3.59,2.76c1.54,0.35,3.26,0.27,4.62-0.6C451.14,529.87,451.94,528.71,452.51,527.17L452.51,527.17z"/>
		</g>
	</g>
	<g>
		<g>
			<path class="st1" d="M454.59,523.85c2.8-10.19,5.58-20.46,9.84-30.16c3.07-7.01-7.27-13.12-10.36-6.06
				c-4.69,10.69-7.96,21.79-11.05,33.03C440.97,528.12,452.54,531.3,454.59,523.85L454.59,523.85z"/>
		</g>
	</g>
	<g>
		<g>
			<path class="st1" d="M461.42,503.03c4.33-9.63,8.52-19.33,12.59-29.08c1.26-3.01-1.36-6.57-4.19-7.38
				c-3.44-0.99-6.14,1.22-7.38,4.19c-3.67,8.79-7.47,17.52-11.38,26.21C447.91,503.96,458.25,510.07,461.42,503.03L461.42,503.03z"
				/>
		</g>
	</g>
	<g>
		<g>
			<path class="st1" d="M474.17,470.79c0.39-6.3,0.92-12.41,3.03-18.41c2.58-7.3-9.01-10.43-11.57-3.19
				c-2.45,6.94-3.01,14.3-3.46,21.6C461.69,478.51,473.69,478.48,474.17,470.79L474.17,470.79z"/>
		</g>
	</g>
	<g>
		<g>
			<path class="st1" d="M478.32,456.74c1.14-3.32,2-6.71,2.61-10.17c0.51-2.94-0.54-5.9-3.47-7.08c-2.88-1.16-5.78-0.08-7.49,2.45
				c-0.33,0.49-0.66,0.98-1,1.47c-1.82,2.69-0.51,6.65,2.15,8.21c2.96,1.73,6.39,0.54,8.21-2.15c0.33-0.49,0.66-0.98,1-1.47
				c-3.66-1.54-7.31-3.08-10.97-4.62c-0.61,3.46-1.47,6.84-2.61,10.17c-1.05,3.07,1.2,6.56,4.19,7.38
				C474.22,461.83,477.26,459.82,478.32,456.74L478.32,456.74z"/>
		</g>
	</g>
	<g>
		<g>
			<path class="st1" d="M483.84,441.96c3.83-10.79,7.67-21.59,11.5-32.38c2.59-7.29-9-10.43-11.57-3.19
				c-3.83,10.79-7.67,21.59-11.5,32.38C469.68,446.06,481.27,449.2,483.84,441.96L483.84,441.96z"/>
		</g>
	</g>
	<g>
		<g>
			<path class="st1" d="M250.07,823.24c0.31,0.1,0.61,0.21,0.91,0.33c-0.48-0.2-0.96-0.4-1.43-0.6c0.74,0.32,1.43,0.72,2.09,1.21
				c-0.4-0.31-0.81-0.63-1.21-0.94c0.25,0.2,0.5,0.41,0.74,0.62c1.17,1.07,2.63,1.76,4.24,1.76c1.47,0,3.23-0.65,4.24-1.76
				c1.05-1.14,1.83-2.64,1.76-4.24c-0.07-1.55-0.58-3.17-1.76-4.24c-1.88-1.72-3.95-2.93-6.38-3.7c-2.99-0.95-6.68,1.12-7.38,4.19
				C245.13,819.13,246.87,822.22,250.07,823.24L250.07,823.24z"/>
		</g>
	</g>
	<g>
		<g>
			<path class="st1" d="M282.8,827.35c4.35-0.91,8.7-1.75,13.08-2.5c3.2-0.55,4.99-4.48,4.19-7.38c-0.93-3.38-4.18-4.74-7.38-4.19
				c-4.38,0.76-8.73,1.59-13.08,2.5c-3.17,0.67-5.01,4.39-4.19,7.38C276.33,826.45,279.62,828.02,282.8,827.35L282.8,827.35z"/>
		</g>
	</g>
	<g>
		<g>
			<path class="st1" d="M262.91,830.05c14.8-2.27,29.48-5.21,44.17-8.08c7.57-1.48,4.37-13.05-3.19-11.57
				c-14.69,2.87-29.37,5.81-44.17,8.08C252.11,819.65,255.34,831.21,262.91,830.05L262.91,830.05z"/>
		</g>
	</g>
	<g>
		<g>
			<path class="st1" d="M312.41,822.55c13.03-3.9,26.46-5.89,39.88-7.92c13.62-2.06,27.25-4.13,40.87-6.19
				c7.61-1.15,4.38-12.72-3.19-11.57c-13.62,2.06-27.25,4.13-40.87,6.19c-13.42,2.03-26.85,4.02-39.88,7.92
				C301.84,813.19,304.98,824.78,312.41,822.55L312.41,822.55z"/>
		</g>
	</g>
	<g>
		<g>
			<path class="st1" d="M388.68,808.99c11.08-1.4,21.99-3.48,33-5.29c4.71-0.78,9.5-0.77,14.23-1.53c5.69-0.92,11.29-2.44,16.9-3.75
				c7.52-1.76,4.33-13.33-3.19-11.57c-5.01,1.17-10.02,2.5-15.08,3.43c-4.72,0.87-9.54,0.84-14.29,1.56
				c-10.55,1.61-20.96,3.81-31.56,5.15C381.12,797.95,381.02,809.96,388.68,808.99L388.68,808.99z"/>
		</g>
	</g>
	<g>
		<g>
			<path class="st1" d="M454.63,797.86c13.19-2.17,26.4-4.26,39.57-6.5c5.76-0.98,11.37-2.42,17.07-3.66
				c5.96-1.3,12.15-0.92,18.04-2.53c7.44-2.04,4.28-13.62-3.19-11.57c-5.55,1.52-11.52,1.16-17.18,2.35
				c-5.99,1.26-11.88,2.81-17.93,3.84c-13.18,2.25-26.38,4.34-39.57,6.5C443.84,787.54,447.07,799.1,454.63,797.86L454.63,797.86z"
				/>
		</g>
	</g>
	<g>
		<g>
			<path class="st1" d="M527.02,786.22c2.73-0.1,5.07-0.99,7.69-1.58c3.4-0.77,6.95-1.04,10.4-1.5c6.72-0.91,13.44-1.83,20.13-2.95
				c6.15-1.03,12.19-2.61,18.33-3.66c6.26-1.08,12.08-0.6,17.99-3.32c7.01-3.23,0.92-13.57-6.06-10.36
				c-4.64,2.14-10.94,1.28-15.96,2.28c-5.84,1.16-11.62,2.5-17.49,3.49c-5.73,0.97-11.49,1.78-17.25,2.56
				c-3.2,0.44-6.41,0.83-9.6,1.3c-2.7,0.39-5.51,1.65-8.18,1.75C519.32,774.5,519.28,786.5,527.02,786.22L527.02,786.22z"/>
		</g>
	</g>
	<g>
		<g>
			<path class="st1" d="M601.66,774.89c10.4-3.37,22.01-4.05,32.79-5.74c10.81-1.7,22.99-2.1,33.02-6.71
				c7.01-3.22,0.92-13.57-6.06-10.36c-4.71,2.17-10.44,2.41-15.5,3.2c-5.54,0.87-11.07,1.74-16.61,2.6
				c-10.15,1.59-21.04,2.27-30.84,5.44C591.15,765.68,594.29,777.28,601.66,774.89L601.66,774.89z"/>
		</g>
	</g>
	<g>
		<g>
			<path class="st1" d="M669.64,763.46c10.1-1.88,20.21-3.75,30.31-5.63c4.66-0.87,9.32-1.87,14.01-2.55
				c4.78-0.69,9.59-0.72,14.18-2.35c7.23-2.57,4.11-14.17-3.19-11.57c-4.56,1.62-9.43,1.61-14.18,2.35
				c-4.69,0.73-9.35,1.69-14.01,2.55c-10.1,1.88-20.21,3.75-30.31,5.63C658.87,753.29,662.08,764.86,669.64,763.46L669.64,763.46z"
				/>
		</g>
	</g>
	<g>
		<g>
			<path class="st1" d="M730.22,753.45c19.91-2.61,39.71-5.92,59.37-10.02c7.56-1.58,4.36-13.15-3.19-11.57
				c-18.6,3.88-37.34,7.12-56.18,9.59c-3.24,0.42-5.96,2.45-6,6C724.19,750.37,727.01,753.87,730.22,753.45L730.22,753.45z"/>
		</g>
	</g>
	<g>
		<g>
			<path class="st1" d="M797.68,741.6c8.74-2.45,17.45-4.72,26.45-6.02c8.7-1.26,16.74-3.14,25.05-6.03
				c7.25-2.52,4.13-14.12-3.19-11.57c-8.3,2.89-16.35,4.78-25.05,6.03c-9,1.3-17.7,3.57-26.45,6.02
				C787.06,732.11,790.22,743.69,797.68,741.6L797.68,741.6z"/>
		</g>
	</g>
	<g>
		<g>
			<path class="st1" d="M834.59,736.15c9.05-2.4,18.05-4.99,27-7.76c7.35-2.28,4.22-13.86-3.19-11.57c-8.95,2.77-17.95,5.36-27,7.76
				C823.94,726.56,827.1,738.14,834.59,736.15L834.59,736.15z"/>
		</g>
	</g>
	<g>
		<g>
			<path class="st1" d="M861.98,731.48c3.09-1.64,5.89-3.62,8.63-5.78c2.47-1.95,2.2-6.47,0-8.49c-2.63-2.41-5.85-2.09-8.49,0
				c1.04-0.82-0.68,0.5-0.87,0.63c-0.57,0.4-1.14,0.79-1.73,1.17c-1.17,0.76-2.38,1.45-3.61,2.1c-2.78,1.48-3.86,5.56-2.15,8.21
				C855.59,732.15,859.01,733.06,861.98,731.48L861.98,731.48z"/>
		</g>
	</g>
	<g>
		<g>
			<path class="st1" d="M866.58,730.03c7.72,0,7.73-12,0-12C858.86,718.03,858.85,730.03,866.58,730.03L866.58,730.03z"/>
		</g>
	</g>
	<g>
		<g>
			<path class="st1" d="M872.42,720.43c5.15-8.69,9.17-19.23,11.87-28.94c2.07-7.45-9.5-10.63-11.57-3.19
				c-2.45,8.81-6,18.2-10.66,26.08C858.11,721.03,868.48,727.07,872.42,720.43L872.42,720.43z"/>
		</g>
	</g>
	<g>
		<g>
			<path class="st1" d="M883.76,686.71c0.26-4.43,0.97-8.73,2.07-13.04c1.92-7.48-9.65-10.68-11.57-3.19
				c-1.36,5.32-2.18,10.75-2.5,16.23C871.3,694.43,883.3,694.4,883.76,686.71L883.76,686.71z"/>
		</g>
	</g>
	<g>
		<g>
			<path class="st1" d="M887.41,675.1c0.06-0.51,0.08-1.06,0.18-1.56c-0.29,1.39,0.04-0.29,0.07-0.48c0.15-1.03,0.33-2.06,0.52-3.09
				c0.56-3.08-0.84-6.62-4.19-7.38c-2.94-0.67-6.78,0.89-7.38,4.19c-0.5,2.76-0.89,5.53-1.2,8.31c-0.35,3.13,3.01,6.13,6,6
				C884.96,680.94,887.04,678.46,887.41,675.1L887.41,675.1z"/>
		</g>
	</g>
	<g>
		<g>
			<path class="st1" d="M887.76,675.51c0.69-4.22,1.36-8.49,2.75-12.54c1.34-3.91,3.46-7.48,4.68-11.45
				c2.27-7.4-9.31-10.56-11.57-3.19c-1.21,3.95-3.36,7.53-4.68,11.45c-1.37,4.07-2.06,8.32-2.75,12.54
				C874.95,679.87,886.51,683.12,887.76,675.51L887.76,675.51z"/>
		</g>
	</g>
	<g>
		<g>
			<path class="st1" d="M895.61,647.29c0.92-8.66,7.57-15.83,9.42-24.35c0.9-4.15-1.81-7.12-5.79-7.6
				c-7.27-0.86-15.2,1.49-22.13,3.51c-7.35,2.14-14.5,4.88-21.65,7.6c-7.14,2.72-4.04,14.33,3.19,11.57
				c6.58-2.51,13.16-5.02,19.89-7.08c6.51-1.99,13.84-4.42,20.7-3.61c-1.93-2.53-3.86-5.06-5.79-7.6
				c-2.11,9.74-8.77,17.4-9.85,27.54C882.8,654.96,894.8,654.9,895.61,647.29L895.61,647.29z"/>
		</g>
	</g>
	<g>
		<g>
			<path class="st1" d="M888.96,621.57c-3.66,0.68-6.17,3.43-8.84,5.82c-3.33,2.99-6.66,5.98-9.99,8.97
				c-6.19,5.56-12.76,10.89-17.98,17.42c3.41,1.41,6.83,2.83,10.24,4.24c0.44-8.87,2.2-17.38,5.14-25.76
				c2.23-6.35-8.05-10.79-10.97-4.62c-5.41,11.45-11.76,22.37-19.04,32.73c3.66,1.54,7.31,3.08,10.97,4.62
				c3.6-10.01,6.64-22.08,13.18-30.62c-3.14,0.4-6.28,0.81-9.42,1.21c0.19,0.2,0.37,0.41,0.56,0.61c-0.59-1.41-1.17-2.83-1.76-4.24
				c1.11,9.26-2.51,19.3-2.85,28.63c-0.21,5.82,8.48,8.34,11.18,3.03c5.36-10.55,8.83-22.03,15.79-31.71
				c-3.73-1.01-7.45-2.02-11.18-3.03c0.72,5.83-2.21,12.25-3.96,17.74c-1.85,5.84-3.74,11.67-5.65,17.49
				c-2.11,6.43,7.79,10.65,10.97,4.62c6.61-12.55,13.68-24.84,22.12-36.27c-3.73-1.01-7.45-2.02-11.18-3.03
				c-0.53,6.66-4.33,14.03-6.5,20.32c-2.45,7.11-4.94,14.2-7.47,21.28c-2.65,7.42,8.67,10.11,11.57,3.19
				c4.74-11.3,9.55-22.57,15.12-33.49c-3.66-1.54-7.31-3.08-10.97-4.62c-1.31,7.63-3.3,15.14-6.24,22.32
				c-2.71,6.62-6.15,14.39-11.36,19.42c3.34,1.95,6.69,3.89,10.03,5.84c1.47-6.46,3.03-12.9,4.26-19.41
				c1.07-5.7,2.9-12.51,0.95-18.16c-0.97-2.81-4.21-5.45-7.38-4.19c-6.12,2.42-9.37,8.28-12.99,13.51
				c-4.17,6.02-7.93,12.27-11.12,18.86c-2.94,6.08,4.23,11.99,9.42,7.27c3.09-2.8,3.84-7.36,5.08-11.19c1.5-4.63,3-9.27,4.5-13.9
				c-3.93-0.53-7.86-1.06-11.79-1.6c0.07,5.92,0.14,11.84,0.21,17.76c0.06,4.73-0.63,9.95,1.29,14.35
				c2.28,5.24,9.37,2.81,10.97-1.43c2.75-7.28,4.22-14.81,4.65-22.58c0.43-7.72-11.57-7.69-12,0c-0.37,6.72-1.84,13.1-4.22,19.39
				c3.66-0.48,7.31-0.96,10.97-1.43c0.5,2.23,0.65,2.09,0.44-0.4c-0.02-1.32-0.03-2.63-0.05-3.95c-0.03-2.3-0.06-4.6-0.08-6.91
				c-0.06-4.93-0.12-9.87-0.18-14.8c-0.08-6.88-9.71-8-11.79-1.6c-1.2,3.71-2.4,7.41-3.6,11.12c-0.6,1.85-1.2,3.71-1.8,5.56
				c-0.2,0.62-0.4,1.24-0.6,1.85c-0.58,2.06-0.74,2.49-0.49,1.26c3.14,2.42,6.28,4.85,9.42,7.27c2.39-4.94,5.08-9.7,8.06-14.31
				c1.32-2.05,2.7-4.06,4.1-6.06c0.95-1.35,3.14-5.85,4.77-6.49c-2.46-1.4-4.92-2.79-7.38-4.19c1.52,4.39-0.76,11.04-1.68,15.45
				c-1.09,5.26-2.33,10.5-3.53,15.74c-1.32,5.78,5.61,10.11,10.03,5.84c6-5.8,9.9-14.06,13.16-21.64c3.51-8.17,6.02-16.63,7.53-25.4
				c1.06-6.21-7.64-11.15-10.97-4.62c-6.04,11.85-11.19,24.1-16.33,36.36c3.86,1.06,7.71,2.13,11.57,3.19
				c2.75-7.69,5.46-15.4,8.11-23.13c2.4-7,5.7-14.23,6.29-21.66c0.52-6.56-8.03-7.29-11.18-3.03
				c-8.44,11.43-15.51,23.71-22.12,36.27c3.66,1.54,7.31,3.08,10.97,4.62c2.1-6.42,4.19-12.85,6.22-19.29
				c1.89-5.99,4.6-12.76,3.81-19.13c-0.74-5.96-7.53-8.1-11.18-3.03c-6.96,9.68-10.43,21.16-15.79,31.71
				c3.73,1.01,7.45,2.02,11.18,3.03c0.22-6.21,1.33-12.3,2.13-18.45c0.66-5.04,2.14-10.93-1.6-15.03c-2.88-3.15-7.21-1.67-9.42,1.21
				c-3.48,4.55-5.5,10.33-7.66,15.59c-2.42,5.9-4.58,11.9-6.73,17.9c-2.44,6.79,7.3,9.84,10.97,4.62
				c7.28-10.36,13.63-21.28,19.04-32.73c-3.66-1.54-7.31-3.08-10.97-4.62c-3.28,9.36-5.08,19.04-5.56,28.95
				c-0.24,4.88,6.97,8.34,10.24,4.24c4.43-5.55,9.86-10.13,15.12-14.86c2.85-2.56,5.71-5.12,8.56-7.69c1.9-1.71,5.38-6.12,7.82-6.58
				C899.73,631.73,896.52,620.16,888.96,621.57L888.96,621.57z"/>
		</g>
	</g>
	<g>
		<g>
			<path class="st1" d="M863.21,673.54c-1.03,8.64-3.86,17.04-7.35,24.97c3.66,1.54,7.31,3.08,10.97,4.62
				c2.59-6.96,2.93-14.48,5.61-21.42c-3.93-0.53-7.86-1.06-11.79-1.6c-1,7.47-3.63,14.53-7.37,21.04c3.73,1.01,7.45,2.02,11.18,3.03
				c0.49-6.21,0.92-12.42,0.85-18.66c-0.09-7.85-11.3-7.57-12,0c-0.8,8.61-1.46,17.24-1.99,25.87c-0.4,6.49,8.02,7.41,11.18,3.03
				c2.85-3.94,3.43-9.93,4.89-14.54c1.66-5.21,3.57-10.33,5.66-15.37c-3.93-0.53-7.86-1.06-11.79-1.6
				c0.24,6.33-1.57,12.11-3.52,18.07c-2.42,7.39,9.03,10.41,11.57,3.19c0.94-2.65,1.87-5.3,2.81-7.95
				c-3.86-1.06-7.71-2.13-11.57-3.19c-1.5,5.86-2.66,11.76-3.49,17.75c-1.03,7.45,9.14,10.76,11.57,3.19
				c1.84-5.72,2.97-11.5,3.69-17.46c0.81-6.67-10.57-8.23-11.79-1.6c-0.79,4.31-1.57,8.61-2.36,12.92
				c-1.37,7.51,9.97,10.81,11.57,3.19c1.62-7.69,2.59-16.63,5.57-23.9c-0.92,1.2-1.84,2.39-2.76,3.59c0.12-0.07,0.24-0.15,0.37-0.22
				c6.58-4.03,0.55-14.41-6.06-10.36c-3.81,2.33-4.12,7.49-5.06,11.46c-1.28,5.4-2.48,10.82-3.63,16.26
				c3.86,1.06,7.71,2.13,11.57,3.19c0.79-4.31,1.57-8.61,2.36-12.92c-3.93-0.53-7.86-1.06-11.79-1.6
				c-0.59,4.87-1.77,9.61-3.26,14.27c3.86,1.06,7.71,2.13,11.57,3.19c0.83-5.99,1.99-11.9,3.49-17.75
				c1.93-7.56-9.03-10.41-11.57-3.19c-0.94,2.65-1.87,5.3-2.81,7.95c3.86,1.06,7.71,2.13,11.57,3.19
				c2.27-6.94,4.23-13.89,3.95-21.26c-0.28-7.16-9.28-7.64-11.79-1.6c-1.86,4.49-3.58,9.03-5.1,13.64
				c-1.31,3.98-1.81,10.04-4.24,13.41c3.73,1.01,7.45,2.02,11.18,3.03c0.53-8.64,1.19-17.26,1.99-25.87c-4,0-8,0-12,0
				c0.07,6.24-0.36,12.44-0.85,18.66c-0.48,6.09,8.35,7.95,11.18,3.03c4.88-8.46,7.72-17.44,9.01-27.09
				c0.97-7.2-9.56-7.37-11.79-1.6c-2.68,6.94-3.02,14.46-5.61,21.42c-2.35,6.3,8.23,10.86,10.97,4.62
				c4.41-10.04,7.69-20.11,8.98-31.03C876.11,665.89,864.11,665.95,863.21,673.54L863.21,673.54z"/>
		</g>
	</g>
	<g>
		<g>
			<path class="st1" d="M876.45,675.48c-0.39,0.44-0.78,0.89-1.17,1.33c-0.59,0.54-1,1.19-1.24,1.93c-0.38,0.72-0.55,1.49-0.52,2.31
				c-0.03,0.83,0.14,1.6,0.52,2.31c0.24,0.74,0.66,1.39,1.24,1.93c0.4,0.31,0.81,0.63,1.21,0.94c0.94,0.54,1.95,0.82,3.03,0.82
				c0.53-0.07,1.06-0.14,1.6-0.21c1.02-0.29,1.9-0.8,2.65-1.54c0.39-0.44,0.78-0.89,1.17-1.33c0.59-0.54,1-1.19,1.24-1.93
				c0.38-0.72,0.55-1.49,0.52-2.31c0.03-0.83-0.14-1.6-0.52-2.31c-0.24-0.74-0.66-1.39-1.24-1.93c-0.4-0.31-0.81-0.63-1.21-0.94
				c-0.94-0.54-1.95-0.82-3.03-0.82c-0.53,0.07-1.06,0.14-1.6,0.21C878.08,674.23,877.2,674.74,876.45,675.48L876.45,675.48z"/>
		</g>
	</g>
	<g>
		<g>
			<path class="st1" d="M900.59,614.6c-3.12-4.8-8.99-9.87-15.21-8.46c-6.27,1.42-8.14,9.26-5.44,14.39
				c0.95,1.81,3.16,3.02,5.18,2.97c4.9-0.13,10.43-6.02,10.72-10.93c0.31-5.21-3.4-11.03-6.9-14.54c-2.08-2.08-4.67-3.68-6.55-5.96
				c-1.97-2.39-3.49-5.15-5.49-7.54c-4.2-5.01-9.52-9.02-13.41-14.29c-4.54-6.15-14.96-0.17-10.36,6.06
				c5.46,7.4,12.78,13.04,18.02,20.61c2.51,3.61,5.59,6.05,8.73,9.05c1.51,1.44,2.22,4.03,3.58,5.25c0.16,0.94,0.31,0.91,0.45-0.08
				c0.4-0.96,0.32-1.02-0.24-0.19c-0.76,0.46-1.37,1.7-2.06,2.31c1.41-0.59,2.83-1.17,4.24-1.76c-0.25,0.01-0.49,0.01-0.74,0.02
				c1.73,0.99,3.45,1.98,5.18,2.97c-3.59,1.94-4.17,3.36-1.73,4.25c0.68,0.53,1.24,1.17,1.66,1.93
				C894.42,627.11,904.81,621.11,900.59,614.6L900.59,614.6z"/>
		</g>
	</g>
	<g>
		<g>
			<path class="st1" d="M858.77,564.1c-2.77-1.64-4.64-5.79-6.68-8.33c-2.77-3.46-5.62-6.86-8.42-10.29
				c-5.66-6.91-11.32-13.82-16.98-20.73c-4.9-5.98-13.34,2.56-8.49,8.49c6.06,7.4,12.13,14.8,18.19,22.21
				c2.84,3.47,5.83,6.87,8.51,10.46c2.42,3.24,4.24,6.43,7.81,8.55C859.38,578.41,865.42,568.04,858.77,564.1L858.77,564.1z"/>
		</g>
	</g>
	<g>
		<g>
			<path class="st1" d="M823.59,519.76c-9.67-10.43-19.18-21-28.52-31.72c-5.08-5.83-13.54,2.68-8.49,8.49
				c9.34,10.72,18.85,21.3,28.52,31.72C820.37,533.92,828.84,525.42,823.59,519.76L823.59,519.76z"/>
		</g>
	</g>
	<g>
		<g>
			<path class="st1" d="M792.36,484.8c-7.7-10.53-16.31-20.23-26.02-28.96c-5.73-5.15-14.24,3.31-8.49,8.49
				c8.92,8.02,17.05,16.84,24.14,26.53C786.52,497.03,796.93,491.05,792.36,484.8L792.36,484.8z"/>
		</g>
	</g>
	<g>
		<g>
			<path class="st1" d="M771.49,457.9c-6.24-8.71-14.57-15.37-21.61-23.37c-5.11-5.81-13.57,2.7-8.49,8.49
				c6.32,7.19,14.13,13.13,19.73,20.94C765.59,470.18,776.01,464.2,771.49,457.9L771.49,457.9z"/>
		</g>
	</g>
	<g>
		<g>
			<path class="st1" d="M747.86,429.93c-4.41-3.48-7.74-8.9-11.42-13.13c-4.19-4.82-8.51-9.53-12.93-14.14
				c-5.35-5.59-13.83,2.9-8.49,8.49c4.42,4.61,8.74,9.32,12.93,14.14c3.69,4.24,7,9.64,11.42,13.13
				C745.37,443.15,753.91,434.72,747.86,429.93L747.86,429.93z"/>
		</g>
	</g>
	<g>
		<g>
			<path class="st1" d="M722.64,399.32c-3.5-3.53-5.37-8.26-9.12-11.65c-3.64-3.29-7.94-5.72-11.39-9.23
				c-5.42-5.52-13.91,2.97-8.49,8.49c3.46,3.52,7.74,5.96,11.39,9.23c3.72,3.34,5.6,8.1,9.12,11.65
				C719.6,413.3,728.08,404.82,722.64,399.32L722.64,399.32z"/>
		</g>
	</g>
	<g>
		<g>
			<path class="st1" d="M703.9,379.29c-2.39-4.38-6.25-7.9-9.6-11.53c-3.6-3.9-7.2-7.81-10.8-11.71c-5.25-5.69-13.72,2.81-8.49,8.49
				c3.22,3.49,6.44,6.98,9.66,10.48c3,3.25,6.73,6.44,8.87,10.34C697.24,392.12,707.61,386.07,703.9,379.29L703.9,379.29z"/>
		</g>
	</g>
	<g>
		<g>
			<path class="st1" d="M692.07,363.46c-5.52-6.77-11.27-13.35-17.23-19.73c-5.28-5.66-13.75,2.84-8.49,8.49
				c5.96,6.39,11.71,12.96,17.23,19.73c2.06,2.53,6.34,2.1,8.49,0C694.58,369.49,694.1,365.96,692.07,363.46L692.07,363.46z"/>
		</g>
	</g>
	<g>
		<g>
			<path class="st1" d="M673.41,340.08c-8.21-10.26-18.41-18.7-26.61-28.96c-4.82-6.03-13.26,2.51-8.49,8.49
				c8.2,10.27,18.4,18.7,26.61,28.96C669.74,354.6,678.19,346.06,673.41,340.08L673.41,340.08z"/>
		</g>
	</g>
	<g>
		<g>
			<path class="st1" d="M646.3,308.38c-2.82-5.03-6.92-8.85-10.96-12.88c-4.53-4.52-8.74-9.34-12.94-14.16
				c-5.09-5.83-13.54,2.69-8.49,8.49c3.8,4.36,7.61,8.73,11.66,12.87c3.68,3.76,7.77,7.11,10.37,11.75
				C639.71,321.17,650.08,315.13,646.3,308.38L646.3,308.38z"/>
		</g>
	</g>
	<g>
		<g>
			<path class="st1" d="M621.62,279.92c-6.28-10.94-16.94-18.65-24.89-28.31c-4.91-5.97-13.36,2.56-8.49,8.49
				c7.26,8.82,17.3,15.93,23.01,25.88C615.11,292.67,625.48,286.63,621.62,279.92L621.62,279.92z"/>
		</g>
	</g>
	<g>
		<g>
			<path class="st1" d="M600.96,253.29c-7.14-6.77-14.92-13.59-20.61-21.66c-4.41-6.27-14.82-0.28-10.36,6.06
				c6.32,8.98,14.54,16.56,22.48,24.09C598.08,267.09,606.58,258.62,600.96,253.29L600.96,253.29z"/>
		</g>
	</g>
	<g>
		<g>
			<path class="st1" d="M588.68,240.28c-6-6.9-11.83-13.95-17.48-21.14c-2.02-2.57-6.36-2.08-8.49,0c-2.54,2.49-1.99,5.95,0,8.49
				c5.66,7.19,11.48,14.23,17.48,21.14C585.27,254.6,593.72,246.08,588.68,240.28L588.68,240.28z"/>
		</g>
	</g>
	<g>
		<g>
			<path class="st1" d="M570.84,218.52c-8.64-10.56-17.28-21.12-25.91-31.68c-4.89-5.98-13.34,2.55-8.49,8.49
				c8.64,10.56,17.28,21.12,25.91,31.68C567.25,232.99,575.7,224.45,570.84,218.52L570.84,218.52z"/>
		</g>
	</g>
	<g>
		<g>
			<path class="st1" d="M544.24,186.47c-4.28-6.73-10.08-11.97-15.47-17.76c-5.59-6-9.16-13.62-15.33-19.08
				c-5.77-5.1-14.28,3.36-8.49,8.49c5.74,5.08,9.15,12.23,14.26,17.92c4.93,5.49,10.68,10.22,14.67,16.5
				C538.01,199.03,548.4,193.02,544.24,186.47L544.24,186.47z"/>
		</g>
	</g>
	<g>
		<g>
			<path class="st1" d="M496.59,149.03c-27,5.62-54.71,8.68-81.98,12.81c-7.61,1.15-4.38,12.72,3.19,11.57
				c27.27-4.13,54.98-7.19,81.98-12.81C507.33,159.03,504.14,147.46,496.59,149.03L496.59,149.03z"/>
		</g>
	</g>
	<g>
		<g>
			<path class="st1" d="M418.38,178.35c9.91,0.61,20.11,2.1,29.91-0.09c4.59-1.02,9.02-2.36,13.67-3.11
				c4.69-0.75,9.23-1.44,13.64-3.29c3.01-1.26,5.09-3.96,4.19-7.38c-0.74-2.83-4.4-5.44-7.38-4.19c-7.97,3.35-17.23,3.89-25.62,5.98
				c-9.21,2.3-19.06,0.65-28.42,0.08C410.66,165.87,410.69,177.87,418.38,178.35L418.38,178.35z"/>
		</g>
	</g>
	<g>
		<g>
			<path class="st1" d="M471.17,161.53c-3.71,6.8-11.96,12.02-18.17,16.39c-3.36,2.36-6.97,4.41-10.21,6.93
				c-3.22,2.51-5.6,5.63-7.98,8.93c-4.54,6.26,5.87,12.26,10.36,6.06c5-6.91,12.97-10.68,19.65-15.8
				c6.1-4.67,12.95-9.58,16.71-16.44C485.24,160.81,474.88,154.75,471.17,161.53L471.17,161.53z"/>
		</g>
	</g>
	<g>
		<g>
			<path class="st1" d="M454.23,174.19c-4.16,0.14-7.9,1.46-11.91,2.37c-3.94,0.89-7.95,0.88-11.9,1.59
				c-8.05,1.45-6.83,9.68-2.68,14.57c5,5.9,13.46-2.63,8.49-8.49c-0.18,1.01-0.36,2.02-0.55,3.04c-1.2,0.92-2.39,1.84-3.59,2.76
				c3.33-0.92,7.3-0.7,10.73-1.35c3.75-0.7,7.61-2.37,11.42-2.49C461.93,185.93,461.97,173.93,454.23,174.19L454.23,174.19z"/>
		</g>
	</g>
	<g>
		<g>
			<path class="st1" d="M442.78,188.56c-4.46-5.4-9.33-10.39-14.65-14.95c-2.46-2.11-6.07-2.42-8.49,0c-2.16,2.16-2.47,6.37,0,8.49
				c5.32,4.56,10.19,9.55,14.65,14.95c2.06,2.5,6.35,2.14,8.49,0C445.25,194.57,444.84,191.07,442.78,188.56L442.78,188.56z"/>
		</g>
	</g>
</g>
<g id="Слой_2">
	<path d="M405.89,162.96c0.47,1.08-12.19,34.08-68.51,178.78c-37.96,97.6-87.38,224.51-109.82,282.14
		c-22.39,57.57-41.46,106.41-42.28,108.46l-1.53,3.79l34.03,47.42c18.71,26.07,34.11,47.87,34.19,48.38
		c0.08,0.51,0.49,1.2,0.95,1.53c0.99,0.71,2.86,0.46,2.73-0.33c-0.06-0.4,83.61-14.24,249.89-41.41
		c137.51-22.47,276.35-45.32,308.47-50.8l58.5-9.91l16.52-54.11c9.07-29.74,16.86-54.86,17.34-55.81c0.95-2.01,0.83-3.44-0.38-4.12
		c-0.51-0.27-16.93-19.81-36.57-43.41c-32.27-38.77-69.23-83.1-254.45-305.43c-31.18-37.38-67.06-80.5-79.84-95.87l-23.25-27.94
		l-53.31,8.65l-53.24,8.7L405.89,162.96z M511.28,148.81c0.6,0.48,51.31,61.19,112.74,134.95
		c126.32,151.59,222.68,267.28,254.65,305.58c11.85,14.31,21.78,26.38,22.04,26.92c0.39,0.98-1.58,1.36-47.75,9.25
		c-100.32,17.09-457.92,75.86-458.42,75.3c-0.36-0.41,34.8-100.62,38.64-110.12l0.83-1.99l145.54-23.78
		c138.36-22.61,145.53-23.83,144.98-24.67c-0.26-0.54-13.27-16.23-28.86-34.92c-15.59-18.69-85.57-102.54-155.56-186.39
		s-127.47-152.97-127.7-153.68l-0.43-1.21l49.11-8.02C507.22,148.49,510.34,148.04,511.28,148.81z M564.16,353.48
		c85.01,101.59,154.45,184.94,154.33,185.25c-0.28,0.74-96.74,16.62-97.82,16.1c-0.38-0.17-28.21-32.36-61.82-71.54
		C452.69,359.57,438.29,342.83,437.5,342.2c-0.66-0.47-2.51,3.83-9.14,21.51c-4.57,12.18-23.42,62.32-41.85,111.46
		c-18.49,49.15-39.64,105.47-47.03,125.19c-13.63,36.29-26.11,69.61-64.04,170.62c-11.54,30.61-21.16,55.91-21.38,56.3
		c-0.33,0.46-0.76,0.3-1.34-0.36c-3.65-4.57-65.16-90.9-65.14-91.49c0.05-0.41,49.64-128.05,110.21-283.71
		c73.66-189.19,110.45-282.94,110.97-282.97C409.22,168.79,479.14,251.9,564.16,353.48z M458.91,371.72
		c10.95,12.66,23.2,26.91,27.16,31.6l7.31,8.5l-2.77,7.88c-5.06,14.52-63.02,177.24-90.01,252.79
		c-11.08,30.94-11.55,32.29-11.5,32.63c0.03,0.17,115.51-18.64,256.61-41.81c207.05-34.06,256.58-42.04,256.67-41.47
		c0.13,0.79-31.83,105.65-32.42,106.32c-0.19,0.26-137.81,23.1-305.93,50.74c-272.54,44.88-305.61,50.22-306.01,49.53
		c-0.31-0.47,1.91-7.16,5.38-16.43c3.24-8.59,12.13-32.33,19.76-52.73c19.22-51.07,61.71-164.26,76.88-204.63
		c6.87-18.36,17.75-47.29,24.14-64.29c15.93-42.41,35.34-94.09,44.8-119.31c8.52-22.8,8.48-22.68,9.37-22.54
		C438.71,348.56,447.9,359.01,458.91,371.72z M556.49,485.18c32.91,38.43,59.79,70.08,59.65,70.33
		c-0.12,0.31-39.93,7.05-90.35,15.28c-78.67,12.85-90.11,14.61-90.23,13.87c-0.07-0.45,6.35-19.03,14.31-41.33
		c7.9-22.3,21.39-60.13,29.9-84.09c8.55-24.03,15.79-43.66,16.13-43.72C496.29,415.46,523.52,446.81,556.49,485.18z"/>
	<path class="st2" d="M512,0C229.23,0,0,229.23,0,512s229.23,512,512,512s512-229.23,512-512S794.77,0,512,0z M511.5,960.5
		c-247.98,0-449-201.02-449-449s201.02-449,449-449s449,201.02,449,449S759.48,960.5,511.5,960.5z"/>
</g>
</svg>
