<?xml version="1.0" encoding="utf-8"?>
<!-- Generator: Adobe Illustrator 26.2.1, SVG Export Plug-In . SVG Version: 6.00 Build 0)  -->
<svg version="1.1" id="Слой_1" xmlns="http://www.w3.org/2000/svg" xmlns:xlink="http://www.w3.org/1999/xlink" x="0px" y="0px"
	 viewBox="0 0 512 512" style="enable-background:new 0 0 512 512;" xml:space="preserve">
<style type="text/css">
	.st0{fill:#E9EBBF;stroke:#000000;stroke-width:4;stroke-miterlimit:10;}
</style>
<g transform="translate(0,0)">
	<path class="st0" d="M127.2,18.3c-8.2,0-16.5,3.9-25,12.4c-8.5,8.6-16.8,21.8-23.9,38.5c-14.1,33.4-23.1,80.8-23.1,133.2
		s9,99.7,23.1,133.2c7,16.7,15.3,29.9,23.9,38.5c8.5,8.6,16.8,12.5,25,12.5v-0.1l94.4-0.3c-18.8-47.4-26.1-99.5-23.6-153.2
		c3.1-66.6-19.3-124.3-40-144c-5.9-5.6-11-7.4-15.7-7.3s-9.9,2.3-15.6,8c-11.4,11.3-23,36.1-28.3,72.2c-4.1,27.5-3.7,58.6,0.5,84.9
		c4.3,26.3,13.2,47.6,21.8,55.2c3,2.7,5.1,3.2,6.9,3c1.9-0.1,4.4-1.1,7.4-4.3c5.9-6.2,12.6-20.3,15.8-41c0,0-0.1,0.1-0.1,0.1
		c1.4-6.1,2.2-13.2,2.2-20.9c0-22.2-6.6-40.3-14.7-40.3c-7.7,0-14,16.4-14.6,37.1c-1.5-7-2.4-15-2.4-23.4c0-28.3,9.6-51.2,21.5-51.2
		c3.1,0,6,1.5,8.7,4.3c0,0,0,0,0.1,0.1c10.2,8.8,14.5,23.2,17.4,39.7c2.9,17,3.3,36.6,0.9,54.6c-3.3,24.6-10.4,42.8-21.2,54
		c-5.4,5.6-12.1,9.4-19.5,10c-7.4,0.6-14.8-2.5-20.7-7.7c-15.3-13.6-23.2-37.9-27.8-66.2c-4.6-28.4-5-60.9-0.6-90.6
		c5.7-38.6,17.4-66.8,33.6-82.8c8.1-8,17.9-13.1,28.3-13.3c10.4-0.3,20.5,4.3,29,12.5c28.1,26.8,49,87.4,45.7,158.4
		c-3,64.3,8.4,125,37.2,177.6c9.6,16.9,21.2,32.8,34.7,47.4c0.1,0.1,0.2,0.2,0.3,0.3l33,36.9l13.9-12.5l-8.5-9.5l13.6-12.1
		L326,445.2c6-2,12.4-3.6,18.9-5c1.1,1.2,2.4,2.6,4.1,4.4c3.5,3.9,8.1,8.9,12.5,13.8c8.8,9.9,17.3,19.4,17.3,19.4l14-12.4
		c0,0-8.5-9.6-17.4-19.5c-2.6-2.9-5.1-5.7-7.5-8.4c0.1,0.1,0.2,0.1,0.3,0.2c6,3.3,13.6,7.6,21.2,11.9c15.1,8.6,29.9,17,29.9,17
		l8.8-15.5c13,7.4,26.2,14.9,26.2,14.9l9.3-16.2c0,0-14.8-8.4-29.9-17c-4.9-2.7-9.1-5.2-13.6-7.7c4.5-1.5,8.9-3.3,13.2-5.3l52.2,1.8
		l0.6-18.7l-29.2-1c-49.7-10.5-87-74.4-88.7-145.6c2.4-17.1,3.7-35.2,3.7-54c0-51.2-9.7-97.4-24.9-130.5
		c-15.1-33-35.2-51.6-54.4-52.9L127.2,18.3L127.2,18.3L127.2,18.3z"/>
</g>
</svg>
