<?xml version="1.0" encoding="utf-8"?>
<!-- Generator: Adobe Illustrator 26.2.1, SVG Export Plug-In . SVG Version: 6.00 Build 0)  -->
<svg version="1.1" xmlns="http://www.w3.org/2000/svg" xmlns:xlink="http://www.w3.org/1999/xlink" x="0px" y="0px"
	 viewBox="0 0 1024 1024" style="enable-background:new 0 0 1024 1024;" xml:space="preserve">
<style type="text/css">
	.st0{fill:#272727;}
	.st1{fill:#404040;}
	.st2{fill:#404040;stroke:#000000;stroke-width:5;stroke-miterlimit:10;}
	.st3{fill:none;stroke:#000000;stroke-width:5;stroke-miterlimit:10;}
</style>
<g id="Слой_3">
	
		<rect x="532.35" y="66.33" transform="matrix(0.9022 0.4313 -0.4313 0.9022 112.5066 -280.5556)" class="st0" width="285.29" height="83.04"/>
	
		<rect x="714.16" y="200.51" transform="matrix(0.7071 0.7071 -0.7071 0.7071 422.0947 -534.9608)" class="st0" width="285.29" height="83.04"/>
	
		<rect x="799.16" y="363.51" transform="matrix(0.2153 0.9766 -0.9766 0.2153 1134.5785 -601.8833)" class="st0" width="285.29" height="83.04"/>
	
		<rect x="657.35" y="261.59" transform="matrix(0.2153 0.9766 -0.9766 0.2153 923.763 -543.3758)" class="st0" width="285.29" height="83.04"/>
	
		<rect x="790.33" y="587.76" transform="matrix(-0.251 0.968 -0.968 -0.251 1776.2734 -115.9015)" class="st0" width="285.29" height="83.04"/>
	
		<rect x="689.52" y="770.06" transform="matrix(-0.6717 0.7408 -0.7408 -0.6717 1992.3665 740.1927)" class="st0" width="285.29" height="83.04"/>
	
		<rect x="472.52" y="898.06" transform="matrix(-0.9679 0.2515 -0.2515 -0.9679 1446.8428 1694.2709)" class="st0" width="285.29" height="83.04"/>
	
		<rect x="221.15" y="885.14" transform="matrix(-0.9488 -0.316 0.316 -0.9488 416.127 1920.7935)" class="st0" width="285.29" height="83.04"/>
	
		<rect x="24.15" y="740.14" transform="matrix(-0.6091 -0.7931 0.7931 -0.6091 -351.5464 1390.048)" class="st0" width="285.29" height="83.04"/>
	
		<rect x="-68.37" y="516.13" transform="matrix(-0.0992 -0.9951 0.9951 -0.0992 -473.2489 686.901)" class="st0" width="285.29" height="83.04"/>
	
		<rect x="-37.49" y="315.3" transform="matrix(0.2997 -0.954 0.954 0.2997 -266.783 350.2046)" class="st0" width="285.29" height="83.04"/>
	
		<rect x="76.44" y="186.75" transform="matrix(0.7907 -0.6122 0.6122 0.7907 -102.9405 155.4165)" class="st0" width="198.8" height="83.04"/>
	<path class="st0" d="M570.47,75.9l-44.8-50.58c-14.05-15.86-38.3-17.33-54.16-3.28l-12.48,11.06
		c-15.86,14.05-17.33,38.3-3.28,54.16l44.8,50.58c14.05,15.86,38.3,17.33,54.16,3.28l12.48-11.06
		C583.05,116.01,584.52,91.76,570.47,75.9z"/>
	<g>
		<path d="M452.36,77.15c-6.09-9.25-16.05-15.42-22.73-24.27c0.44-0.48,1.19-0.47,1.84-0.43c5.94,0.38,11.91,0.24,17.83-0.42
			c0.21-0.02,0.43-0.04,0.6,0.07c0.31,0.21,0.24,0.68,0.13,1.03c-0.91,2.97-1.87,5.92-2.88,8.85c-0.91-2.45-1.81-4.9-2.72-7.35"/>
	</g>
	<g>
		<g>
			<path class="st1" d="M428.38,56.19c7.72,0,7.73-12,0-12C420.66,44.19,420.65,56.19,428.38,56.19L428.38,56.19z"/>
		</g>
	</g>
	<g>
		<g>
			<path d="M456.5,75.09c-2.64-6.48-6.36-12.04-11.15-17.14c-4.3-4.59-9.57-10.68-16.04-11.85c-0.53,3.93-1.06,7.86-1.6,11.79
				c7.3-0.25,14.6-0.51,21.9-0.76c7.7-0.27,7.74-12.27,0-12c-7.3,0.25-14.6,0.51-21.9,0.76c-6.44,0.22-8.54,10.53-1.6,11.79
				c4.07,0.74,7.98,5.81,10.75,8.77c3.27,3.49,6.25,7.38,8.06,11.85C447.8,85.34,459.42,82.26,456.5,75.09L456.5,75.09z"/>
		</g>
	</g>
	<g>
		<g>
			<path d="M542.45,55.53c0.7,0,1.41,0,2.11,0c1.54,0,3.15-0.67,4.24-1.76c0.59-0.54,1-1.19,1.24-1.93
				c0.38-0.72,0.55-1.49,0.52-2.31c-0.07-1.55-0.58-3.16-1.76-4.24c-1.17-1.08-2.62-1.76-4.24-1.76c-0.7,0-1.41,0-2.11,0
				c-1.54,0-3.15,0.67-4.24,1.76c-0.59,0.54-1,1.19-1.24,1.93c-0.38,0.72-0.55,1.49-0.52,2.31c0.07,1.55,0.58,3.16,1.76,4.24
				C539.38,54.85,540.82,55.53,542.45,55.53L542.45,55.53z"/>
		</g>
	</g>
	<g>
		<g>
			<path class="st0" d="M441.72,71.58c3.31,5.29,8.42,7.6,14.2,9.39c0.53-3.93,1.06-7.86,1.6-11.79c-1.72,0.09-5.3,0.88-6.08,0.43
				c-1.28-0.74-3.8-3.67-5.2-4.96c-3.92-3.61-7.58-7.47-11.07-11.49c-5.06-5.85-13.52,2.67-8.49,8.49
				c4.65,5.37,9.64,10.41,15.05,15.02c2.2,1.87,4.56,4.27,7.47,4.98c2.73,0.66,5.58-0.32,8.31-0.46c6.71-0.35,8.21-9.75,1.6-11.79
				c-2.53-0.78-5.54-1.48-7.03-3.87C448,58.99,437.62,65.01,441.72,71.58L441.72,71.58z"/>
		</g>
	</g>
	<g>
		<g>
			<path class="st0" d="M433.27,51.17c0.28,0.11,0.56,0.23,0.83,0.34c-0.4,3.14-0.81,6.28-1.21,9.42c2.04-1,6.02-0.72,8.3-0.94
				c3.2-0.32,6.4-0.63,9.6-0.95c-1.41-3.41-2.83-6.83-4.24-10.24c-2.31,2.35-4.71,4.23-7.56,5.9c-5.09,2.98-2.96,11.25,3.03,11.18
				c6.91-0.08,18.37-2.27,20.72-10.03c2.84-9.36-7.85-11.74-14.71-12.09c-7.72-0.4-7.7,11.6,0,12c1.26,0.07,3.53,0.98,4.54,0.69
				c1.57,0.69,1.53-0.1-0.11-2.36c-0.02-2.68-0.82-3.29-2.41-1.83c-2.75,0.37-5.11,1.59-8.03,1.63c1.01,3.73,2.02,7.45,3.03,11.18
				c3.68-2.15,7.01-4.73,9.99-7.77c3.36-3.42,1.16-10.78-4.24-10.24c-7.52,0.74-17.09,0.15-23.96,3.53
				c-3.74,1.84-3.51,6.69-1.21,9.42c1.27,1.52,2.59,2.17,4.46,2.74C437.49,65,440.65,53.43,433.27,51.17L433.27,51.17z"/>
		</g>
	</g>
	<g>
		<g>
			<path class="st0" d="M534.56,57.73c6.07-0.85,12.26-0.7,18.37-0.62c5.94,0.08,8.19-8.25,3.03-11.18
				c-4.55-2.59-9.15-3.93-14.31-4.62c-3.22-0.43-6,3.07-6,6c0,3.6,2.77,5.57,6,6c2.95,0.4,5.69,1.53,8.25,2.98
				c1.01-3.73,2.02-7.45,3.03-11.18c-7.25-0.09-14.37,0.04-21.56,1.05c-3.2,0.45-4.98,4.55-4.19,7.38
				C528.15,56.99,531.32,58.19,534.56,57.73L534.56,57.73z"/>
		</g>
	</g>
</g>
<g id="Слой_2">
	<path class="st2" d="M512.5,0.5c-282.77,0-512,229.23-512,512s229.23,512,512,512s512-229.23,512-512S795.27,0.5,512.5,0.5z
		 M512.5,984.5c-260.68,0-472-211.32-472-472s211.32-472,472-472s472,211.32,472,472S773.18,984.5,512.5,984.5z"/>
	<path class="st2" d="M447.88,84.29c21.08-3.15,42.66-4.79,64.62-4.79c239.14,0,433,193.86,433,433s-193.86,433-433,433
		s-433-193.86-433-433c0-142.52,68.86-268.96,175.12-347.86l28.88,35.86l150,181l-209,3l116,127l-109,128l172-64l78,98l-59,88
		l123-60l125,138l-69-201l40,1l-95-93l222-4l-150-93l-14-96l132-1l-89-72l86-47l-160-2l-107-126l-17-21"/>
	<line class="st3" x1="449.5" y1="84.5" x2="418.5" y2="49.5"/>
	<line class="st3" x1="254.5" y1="164.5" x2="230.5" y2="133.5"/>
</g>
</svg>
