<?xml version="1.0" encoding="utf-8"?>
<!-- Generator: Adobe Illustrator 26.2.1, SVG Export Plug-In . SVG Version: 6.00 Build 0)  -->
<svg version="1.1" id="Слой_1" xmlns="http://www.w3.org/2000/svg" xmlns:xlink="http://www.w3.org/1999/xlink" x="0px" y="0px"
	 viewBox="0 0 512 512" style="enable-background:new 0 0 512 512;" xml:space="preserve">
<style type="text/css">
	.st0{fill:#404040;stroke:#000000;stroke-width:4;stroke-miterlimit:10;}
</style>
<g transform="translate(0,0)">
	<path class="st0" d="M256,45.1c-9.1,0-18.1,0.6-26.8,1.7l25.3,61.4l39.8,29.4l60.6-10.2l-37.9,27.1l38.1,28.2l-74.9-11.9l24.1,58.3
		l62.9,32.2l-58.7-1.1l-45,0.7l9.2,19.5l40,28.6l-28.8-4.9l53.2,112.6l-75.3-78.7l-44.5,20.4l29.6-36L203.4,277l-68.3,31.2
		l45.4-55.2l-54.4-56.8l80.8,5.1L128.8,87.7C78,126.2,45.1,187.2,45.1,256c0,116.6,94.3,210.9,210.9,210.9S466.9,372.6,466.9,256
		S372.6,45.1,256,45.1L256,45.1z"/>
</g>
<path class="st0" d="M256,16.2C123.6,16.2,16.2,123.6,16.2,256S123.6,495.8,256,495.8S495.8,388.4,495.8,256S388.4,16.2,256,16.2z
	 M256,478.1c-122.7,0-222.1-99.4-222.1-222.1S133.3,33.9,256,33.9S478.1,133.3,478.1,256S378.7,478.1,256,478.1z"/>
</svg>
