<?xml version="1.0" encoding="utf-8"?>
<!-- Generator: Adobe Illustrator 26.2.1, SVG Export Plug-In . SVG Version: 6.00 Build 0)  -->
<svg version="1.1" id="Слой_1" xmlns="http://www.w3.org/2000/svg" xmlns:xlink="http://www.w3.org/1999/xlink" x="0px" y="0px"
	 viewBox="0 0 512 512" style="enable-background:new 0 0 512 512;" xml:space="preserve">
<style type="text/css">
	.st0{fill:#D9D4D8;stroke:#000000;stroke-width:4;stroke-miterlimit:10;}
	.st1{fill:#A19FA0;stroke:#000000;stroke-width:4;stroke-miterlimit:10;}
	.st2{fill:#D9D4D8;}
</style>
<g transform="translate(0,0)">
	<path class="st0" d="M113.8,17.7c-8.4,0-16.8,0.8-25.1,2.4C195.6,84.5,275.5,170.5,338.5,270c2.5-53.8-19.1-109.1-53.5-154.2
		c-14.1,5.3-31.5,0.7-43.5-11.2c-12-12-16.6-29.3-11.3-43.4C194.5,34.1,153.7,17.5,113.8,17.7z M494.4,38.1l-70.9,77.6l30.1,125.6
		l-55.1,8.8L379,330.7l73.5,39.1l-41.2,55.9l29.7,44l-88.8-27.6l16.5-43.8L292,364.5l13.1-84.6l-111.4,58.1l-4.2,78.2L77.3,388.7
		L44,492.8h450.4L494.4,38.1L494.4,38.1z M261.2,58.7c-0.4,0-0.8,0-1.2,0.1c-3.6,0.3-6.9,1.7-9.2,4c-6.1,6.1-5.7,18.9,3.9,28.5
		c9.6,9.6,22.4,10,28.5,3.9c6.1-6.1,5.7-18.9-3.9-28.5C273.7,61,267,58.6,261.2,58.7L261.2,58.7z M196.5,127.6L25.3,298.9
		c4.3,11.9,11,21,25.2,25.6L222,153C214.2,144.1,205.7,135.7,196.5,127.6L196.5,127.6z M355.3,139.2l9.3,84.7l27.4-84.7L355.3,139.2
		L355.3,139.2z M223.2,214.2l-20.2,35.9l92.7,7.4L223.2,214.2L223.2,214.2z"/>
</g>
<path class="st1" d="M113.8,17.7c-8.4,0-16.8,0.8-25.1,2.4C195.6,84.5,275.5,170.5,338.5,270c2.5-53.8-19.1-109.1-53.5-154.2
	c-14.1,5.3-31.5,0.7-43.5-11.2c-12-12-16.6-29.3-11.3-43.4C194.5,34.1,153.7,17.5,113.8,17.7z"/>
<path class="st2" d="M425.1-149.1"/>
<path class="st2" d="M415.8-171.5"/>
</svg>
