<?xml version="1.0" encoding="utf-8"?>
<!-- Generator: Adobe Illustrator 26.2.1, SVG Export Plug-In . SVG Version: 6.00 Build 0)  -->
<svg version="1.1" xmlns="http://www.w3.org/2000/svg" xmlns:xlink="http://www.w3.org/1999/xlink" x="0px" y="0px"
	 viewBox="0 0 1024 1024" style="enable-background:new 0 0 1024 1024;" xml:space="preserve">
<style type="text/css">
	.st0{fill:#578357;stroke:#000000;stroke-width:5;stroke-miterlimit:10;}
	.st1{fill:none;stroke:#000000;stroke-width:5;stroke-miterlimit:10;}
</style>
<g id="Слой_2">
	<path class="st0" d="M624.88,84.66l34.78,146.53c-44.22-23.43-94.64-36.69-148.16-36.69c-175.07,0-317,141.93-317,317
		c0,71.05,23.37,136.62,62.85,189.48l67.98-81.97l41.44,174.59l34.4,144.94l-186.05-8.73l-142-6.67l57.27-69.06
		C49,763.37-0.5,643.47-0.5,512C-0.5,228.95,228.95-0.5,512-0.5c110.05,0,212.01,34.69,295.51,93.73L624.88,84.66z"/>
	<path class="st0" d="M1024.5,512c0,283.05-229.45,512.5-512.5,512.5c-110.65,0-213.12-35.07-296.88-94.69l186.05,8.73l-34.4-144.94
		c43.38,22.31,92.58,34.9,144.73,34.9c175.07,0,317-141.93,317-317c0-70.13-22.77-134.93-61.33-187.43l-66.44,80.12l-41.07-173
		L624.88,84.66l182.63,8.57l145.42,6.82l-58.6,70.67C975.29,261.34,1024.5,380.92,1024.5,512z"/>
	<path class="st1" d="M624.82,84.9c-35.86-9.39-73.51-14.4-112.32-14.4c-122.05,0-232.55,49.47-312.54,129.46"/>
	<path class="st1" d="M403.5,940.96c34.86,8.84,71.38,13.54,109,13.54c122.05,0,232.55-49.47,312.54-129.46"/>
</g>
<g id="Слой_3">
</g>
</svg>
