<?xml version="1.0" encoding="utf-8"?>
<!-- Generator: Adobe Illustrator 26.2.1, SVG Export Plug-In . SVG Version: 6.00 Build 0)  -->
<svg version="1.1" id="Слой_1" xmlns="http://www.w3.org/2000/svg" xmlns:xlink="http://www.w3.org/1999/xlink" x="0px" y="0px"
	 viewBox="0 0 512 512" style="enable-background:new 0 0 512 512;" xml:space="preserve">
<style type="text/css">
	.st0{fill:#578357;stroke:#000000;stroke-width:3;stroke-miterlimit:10;}
</style>
<g transform="translate(0,0)">
	<path class="st0" d="M252.3,20c-72,0.4-143,33.5-189.2,96C-6.7,210.3,4,339.2,83,420.9l-37.2,50.3L197,448.6l-22.6-151.2
		l-43.1,58.3c-44.1-54.4-47.7-133.6-4.2-192.5c30.7-41.5,77.9-63.5,125.8-63.8c16.3-0.1,32.8,2.4,48.6,7.5l-7-46.5
		c-23.9-4.9-47.9-5-71-1c-59.2,7.3-114,39.9-148.2,91.2C111,84.7,179.1,44.7,251.4,42.8c1.7,0,3.3-0.1,5-0.1
		c14.8,0,29.7,1.6,44.6,4.9l48.6-7.3C318.5,26.5,285.3,19.8,252.3,20L252.3,20z M465.2,42L314,64.6l22.6,151.2l41.1-55.6
		c42.2,54.3,45.1,132,2.2,190c-40.2,54.4-108.8,75.3-170.2,57.6l6.5,43.6c28.7,5.5,58.2,4.4,86.2-3.1c37.4-6,73.3-22,103.2-47.7
		C356.5,455.3,283,478.2,213.9,465l-55.8,8.3c99,43.7,218.4,14.8,285.5-75.9C512.7,304,503,176.7,426.1,94.9L465.2,42L465.2,42z"/>
</g>
</svg>
