<?xml version="1.0" encoding="utf-8"?>
<!-- Generator: Adobe Illustrator 26.2.1, SVG Export Plug-In . SVG Version: 6.00 Build 0)  -->
<svg version="1.0" xmlns="http://www.w3.org/2000/svg" xmlns:xlink="http://www.w3.org/1999/xlink" x="0px" y="0px"
	 viewBox="0 0 1024 1024" style="enable-background:new 0 0 1024 1024;" xml:space="preserve">
<style type="text/css">
	.st0{fill:#C0FFFF;stroke:#000000;stroke-width:5;stroke-miterlimit:10;}
	.st1{fill:none;stroke:#000000;stroke-miterlimit:10;}
	.st2{fill:#8CBAB9;stroke:#000000;stroke-width:4;stroke-miterlimit:10;}
	.st3{fill:#8CBAB9;stroke:#000000;stroke-width:5;stroke-miterlimit:10;}
</style>
<g id="Слой_1">
	<path class="st0" d="M193.5,128.5l0.03-96H32.5v126l125,223l210.63-0.72l64.61-60.37L193.5,128.5z M161.5,350.5l-33-94h94l64,94
		H161.5z"/>
	<path class="st1" d="M513.83,265.91"/>
	<polyline class="st0" points="458.6,296.23 386.98,159.9 252.5,156.5 232.5,34.5 286.5,45.97 286.5,104.5 410.5,108.5 
		497.92,263.79 	"/>
	<polyline class="st0" points="637.35,744.31 669.5,858.5 581.5,926.5 685.5,998.5 718.5,991.5 694.5,908.5 799.5,991.5 
		832.5,991.5 821.5,911.5 923.5,896.5 910.5,991.5 992.5,991.5 992.5,810.5 799.5,832.5 737.5,678.5 637.35,744.31 	"/>
	<polyline class="st0" points="737.92,655.4 817.5,801.5 882.5,739.5 762.45,615.29 	"/>
	<polygon class="st0" points="446.5,333.5 381.5,381.5 626.72,724.51 730.5,664.5 	"/>
</g>
<g id="Слой_2">
	<path class="st2" d="M369.75,648.71c-2.74,2.56-6.1,4.37-8.12,4.32l-1.56-0.03l-12.66-11.51c-6.94-6.29-17.18-15.55-22.65-20.53
		c-15.9-14.43-80.19-72.39-95.56-86.16c-3.32-2.94-6-6.79-8.06-11.54c-0.65-1.48-1.23-3.04-1.75-4.69c-0.84-2.6-1.52-5.42-2.07-8.46
		c-0.38-2.2-0.65-4.35-0.8-6.42v-0.13c0.62-20.86,17.49-37.56,38.23-37.56c0.68,0,1.36,0.02,2.05,0.06
		c11.08,0.59,20.9,5.95,27.51,14.1c1.06,1.62,2.2,3.27,3.43,4.97c0.18,0.26,0.37,0.52,0.56,0.78c1.34,1.83,7.4,9.38,19.54,24.35
		c8.73,10.74,20.59,25.3,36.11,44.31c45.44,55.69,42.95,52.58,43.02,54.37C387.34,620.44,378.83,640.08,369.75,648.71z"/>
	<path class="st3" d="M795.86,626.77c-9.18,12.3-15.84,19.88-24.93,28.45c-3.06,2.91-6.34,5.27-16.14,11.75
		c-6.77,4.46-16.82,11.06-22.31,14.7c-11.47,7.54-66.94,44.09-77.33,50.93c-2.67,1.74-9.72,6.38-17.79,11.71h-0.01
		c-3.52,2.32-7.23,4.78-10.86,7.18l-13.99,9.21l-18.41-0.57l-0.01-0.01c-9.42-7.46-21.28-21.16-29.13-32.62
		c-0.3-1.96-0.45-3.96-0.45-6c0-10.68,4.19-20.38,11.01-27.55c0.01-0.02,0.03-0.03,0.04-0.04c0.42-0.32,0.83-0.65,1.26-0.98
		c2.77-2.17,5.43-4.25,7.98-6.24c33.81-26.46,49.3-38.59,55.77-43.66c24.11-18.82,51.75-40.48,52.27-40.95
		c0.55-0.52,0.11-1.23-3.96-6.07c-2.5-3.02-4.8-5.66-5.11-5.9c-0.36-0.32-1.28,0.12-3.26,1.67c-1.5,1.21-24.54,19.11-51.16,39.84
		c-26.34,20.53-59.43,46.26-74,57.6c-0.01,0.01-0.01,0.01-0.02,0.02c-0.15,0.12-0.3,0.24-0.45,0.35
		c-6.54,5.09-11.83,9.2-16.11,12.53c-5.93,2.84-12.52,4.53-19.51,4.78c-6.08,0.22-11.94-0.68-17.38-2.5
		c-11.26-10.1-23.76-24.38-32.55-36.47c0,0-0.01-0.01-0.01-0.02c-0.58-2.75-0.94-5.59-1.04-8.5c-0.42-11.85,3.38-22.87,10.06-31.61
		c0,0,0-0.01,0.01-0.01c4.69-4.05,9.94-8.57,15.52-13.35c0.83-0.72,1.67-1.44,2.52-2.16c66.28-56.75,118.6-101.67,118.6-101.88
		c-0.1-0.51-9.81-11.63-10.14-11.63c-0.22,0-2.47,1.78-4.95,3.93c-2.52,2.12-17.79,14.95-33.95,28.47
		c-35.83,30.03-51.63,43.28-62.81,52.61c-2.24,1.88-5.99,5.01-10.27,8.6c0,0,0,0-0.01,0.01c-4.66,3.91-9.94,8.34-14.62,12.28
		c-2.91,2.43-6.08,5.09-9.2,7.69c-7.4,3.53-15.63,5.62-24.34,5.93c-10.85,0.38-21.15-2.05-30.19-6.65c0,0-0.01,0-0.01-0.01
		c-3.99-4.03-8.12-8.42-12.23-13.02c-6.86-7.68-12.94-14.97-18.11-21.63c0,0-0.01-0.01-0.01-0.02c-2.01-5.74-3.2-11.87-3.43-18.27
		c-0.49-13.85,3.61-26.79,10.94-37.37c0-0.01,0.01-0.01,0.02-0.02c6.28-5.64,13.5-12.12,21.41-19.2c0.01,0,0.01,0,0.01-0.01
		c9.68-8.68,20.38-18.24,31.6-28.27c42.64-38.16,77.71-69.57,77.95-69.88c0.28-0.39-0.25-1.33-2.12-3.54
		c-4.69-5.58-7.29-8.46-7.58-8.46c-0.27,0.07-21.52,18.27-118.01,100.98c-1.09,0.93-2.19,1.88-3.3,2.83
		c-4.98,4.27-9.5,8.14-13.53,11.57c-7.32,3.94-15.7,6.18-24.6,6.18c-7.83,0-15.26-1.73-21.92-4.84c-1.19-1.14-2.41-2.33-3.63-3.56
		c-9.3-9.35-17.66-19.14-24-27.8c-1.59-4.98-2.45-10.29-2.45-15.8c0-8.6,2.09-16.71,5.78-23.85c6.04-5.64,14.38-13.45,21.77-20.33
		c1.18-1.11,2.46-2.3,3.8-3.55c10.65-9.98,25.62-23.97,35.28-32.99c10.88-10.16,22.34-20.86,25.43-23.75
		c3.08-2.89,14.54-13.59,25.42-23.75c22.93-21.45,25.28-23.64,48.24-45.12c9.45-8.84,18.29-16.85,19.64-17.79
		c10.35-7.36,35.17-18.61,51.15-23.14c5.66-1.61,11.68-2.41,14.23-1.91l2.13,0.41l4.75,4.87c2.61,2.66,11.49,11.77,19.76,20.26
		c8.27,8.42,15.59,16.15,16.26,17.13c1.82,2.56,3.1,6.56,4.66,14.24c1.63,8.22,3.25,12.58,6.3,17.03c1.89,2.83,2.68,3.65,4.98,5.21
		c5.05,3.46,11.33,3.84,30.19,1.68c17.03-1.96,22.96-1.69,27.22,1.08c1.68,1.09,5.63,5.58,20.26,22.85
		c9.99,11.83,18.56,22.23,19.02,23.06c2.11,3.97,1.85,9.74-0.86,21.8c-2.18,9.48-2.64,12.12-2.81,15.73
		c-0.36,8.57,2.09,13.33,9.54,18.44c3.87,2.64,4.07,2.73,18.65,7.22c1.75,0.56,4.24,1.72,5.81,2.74c2.66,1.72,3.04,2.23,16.44,19.98
		c7.53,10.05,14.01,18.76,14.44,19.41c3.36,5.35,2.89,12.91-1.91,29.64c-4.13,14.3-5.04,20.29-4.03,25.87
		c0.62,3.23,1.82,5.6,4.55,8.68c2.67,3.09,5.65,5.26,12.3,8.9c6.89,3.82,11.52,7.4,13.06,10.19c0.93,1.72,13.94,37.19,15.1,41.21
		C809.25,607.21,806.49,612.62,795.86,626.77z"/>
</g>
</svg>
