<?xml version="1.0" encoding="utf-8"?>
<!-- Generator: Adobe Illustrator 26.2.1, SVG Export Plug-In . SVG Version: 6.00 Build 0)  -->
<svg version="1.1" id="Слой_1" xmlns="http://www.w3.org/2000/svg" xmlns:xlink="http://www.w3.org/1999/xlink" x="0px" y="0px"
	 viewBox="0 0 512 512" style="enable-background:new 0 0 512 512;" xml:space="preserve">
<style type="text/css">
	.st0{fill:#C0FFFF;stroke:#000000;stroke-width:4;stroke-miterlimit:10;}
	.st1{fill:#99CCCC;stroke:#000000;stroke-width:4;stroke-miterlimit:10;}
	.st2{fill:#98CACA;stroke:#000000;stroke-width:4;stroke-miterlimit:10;}
</style>
<g transform="translate(0,0)">
	<path class="st0" d="M17.9,18.8v49.2c20.3,43.8,40.6,87.6,60.9,131.4c29.7-1.2,59.5-2.3,89.2-3.4c14.5-15.4,30.1-29.5,48-44
		L101.1,75L86.9,18.8H17.9L17.9,18.8z M112.5,18.8c6.1,16.1,12.2,32.3,18.4,48.5c23.5,2,47.1,3.9,70.6,5.8l22.8,72.3
		c5-4,10.3-8.1,15.7-12.2c-8.2-25.9-16.2-51.8-24.4-77.7c-23.8-2-47.6-3.9-71.4-5.9l-11.7-30.9L112.5,18.8z M65.4,126.1l42.2,2
		L152,178l-61.5,2.3L65.4,126.1z M262.3,139.7c-48.9,36.6-79.3,62.9-109.2,103.6c3.8,12,9.1,24.2,15.6,36.3l100.4-88.5l12.4,14
		l-103.1,90.8c7,11,15,21.7,23.8,31.8l107.2-88.6l11.9,14.4l-106.4,87.8c8,8,16.5,15.5,25.4,22.2L344,287.9l11,15.1l-98.4,71.7
		c10.2,6.4,20.8,11.7,31.7,15.9c41.1-16.8,77.9-50.1,105.8-82.6c6-7,8.3-14,7.5-20.3c-0.9-6.3-4.9-13.2-15.7-20.1l-5.2-3.3l1-6.1
		c2.5-15.2-1.2-22.1-6.5-26.8c-5.2-4.6-13.7-6.8-21.1-6.8l-15-0.1l6.7-13.5c4.4-8.9,3.5-18.5-1.9-25.8s-15.6-12.9-32.5-11.4l-12.7,1
		l2.8-12.4c3.1-14.2-2.2-21-10.7-25.1C281.4,133.4,270.4,134.3,262.3,139.7z M132.5,240c-8.9,10.1-16.6,21.1-22.4,32.6
		c8.4,20.9,19.7,36,33,44.9c10.1,6.8,21.4,10.3,34.4,10.4C157.4,298.8,141.3,269.9,132.5,240z M395.2,334.8
		c-4.2,4.5-8.5,8.9-13,13.4l23.7,20.6l-18,15.7L371,358.7c-12.3,11.1-25.6,21.5-39.8,30.6l14.2,32.1c-17.7,15.4-35.4,30.7-53.1,46.1
		c12.9,8.9,25.7,17.8,38.5,26.7h32.8l-40.9-28.4l30.6-26.5l11.7,26.6l20.1-3.3l11.7,31.6h20l-13-34.8l60.9-10.3l-13.3,45.1h41.8v-91
		l-86.6,9.7l-8.3-12.7c12.1-10.4,24.1-20.9,36.1-31.3C421.1,357.3,406.9,344.8,395.2,334.8L395.2,334.8z"/>
	<path class="st0" d="M477.8,32.1"/>
	<path class="st1" d="M262.3,139.7c-48.9,36.6-79.3,62.9-109.2,103.6c3.8,12,9.1,24.2,15.6,36.3l100.4-88.5l12.4,14l-103.1,90.8
		c7,11,15,21.7,23.8,31.8l107.2-88.6l11.9,14.4l-106.4,87.8c8,8,16.5,15.5,25.4,22.2L344,287.9l11,15.1l-98.4,71.7
		c10.2,6.4,20.8,11.7,31.7,15.9c41.1-16.8,77.9-50.1,105.8-82.6c6-7,8.3-14,7.5-20.3c-0.9-6.3-4.9-13.2-15.7-20.1l-5.2-3.3l1-6.1
		c2.5-15.2-1.2-22.1-6.5-26.8c-5.2-4.6-13.7-6.8-21.1-6.8l-15-0.1l6.7-13.5c4.4-8.9,3.5-18.5-1.9-25.8s-15.6-12.9-32.5-11.4l-12.7,1
		l2.8-12.4c3.1-14.2-2.2-21-10.7-25.1C281.4,133.4,270.4,134.3,262.3,139.7z"/>
	<path class="st2" d="M132.5,239.2c-8.9,10.1-16.6,21.1-22.4,32.6c8.4,20.9,19.7,36,33,44.9c10.1,6.8,21.4,10.3,34.4,10.4
		C157.4,298,141.3,269.1,132.5,239.2z"/>
	<path class="st0" d="M632.8,238.7"/>
	<path class="st0" d="M755,283.2"/>
</g>
</svg>
