<?xml version="1.0" encoding="utf-8"?>
<!-- Generator: Adobe Illustrator 26.2.1, SVG Export Plug-In . SVG Version: 6.00 Build 0)  -->
<svg version="1.1" id="Слой_2" xmlns="http://www.w3.org/2000/svg" xmlns:xlink="http://www.w3.org/1999/xlink" x="0px" y="0px"
	 viewBox="0 0 1024 1024" style="enable-background:new 0 0 1024 1024;" xml:space="preserve">
<style type="text/css">
	.st0{fill:#CF00FF;stroke:#000000;stroke-width:4;stroke-miterlimit:10;}
	.st1{fill:#9B00C0;stroke:#000000;stroke-width:5;stroke-miterlimit:10;}
</style>
<path class="st0" d="M502.69,3.51c-123.64,97.86-174.82,81.94-217.38,0.48c35.97,133.31,22.55,143.93-96.91,252.67
	c145.9-77.29,208.48-74.2,283.82,15.57C396.57,157.13,405.14,108.94,502.69,3.51L502.69,3.51z M18.01,76.99
	c73.17,59.94,76.3,92.68,66.64,190.22c41.12-116.44,60.6-145.84,139.78-177.7C139.58,109.83,103.25,113.96,18.01,76.99L18.01,76.99z
	 M136.66,298.91c54.08,58.54,58.45,94.67,52.55,156.16c32.02-74.66,47.83-98.95,120.54-139.37
	C234.86,339.94,211.15,337.85,136.66,298.91z M842.24,504.78c20.09,112.02-9.99,159.73-71.18,231.2
	C864.9,655.7,896.43,640.01,980.93,652C897.29,627.17,878.15,607.31,842.24,504.78L842.24,504.78z M721.63,662.57
	c-40.53,149.07-98.18,181.91-233.23,151.96c117.29,43.56,122.09,45.66,116.01,184.74c53.65-120.1,100.75-113.16,206-80.65
	C719.88,849.63,711.35,812.5,721.63,662.57L721.63,662.57z M958.58,783.86c-33.2,38.99-49.7,37.9-94.94,20.25
	c49.47,39.97,38.13,73.73,23.5,128.73c34.78-41.43,50.96-54.69,109.03-27.5C946.63,859.09,937.37,840.64,958.58,783.86
	L958.58,783.86z M857.07,298.64L958.18,69.6L729.14,170.71L542.58,3.79l25.32,249.07L351.47,378.75l192.84,41.61l41.51-40.95
	c21.3-21.02,55.61-20.79,76.63,0.52c21.01,21.3,20.78,55.61-0.52,76.62l-49.74,49.07l36.84,170.69l125.89-216.43L1024,485.21
	L857.07,298.64z"/>
<path class="st1" d="M651.19,392.22L651.19,392.22c-15.42-15.63-40.59-15.8-56.22-0.38l-668.66,659.63
	c-15.63,15.42-15.8,40.59-0.38,56.22l0,0c15.42,15.63,40.59,15.8,56.22,0.38l668.66-659.63
	C666.44,433.02,666.61,407.85,651.19,392.22z"/>
</svg>
