<?xml version="1.0" encoding="utf-8"?>
<!-- Generator: Adobe Illustrator 26.2.1, SVG Export Plug-In . SVG Version: 6.00 Build 0)  -->
<svg version="1.1" id="Слой_1" xmlns="http://www.w3.org/2000/svg" xmlns:xlink="http://www.w3.org/1999/xlink" x="0px" y="0px"
	 viewBox="0 0 512 512" style="enable-background:new 0 0 512 512;" xml:space="preserve">
<style type="text/css">
	.st0{fill:#CF00FF;stroke:#000000;stroke-width:4;stroke-miterlimit:10;}
	.st1{fill:#9B00C0;stroke:#000000;stroke-width:4;stroke-miterlimit:10;}
	.st2{fill:#CF00FF;}
	.st3{fill:#CB01FB;stroke:#000000;stroke-width:4;stroke-miterlimit:10;}
</style>
<g transform="translate(0,0)">
	<path class="st0" d="M250.5,22c-57.1,45.2-80.7,37.8-100.3,0.2c16.6,61.5,10.4,66.4-44.7,116.6c67.3-35.7,96.2-34.2,131,7.2
		C201.6,92.9,205.5,70.7,250.5,22L250.5,22z M268.9,22.2l11.7,114.9l-99.9,58.1l97.8,21.1c-9.6,8.4-20.2,19-31.3,30.1l0,0
		l-228.6,226v19.4h32.2l222.6-219.4c10.3-10.3,18.9-19.5,25.8-27.8l18.9,87.8l58.1-99.9l114.9,11.7l-77-86.1l46.7-105.7L355,99.2
		L268.9,22.2L268.9,22.2z M26.9,55.9c33.8,27.7,35.2,42.8,30.8,87.8c19-53.7,28-67.3,64.5-82C83,71.1,66.2,73,26.9,55.9L26.9,55.9z
		 M81.6,158.3c25,27,27,43.7,24.2,72.1c14.8-34.4,22.1-45.7,55.6-64.3C126.9,177.3,116,176.3,81.6,158.3z M407.2,253.3
		c9.3,51.7-4.6,73.7-32.8,106.7c43.3-37,57.9-44.3,96.8-38.8C432.6,309.8,423.8,300.7,407.2,253.3L407.2,253.3z M351.6,326.2
		c-18.7,68.8-45.3,83.9-107.6,70.1c54.1,20.1,56.3,21.1,53.5,85.2c24.8-55.4,46.5-52.2,95.1-37.2
		C350.8,412.5,346.8,395.3,351.6,326.2L351.6,326.2z M460.9,382.1c-15.3,18-22.9,17.5-43.8,9.3c22.8,18.4,17.6,34,10.8,59.4
		c16-19.1,23.5-25.2,50.3-12.7C455.4,416.8,451.1,408.3,460.9,382.1L460.9,382.1z"/>
</g>
<path class="st1" d="M293.5,199.7c-5.2,4.8-10.6,9.7-15.9,14.9c-6,5.7-11.7,11.4-17.1,17l0,0L18.8,471.3v20.6h34L288,259.3
	c9.1-9.8,18.2-19.6,27.2-29.4C329,213,313.5,190.5,293.5,199.7z"/>
<path class="st2" d="M882.5,494"/>
<path class="st3" d="M460.9,382.1c-15.3,18-22.9,17.5-43.8,9.3c22.8,18.4,17.6,34,10.8,59.4c16-19.1,23.5-25.2,50.3-12.7
	C455.4,416.8,451.1,408.3,460.9,382.1L460.9,382.1z"/>
<path class="st1" d="M351.6,326.2c-18.7,68.8-45.3,83.9-107.6,70.1c54.1,20.1,56.3,21.1,53.5,85.2c24.8-55.4,46.5-52.2,95.1-37.2
	C350.8,412.5,346.8,395.3,351.6,326.2L351.6,326.2z"/>
<path class="st1" d="M250.5,22c-57.1,45.2-80.7,37.8-100.3,0.2c16.6,61.5,10.4,66.4-44.7,116.6c67.3-35.7,96.2-34.2,131,7.2
	C201.6,92.9,205.5,70.7,250.5,22L250.5,22z"/>
</svg>
