<?xml version="1.0" encoding="utf-8"?>
<!-- Generator: Adobe Illustrator 26.2.1, SVG Export Plug-In . SVG Version: 6.00 Build 0)  -->
<svg version="1.1" xmlns="http://www.w3.org/2000/svg" xmlns:xlink="http://www.w3.org/1999/xlink" x="0px" y="0px"
	 viewBox="0 0 1024 1024" style="enable-background:new 0 0 1024 1024;" xml:space="preserve">
<style type="text/css">
	.st0{fill:#165555;stroke:#000000;stroke-width:5;stroke-miterlimit:10;}
	.st1{fill:#00C0C0;stroke:#000000;stroke-width:5;stroke-miterlimit:10;}
	.st2{fill:#02B7B7;stroke:#000000;stroke-width:5;stroke-miterlimit:10;}
	.st3{fill:#018E8E;stroke:#000000;stroke-width:5;stroke-miterlimit:10;}
	.st4{fill:#01B9B9;stroke:#000000;stroke-width:5;stroke-miterlimit:10;}
	.st5{fill:#009090;stroke:#000000;stroke-width:5;stroke-miterlimit:10;}
</style>
<g id="Слой_3">
	
		<rect x="338.84" y="593.41" transform="matrix(-0.866 -0.5 0.5 -0.866 351.5043 1449.2295)" class="st0" width="62.14" height="168.22"/>
	
		<rect x="625.77" y="592.97" transform="matrix(0.866 -0.5 0.5 0.866 -250.5392 419.1287)" class="st0" width="62.14" height="168.22"/>
	
		<rect x="253.18" y="223.26" transform="matrix(0.7071 -0.7071 0.7071 0.7071 -134.0903 291.0247)" class="st0" width="62.14" height="168.22"/>
	
		<rect x="711.95" y="219.26" transform="matrix(-0.7071 -0.7071 0.7071 -0.7071 1053.9003 1043.2871)" class="st0" width="62.14" height="168.22"/>
	<path class="st0" d="M405.5,356.26V227.12c0-2.55,2.07-4.62,4.62-4.62H617.5v138H409.74C407.4,360.5,405.5,358.6,405.5,356.26z"/>
	<path class="st0" d="M539.26,673.5h-54.14c-2.55,0-4.62-2.07-4.62-4.62V288.5h63v380.76C543.5,671.6,541.6,673.5,539.26,673.5z"/>
</g>
<g id="Слой_2">
	<path class="st1" d="M543,288v383.42c101.44-26.66,181.34-83.49,224.55-191.71c8.34-45.59,10.65-88.95,0-127.54
		C719.19,290.67,673.7,246.4,637,255C613.79,274.96,582.72,286.24,543,288z"/>
	<path class="st1" d="M480.5,288.47v383.42c-101.44-26.66-181.34-83.49-224.55-191.71c-8.34-45.59-10.65-88.95,0-127.54
		c48.36-61.5,93.85-105.76,130.55-97.16C409.71,275.43,440.78,286.71,480.5,288.47z"/>
	<path class="st2" d="M639.5,226.5c-85.17,25.82-170.33,25.51-255.5,0v-68c83.9,22.27,169.05,22.61,255.5,0V226.5z"/>
	<path class="st3" d="M440.96,694.26l-121.81-70.33c-6.61-3.82-15.07-1.55-18.88,5.06l-28.87,50c-3.82,6.61-1.55,15.07,5.06,18.88
		l121.81,70.33c6.61,3.82,15.07,1.55,18.88-5.06l28.87-50C449.83,706.53,447.57,698.08,440.96,694.26z"/>
	<path class="st4" d="M402.04,769.75L287.81,703.8c-8.7-5.03-19.83-2.04-24.86,6.66l-29.68,51.4c-5.03,8.7-2.04,19.83,6.66,24.86
		l114.23,65.95c8.7,5.03,19.83,2.04,24.86-6.66l29.68-51.4C413.73,785.91,410.74,774.78,402.04,769.75z"/>
	<path class="st3" d="M368.19,860.84l-114.54-66.13c-8.62-4.98-19.64-2.02-24.62,6.6l-27.24,47.18c-4.98,8.62-2.02,19.64,6.6,24.62
		l114.54,66.13c8.62,4.98,19.64,2.02,24.62-6.6l27.24-47.18C379.76,876.84,376.81,865.82,368.19,860.84z"/>
	<path class="st3" d="M582.84,690.17l121.81-70.33c6.61-3.82,15.07-1.55,18.88,5.06l28.87,50c3.82,6.61,1.55,15.07-5.06,18.88
		l-121.81,70.33c-6.61,3.82-15.07,1.55-18.88-5.06l-28.87-50C573.96,702.44,576.23,693.98,582.84,690.17z"/>
	<path class="st4" d="M621.76,765.66l114.23-65.95c8.7-5.03,19.83-2.04,24.86,6.66l29.68,51.4c5.03,8.7,2.04,19.83-6.66,24.86
		l-114.23,65.95c-8.7,5.03-19.83,2.04-24.86-6.66l-29.68-51.4C610.07,781.82,613.05,770.69,621.76,765.66z"/>
	<path class="st3" d="M655.61,856.75l114.54-66.13c8.62-4.98,19.64-2.02,24.62,6.6L822,844.39c4.98,8.62,2.02,19.64-6.6,24.62
		l-114.54,66.13c-8.62,4.98-19.64,2.02-24.62-6.6l-27.24-47.18C644.03,872.75,646.99,861.73,655.61,856.75z"/>
	<path class="st5" d="M114.01,234.88l-40.18,53.86c36.6,31.68,71.9,54.33,103.96,54.11c4.99-10.3,9.12-19.15,12.65-26.96
		C163.93,300.76,138.52,272.92,114.01,234.88z"/>
	<path class="st1" d="M186.74,154.26l-82.54,63.91c36.71,64.74,79.27,105,130.63,108.53c7.4-9.06,14.42-19.92,17.68-32.87
		C225.59,272.26,203.28,227.67,186.74,154.26z"/>
	<path class="st5" d="M272.05,133.22c12.26,64.69,26.3,109.82,43.26,122.76c-29.8,44.32-60.75,44.54-92.86,0
		c-16.14-30.36-26.51-62.01-32.24-94.7C219.23,158.29,246.38,148.45,272.05,133.22z"/>
	<path class="st5" d="M900.2,230.16l40.18,53.86c-36.6,31.68-71.9,54.33-103.96,54.11c-4.99-10.3-9.12-19.15-12.65-26.96
		C850.28,296.04,875.68,268.2,900.2,230.16z"/>
	<path class="st1" d="M827.46,149.54L910,213.45c-36.71,64.74-79.27,105-130.63,108.53c-7.4-9.06-14.42-19.92-17.68-32.87
		C788.61,267.54,810.93,222.95,827.46,149.54z"/>
	<path class="st5" d="M742.16,128.5c-12.26,64.69-26.3,109.82-43.26,122.76c29.8,44.32,60.75,44.54,92.86,0
		c16.14-30.36,26.51-62.01,32.24-94.7C794.97,153.57,767.83,143.74,742.16,128.5z"/>
</g>
</svg>
