<?xml version="1.0" encoding="utf-8"?>
<!-- Generator: Adobe Illustrator 26.2.1, SVG Export Plug-In . SVG Version: 6.00 Build 0)  -->
<svg version="1.1" id="Слой_1" xmlns="http://www.w3.org/2000/svg" xmlns:xlink="http://www.w3.org/1999/xlink" x="0px" y="0px"
	 viewBox="0 0 512 512" style="enable-background:new 0 0 512 512;" xml:space="preserve">
<style type="text/css">
	.st0{fill:#00C0C0;stroke:#000000;stroke-width:4;stroke-miterlimit:10;}
	.st1{fill:#018E8E;stroke:#000000;stroke-width:4;stroke-miterlimit:10;}
	.st2{fill:#FFFFFF;stroke:#000000;stroke-width:4;stroke-miterlimit:10;}
</style>
<g transform="translate(0,0)">
	<path class="st0" d="M324.3,67.2c-44.5,19.3-91,26-136.7,1.9v39.5c45.9,22.5,90.5,21,136.7-0.3V67.2z M133.7,74.2
		c-6.8,0-13.4,0.4-19.9,1c-3.1,24.1,6.1,52.1,24.6,73.8c7.2-4.9,13.7-10.3,19.5-15.7c-6.1-19.6-10.3-38.9-11.6-58.7
		c-2.1-0.1-4.3-0.3-6.4-0.3C137.9,74.2,135.8,74.2,133.7,74.2L133.7,74.2z M379.1,74.2c-2.1,0-4.1,0-6.2,0c-2.1,0-4.3,0.2-6.4,0.3
		c-1.3,19.8-5.5,39.1-11.6,58.7c5.8,5.4,12.3,10.8,19.5,15.7c18.5-21.7,27.8-49.7,24.6-73.8C392.5,74.6,385.9,74.3,379.1,74.2
		L379.1,74.2z M94.8,78.1c-13.7,2.9-26,7.4-36.4,13.6c-0.2,29.3,13,60,33.2,77.2l-1.2,1.4c11.6-2.7,22.2-6.7,31.9-11.6
		C103,135.2,92.7,105.9,94.8,78.1z M418.1,78.1c2.1,27.8-8.2,57.1-27.4,80.6c9.7,4.9,20.3,9,31.9,11.6l-1.2-1.4
		c20.1-17.3,33.3-48,33.1-77.2C444.1,85.4,431.8,80.9,418.1,78.1L418.1,78.1z M40.4,106.1c-13.3,14.4-20.9,34.4-20.5,62.4
		c17.9,4.7,34.5,6,49.7,4.9C53.5,155.3,43.2,131.1,40.4,106.1L40.4,106.1z M472.4,106.1c-2.8,25.1-13.1,49.2-29.2,67.3
		c15.2,1.1,31.8-0.2,49.7-4.9C493.3,140.5,485.7,120.5,472.4,106.1L472.4,106.1z M338.7,122.5l-0.9,0.4
		c-24,11.8-48.4,18.8-72.9,20.3v214.1c73.6-26,122.8-81,122.8-144.2c0-13.1-2.1-25.9-6.2-38.2c-17.7-9-32.5-20.5-44-32.1l-4.1-4.1
		l1.8-5.5C336.5,129.6,337.6,126,338.7,122.5L338.7,122.5z M174.2,122.9c1,3.4,2.1,6.9,3.2,10.3l1.8,5.5l-4.1,4.1
		c-12.4,12.5-28.6,24.8-48.1,34.1c-3.6,11.6-5.6,23.7-5.6,36.1c0,63.4,50.4,118.7,124.7,144.6V143.3
		C222.1,142,198,135.4,174.2,122.9L174.2,122.9z M157,326.7c-5.9,4.8-11.4,9.8-16.5,15c22,17.5,50.6,35.6,79.5,43.4
		c5-5.7,10.6-11.2,16.8-16.3L157,326.7z M354.9,326.7l-79.8,42.1c6.3,5.3,12.1,10.9,17.2,16.8c29-7.4,57.7-25.3,80.1-42.8
		C367,337.2,361.2,331.9,354.9,326.7z M127.9,355.6c-6.2,7.5-11.9,15.4-17.2,23.4c23.2,18.4,53.7,37.6,84.2,44.6
		c3.7-7.8,7.9-15.4,12.8-22.6C177.3,391.3,149.5,372.9,127.9,355.6L127.9,355.6z M384.9,356.7c-21.8,17.3-49.8,35.5-80.3,44.9
		c4.8,7.2,9,14.7,12.6,22.4c30.6-6.5,61.2-25.4,84.8-43.9C396.7,372.1,391.1,364.3,384.9,356.7L384.9,356.7z M100.7,394.9
		c-5.9,9.8-11.4,19.9-17,30c28.2,27.2,59.3,42.3,95.3,45.8c2.3-10.1,5.2-20,8.7-29.7C154.6,432.8,124.2,413.5,100.7,394.9
		L100.7,394.9z M411.9,396.2c-23.8,18.5-54.3,37.6-87.5,45.4c3.4,9.5,6.2,19.3,8.5,29.2c36-3.5,67-18.6,95.3-45.8
		C422.8,415.2,417.5,405.6,411.9,396.2L411.9,396.2z"/>
</g>
<path class="st1" d="M100.7,394.9c-5.9,9.8-11.4,19.9-17,30c28.2,27.2,59.3,42.3,95.3,45.8c2.3-10.1,5.2-20,8.7-29.7
	C154.6,432.8,124.2,413.5,100.7,394.9L100.7,394.9z"/>
<path class="st0" d="M53.3,342.6"/>
<path class="st1" d="M157,326.4c-5.9,4.8-11.4,9.8-16.5,15c22,17.5,50.6,35.6,79.5,43.4c5-5.7,10.6-11.2,16.8-16.3L157,326.4z"/>
<path class="st2" d="M-65,340.6"/>
<path class="st1" d="M411.9,396.2c-23.8,18.5-54.3,37.6-87.5,45.4c3.4,9.5,6.2,19.3,8.5,29.2c36-3.5,67-18.6,95.3-45.8
	C422.8,415.2,417.5,405.6,411.9,396.2L411.9,396.2z"/>
<path class="st1" d="M354.9,326.2l-79.8,42.1c6.3,5.3,12.1,10.9,17.2,16.8c29-7.4,57.7-25.3,80.1-42.8
	C367,336.7,361.2,331.3,354.9,326.2z"/>
<path class="st1" d="M40.4,106.1c-13.3,14.4-20.9,34.4-20.5,62.4c17.9,4.7,34.5,6,49.7,4.9C53.5,155.3,43.2,131.1,40.4,106.1
	L40.4,106.1z"/>
<path class="st1" d="M133.7,74.2c-6.8,0-13.4,0.4-19.9,1c-3.1,24.1,6.1,52.1,24.6,73.8c7.2-4.9,13.7-10.3,19.5-15.7
	c-6.1-19.6-10.3-38.9-11.6-58.7c-2.1-0.1-4.3-0.3-6.4-0.3C137.9,74.2,135.8,74.2,133.7,74.2L133.7,74.2z"/>
<path class="st1" d="M354.8,133.3c5.8,5.4,12.3,10.8,19.5,15.7c18.5-21.7,27.8-49.7,24.6-73.8c-6.4-0.6-13.1-1-19.9-1l0,0
	c-2.1,0-4.1,0-6.2,0c-2.1,0-4.3,0.2-6.4,0.3C365.1,94.4,361,113.7,354.8,133.3"/>
<path class="st1" d="M472.4,106.1c-2.8,25.1-13.1,49.2-29.2,67.3c15.2,1.1,31.8-0.2,49.7-4.9C493.3,140.5,485.7,120.5,472.4,106.1
	L472.4,106.1z"/>
</svg>
