<?xml version="1.0" encoding="utf-8"?>
<!-- Generator: Adobe Illustrator 26.2.1, SVG Export Plug-In . SVG Version: 6.00 Build 0)  -->
<svg version="1.1" id="Слой_1" xmlns="http://www.w3.org/2000/svg" xmlns:xlink="http://www.w3.org/1999/xlink" x="0px" y="0px"
	 viewBox="0 0 512 512" style="enable-background:new 0 0 512 512;" xml:space="preserve">
<style type="text/css">
	.st0{fill:#FF2E31;stroke:#000000;stroke-width:4;stroke-miterlimit:10;}
	.st1{fill:#FA3133;stroke:#000000;stroke-width:4;stroke-miterlimit:10;}
	.st2{fill:#BC1F29;stroke:#000000;stroke-width:4;stroke-miterlimit:10;}
</style>
<g transform="translate(0,0)">
	<path class="st0" d="M252.9,24.2l-11.5,42.9L382.6,105l11.5-42.9L252.9,24.2z M253.7,89.8l-6.8,25.5l-18.4-4.9
		c-42.8-11.5-87.1,13.5-98.6,56.4L80,352.8c-11.5,42.9,14.1,87.2,57,98.7L280.4,490c42.9,11.5,86.6-14.4,98.1-57.2l49.9-186.2
		c11.5-42.8-13.8-86.4-56.5-97.9v0l-19-5.1l6.8-25.4l-18-4.8l-9.2,34.5l-2.4,9l0.1,0c-9.8,28.9,56.4,96.2,82.3,64.7
		c0.4,6.6-0.2,13.4-2,20.3l-2.8,10.2h-45.7c9.9,13.8,13.9,32.5,7.7,53.2c-9.3,30.8-36.2,45.3-62.7,58.1
		c-26.5,12.8-53.4,24.8-70.3,48l-13.9,19.2l-2.9-23.5c-3.5-28.6-21.9-51.7-38.8-75.8c-8.5-12-16.5-24.3-21.4-38
		c-4.5-12.5-6.1-26.4-2.6-41.1h-30.7l21.6-80.6c8.9-33.1,42.5-52.1,75.7-43.2l27.4,7.3l9,2.4l2.4-9l9.2-34.5L253.7,89.8L253.7,89.8z
		 M217.5,220.2c-17.4,0.4-34.7,11-41.4,33.2c-3.7,12.3-2.7,22.7,1.2,33.5c3.9,10.8,10.9,21.9,19.1,33.5c13.3,19,29.7,39.8,37.8,65.7
		c19.4-18.7,43.5-29.3,64.6-39.6c25.9-12.6,46.1-24,53-46.7c7.5-24.8-2.9-41-19.3-49c-16.5-8-39.1-6.5-56.2,10.5l-11.9,11.8
		l-3.8-16.4c-5.9-25.5-23.4-36.3-41.3-36.6C218.6,220.2,218,220.2,217.5,220.2L217.5,220.2z"/>
</g>
<path class="st1" d="M-221,231.1"/>
<path class="st1" d="M-32.4,205.1"/>
<path class="st2" d="M217.5,220.2c-17.4,0.4-34.7,11-41.4,33.2c-3.7,12.3-2.7,22.7,1.2,33.5c3.9,10.8,10.9,21.9,19.1,33.5
	c13.3,19,29.7,39.8,37.8,65.7c19.4-18.7,43.5-29.3,64.6-39.6c25.9-12.6,46.1-24,53-46.7c7.5-24.8-2.9-41-19.3-49
	c-16.5-8-39.1-6.5-56.2,10.5l-11.9,11.8l-3.8-16.4c-5.9-25.5-23.4-36.3-41.3-36.6C218.6,220.2,218,220.2,217.5,220.2L217.5,220.2z"
	/>
</svg>
