<?xml version="1.0" encoding="utf-8"?>
<!-- Generator: Adobe Illustrator 26.2.1, SVG Export Plug-In . SVG Version: 6.00 Build 0)  -->
<svg version="1.1" xmlns="http://www.w3.org/2000/svg" xmlns:xlink="http://www.w3.org/1999/xlink" x="0px" y="0px"
	 viewBox="0 0 1024 1024" style="enable-background:new 0 0 1024 1024;" xml:space="preserve">
<style type="text/css">
	.st0{fill:#C0FFC0;stroke:#000000;stroke-width:4;stroke-miterlimit:10;}
	.st1{fill:#C0FFC0;stroke:#000000;stroke-width:3;stroke-miterlimit:10;}
</style>
<g id="Слой_2">
	<path class="st0" d="M899.5,32.5c-67.43,0-130.54,18.54-184.49,50.81c-43.2-14.54-91.04-24.26-141.75-28.04
		c-15.66-1.17-31.6-1.77-47.76-1.77c-13.49,0-26.82,0.42-39.97,1.24C433.02,58,383.46,67.63,338.78,82.39
		C284.44,49.46,220.68,30.5,152.5,30.5c-48.86,0,99.57,30.6,153.91,63.53c0.55,0.33,1.38,1,1.96,1.38c0.05,0.04,0.09,0.06,0.13,0.09
		c-0.24,0.06-0.47,0.13-0.71,0.2c-59.4,29.11-100.29,90.18-100.29,160.8c0,27.46,6.19,53.48,17.24,76.73
		C186.67,387.35,164.5,452.24,164.5,522c0,127.86,74.46,239.36,184.81,298.19l-156.04,231.74l54.43,36.64l163.18-242.34
		c4.57,1.47,9.18,2.85,13.83,4.15c2.11,1.64,4.24,3.22,6.38,4.76l-58.68,213.29l63.26,17.4L492.5,882.5l6,1l-3.01,278.4h65.61
		V884.93c3.21-0.71,6.41-1.52,9.58-2.44l55.89,203.14l63.26-17.41l-59.52-216.33c0.66-0.49,1.32-1,1.98-1.51
		c4.2-1.17,8.36-2.41,12.49-3.73l163.01,242.1l54.43-36.65L706.5,820.83c111-58.67,186-170.51,186-298.83
		c0-71.23-23.11-137.38-62.66-192.17c10.06-22.38,15.66-47.2,15.66-73.33c0-68.76-38.77-128.47-95.64-158.43
		c-1.78-0.56-3.56-1.08-5.36-1.57c0.09-0.05,4.71-3.22,4.94-3.36C803.39,60.87,940.11,32.5,899.5,32.5z M369.56,103.28
		c1.77-0.56,3.55-1.1,5.33-1.64c1.68-0.51,3.37-1,5.07-1.49c0.1-0.04,0.21-0.07,0.31-0.09c0.74-0.22,1.49-0.43,2.23-0.64
		c1.69-0.48,3.38-0.95,5.08-1.41c0.38-0.1,0.75-0.21,1.13-0.3c1.63-0.45,3.26-0.88,4.91-1.29c0.71-0.19,1.43-0.37,2.15-0.55
		c0.75-0.19,1.49-0.38,2.24-0.56c1.06-0.27,2.12-0.52,3.18-0.77c0.4-0.11,0.79-0.2,1.18-0.28c1.53-0.37,3.07-0.73,4.62-1.08
		c1.71-0.39,3.43-0.77,5.15-1.14c2.59-0.57,5.2-1.12,7.82-1.63c2.11-0.42,4.23-0.83,6.36-1.23c2.5-0.48,5.02-0.93,7.55-1.36
		c0.73-0.13,1.48-0.25,2.21-0.37c1.03-0.18,2.06-0.35,3.1-0.51c0.51-0.08,1.02-0.16,1.53-0.25c0.89-0.14,1.79-0.28,2.69-0.41
		c0.69-0.11,1.37-0.21,2.06-0.31c4.42-0.67,8.88-1.28,13.38-1.82c0.97-0.12,1.94-0.24,2.91-0.35c1.18-0.15,2.36-0.28,3.55-0.41
		c1.52-0.17,3.05-0.33,4.58-0.49c1.69-0.17,3.39-0.34,5.09-0.5c2.42-0.22,4.84-0.43,7.28-0.62c1.21-0.1,2.41-0.19,3.62-0.28
		c1.5-0.11,3.01-0.22,4.52-0.31c1.72-0.12,3.45-0.22,5.18-0.32c5.2-0.29,10.42-0.5,15.68-0.65c1.45-0.04,2.91-0.08,4.36-0.1
		c0.03-0.01,0.06-0.01,0.09,0h0.01c0.6-0.02,1.19-0.03,1.79-0.03c1.25-0.03,2.49-0.05,3.74-0.06c0.57,0,1.15-0.01,1.72-0.01
		c1.38-0.01,2.77-0.02,4.16-0.02c1.38,0,2.76,0,4.13,0.02c1.04,0,2.08,0.01,3.12,0.03c2.47,0.03,4.94,0.07,7.4,0.14
		c0.81,0.02,1.61,0.04,2.42,0.07c1.12,0.03,2.24,0.06,3.36,0.11c0.95,0.03,1.89,0.07,2.84,0.11c2.22,0.08,4.44,0.19,6.65,0.31
		c0.73,0.03,1.47,0.08,2.2,0.11c0.12,0.01,0.25,0.02,0.38,0.02c1.44,0.08,2.88,0.17,4.31,0.27c1.73,0.11,3.45,0.23,5.17,0.36
		c0.96,0.07,1.91,0.14,2.86,0.22c0.53,0.04,1.06,0.08,1.58,0.13c1.15,0.09,2.3,0.19,3.46,0.3c1.06,0.09,2.11,0.19,3.16,0.29
		c2.8,0.26,5.59,0.54,8.36,0.85c0.8,0.09,1.6,0.18,2.4,0.27c1.46,0.17,2.92,0.34,4.37,0.52c1.45,0.17,2.9,0.36,4.35,0.55
		c1.67,0.22,3.33,0.44,5,0.68c3.48,0.49,6.95,1.01,10.4,1.57c1.48,0.23,2.96,0.48,4.43,0.73c1.63,0.27,3.26,0.56,4.89,0.85
		c1.62,0.29,3.24,0.59,4.85,0.9c1.28,0.24,2.55,0.48,3.82,0.74c0.55,0.1,1.09,0.21,1.63,0.32c1.09,0.22,2.18,0.44,3.27,0.67
		c0.44,0.09,0.89,0.18,1.33,0.28c1.02,0.21,2.03,0.43,3.04,0.65c0.54,0.11,1.07,0.23,1.6,0.35c0.88,0.19,1.76,0.39,2.64,0.59
		c0.12,0.02,0.24,0.05,0.36,0.08c0.69,0.15,1.39,0.31,2.08,0.47c2.56,0.59,5.11,1.2,7.65,1.84c0.84,0.21,1.67,0.41,2.5,0.63
		c3.44,0.86,6.86,1.77,10.24,2.72c0.9,0.25,1.79,0.49,2.68,0.75c0.15,0.03,0.3,0.08,0.44,0.12c0.83,0.24,1.66,0.47,2.49,0.72
		c0.48,0.13,0.96,0.27,1.44,0.42c0.97,0.28,1.93,0.57,2.88,0.86c1.91,0.57,3.81,1.15,5.7,1.75c1.68,0.53,3.34,1.07,5,1.61
		c-0.28,0.16-0.55,0.32-0.83,0.48c-0.94,0.55-1.88,1.11-2.82,1.68c-0.94,0.56-1.87,1.12-2.8,1.7c-1.04,0.64-2.08,1.29-3.11,1.94
		c-0.81,0.51-1.62,1.02-2.42,1.55c-0.92,0.59-1.83,1.18-2.74,1.79c-0.91,0.59-1.82,1.2-2.72,1.81c-1.81,1.22-3.6,2.46-5.37,3.71
		c-1.91,1.35-3.8,2.72-5.67,4.11c-0.53,0.39-1.05,0.77-1.57,1.17c-1.36,1.02-2.71,2.05-4.06,3.1c-1.34,1.04-2.67,2.09-4,3.16
		c-3.19,3.02-6.32,6.1-9.38,9.23c-0.58,0.58-1.16,1.17-1.71,1.76c-1.71,1.76-3.4,3.53-5.06,5.32c-0.01,0.01-0.02,0.02-0.02,0.03
		c-0.65,0.69-1.29,1.38-1.92,2.08c-0.45,0.48-0.89,0.97-1.32,1.45c-0.45,0.49-0.88,0.97-1.31,1.46c-1,1.11-1.99,2.22-2.96,3.34
		c-3.98,4.56-7.85,9.22-11.6,13.98c-0.79,1-1.57,2-2.34,3.01c-0.7,0.9-1.39,1.8-2.08,2.71c-1.1,1.45-2.19,2.92-3.26,4.39
		c-1.02,1.38-2.03,2.77-3.01,4.17c-0.65,0.9-1.28,1.8-1.9,2.7c-0.03,0.02-0.05,0.05-0.05,0.07c-0.49,0.69-0.96,1.37-1.43,2.06
		c-0.22,0.31-0.43,0.63-0.64,0.94c-0.47,0.68-0.93,1.37-1.39,2.05c-0.4,0.58-0.78,1.15-1.16,1.73c-0.67,1-1.32,2.01-1.97,3.01
		c-0.47,0.71-0.93,1.43-1.39,2.15c-2.67,4.17-5.25,8.39-7.74,12.68c-0.14,0.23-0.28,0.46-0.4,0.7c-0.54,0.9-1.06,1.81-1.57,2.73
		c-1.25,2.18-2.47,4.38-3.66,6.6c-0.22,0.39-0.43,0.78-0.64,1.18c-0.02,0.03-0.03,0.06-0.05,0.09c-0.38,0.72-0.77,1.44-1.14,2.17
		c-0.08,0.12-0.14,0.24-0.19,0.36c-0.09,0.15-0.17,0.29-0.23,0.44c-0.04,0.05-0.06,0.09-0.07,0.14c-0.4,0.73-0.77,1.46-1.14,2.19
		c-0.18,0.33-0.35,0.67-0.51,1c-0.71,1.37-1.4,2.75-2.08,4.13c-0.18,0.35-0.36,0.7-0.52,1.06c-0.46,0.93-0.91,1.86-1.36,2.8
		c-0.56,1.16-1.11,2.32-1.65,3.49c-0.52,1.1-1.03,2.2-1.52,3.31c-0.62,1.34-1.21,2.68-1.8,4.03c-0.16,0.35-0.32,0.71-0.47,1.07
		c-0.17,0.38-0.34,0.77-0.5,1.16c-0.39,0.88-0.77,1.77-1.13,2.66c-0.2,0.46-0.39,0.91-0.58,1.37c-0.53,1.25-1.04,2.51-1.55,3.77
		l-39.22,92.95l-38.76-92.45c-0.57-1.45-1.15-2.9-1.75-4.34c-0.22-0.55-0.45-1.1-0.68-1.65c-0.52-1.27-1.06-2.53-1.6-3.79
		c-0.18-0.43-0.37-0.86-0.56-1.28c-0.6-1.41-1.22-2.82-1.86-4.22c-0.72-1.62-1.46-3.23-2.2-4.83c-0.1-0.21-0.2-0.41-0.29-0.62
		c-0.72-1.52-1.44-3.03-2.18-4.54c-0.79-1.64-1.6-3.27-2.42-4.89c-1.52-3-3.07-5.97-4.67-8.91c-0.3-0.57-0.61-1.13-0.92-1.69
		c-0.53-0.98-1.07-1.96-1.63-2.93c-0.41-0.75-0.83-1.49-1.26-2.23c-0.07-0.15-0.15-0.29-0.24-0.43c-0.7-1.23-1.41-2.46-2.13-3.67
		c-0.46-0.79-0.92-1.58-1.4-2.36c-0.48-0.82-0.97-1.63-1.47-2.44c-0.03-0.06-0.06-0.11-0.1-0.17c-0.55-0.91-1.11-1.83-1.68-2.73
		c-2.06-3.32-4.17-6.6-6.34-9.84c-0.72-1.08-1.45-2.16-2.2-3.23c-0.01-0.05-0.04-0.09-0.09-0.14c0-0.02-0.01-0.04-0.04-0.06
		c-0.13-0.21-0.27-0.42-0.42-0.62c-0.42-0.61-0.84-1.23-1.28-1.84c0-0.02-0.02-0.05-0.05-0.07c-0.02-0.05-0.06-0.11-0.11-0.16
		c-0.5-0.73-1.01-1.45-1.53-2.18c-0.04-0.07-0.1-0.15-0.15-0.22c-0.38-0.55-0.76-1.08-1.15-1.61c-0.73-1.03-1.48-2.06-2.24-3.08
		c-0.31-0.45-0.64-0.89-0.98-1.33c-0.65-0.89-1.33-1.79-2.01-2.68c-0.33-0.46-0.68-0.91-1.03-1.37c-0.42-0.56-0.85-1.11-1.28-1.66
		c-0.14-0.19-0.28-0.38-0.44-0.56c-0.58-0.77-1.18-1.54-1.79-2.3c-0.05-0.08-0.11-0.15-0.17-0.22c-0.66-0.85-1.33-1.69-2.01-2.52
		c0-0.01,0-0.01-0.02-0.02c-0.53-0.67-1.07-1.34-1.63-2.01c-0.64-0.79-1.29-1.58-1.95-2.37c-0.53-0.65-1.06-1.29-1.62-1.93
		c-0.01-0.03-0.04-0.07-0.08-0.1c-0.2-0.25-0.41-0.5-0.63-0.75c-0.11-0.14-0.23-0.28-0.36-0.42c-1.07-1.27-2.16-2.53-3.26-3.78
		c-1.33-1.54-2.69-3.06-4.07-4.57c-0.84-0.95-1.7-1.89-2.59-2.83c-0.01-0.03-0.04-0.06-0.08-0.09c-0.55-0.62-1.12-1.23-1.71-1.84
		c-0.23-0.26-0.47-0.52-0.72-0.77c-0.6-0.65-1.22-1.29-1.84-1.93c-0.08-0.1-0.18-0.21-0.3-0.31c-0.92-0.97-1.86-1.94-2.81-2.9
		c-0.1-0.12-0.21-0.23-0.33-0.34c-0.63-0.65-1.27-1.3-1.93-1.94c-0.33-0.35-0.67-0.68-1.01-1.01c-0.81-0.82-1.62-1.62-2.44-2.41
		c-0.48-0.47-0.96-0.94-1.45-1.4c-0.8-0.78-1.6-1.55-2.41-2.3c-0.01-0.02-0.01-0.02-0.02-0.02c-0.53-0.51-1.06-1-1.59-1.5
		c-0.15-0.14-0.3-0.28-0.45-0.42c-0.91-0.86-1.83-1.71-2.76-2.56c-1.16-1.05-2.32-2.1-3.49-3.13c-0.53-0.47-1.06-0.94-1.59-1.4
		c-0.09-0.09-0.19-0.18-0.29-0.26c-0.94-0.83-1.88-1.65-2.83-2.46c-6.09-4.28-12.35-8.33-18.76-12.17c-0.5-0.3-1-0.6-1.51-0.89
		C367.6,103.9,368.58,103.59,369.56,103.28z M299.5,255.77c3.99-7.22,23.7-20.14,29.01-19.99c0.01,0,0.01,0,0.02-0.01
		c7.83-2.75,16.44-4.27,25.47-4.27c1.78,0,3.55,0.06,5.3,0.18c8.7,0.58,16.92,2.57,24.33,5.71c21.29,8.99,35.87,27.38,35.87,48.61
		c0,30.1-29.33,54.5-65.5,54.5c-11.71,0-22.7-2.56-32.21-7.04c-10.27-4.83-18.81-11.91-24.67-20.42c-2.85-4.14-5.07-8.62-6.54-13.35
		c-1.36-4.37-2.08-8.96-2.08-13.69C288.5,274.82,292.55,264.42,299.5,255.77z M364.69,797.35
		C262.35,743.33,193.19,640.27,193.19,522c0-59.15,17.3-114.49,47.4-161.8c11.56,16.24,25.76,30.47,41.99,42.06
		c-2.03,21.58-3.08,43.7-3.08,66.24c0,129.57,34.78,245.44,89.48,322.48c3.3,4.66,6.68,9.18,10.13,13.55
		C374.24,802.24,369.43,799.85,364.69,797.35z M626.34,819.26c-1.36,1.12-2.73,2.21-4.11,3.28c-1.67,1.3-3.35,2.57-5.04,3.8
		c-17.21,12.54-35.55,21.54-54.68,26.45c-0.47,0.13-0.94,0.24-1.41,0.36c-10.64,2.62-21.52,3.97-32.6,3.97
		c-9.84,0-19.53-1.07-29.03-3.14c-1.33-0.29-2.66-0.6-3.98-0.94c-19.5-4.85-38.17-13.94-55.68-26.7c-0.22-0.16-0.44-0.32-0.66-0.48
		c-3.22-2.37-6.4-4.86-9.54-7.46c-16.35-13.6-31.58-30.45-45.38-50.07c-48.76-69.3-79.73-173.07-79.73-289.04
		c0-21.16,1.03-41.91,3.01-62.12c23.82,11.74,50.64,18.33,78.99,18.33c0.9,0,1.81-0.01,2.71-0.02c1.14-0.02,2.27-0.04,3.41-0.09
		c0.68-0.02,1.36-0.04,2.03-0.08c0.17,0,0.34-0.01,0.5-0.02c0.9-0.04,1.79-0.09,2.68-0.15c0.93-0.05,1.87-0.12,2.8-0.19
		c0.87-0.07,1.73-0.14,2.59-0.22c0.11-0.01,0.22-0.02,0.33-0.03c1.81-0.18,3.62-0.38,5.41-0.6c0.06-0.01,0.13-0.02,0.19-0.02
		c1.49-0.19,2.97-0.4,4.44-0.62c0.39-0.06,0.77-0.11,1.14-0.18c0.82-0.12,1.63-0.26,2.44-0.4c0.01,0,0.02,0,0.02,0
		c0.9-0.16,1.8-0.32,2.7-0.49c0.9-0.17,1.8-0.35,2.7-0.53c0.9-0.18,1.79-0.37,2.68-0.57c0.85-0.18,1.69-0.38,2.53-0.58
		c0.93-0.22,1.86-0.45,2.79-0.68c0.01,0,0.02-0.01,0.03-0.01c1.24-0.31,2.48-0.64,3.72-0.98c0.7-0.2,1.4-0.39,2.1-0.6
		c0.42-0.12,0.84-0.24,1.26-0.37c0.91-0.27,1.82-0.55,2.73-0.84c1.04-0.32,2.08-0.66,3.12-1.01c0.03-0.01,0.07-0.03,0.11-0.04
		c1.01-0.34,2.02-0.69,3.03-1.05c0.09-0.03,0.19-0.07,0.29-0.1c0.91-0.33,1.82-0.67,2.73-1.01c1.16-0.44,2.32-0.89,3.48-1.36
		c0.86-0.34,1.71-0.69,2.56-1.05c1.33-0.56,2.66-1.14,3.97-1.72c0.9-0.41,1.8-0.82,2.69-1.24c1.99-0.94,3.96-1.9,5.9-2.9
		c0.08-0.05,0.17-0.09,0.25-0.13c0.95-0.49,1.89-0.99,2.82-1.5c0.98-0.52,1.96-1.06,2.93-1.61c0.97-0.55,1.93-1.1,2.89-1.67
		c0.96-0.56,1.91-1.14,2.86-1.72c0.74-0.45,1.47-0.91,2.19-1.37c1.46-0.92,2.9-1.87,4.33-2.83c0.67-0.45,1.34-0.91,2.01-1.38
		c0.07-0.05,0.15-0.1,0.23-0.16c0.58-0.4,1.15-0.81,1.72-1.22c0.83-0.59,1.65-1.19,2.47-1.79c0.65-0.49,1.3-0.98,1.95-1.47
		c1.42-1.08,2.82-2.19,4.21-3.31c0.62-0.5,1.23-1,1.83-1.51c1.32-1.09,2.62-2.21,3.91-3.35c0.64-0.56,1.28-1.13,1.91-1.71
		c1.91-1.73,3.78-3.51,5.61-5.32l15.89,96.25l11.31-97.18c10.29,10.34,21.83,19.43,34.38,27.01c18.35,11.1,38.86,18.99,60.74,22.92
		c10.31,1.84,20.91,2.8,31.75,2.8c29.87,0,58.03-7.32,82.79-20.26c2.11,20.82,3.21,42.22,3.21,64.05
		c0,116.63-31.33,220.92-80.56,290.22C658.06,789.04,642.76,805.8,626.34,819.26z M814.49,357.22
		c31.29,47.96,49.32,104.39,49.32,164.78c0,118.73-69.7,222.14-172.7,275.98c-4.35,2.27-8.76,4.46-13.22,6.55
		c3.16-4,6.26-8.13,9.3-12.38c55.17-77.03,90.31-193.42,90.31-323.65c0-23.49-1.14-46.53-3.34-68.98
		C789.8,387.72,803.44,373.43,814.49,357.22z M786.1,280.02c0.27,1.96,0.4,3.96,0.4,5.98c0,9.37-2.84,18.2-7.86,25.9
		c-3.93,6.05-9.2,11.41-15.48,15.81c-7.59,5.32-16.66,9.23-26.62,11.24c-4.98,1.02-10.19,1.55-15.54,1.55
		c-36.17,0-65.5-24.4-65.5-54.5c0-18.2,10.73-34.32,27.21-44.22c5-3.01,10.54-5.44,16.47-7.18c6.82-2.01,14.17-3.1,21.82-3.1h0.42
		c4.51,0.02,8.9,0.43,13.15,1.18C761.94,237.47,783.02,256.49,786.1,280.02z"/>
</g>
<g id="Слой_3">
	<path class="st1" d="M594.59,620.03C591.11,650.41,565.31,674,534,674s-57.11-23.59-60.59-53.97C485.11,641.46,507.86,656,534,656
		S582.89,641.46,594.59,620.03z"/>
	<path class="st1" d="M455.96,611.38c-18.75,24.15-53.05,30.92-79.81,14.66c-26.76-16.26-36.55-49.82-23.75-77.59
		c-1.13,24.39,10.76,48.63,33.1,62.21S434.83,623.62,455.96,611.38z"/>
	<path class="st1" d="M710.02,536.78c14.75,26.78,7.38,60.96-18.15,79.09c-25.53,18.13-60.22,13.84-80.65-8.92
		c21.95,10.7,48.92,9.38,70.23-5.76S712.89,561.03,710.02,536.78z"/>
	<path class="st1" d="M525.23,739.21c-13.11,27.63-45.15,41.62-74.78,31.5c-29.63-10.12-46.43-40.78-39.9-70.65
		c4.15,24.06,20.98,45.17,45.72,53.62C481.01,762.12,507.24,755.71,525.23,739.21z"/>
	<path class="st1" d="M660.32,683.39c12.75,27.79,2.9,61.33-23.89,77.55c-26.79,16.21-61.07,9.39-79.78-14.8
		c21.11,12.28,48.1,12.93,70.46-0.6S661.41,707.79,660.32,683.39z"/>
</g>
</svg>
