<?xml version="1.0" encoding="utf-8"?>
<!-- Generator: Adobe Illustrator 26.2.1, SVG Export Plug-In . SVG Version: 6.00 Build 0)  -->
<svg version="1.1" id="Слой_1" xmlns="http://www.w3.org/2000/svg" xmlns:xlink="http://www.w3.org/1999/xlink" x="0px" y="0px"
	 viewBox="0 0 512 512" style="enable-background:new 0 0 512 512;" xml:space="preserve">
<style type="text/css">
	.st0{fill:#9ECF9E;stroke:#000000;stroke-width:4;stroke-miterlimit:10;}
</style>
<g transform="translate(0,0)">
	<path class="st0" d="M70.6,17.3l-4.9,18c24.2,6.5,46,15.6,65.5,26.7c-21.3,15.8-35.3,42.7-35.3,73.3c0,13.6,2.8,26.5,7.7,38
		c-21.8,20.4-35,49.4-35,87.5c0,70.7,42.9,131.7,104.8,161l-30.7,70.4h20.4l27.6-63.2c3,1.1,6.1,2.1,9.1,3c3.6,2.8,7.2,5.2,10.9,7.5
		l-13,52.7h19.3l10.9-44.3c6.9,2.5,13.8,4.2,20.9,5v39.3h18.7v-39.4c7.9-0.9,15.6-2.9,23.3-6.1l11.2,45.4h19.2l-13.4-54.4
		c3.4-2.2,6.8-4.7,10-7.3c3.2-1.1,6.4-2.2,9.5-3.5l28.5,65.2h20.4l-31.8-72.9c59.2-30.2,99.7-89.8,99.7-158.5
		c0-37.1-12.5-65.6-33.3-85.9c5.4-11.9,8.4-25.3,8.4-39.6c0-30.5-13.9-57.4-35.1-73.1c19.6-11.3,41.5-20.4,65.4-26.9l-4.9-18
		c-26.3,7.1-50.2,17.2-71.8,30c-34.1-18.8-77.2-28.2-120.2-28.1c-40.9,0-81.7,8.6-114.7,25.4C117.8,33.2,95.3,24,70.6,17.3
		L70.6,17.3z M252.7,38.7c36.4,0,73,6.7,102.1,20.3c-45.1,31.9-77.9,76.2-97.1,127.8C238.3,134.7,205,88.9,157.1,56.4
		C184.9,44.6,218.8,38.7,252.7,38.7L252.7,38.7z M169.1,107c19.4,0,35.3,15.9,35.3,35.3c0,19.4-15.9,35.3-35.3,35.3
		s-35.3-15.9-35.3-35.3C133.8,123,149.7,107,169.1,107L169.1,107z M348.5,107c19.4,0,35.3,15.9,35.3,35.3
		c0,19.4-15.9,35.3-35.3,35.3c-19.4,0-35.3-15.9-35.3-35.3C313.2,123,329.1,107,348.5,107L348.5,107z M238.2,187.7
		c4.1,10.3,7.5,21,10.4,31.9l9,34l9-34c2.9-10.9,6.4-21.5,10.4-31.7c14.4,21.5,37.3,35.4,63.2,35.4c14.4,0,28-4.3,39.6-11.9
		c-4,70.8-18.9,124.7-39.3,161.4c-24,43.1-54.4,62.3-83.5,61.8c-29.2-0.4-59.8-20.7-83.8-64.1c-20.4-37-35.4-90.5-39.4-160
		c11.9,8.1,25.9,12.7,40.9,12.7C200.8,223.3,223.8,209.3,238.2,187.7L238.2,187.7z M112.9,189.9c0.4,0.6,0.9,1.2,1.3,1.8
		c2.2,81.3,18.4,144.1,42.7,187.9c3.7,6.6,7.5,12.8,11.5,18.5c-48.7-28.3-81.1-79.3-81.1-137.4C87.3,228.8,96.5,206.3,112.9,189.9
		L112.9,189.9z M401.2,191.3c15.5,16.3,24.2,38.4,24.2,69.5c0,56.4-30.5,106.1-76.8,134.8c2.9-4.3,5.6-8.9,8.3-13.7
		c24.2-43.5,40.3-106.1,42.6-188.5C400.1,192.7,400.6,192,401.2,191.3L401.2,191.3z M163.7,250.4c-3.8,6.3-6.1,14.5-6.1,23.2
		c0,20.1,12.1,35.9,26.8,35.9c12.5,0,23.4-11.6,26.2-27.5c-4.7,4.1-10.5,6.3-16.5,6.3C178.2,288.4,164.7,271.8,163.7,250.4
		L163.7,250.4z M349.6,252.8c-1.1,21.4-14.5,38-30.5,38c-6,0-11.8-2.2-16.5-6.3c2.9,15.9,13.7,27.5,26.2,27.5
		c14.7,0,26.2-15.9,26.2-35.9C355.1,267.4,353.3,259.1,349.6,252.8L349.6,252.8L349.6,252.8z M280.9,281.8
		c-3.5,13.1-14.3,23.2-24.5,23.2c-10,0-20.6-10.1-23.9-22.5c-0.8,3.4-1.8,7-1.8,10.8c0,19.2,11.6,34.4,25.7,34.4
		c14.1,0,25.7-15.2,25.7-34.4C282,289.3,281.8,285.4,280.9,281.8L280.9,281.8L280.9,281.8z M315.9,348.5c-3.4,16.6-14.2,29-27.5,29
		c-8.2,0-15.8-4.6-21-12.1c0.7,18.3,12.1,33.1,25.7,33.1c14.1,0,25.7-15.9,25.7-35.1C318.8,357.9,317.5,353.1,315.9,348.5
		L315.9,348.5z M200.3,349.9c-1.3,4.2-1.8,8.7-1.8,13.5c0,19.2,11.6,35.1,25.7,35.1c13.6,0,24.4-14.7,25.1-33.1
		c-5.3,7.5-12.8,12.1-21,12.1C215.4,377.5,204,365.8,200.3,349.9L200.3,349.9z"/>
</g>
</svg>
