<?xml version="1.0" encoding="utf-8"?>
<!-- Generator: Adobe Illustrator 26.2.1, SVG Export Plug-In . SVG Version: 6.00 Build 0)  -->
<svg version="1.1" id="Слой_2" xmlns="http://www.w3.org/2000/svg" xmlns:xlink="http://www.w3.org/1999/xlink" x="0px" y="0px"
	 viewBox="0 0 1024 1024" style="enable-background:new 0 0 1024 1024;" xml:space="preserve">
<style type="text/css">
	.st0{opacity:0.37;fill:#999999;stroke:#000000;stroke-width:5;stroke-miterlimit:10;}
</style>
<path class="st0" d="M940.42,478.9c-19.57-48.02-45.36-79.07-77.5-92.8c-9.32-3.98-13.88-14.63-10.47-24.18
	c64.07-179.16,32.36-335.71-195.99-338.41c-0.64-0.01-97.32-2.07-97.96-2.01c-13.85,1.36,70.67,7.5,60.88,13.76
	c-11.05,7.05-19.89,16.9-27.37,28.82c-5.85,9.3-10.87,19.87-15.46,31.34c-1.81,4.5-90.35,10.32-92.05,15.08
	c-1.94,5.44,82.97,9.86,81.1,15.57c-15.37,46.93-29.66,102.19-63.11,148.41c-5.56,7.69-15.26,11.26-24.47,9.04
	c-137.59-33.12-220.59-159.13-306.93-96.2c-1.06,0.77-2.09,1.63-2.91,2.66c-85.68,59.52,19.95,169.29-43.21,260.14
	c-6.3,9.06,6.03,20.14,15.53,14.52c17.28-10.21,32.17-24.7,43.76-45.11c3.14-5.53,8.82-9.22,15.17-9.51
	c19.67-0.88,35.45,8.75,46.5,31.15c1.18,2.39,1.85,5.01,1.94,7.67c0.7,20.9-14.02,41.75-34.69,62.58c-2.83,2.85,0.36,7.53,4.05,5.93
	c33.51-14.51,60.74-32.61,76.21-57.42c3.59-5.77,11.67-6.53,16.35-1.6c10.16,10.71,16.7,21.24,19.22,31.6
	c2.12,8.73-1.88,17.8-9.75,22.14c-76.15,41.95-147.47,94.18-212.78,159.16c-142.1,153.74-87.79,233.87,17.79,255.23
	c6.21,1.25,10.67-5.83,6.81-10.86c-59.68-77.84-48.49-156.61,68.86-182.76c1.03-0.23,2.09-0.35,3.15-0.38
	c161.81-4.29,320.09-41.04,473.7-120.91c4.94-2.57,10.97-2.02,15.32,1.46c43.43,34.71,35.62,91.33,21.72,150.55
	c-1.75,7.49,6.16,13.53,12.93,9.87c31.46-17.01,56.97-44.44,74.94-85.08c3.71-8.39,15.66-8.33,19.22,0.12
	c15.89,37.67,12.78,91.79-1.07,155.23c-1.08,4.93,5.16,8.03,8.41,4.17C908.46,752.72,973.54,613.19,940.42,478.9z M654.58,89.28
	l65.36,133.01C670.45,277.26,552.78,164.85,654.58,89.28z M737.5,498.5c-3.77,2.81-47.45,0.19-63.32-12.67
	c-4.11-3.33-5.77-8.85-4.46-13.98c16.05-63.14,4.48-99.15-77.94-65.55c-3.57,1.45-7.55,1.59-11.19,0.35
	c-34.85-11.91-49.86-35.32-39.09-66.15C658.46,181.66,877.28,396.59,737.5,498.5z M749.5,239.5l104-68
	C891.5,254.5,802.5,310.5,749.5,239.5z"/>
<path class="st0" d="M691.29,872.87c62.96,6.78,96.69-27.17,101.19-101.85c0.28-4.65-5.8-6.64-8.32-2.73
	c-28.33,43.96-59.86,75.69-94.82,94.2C684.51,865.04,685.87,872.29,691.29,872.87z"/>
<path class="st0" d="M107.2,206.88c26.03-89.42,73.49-109.7,137.35-76.43c5.08,2.65,2.75,10.42-2.95,9.81
	c-52.23-5.54-95.11,9.7-128.52,69.08C111.21,212.65,106.14,210.53,107.2,206.88z"/>
</svg>
