<?xml version="1.0" encoding="utf-8"?>
<!-- Generator: Adobe Illustrator 26.2.1, SVG Export Plug-In . SVG Version: 6.00 Build 0)  -->
<svg version="1.1" id="Слой_1" xmlns="http://www.w3.org/2000/svg" xmlns:xlink="http://www.w3.org/1999/xlink" x="0px" y="0px"
	 viewBox="0 0 512 512" style="enable-background:new 0 0 512 512;" xml:space="preserve">
<style type="text/css">
	.st0{fill:#818185;stroke:#000000;stroke-width:4;stroke-miterlimit:10;}
</style>
<g transform="translate(0,0)">
	<path class="st0" d="M282.8,18.9c21.6,6.1,36.3,15.2,40.6,28.8c-1.4,0.7-2.7,1.5-4.1,2.4c-25.7,5.8-53.1,18.6-81,34.4
		c20.2-4.7,36.7-4.4,47.5,3.3C280.1,98,275,110,270.7,123.8c-21.3,67.9-125.7-80.6-189.1-5.3c-40.2,47.7,11.1,93.8-55.1,175.8
		c35.6-4.1,45.1-9.5,62.4-36.2c10.4-16.1,28.5-22.1,44.7-21.4c-12.7,11.2-25.8,30.4-38.2,59.9c19.8-18.5,44.9-38.7,71.6-40
		c0.9,6.4-2.4,13.7-12,21.4C93.2,327.3,15.6,364.2,19.8,476.5c5.6-11.3,11.6-20.3,17.6-28.6c6,29.6,28.2,53.8,93,40.5
		C83.5,482,54.1,428.8,85,405.8c62.7-46.5,128.8,1.4,269.9-75.3c2.5-1.3,4.9-2.5,7.2-3.5c-2.2,19.6-12.4,39.8-22.4,57.1
		c14.3-10.4,25.4-20.1,33.9-29.3c2.1,26.1-11.7,54.6-25.4,78.3c43.3-31.5,61.2-58,63.2-78.4c9.3,36.7-1.9,95.5-25,123.5
		c77.6-39.4,106.6-77.1,109.8-190.7c1.7-59.8-66.2-60.5-56.4-101.3c11.9-49.8,6.8-84.7-7.6-107.9C412.6,28.6,352.2,18.6,282.8,18.9
		L282.8,18.9z M89.8,47.7C54.7,47.5,45.2,83.1,55.7,117c17.1-51.5,70.4-44.2,111.2-34.4C133.6,57.6,108.2,47.8,89.8,47.7L89.8,47.7z
		 M344.4,78.4c18.6,21.4,29.4,43,10.1,65.7C327.9,127.5,327.5,104.9,344.4,78.4z M418.9,127c3.7,0,7.8,0.3,12.5,1.1
		c-1.7,30.5-14.4,33-46.6,32.2C393.1,138.1,399.1,127.1,418.9,127L418.9,127z M334.2,167.3c9.7,0.1,20.3,2.8,30.6,8.9
		c44.6,26.2,21.9,73.3-4.1,74.8c-15.2,0.9,1.4-23.8-16.2-38.5c-15.3-12.7-38.6,12.5-45.2-5.8C291.1,184.1,309.5,167.1,334.2,167.3
		L334.2,167.3z M394.4,413.5c-24.2,27.8-58.9,60.1-99.4,31.4C311.6,490.6,363.8,515.4,394.4,413.5L394.4,413.5z"/>
</g>
</svg>
