<?xml version="1.0" encoding="utf-8"?>
<!-- Generator: Adobe Illustrator 26.2.1, SVG Export Plug-In . SVG Version: 6.00 Build 0)  -->
<svg version="1.1" id="Слой_1" xmlns="http://www.w3.org/2000/svg" xmlns:xlink="http://www.w3.org/1999/xlink" x="0px" y="0px"
	 viewBox="0 0 512 512" style="enable-background:new 0 0 512 512;" xml:space="preserve">
<style type="text/css">
	.st0{fill:#FFFFFF;stroke:#000000;stroke-width:4;stroke-miterlimit:10;}
</style>
<g transform="translate(0,0)">
	<path class="st0" d="M387,17.7c-0.7,24.3-8.1,49.3-22.2,71.8c-37.5,60.2-112.7,86.8-181.9,69.9c5.2-2.3,10.2-4.8,15-7.6
		c39.1-22.5,57.3-55.5,54.3-91.7c-7.4,21.8-24.6,41.3-50.2,56.1c-48,27.7-118,31.7-187.5,16.9v37.4c41,8.2,82.1,9.6,118.6,3.5
		c0.4,0.2,0.7,0.5,1.1,0.8l0.1,0l3.3,2.1c32.7,21.4,80,25.3,123.7,16.3c43.8-9.1,83.5-31.3,101.1-57.3l4-5.9l6.8,2.3
		c39.1,13.4,75.9,17.1,119.1,14.9c0.7-0.1,1.4-0.1,2.2-0.2v-39.1c-36.9,3.6-75.2,0.8-111.4-9C392.5,72.1,393.5,44.1,387,17.7
		L387,17.7z M323.8,191.3c-17.8,9.1-37.8,15.9-58.6,20.2c-31.3,6.5-64.6,7.1-94.7-0.5l80.8,94.1l-93.1,20.4L457.9,496l-109.3-176
		l58.1-15L323.8,191.3L323.8,191.3z"/>
</g>
</svg>
