<?xml version="1.0" encoding="utf-8"?>
<!-- Generator: Adobe Illustrator 26.2.1, SVG Export Plug-In . SVG Version: 6.00 Build 0)  -->
<svg version="1.1" id="Слой_2" xmlns="http://www.w3.org/2000/svg" xmlns:xlink="http://www.w3.org/1999/xlink" x="0px" y="0px"
	 viewBox="0 0 1024 1024" style="enable-background:new 0 0 1024 1024;" xml:space="preserve">
<style type="text/css">
	.st0{fill:#212121;stroke:#000000;stroke-width:5;stroke-miterlimit:10;}
</style>
<path class="st0" d="M771.18,185.59c62.01,0,121.08,12.56,174.82,35.28c-75.03-56.24-168.23-89.55-269.21-89.55
	c-84.46,0-163.48,23.31-230.97,63.84c-22.35-9.7-7.02-44.92,35.68-98.66c-107.95,71.36-178.99,39.48-223-68
	c-15.67,128.09-81.86,160.75-196,102.82c110.87,114.02,88,162.18,0,197.18c126.23,19.91,154.46,51.92,128,153
	c28.87-37.73,52.43-61.61,71.52-73.88c-22.24,53.24-34.52,111.68-34.52,172.99c0,186.13,113.18,345.82,274.47,414.01
	c-109.34-81.95-180.08-212.57-180.08-359.74C321.89,386.74,523.04,185.59,771.18,185.59z M199.5,275c0-48.32,39.18-87.5,87.5-87.5
	c40.08,0,73.87,26.95,84.23,63.72c-34.62,32.13-64.16,69.65-87.29,111.22C237.04,360.83,199.5,322.3,199.5,275z"/>
</svg>
