<?xml version="1.0" encoding="utf-8"?>
<!-- Generator: Adobe Illustrator 26.2.1, SVG Export Plug-In . SVG Version: 6.00 Build 0)  -->
<svg version="1.1" id="Слой_1" xmlns="http://www.w3.org/2000/svg" xmlns:xlink="http://www.w3.org/1999/xlink" x="0px" y="0px"
	 viewBox="0 0 512 512" style="enable-background:new 0 0 512 512;" xml:space="preserve">
<style type="text/css">
	.st0{fill:#222222;stroke:#000000;stroke-width:4;stroke-miterlimit:10;}
</style>
<g transform="translate(0,0)">
	<path class="st0" d="M135.7,18.5c-6.8,74.8-23.8,85.4-107.9,59.7c84.8,52,73.6,65-6.8,96.9c87.7-10.3,103.3,4.9,70.8,87.6
		c17.8-27.6,32.5-44.5,46.3-54.5c-11.8,28.3-18.3,59.3-18.3,91.8c0,84.2,43.7,158,109.7,200.4c-41.6-43.8-67.7-102.7-67.7-167.9
		C161.6,197.6,271,88.1,406,88.1c30.9,0,60.8,5.8,88,16.2c-38.6-26.9-85.5-42.6-136.1-42.6c-55.3,0-106.1,18.8-146.6,50.4
		c4.6-18.8,17.4-38.1,41-60.9C190.2,90.9,153.5,95.6,135.7,18.5L135.7,18.5z M145.7,95.7c5.7,0,11.4,1.2,16.9,3.9
		c14.5,7,22.7,21.8,22,36.9c-10.3,10.9-19.5,22.7-27.6,35.3c-9,2.8-19.1,2.3-28.2-2.2c-19.4-9.3-27.5-32.6-18.2-52
		C117.3,103.8,131.2,95.7,145.7,95.7L145.7,95.7z"/>
</g>
</svg>
