<?xml version="1.0" encoding="utf-8"?>
<!-- Generator: Adobe Illustrator 26.2.1, SVG Export Plug-In . SVG Version: 6.00 Build 0)  -->
<svg version="1.1" id="Слой_1" xmlns="http://www.w3.org/2000/svg" xmlns:xlink="http://www.w3.org/1999/xlink" x="0px" y="0px"
	 viewBox="0 0 512 512" style="enable-background:new 0 0 512 512;" xml:space="preserve">
<style type="text/css">
	.st0{fill:#56C000;stroke:#000000;stroke-width:4;stroke-miterlimit:10;}
</style>
<g transform="translate(0,0)">
	<path class="st0" d="M256.2,18.4c-132.3,0-239.8,107.4-239.8,239.8s107.5,239.8,239.8,239.8S496,390.4,496,258.1
		S388.5,18.4,256.2,18.4z M256.2,36.2c102.8,0,189.1,69.7,214.4,164.4l-79.3-81.5l-7-7.2l-6.7,7.5l-77.2,86.4
		c-11.5-10.3-23-20.3-34.5-30.1l-6.6-5.6l-6.1,6.2c-18.4,18.5-36.9,37.6-55.4,57.1l-76.4-83.4l-6.9-7.5l-6.9,7.5l-71.2,77.3
		C51.4,119.3,144,36.2,256.2,36.2z M358.5,183.5l-3.8,35.4l21.6-32l10.8,16.7l10-8.5l27.2,26.8l-7.1-34.6l19.5,5.1l39.2,40.2
		l0.8-0.8c1,8.6,1.6,17.4,1.6,26.3c0,37-9.1,71.9-25.1,102.6c-46.2-53.5-92.5-100.1-138.8-142.3l11-12.3L358.5,183.5L358.5,183.5z
		 M138.3,206.3l26.4,18.8l20.2,22c-39.5,42-78.6,85.8-115.9,130.3C47,343,34.3,302.1,34.3,258.1v-0.8l16.2-17.7l37.2-20.2
		l-17.2,54.1l41.8-51.2l27.3,32.7L138.3,206.3L138.3,206.3z M279.7,267.9l53.2,60.9l-7.7-54.6l61.2,40.7
		c18.9,19.9,37.8,40.7,56.8,62.8l0.2-0.2C403.9,439.2,334.9,480,256.2,480c-71.8,0-135.5-34-176-86.8c19.1-22.9,38.8-45.6,58.7-68.1
		l56.2-33.8l-29.3,76.8l61.5-73.4l6.2,32.2l19.5-36.8l47.8,69.5L279.7,267.9L279.7,267.9z"/>
</g>
</svg>
