<?xml version="1.0" encoding="utf-8"?>
<!-- Generator: Adobe Illustrator 26.2.1, SVG Export Plug-In . SVG Version: 6.00 Build 0)  -->
<svg version="1.1" xmlns="http://www.w3.org/2000/svg" xmlns:xlink="http://www.w3.org/1999/xlink" x="0px" y="0px"
	 viewBox="0 0 1024 1024" style="enable-background:new 0 0 1024 1024;" xml:space="preserve">
<style type="text/css">
	.st0{fill:#56C000;stroke:#000000;stroke-width:5;stroke-miterlimit:10;}
</style>
<g id="Слой_3">
	<path class="st0" d="M955.82,768.43c-10.04,17.37-21.09,34.09-33.04,50.09l-49.21-51.71L656.72,538.95L639.5,620.5l-81-74l10,119
		l-67-90l-39,66l-14-26l-87,51l5.09-82.32L168.7,792.12l-48.19,50.64c-12.81-15.14-24.76-31.04-35.75-47.62l49.23-51.73
		L362.6,503.19l40.35-42.4L533,324.14l62.87,66.06l40.53,42.59l268.65,282.29L955.82,768.43z"/>
	<path class="st0" d="M1024.5,512c0,16.48-0.78,32.78-2.3,48.86l-68.26-71.72L849.93,379.85L790.5,359.5l-24,35l-19-20l-43,40
		l-9.22-43.58l-58.88,61.87l-40.53-42.59l172.31-181.06l168.28,176.82v0.01l86.88,91.28v0.01
		C1024.11,488.74,1024.5,500.32,1024.5,512z"/>
	<path class="st0" d="M362.6,503.19l-69.91-73.45l9.81,45.76l-60-38l-13,23l-23-21l-33,83l-14.83-87.13l-89.8,94.36L6.27,595.5
		c-4.17-25.45-6.47-51.53-6.74-78.1l74.93-78.74l153.72-161.52l174.77,183.65L362.6,503.19z"/>
</g>
<g id="Слой_4">
</g>
<g id="Слой_2">
	<path class="st0" d="M1023.34,477.26v-0.01C1005.47,210.41,783.37-0.5,512-0.5C228.95-0.5-0.5,228.95-0.5,512
		c0,1.8,0.01,3.61,0.03,5.4c0.27,26.57,2.57,52.65,6.74,78.1c11.94,72.87,39.24,140.56,78.49,199.64
		c10.99,16.58,22.94,32.48,35.75,47.62C214.52,953.92,355.01,1024.5,512,1024.5c168.11,0,317.32-80.94,410.78-205.98
		c11.95-16,23-32.72,33.04-50.09c35.98-62.11,59.28-132.47,66.38-207.56v-0.01c1.52-16.08,2.3-32.38,2.3-48.86
		C1024.5,500.32,1024.11,488.74,1023.34,477.26z M954.5,511.5c0,73.4-17.85,142.63-49.45,203.58c-9.32,18-19.85,35.28-31.48,51.73
		C793.36,880.35,661.09,954.5,511.5,954.5c-138.16,0-261.56-63.25-342.8-162.38c-12.63-15.4-24.24-31.67-34.71-48.71
		C95.43,680.8,72.03,607.87,68.87,529.73c-0.25-6.04-0.37-12.12-0.37-18.23c0-24.81,2.04-49.14,5.96-72.84
		C109.2,228.65,291.65,68.5,511.5,68.5c201.06,0,370.83,133.94,424.96,317.46v0.01c9.72,32.96,15.71,67.5,17.48,103.17
		C954.31,496.55,954.5,504,954.5,511.5z"/>
</g>
</svg>
