<?xml version="1.0" encoding="utf-8"?>
<!-- Generator: Adobe Illustrator 26.2.1, SVG Export Plug-In . SVG Version: 6.00 Build 0)  -->
<svg version="1.1" id="Слой_1" xmlns="http://www.w3.org/2000/svg" xmlns:xlink="http://www.w3.org/1999/xlink" x="0px" y="0px"
	 viewBox="0 0 512 512" style="enable-background:new 0 0 512 512;" xml:space="preserve">
<style type="text/css">
	.st0{fill:#88EE01;stroke:#000000;stroke-width:4;stroke-miterlimit:10;}
</style>
<g transform="translate(0,0)">
	<path class="st0" d="M181.8,33v51.5h149.4V33H181.8z M196,103.2c-0.7,2.9-1.6,5.3-2.8,6.9c-2.7,3.8-7,6.6-19.5,6.6
		c-21.5,0-40.8,5.9-55.2,16.1s-23.9,25.4-23.9,42.5v251.4c0,32.3,26.3,58.6,58.6,58.6h213.5c32.3,0,58.6-26.3,58.6-58.6V175.3
		c0-17.1-9.5-32.2-23.6-42.4c-14.1-10.2-32.8-16.2-53.4-16.2c-16.7,0-23.6-3.5-26.9-7.2c-1.4-1.6-2.4-3.7-3.2-6.3h-19.1
		c1.1,6.7,3.4,13.1,8.2,18.7c8.1,9.2,21.5,13.5,40.9,13.5c17,0,32.1,5,42.4,12.6c10.4,7.6,15.9,17.1,15.9,27.3v251.4
		c0,22.4-17.5,39.9-39.9,39.9H153.2c-22.4,0-39.9-17.6-39.9-39.9V175.3c0-10.2,5.5-19.7,16.1-27.3c10.6-7.6,26.2-12.6,44.3-12.6
		c16,0,28.1-5.1,34.7-14.4c3.9-5.5,5.7-11.5,6.6-17.8L196,103.2L196,103.2z M262.1,148.6c-30.5,0-50.1,12.9-63.3,32.3
		c-12.3,18.1-18.4,42.3-19.2,66.1c25,12.8,39.6,27.6,43.8,45c0.7,3,1.2,5.9,1.3,8.9c9,5.1,23.2,8.4,37.8,8.4
		c12.9,0,26.1-2.5,36.1-6.9c0.2-3.3,0.6-6.7,1.5-10c4.5-17.6,19-33.2,44.4-45.6c-0.8-22.5-6.8-46.6-19-64.9
		C312.3,162.1,292.8,148.6,262.1,148.6L262.1,148.6z M232.2,223.5c9.2,0,16.6,7.4,16.6,16.6c0,9.2-7.4,16.6-16.6,16.6
		c-9.2,0-16.6-7.4-16.6-16.6C215.6,230.9,223,223.5,232.2,223.5L232.2,223.5z M287.6,223.5c9.2,0,16.6,7.4,16.6,16.6
		c0,9.2-7.4,16.6-16.6,16.6c-9.2,0-16.6-7.4-16.6-16.6C271.1,230.9,278.5,223.5,287.6,223.5L287.6,223.5z M258.8,257.1
		c6.3,13.2,11.2,26.5,13.7,39.8c-9.1-3-18.3-3.4-27.4,0C248.4,283.6,252.4,270.3,258.8,257.1L258.8,257.1z M221.8,320.6
		c-2.1,6.4-5.3,12.8-9.2,19c11.9,8,31.6,12.8,50.9,12.6c19-0.2,36.9-5.6,46.2-12.4c-3.5-5.8-6.4-11.8-8.3-18
		c-11.9,4.4-25.4,6.4-38.8,6.4C248.1,328.2,233.8,325.9,221.8,320.6L221.8,320.6z M151.1,337.6c-8.9,11.3-12.7,22.5-10,36.3
		c68.9,5.5,164.2,31.9,226.7,60.8c9.2-11.2,12.5-22.7,10-36.8C310,391,213.6,369.2,151.1,337.6L151.1,337.6z M367.7,337.6
		c-20.8,10.5-45.3,19.9-71.3,28.1c20.3,4.4,40.3,8,58.7,10.7c7.8-1,15.4-1.9,22.6-2.4C380.4,360.1,376.6,348.9,367.7,337.6
		L367.7,337.6z M163.9,395.2c-7.9,1.1-15.6,2-22.9,2.8c-2.6,14.1,0.8,25.6,10,36.8c21.4-9.9,46.6-19.4,73.2-28
		C203.4,401.8,182.9,397.8,163.9,395.2z"/>
</g>
</svg>
