<?xml version="1.0" encoding="utf-8"?>
<!-- Generator: Adobe Illustrator 26.2.1, SVG Export Plug-In . SVG Version: 6.00 Build 0)  -->
<svg version="1.1" xmlns="http://www.w3.org/2000/svg" xmlns:xlink="http://www.w3.org/1999/xlink" x="0px" y="0px"
	 viewBox="0 0 1024 1024" style="enable-background:new 0 0 1024 1024;" xml:space="preserve">
<style type="text/css">
	.st0{display:none;fill:#DB0105;stroke:#000000;stroke-width:5;stroke-miterlimit:10;}
	.st1{fill:#DB0105;stroke:#000000;stroke-width:5;stroke-miterlimit:10;}
	.st2{fill:none;stroke:#000000;stroke-width:5;stroke-miterlimit:10;}
</style>
<g id="Слой_2">
	<path class="st0" d="M756.18,438.61c-0.87,4.69-1.89,9.45-3.05,14.29c-3.63,15.08-29.65,18.51-30.54,3.02
		c-0.34-5.99-0.88-11.89-1.62-17.7c-1.91-15.17-5.16-29.73-9.87-43.62c-4-11.81-9.04-23.15-15.19-33.98
		c-5.43-9.57-11.72-18.74-18.94-27.5c-16.46-20.07-37.69-38-64.2-53.58c-14.87-8.75,1.81-32.93,18.29-27.84
		c27.21,8.4,50.11,19.07,68.7,32.02c14.42,10.03,26.25,21.44,35.49,34.21c12.86,17.78,20.71,38.21,23.55,61.3v0.01
		C761.03,397.39,760.15,417.18,756.18,438.61z"/>
</g>
<g id="Слой_3">
	<path class="st1" d="M1028.67-0.5H830.89l-97.98,212.38c-28.18-14.93-60.31-23.38-94.41-23.38c-11.43,0-22.64,0.95-33.55,2.78
		L659.52-0.5H526.53l7.65,218c-9.37,5.66-18.25,12.06-26.55,19.13c-12.65,10.76-23.96,23.07-33.63,36.61
		c-9.67-13.54-20.98-25.85-33.63-36.61c-6.01-5.11-12.31-9.88-18.89-14.27L385.35-0.5H246.53l98.31,192.09
		c-11.47-2.03-23.28-3.09-35.34-3.09c-40.78,0-78.74,12.08-110.49,32.87L76.06-0.5H0.5v137.57l144.88,135.64
		c-23.84,33.16-37.88,73.84-37.88,117.79c0,12.86,1.2,25.44,3.51,37.63L0.5,396.5v95.09l131.6-4.41
		c6.67,12.21,14.57,23.67,23.53,34.19c0.5,0.61,1.02,1.2,1.54,1.8l19.66,19.66l30.57,30.57L0.5,656.69v166.2l248.88-207.51
		l97.94,97.94L0.5,958.11v65.39h153.01l213.43-290.56l59.98,59.98l-45.53,230.58h123.36l-24.38-189.87l100.96-100.96l44.06,290.83
		h139.37L604.21,709.79l62.81-62.81l320.62,376.52h35.86V822.74L691.51,622.49l41.41-41.41l290.58,108.14V529.87l-231.58-7.79
		l-1.09,1.09c0.32-0.37,0.64-0.73,0.95-1.1c0.2-0.23,0.4-0.46,0.59-0.7c19.87-23.33,34.52-51.23,42.15-81.91l188.98,2.07V293.95
		l-186.3,60.02c-6.65-36.43-23.08-69.46-46.47-96.25L1023.5,5.11L1028.67-0.5z M727.24,515.24L474,768.48L220.76,515.24l0.23-0.23
		c-38.38-26.73-63.49-71.19-63.49-121.51c0-81.74,66.26-148,148-148c50.32,0,94.78,25.11,121.51,63.49
		c1.93,2.76,10.06,16.67,10.06,16.67l37.37,67.01l34.6-63.23l0.05-0.1l7.35-13.43c1.46-2.35,2.97-4.66,4.55-6.92
		c26.73-38.38,71.19-63.49,121.51-63.49c81.74,0,148,66.26,148,148c0,50.32-25.11,94.78-63.49,121.51L727.24,515.24z"/>
	<path class="st2" d="M437.07,325.66l-4.56-8.18C434.11,320.15,435.64,322.88,437.07,325.66z"/>
	<path class="st2" d="M516.44,315.91l-7.35,13.43C511.32,324.72,513.77,320.24,516.44,315.91z"/>
	<path class="st2" d="M432.51,317.48c-1.74-2.9-3.57-5.73-5.5-8.49L432.51,317.48z"/>
	<path class="st2" d="M437.07,325.66"/>
	<path class="st2" d="M516.44,315.91l-7.35,13.43C511.32,324.72,513.77,320.24,516.44,315.91z"/>
	<path class="st2" d="M520.99,308.99c-1.58,2.26-3.09,4.57-4.55,6.92L520.99,308.99z"/>
	<path class="st2" d="M516.44,315.91"/>
	<path class="st2" d="M727.01,515.01l0.23,0.23L474,768.48L220.76,515.24l0.23-0.23c-38.38-26.73-63.49-71.19-63.49-121.51
		c0-81.74,66.26-148,148-148c50.32,0,94.78,25.11,121.51,63.49c1.93,2.76,10.06,16.67,10.06,16.67l37.37,67.01l34.6-63.23l0.05-0.1
		l7.35-13.43c1.46-2.35,2.97-4.66,4.55-6.92c26.73-38.38,71.19-63.49,121.51-63.49c81.74,0,148,66.26,148,148
		C790.5,443.82,765.39,488.28,727.01,515.01z"/>
</g>
</svg>
