<?xml version="1.0" encoding="utf-8"?>
<!-- Generator: Adobe Illustrator 26.2.1, SVG Export Plug-In . SVG Version: 6.00 Build 0)  -->
<svg version="1.1" id="Слой_1" xmlns="http://www.w3.org/2000/svg" xmlns:xlink="http://www.w3.org/1999/xlink" x="0px" y="0px"
	 viewBox="0 0 512 512" style="enable-background:new 0 0 512 512;" xml:space="preserve">
<style type="text/css">
	.st0{fill:#DE0005;stroke:#000000;stroke-width:4;stroke-miterlimit:10;}
</style>
<g transform="translate(0,0)">
	<path class="st0" d="M142.1,20.1l37.6,76.8c-9-2.8-18.3-4.2-27.5-4.2c-7.8,0-15.5,0.9-23,2.8c-9.6,2.4-18.8,6.3-27.3,11.5
		L18.5,23.6v70.3l56.2,37.8c-12.1,16.2-19.9,36.8-20.7,60.8c-0.1,4.4,0,8.8,0.3,13l-35.8-9.7v41.8l44.7,3.1
		c3.3,7.5,7.3,14.6,11.9,21.3c9.2,13.3,20.6,25.1,33,36.3l-89.6,23.8v46.3l109.2-53.3c13,10.9,26.4,21.6,39.1,33L20.3,494.3h71.4
		l89-132.9c14,13.9,26.6,29,36.2,46.3l-23.2,86.6h41.6l4.6-65.9l1.9-5c9.5-24.7,25-45.3,42.9-63.9l35.6,134.9h47.2L296.2,348
		c9-8.6,18.5-16.9,27.9-25l168.6,168.6v-70.9L334.4,314.1c1.1-1,2.2-1.9,3.3-2.9c10.2-8.8,20.2-17.7,29.5-27.1l125.6,33.9v-42.2
		l-111-7.7c13.5-16.4,24-34.4,28.5-55.4l82.5-21.9v-47.8l-80.2,39.5c-1.5-25.6-11.3-46.3-25.9-61.2L487.8,20.1h-70.4l-55.9,83.1
		c-7.1-3.4-14.6-5.9-22.4-7.4c-14.4-2.8-29.7-2.4-44.5,1.2l20.8-76.8h-41.8l-5.9,87.4c-12.7,7.1-24.5,17-34.2,29.7
		c-5.6-8.1-11.9-15-18.7-20.8L189,20.1L142.1,20.1L142.1,20.1z M152.2,111.2c27-0.2,54.7,13.8,72.7,47.6l7.9,14.8l8.4-14.5
		c21.9-37.7,61.1-51.4,94.3-45c33.2,6.5,60,31.8,58.5,78.4c-1.4,43.2-31.4,72.5-68.5,104.6c-32.6,28.2-70.1,57.9-92.6,100.8
		c-23.6-42.7-62.3-71.1-95.2-98.6c-18.7-15.6-35.5-31-47.2-47.9c-11.7-16.9-18.5-35.1-17.8-58.3c1.4-43.5,28.8-71.5,61-79.5
		C139.8,112.1,146,111.2,152.2,111.2L152.2,111.2z M315,135.5c-11.8,0-23,3.4-32.2,9.4c20.9-2.5,44.7,11,59,35.7
		c12.4,21.5,14,45.5,5.9,62.5c15.6-10.6,25.8-28.8,25.8-49.1C373.5,161.5,347.4,135.5,315,135.5L315,135.5z"/>
</g>
</svg>
