<?xml version="1.0" encoding="utf-8"?>
<!-- Generator: Adobe Illustrator 26.2.1, SVG Export Plug-In . SVG Version: 6.00 Build 0)  -->
<svg version="1.1" id="Слой_4" xmlns="http://www.w3.org/2000/svg" xmlns:xlink="http://www.w3.org/1999/xlink" x="0px" y="0px"
	 viewBox="0 0 1024 1024" style="enable-background:new 0 0 1024 1024;" xml:space="preserve">
<style type="text/css">
	.st0{fill:#9A8080;stroke:#000000;stroke-width:5;stroke-miterlimit:10;}
</style>
<path class="st0" d="M487.59,439.8c-23.31,10.54-39.95,33.19-41.89,59.93c-23.18-8.96-47.31-17.32-71.65-24.8
	c-94.6-29.12-192.34-45.14-249.59-31.61c-21.34,5.04-37.06,14.19-44.89,28.3c-5.86,9.38-9.85,18.68-12.15,27.88
	c-9.18,36.73,8.61,71.94,42.08,104.61l59.88-131.66l11.68,185.59c16.49,10.14,29.22,17.1,47.44,26.46l68-120l7.73,156.18
	c18.1,7.86,36.23,15.29,54.01,22.27l64.68-71.52l6.31,83.11c-16.4,14.56-26.73,35.8-26.73,59.46c0,4.58,0.39,9.08,1.14,13.45
	c-32.8-11.26-64.01-22.54-93.37-34.02c-38.48-15.06-73.8-30.46-105.42-46.63c-30.08-15.37-56.81-31.44-79.73-48.58
	c-15.73-11.75-29.67-23.99-41.66-36.85c-49.39-52.92-65.89-116.21-39.17-197.98L92.5,286.5l19.62,106.18
	c9.41-3.61,19.68-6.47,30.81-8.6L208.5,238.5l9.2,141.52c19.81,1.02,41.23,3.42,64.27,7.21l65.79-115.76l10.01,131.74
	c18.73,4.72,38.29,10.13,58.66,16.25l56.07-81.96L487.59,439.8z"/>
<path class="st0" d="M915.5,737.5c-12.55,10.53-47.11,25.92-63,35c-23.15,13.25-49.42,18.2-79,29c-31.09,11.36-70.69,17.44-108,27
	c-31.83,8.14-76.06,12.55-111.84,19.97c5.02-10.43,7.84-22.12,7.84-34.47c0-12.63-2.94-24.56-8.18-35.16l30.18-98.34l44,93
	c17.24-4.44,43.36-11.79,61-17l37-142l41,117c17.92-6.59,38.59-11.49,55-19l40-169l36,132c64.96-19.27,105.93-155.94-39.87-173.59
	c-68.37-8.28-160.43-10.4-270.18,15.32c0.69-3.98,1.05-8.06,1.05-12.23c0-24.3-12.13-45.78-30.66-58.69l33.66-89.81l38,89
	c19.54-3.35,40.14-4.76,58-7l38-138l37,131c21.75-0.89,48.56,2.69,67,4l33-139l38,157c10.05,3.24,25.7,11.59,34,16l34-102l18,178
	C1001.92,624.19,967.21,694.16,915.5,737.5z"/>
<circle class="st0" cx="480" cy="813" r="42.5"/>
<path class="st0" d="M485.5,505c0-17.4,14.1-31.5,31.5-31.5s31.5,14.1,31.5,31.5c0,7.61-0.78,23-7.19,20.04
	c-5.78-2.67-43.83-2.91-49.57-1.22C485.45,525.66,485.5,512.05,485.5,505z"/>
<path class="st0" d="M548.5,505c0,7.61-0.78,23-7.19,20.04c-5.78-2.67-43.83-2.91-49.57-1.22c-6.29,1.84-6.24-11.77-6.24-18.82
	c0-17.4,14.1-31.5,31.5-31.5S548.5,487.6,548.5,505z"/>
<circle class="st0" cx="480" cy="813" r="42.5"/>
<path class="st0" d="M515.4,681.31l-6.6,57.82c-8.37-3-17.39-4.63-26.8-4.63c-2.3,0-4.58,0.1-6.83,0.29l6.54-57.32L515.4,681.31z"/>
<path class="st0" d="M624.15,610.67c-1.96,21.66-53.85,34.66-115.91,29.05s-110.77-27.71-108.82-49.37
	c1.47-16.31,31.26-27.7,72.39-29.94c13.49-0.75,28.19-0.5,43.52,0.89c13.19,1.19,25.77,3.13,37.39,5.65
	C595.81,576.29,625.69,593.62,624.15,610.67z"/>
</svg>
