<?xml version="1.0" encoding="utf-8"?>
<!-- Generator: Adobe Illustrator 26.2.1, SVG Export Plug-In . SVG Version: 6.00 Build 0)  -->
<svg version="1.1" id="Слой_1" xmlns="http://www.w3.org/2000/svg" xmlns:xlink="http://www.w3.org/1999/xlink" x="0px" y="0px"
	 viewBox="0 0 512 512" style="enable-background:new 0 0 512 512;" xml:space="preserve">
<style type="text/css">
	.st0{fill:#9A8080;stroke:#000000;stroke-width:4;stroke-miterlimit:10;}
</style>
<g transform="translate(0,0)">
	<path class="st0" d="M106,113.8l-33,74.4c-1.1,0.2-2.1,0.5-3.1,0.7c-5.3,1.3-10,2.9-14,4.8l-8.3-53.4l-25,87.3
		c-1.3,3.7-2.4,7.6-3.3,11.6L19,240l0.1,0c-3.6,16.7-3.6,35.7,3.6,55.8c3.3,14,15.5,30.4,40.2,48.1c29.2,21,75.1,43,138.5,63.9
		c-0.3-1.8-0.4-3.6-0.4-5.5c0-12.2,5.6-23.2,14.4-30.4l-4.1-42.7l-31.5,37.7c-9.8-3.7-19-7.5-27.9-11.3l-2.9-78.2L115.4,338
		c-9.1-4.9-17.5-9.8-25.3-14.8l-4.6-90l-28.9,65.1c-7.5-6.6-14-13.2-19.5-19.9c-4.2-20-0.4-38.1,6.1-52.4l4.5-2.6
		c15.9-5.5,35.5-7.6,58.5-6.2c32.7,2.1,72.5,11.7,118.2,30.8c0.1-13.1,7.7-24.5,18.7-30.1l-5.6-52.6L207.3,208
		c-9.7-3.6-19-6.7-28-9.4l-4.3-68.7l-32.6,59.8c-11.8-2.2-22.7-3.4-32.7-3.9L106,113.8L106,113.8z M429.1,143.7l-16,70.3
		c-9.9-1.2-20.9-1.9-32.8-1.8l-19.6-66.4l-18.1,69c-9.3,1.1-19.1,2.6-29.3,4.6l-19-44.8l-16.4,45.7c8.9,6.2,14.8,16.5,14.8,28
		c0,2.4-0.3,4.8-0.7,7c47.2-10.6,87.3-13.2,119.4-9.7c22.9,2.5,41.9,7.9,56.6,16.1l4,3.3c4,15.3,4.7,33.7-2.9,52.7
		c-6.5,5.6-14,11-22.5,16.2l-17.4-69l-19.9,87.9c-8.5,3.6-17.6,7-27.4,10.2L362,301.4l-19.3,72.7c-9.3,2.3-19.1,4.4-29.3,6.4
		L290.8,335l-14.9,50c2.6,5.2,4,11.1,4,17.3c0,5.7-1.2,11.2-3.5,16.1c70.4-9.9,122.2-24.2,155.9-40.6c27.4-13.3,42.2-27.3,47.9-40.6
		c10.5-18.6,13.8-37.3,13-54.4l0.1,0.1l-0.1-0.9c-0.2-4.1-0.7-8.1-1.3-12l-9.8-90.3l-17.2,51.2c-3.7-2.5-8-4.9-13-7.1
		c-1-0.4-2-0.8-3-1.2L429.1,143.7L429.1,143.7z M258.5,232.8c-8.6,0-15.4,6.8-15.4,15.4c0,3.5,1.1,6.7,3.1,9.3
		c3.4,0,6.9,0.2,10.5,0.4c4.3,0.3,8.5,0.8,12.6,1.4c2.9-2.8,4.7-6.7,4.7-11.2C273.9,239.6,267.1,232.8,258.5,232.8L258.5,232.8z
		 M245.8,276.2c-1,0-2,0-3,0c-12,0.2-22.6,2.1-30.2,5c-5.1,1.9-8.8,4.2-10.9,6.2s-2.4,3.2-2.4,4.4c0,2.4,3.8,8.4,14.3,13.8
		c10.4,5.4,25.9,9.7,43,11c17.1,1.2,32.5-0.9,42.7-4.6c5.1-1.9,8.8-4.2,10.9-6.2c2-2,2.4-3.2,2.4-4.4c0-2.4-3.8-8.4-14.3-13.8
		c-10.4-5.4-25.9-9.7-43-11C252,276.4,248.9,276.3,245.8,276.2L245.8,276.2z M240.2,333.5l-3,29.5c1.1-0.1,2.2-0.1,3.3-0.1
		c5.4,0,10.5,1.1,15.2,3.1l3-30.4c-1.2-0.1-2.3-0.1-3.5-0.2C250.1,334.9,245,334.3,240.2,333.5L240.2,333.5z M240.5,381.5
		c-11.6,0-20.8,9.2-20.8,20.8c0,11.6,9.2,20.8,20.8,20.8c11.6,0,20.8-9.2,20.8-20.8S252.1,381.5,240.5,381.5L240.5,381.5z"/>
</g>
</svg>
