<?xml version="1.0" encoding="utf-8"?>
<!-- Generator: Adobe Illustrator 26.2.1, SVG Export Plug-In . SVG Version: 6.00 Build 0)  -->
<svg version="1.1" xmlns="http://www.w3.org/2000/svg" xmlns:xlink="http://www.w3.org/1999/xlink" x="0px" y="0px"
	 viewBox="0 0 1024 1024" style="enable-background:new 0 0 1024 1024;" xml:space="preserve">
<style type="text/css">
	.st0{opacity:0.42;fill:url(#SVGID_1_);}
	.st1{fill:#020102;stroke:#000000;stroke-width:5;stroke-miterlimit:10;}
	.st2{fill:#800080;stroke:#000000;stroke-width:5;stroke-miterlimit:10;}
	.st3{fill:#730073;stroke:#000000;stroke-width:5;stroke-miterlimit:10;}
	.st4{fill:#660066;stroke:#000000;stroke-width:5;stroke-miterlimit:10;}
</style>
<g id="Слой_3">
	
		<radialGradient id="SVGID_1_" cx="513.8394" cy="524.7587" r="484.0972" fx="509.6711" fy="479.9804" gradientUnits="userSpaceOnUse">
		<stop  offset="0" style="stop-color:#000000"/>
		<stop  offset="0.3726" style="stop-color:#020202"/>
		<stop  offset="0.5069" style="stop-color:#090909"/>
		<stop  offset="0.6026" style="stop-color:#141414"/>
		<stop  offset="0.68" style="stop-color:#252525"/>
		<stop  offset="0.7463" style="stop-color:#3B3B3B"/>
		<stop  offset="0.805" style="stop-color:#575757"/>
		<stop  offset="0.8581" style="stop-color:#777777"/>
		<stop  offset="0.9069" style="stop-color:#9D9D9D"/>
		<stop  offset="0.9523" style="stop-color:#C8C8C8"/>
		<stop  offset="0.9926" style="stop-color:#F6F6F6"/>
		<stop  offset="1" style="stop-color:#FFFFFF"/>
	</radialGradient>
	<path class="st0" d="M157.5,702.5c25.11,68.47-29.74,105.64-9,172c17.86,57.17,66.55,124.01,141,134
		c76.99,10.33,142.16-42.83,167-89c1.47-2.73,24.43-46.17,11-59c-5.92-5.66-16.82-3.35-35,2c-67.21,19.76-75.12,34.28-99,34
		c-36.35-0.43-81.72-32.51-82-68c-0.2-25.12,4.47-67.75,9-82c4.4-13.81,24.62,16.59,64,41c19.46,12.06,81.41,50.47,119,30
		c26.82-14.61,23.56-49.56,49-55c14.78-3.16,47.47-3.92,41,15c-10.19,29.8,75.85,166.33,126,182c16,5,67.91,13.48,94,14
		c9.56,0.19,12.99-22.63-7.74-34.41C688.81,906.71,610.14,811.53,637.5,790.5c12.67-9.74,110.59-34.77,135-82
		c19.46-37.65,10.24-68.77,29-76c17.1-6.59,44.79,11.55,54,34c6.57,16,1.73,29.24-2,48c-4.56,22.97-17.33,87.27,10,129
		c24.42,37.29,71.47,42.21,79,43c7.93,0.83,27.1,2.83,32-6c5.49-9.91-13.28-22.02-23-45c-14.04-33.17,4.49-56.6,18-134
		c6.74-38.6,10.11-57.9,8-67c-17.01-73.49-131.13-75.6-140-142c-2.4-17.96,4.39-29.51,0-71c-2.75-25.98-6.91-35.62-1-41
		c9.48-8.63,31.64,5.75,89,29c60.6,24.56,66.2,20.8,68,19c11.9-11.85-7.02-71.6-51-99c-59.14-36.85-88.59-21.62-169-24
		c-33.3-0.99-51.35-25.93-65-45c-15.11-21.11-17.96-41.85-20-52c-12.17-60.59-72.24-126.1-137-153
		c-103.85-43.13-212.34,14.57-216,26c-5.77,18,19.62,15.43,75,14c21.23-0.55,76.97,24.09,116,75c24.61,32.1,37.72,71.43,31,76
		c-5.27,3.59-18.36-17.25-49-36c-11.99-7.34-56.73-32.76-114-27c-39.9,4.01-140.72,7.33-159,19c-32.13,20.51-92.73,19.87-98,62
		c-7.56,60.4-122.5,158.5-105,163c16.88,19.88,117.67,26.58,106,87c-14.61,75.65-8.84,94.9-11,111
		C122.05,666.22,145.1,668.69,157.5,702.5z"/>
	<path class="st1" d="M810.5,837.5"/>
</g>
<g id="Слой_2">
	<path class="st2" d="M263.28,305.14c-3.2-8.76-14.82-10.53-20.49-3.13C216.32,336.5,164.1,419.14,190.5,506.5
		c40.42,133.77,239.29,192.95,322,129c39.13-30.25,59.49-93.64,42-149c-18.41-58.29-76.22-99.54-126-98
		c-38.66,1.2-50.29,27.52-80,24C322.18,409.38,292.11,384.09,263.28,305.14z"/>
	<path class="st3" d="M341.5,368.5c-35.42-22.02-53.64-85.64-29-128c29.85-51.31,108.29-46.82,152-30
		c91.47,35.21,127.13,161.49,103,183c-13.06,11.64-34.92-15.19-100-23C396.5,361.98,372.76,387.94,341.5,368.5z"/>
	<path class="st2" d="M568.5,428.5c75.73-16.31,151.85,6.94,192,61c64.68,87.1,14.03,224.67-59,260c-41.7,20.18-98.86,10.96-104-6
		c-4.66-15.38,36.43-27.22,38-57c2.08-39.49-68.13-56.59-66-97c1.22-23.16,24.79-27.37,34-55
		C615.19,499.45,592.78,459.64,568.5,428.5z"/>
	<path class="st4" d="M525.5,646.5c-24.55,17.67-22.25,73.38,4,89c29.56,17.58,85.21-18.18,84-48
		C612.29,657.51,553.29,626.5,525.5,646.5z"/>
	<path class="st3" d="M268.5,659.5c-18.61,26.52,59.75,154.48,139,142c37.44-5.9,74.52-43.06,70-71c-4.45-27.5-48.27-40.28-109-58
		C313.71,656.52,277.92,646.07,268.5,659.5z"/>
	<path class="st2" d="M444.5,879.5c-23.57,75.62-87.67,105.61-152,109c-98.21,5.18-128.79-85.25-129-149
		c-0.3-88.73,8.86-146.7,19-162c24.33-11.45,17,74,67.53,74.66C220.57,900.91,297.09,944.81,444.5,879.5z"/>
	<path class="st4" d="M156.5,548.5c-28.98,13.28-22.9,120.28,9,131c20.55,6.9,63.07-22.36,64-64
		C230.56,568,176.72,539.24,156.5,548.5z"/>
	<path class="st3" d="M747.5,955.5c-16.64,6.95-50.9,3.45-62-1c-71.39-28.66-116.67-111.26-140-192h49
		C610.77,854.08,666.66,915.31,747.5,955.5z"/>
	<path class="st2" d="M822.14,613.64c30.44,8.72,46.65,37.99,51.36,83.86c-20.03,64.39-20.24,101.84-7,121
		c16.01,29.41,47.67,47.14,84.61,60.93c5.34,1.99,9.78-4.58,5.89-8.75c-13.28-14.24-23.58-30.15-26.5-50.17
		c0,0-22.1-35.3,14.45-92.65c36.55-57.35,13.68-87.7,13.68-87.7c-40.87-69.88-83.29-110.6-126.99-127.51
		C814.28,540.21,811.05,573.85,822.14,613.64z"/>
	<path class="st2" d="M593.5,355.5c-8.23-26.84,28.71-74.29,75-79c63.84-6.5,108.05,72.11,95,99
		C746.17,411.21,606.85,399.05,593.5,355.5z"/>
	<path class="st2" d="M739.5,421.5c20.94-15.66,50.3-13.29,68,5c24.25,25.07,13.44,66.43,0,71
		C797.73,500.82,778.81,487.34,739.5,421.5z"/>
	<path class="st2" d="M778.21,325.05c99.67-28.33,157.02,8.2,187.48,85.95c-62.92-38.76-124.03-56.72-180.76-24.45
		C775.14,362.32,767.47,339.14,778.21,325.05z"/>
	<path class="st2" d="M679.5,261.5c-12.24-86.96-69.03-159.93-148-189c-75.5-27.79-143.72-5.3-174.49,8.37
		c-3.3,1.47-2.1,6.43,1.5,6.21c125.88-7.6,192.96,56.25,215.33,174.42C602.37,271.47,639.51,268.61,679.5,261.5z"/>
	<path class="st4" d="M254.5,209.5c-77.03,21.99-132.77,86.26-165.81,186.89c-6.23,11.75-17.43,16.34-31.33,17.05
		c-8.03,0.41-10.6,11.08-3.57,14.98c25.16,13.97,50.39,15.88,75.71,3.08c19.86-114.98,70.28-174.33,148-178
		C285.16,226.16,277.99,211.09,254.5,209.5z"/>
</g>
</svg>
