<?xml version="1.0" encoding="utf-8"?>
<!-- Generator: Adobe Illustrator 26.2.1, SVG Export Plug-In . SVG Version: 6.00 Build 0)  -->
<svg version="1.1" id="Слой_1" xmlns="http://www.w3.org/2000/svg" xmlns:xlink="http://www.w3.org/1999/xlink" x="0px" y="0px"
	 viewBox="0 0 512 512" style="enable-background:new 0 0 512 512;" xml:space="preserve">
<style type="text/css">
	.st0{fill:#800080;stroke:#000000;stroke-width:4;stroke-miterlimit:10;}
</style>
<g transform="translate(0,0)">
	<path class="st0" d="M233.7,22.1c-13.9,0.2-28.4,3-43,8.8c30,0.8,65.9,7.9,85,31.2c8.7,10.6,11.7,27.2,10,44.1
		c2,1.7,3.9,3.5,5.7,5.3c3.9,3.9,7.4,8.1,10.4,12.5c2.5-0.8,5-1.4,7.6-1.8c4.7-0.9,9.6-1.3,14.6-1.3c3.1,0,6.2,0.2,9.4,0.5
		c10.4-50.2-36.9-98.6-96.8-99.3C235.5,22.1,234.6,22.1,233.7,22.1L233.7,22.1z M203.2,95c-15.8,0.1-29.9,4.5-39.3,13.9
		c-10.2,10.2-13,23.7-10.8,39.2c0,0.1,0,0.1,0,0.2c3.6,12.4,9.6,22.5,18.6,29.5c9.2,7.1,21.9,11.3,40.8,10.3
		c24.2-1.3,44,5,58.2,16.2c7.8-4.7,16.2-8.4,25.2-10.9c6.8-23.6,0.9-50-17.7-68.6c-13.6-13.6-36.4-24.7-58.7-28.4
		C213.9,95.4,208.5,95,203.2,95L203.2,95z M136.1,121.1c-36.7,3.1-65,16.8-77.2,58.3c-7.7,26.1-8.9,49-37,42.3
		c13.8,22,35.5,21.8,51.9-0.7c2.1-31.2,24-60.2,60.2-77C133.6,136.3,134.1,128.5,136.1,121.1L136.1,121.1z M323.8,139.6
		c-3.9,0-7.7,0.3-11.2,0.9c-0.6,0.1-1.2,0.2-1.8,0.4c5.9,14.8,7.7,30.9,5.3,46.5l2.3,2.6c1.9,0,3.7,0,5.6,0
		c14.1,0.6,27.8,4.4,39.9,11c6.1-8.1,14.7-13.6,24-16.2c-4-16.6-14.9-28.4-28.8-36.1C348.3,142.7,335.5,139.7,323.8,139.6
		L323.8,139.6z M434.9,155.3c-10.6,0-22.3,3.1-34.5,9.8c2.9,5.7,5.1,11.9,6.4,18.7c5.3,0.8,10.6,2.6,15.5,5.4c0.3,0.2,0.7,0.4,1,0.6
		c31.2-10.8,50.9,7.4,70.1,41.3C489.7,183.6,466.6,155.4,434.9,155.3L434.9,155.3z M138.5,162.9c-34.2,17-49.5,44.1-45.6,71.2
		c6.8,47.4,54.3,88.9,127.9,80.4c40.5-4.7,57.8-33,56.6-59.3c-0.6-13.1-6-25.6-16.3-34.6c-10.3-9-25.7-15-47.6-13.8
		c-22.2,1.2-40.1-4.1-53.2-14.2C150.2,184.8,143.2,174.4,138.5,162.9L138.5,162.9z M399.9,201.8c-0.6,0-1.3,0-1.9,0.1
		c-7.1,0.5-13.9,3.9-18.6,9.7c12.8,10.7,22.8,24.9,28.2,41.8c6.1-1.9,11.5-6,15-12c7.3-12.7,3-28.6-9.6-35.9
		C408.9,202.9,404.4,201.8,399.9,201.8L399.9,201.8z M320.7,208.6c-6.3,0-12.8,0.8-19.2,2.5c-6.2,1.7-12.1,4.1-17.6,7.1
		c7.5,10.7,11.6,23.3,12.2,36.1c0.6,13.2-2.6,26.6-9.3,38.6c14.7,8.1,24.8,23.7,24.8,41.6c0,12.1-4.6,23.2-12.2,31.6
		c15.8,8.4,32.2,11.8,45.9,8.1c18-4.8,32.4-21.7,40.8-43.7c8.4-21.9,10.3-48.2,5-67.8c-8.5-31.7-36.5-52.9-67.7-54.2
		C322.5,208.6,321.6,208.6,320.7,208.6L320.7,208.6z M426.1,264.7c-4.4,3.1-9.2,5.4-14.3,6.8c1.6,12,1.3,24.7-0.7,37.3
		c25.4,13.4,30.9,27.7,22.7,54.9c-16.6,55,19.6,83.6,54.6,65.1c-32.5-9.8-28.1-27.1-20.6-58.2C480.3,318.7,463,289.5,426.1,264.7
		L426.1,264.7z M85,269.5c-5.8,2-11.2,5.3-15.8,9.9c-16.1,16.1-16.1,42.1,0,58.2c2.6,2.5,5.3,4.7,8.3,6.4
		c9.9-14.8,20.9-29.1,34.9-40.7C100.8,293.7,91.6,282.2,85,269.5z M275.4,308.1c-9.9,10.3-23.2,18.4-39.7,22.5
		c-0.2,1.3-0.3,2.5-0.3,3.8c0,15.9,12.7,28.7,28.7,28.7c15.9,0,28.7-12.7,28.7-28.7C292.8,322.6,285.7,312.5,275.4,308.1z
		 M136.9,319.4c-6.8,36.1,8.6,62.1,28.9,72.8c13,6.8,28.2,7.6,43,0.3c8.5-4.2,17.1-11.4,24.7-22c-10.2-8.7-16.7-21.6-16.7-35.9v-0.9
		l0,0C186.2,336.1,159.1,330.5,136.9,319.4L136.9,319.4z M117.6,323.9c-11.6,11.3-21.4,25.6-31.2,40.8
		C67.5,401.1,68.8,447,107,476.1c31.7,24.2,77.5,21.8,100,5.4c19.9-14.6,25.2-45.6,6.8-69c4.4,16.1-4.6,41.8-18.5,49.3
		c-16.2,8.8-38.3,7.5-56.6-12.7c-21.6-23.6-18.9-43.1-3.6-58.9C121.8,373.9,114.6,350.7,117.6,323.9L117.6,323.9z M286.6,380.5
		C274.8,424.2,303,473,365.8,476c-32-16.9-51.6-50.3-46.8-82.9C307.8,391,296.9,386.5,286.6,380.5L286.6,380.5z"/>
</g>
</svg>
