<?xml version="1.0" encoding="utf-8"?>
<!-- Generator: Adobe Illustrator 26.2.1, SVG Export Plug-In . SVG Version: 6.00 Build 0)  -->
<svg version="1.1" xmlns="http://www.w3.org/2000/svg" xmlns:xlink="http://www.w3.org/1999/xlink" x="0px" y="0px"
	 viewBox="0 0 1024 1024" style="enable-background:new 0 0 1024 1024;" xml:space="preserve">
<style type="text/css">
	.st0{opacity:0.51;}
	.st1{fill:none;stroke:#000000;stroke-width:5;stroke-miterlimit:10;}
	.st2{fill:#80FFFF;stroke:#000000;stroke-width:5;stroke-miterlimit:10;}
</style>
<g id="Слой_2">
	<path class="st0" d="M999.62,372.57l-3.22-12.53l-3.63-14.13l-1.22-4.77c-0.3-1.17-1.51-1.86-2.67-1.52l-2.37,0.69L630.06,21.5
		l0.82-3.06c0.07-0.24-0.08-0.49-0.32-0.56l-6.55-1.78l-21.14-5.77l-3.82-1.04c-0.57-0.16-1.16,0.19-1.28,0.77l-0.46,2.1
		L139.17,162.72l-2.37-1.9l-2.92,3.64l-13.34,16.64l-6.22,7.76l3.94,3.16L20.74,658.5l-4.57,0.95l1.74,12.59l0.2,1.48l1.46,10.55
		l8.4-1.74L382.7,999.6l-1.17,6.82c-0.3,0.88,0.16,1.84,1.03,2.18l17.44,6.47l4.16,1.54l11.37,4.22c0.26,0.09,0.54-0.04,0.63-0.3
		l2.94-8.82l445.63-146.45l6.92,5.46c0.19,0.16,0.47,0.12,0.62-0.08l13.86-12.42l7.54-6.75l6.77-6.07c0.79-0.71,0.72-1.99-0.16-2.6
		l-4.19-2.91L993,376.32l5.59-1.85C999.38,374.2,999.83,373.37,999.62,372.57z M780.74,175.76l131.94,143.59l-67.12,61.67
		L713.62,237.43L780.74,175.76z M539.21,44.81l29,84.03l-184.32,63.63l-29.01-84.04L539.21,44.81z M107.82,569.56l59.82-252.14
		l86.5,20.52l-59.82,252.14L107.82,569.56z M394.84,889.04l-53.47,39.06L226.34,770.65l71.78-52.45l101.65,139.14
		C407.16,867.46,404.95,881.65,394.84,889.04z M306.5,504c0-120.12,97.38-217.5,217.5-217.5S741.5,383.88,741.5,504
		S644.12,721.5,524,721.5S306.5,624.12,306.5,504z M625.8,942.3l-29.01-84.03l184.33-63.63l29.01,84.04L625.8,942.3z M918.2,617.6
		l-86.5-20.52l38.01-160.2c3.35-14.09,17.48-22.81,31.58-19.46l60.98,14.46L918.2,617.6z"/>
</g>
<g id="Слой_3">
	<path class="st1" d="M568.97,243.66l-263,86.41L249.3,601.05l206.34,184.56l263-86.41l56.67-270.97L568.97,243.66z M631.11,687.93
		c24.32-34.3,38.62-76.21,38.62-121.46c0-116.1-94.13-210.23-210.23-210.23c-43.88,0-84.63,13.45-118.34,36.45
		c38.09-53.72,100.76-88.77,171.61-88.77c116.1,0,210.23,94.13,210.23,210.23C723,586.38,686.59,650.09,631.11,687.93z"/>
	<path class="st1" d="M636.2,22.63l-40.47,193.51L802.07,400.7l187.82-61.72L636.2,22.63z M886.47,334.57l-53.39,20.09
		c-7.34,2.77-15.01-3.22-14.11-11.03c4.25-36.56-1.09-73.12-16.05-109.69c-2.07-5.06,4.42-9.22,8.18-5.25l80.22,84.86
		C897.67,320.28,895.12,331.31,886.47,334.57z"/>
	<path class="st1" d="M813.99,438.04L757.32,709l146.08,130.67l96.79-462.82L813.99,438.04z M936.21,524.26
		c-1.09,4.98-8.14,5.21-9.54,0.3c-9.15-32.29-26.66-53-51.46-63.66c-5.21-2.24-4.8-9.73,0.62-11.38l66.07-19.97
		c7.24-2.18,14.15,4.21,12.54,11.6L936.21,524.26z"/>
	<path class="st1" d="M726.1,740.08l-263,86.41L423.26,1017l447.9-147.17L726.1,740.08z M775.24,879.2
		c-36.05,10.52-78.65,26.02-124.73,44.26c-5.04,2-8.56-5.11-3.9-7.9c37.95-22.7,73.05-45.16,104.1-67.41
		c6.6-4.74,15.74-3.57,20.95,2.68l8.97,10.78C785.69,867.71,782.85,876.99,775.24,879.2z"/>
	<path class="st1" d="M218.75,622.52l-190.22,62.5l355.56,318.05l40.99-195.99L218.75,622.52z M380.04,893.23
		c-5.6,6.69-17.76,8.1-17.22-0.5c1-15.89-37.98-105.27-69.84-119.63c-5.39-2.44-0.14-7.47,5.99-7.46
		C363.48,765.77,401.97,867.08,380.04,893.23z"/>
	<path class="st1" d="M120.32,193.19l-96.82,463l186.38-61.23l56.68-270.97L120.32,193.19z M171.03,566.76
		c-4.5,7.23-15.48,1.36-12-6.41c14.84-33.2,27.53-69.85,37.21-108.95c8.3-33.55,13.8-66.53,16.69-98.13
		c0.92-10.1,15.77-9.58,15.98,0.56c0.68,32.41-3.06,66.94-11.75,102.01C206.88,497.36,190.84,534.97,171.03,566.76z"/>
	<path class="st1" d="M144.72,162.39l150.41,134.55l263-86.4L599.45,13L144.72,162.39z M538.1,122.72
		c-46.65-2.01-103.2-0.46-165.09,3.11c-6.78,0.39-7.49-10.19-0.79-11.75c54.59-12.73,105.77-26.35,152.16-41.46
		c9.88-3.22,19.89,2.19,22.95,12.39l5.28,17.58C555.6,112.52,547.93,123.14,538.1,122.72z"/>
	<path class="st2" d="M120.32,193.19l-96.82,463l186.38-61.23l56.68-270.97L120.32,193.19z M171.03,566.76
		c-4.5,7.23-15.48,1.36-12-6.41c14.84-33.2,27.53-69.85,37.21-108.95c8.3-33.55,13.8-66.53,16.69-98.13
		c0.92-10.1,15.77-9.58,15.98,0.56c0.68,32.41-3.06,66.94-11.75,102.01C206.88,497.36,190.84,534.97,171.03,566.76z"/>
	<path class="st2" d="M218.75,622.52l-190.22,62.5l355.56,318.05l40.99-195.99L218.75,622.52z M380.04,893.23
		c-5.6,6.69-17.76,8.1-17.22-0.5c1-15.89-37.98-105.27-69.84-119.63c-5.39-2.44-0.14-7.47,5.99-7.46
		C363.48,765.77,401.97,867.08,380.04,893.23z"/>
	<path class="st2" d="M144.72,162.39l150.41,134.55l263-86.4L599.45,13L144.72,162.39z M538.1,122.72
		c-46.65-2.01-103.2-0.46-165.09,3.11c-6.78,0.39-7.49-10.19-0.79-11.75c54.59-12.73,105.77-26.35,152.16-41.46
		c9.88-3.22,19.89,2.19,22.95,12.39l5.28,17.58C555.6,112.52,547.93,123.14,538.1,122.72z"/>
	<path class="st2" d="M568.97,243.66l-263,86.41L249.3,601.05l206.34,184.56l263-86.41l56.67-270.97L568.97,243.66z M654.88,644.24
		c9.45-23.72,14.71-49.56,14.85-76.61c0.63-116.91-93.22-211.33-210.14-211.37c-29.69-0.01-57.94,6.13-83.55,17.22
		c-7.43,3.22-13.82-6.26-7.94-11.83c37.99-36.05,89.44-58.06,146.02-57.7c115.29,0.72,209.05,95.24,208.88,210.54
		c-0.08,53.4-20.07,102.14-52.95,139.18C663.32,661.24,651.13,653.66,654.88,644.24z"/>
	<path class="st2" d="M726.1,740.08l-263,86.41L423.26,1017l447.9-147.17L726.1,740.08z M775.24,879.2
		c-36.05,10.52-78.65,26.02-124.73,44.26c-5.04,2-8.56-5.11-3.9-7.9c37.95-22.7,73.05-45.16,104.1-67.41
		c6.6-4.74,15.74-3.57,20.95,2.68l8.97,10.78C785.69,867.71,782.85,876.99,775.24,879.2z"/>
	<path class="st2" d="M636.2,22.63l-40.47,193.51L802.07,400.7l187.82-61.72L636.2,22.63z M886.47,334.57l-53.39,20.09
		c-7.34,2.77-15.01-3.22-14.11-11.03c4.25-36.56-1.09-73.12-16.05-109.69c-2.07-5.06,4.42-9.22,8.18-5.25l80.22,84.86
		C897.67,320.28,895.12,331.31,886.47,334.57z"/>
	<path class="st2" d="M813.99,438.04L757.32,709l146.08,130.67l96.79-462.82L813.99,438.04z M936.21,524.26
		c-1.09,4.98-8.14,5.21-9.54,0.3c-9.15-32.29-26.66-53-51.46-63.66c-5.21-2.24-4.8-9.73,0.62-11.38l66.07-19.97
		c7.24-2.18,14.15,4.21,12.54,11.6L936.21,524.26z"/>
</g>
</svg>
