<?xml version="1.0" encoding="utf-8"?>
<!-- Generator: Adobe Illustrator 26.2.1, SVG Export Plug-In . SVG Version: 6.00 Build 0)  -->
<svg version="1.1" id="Слой_1" xmlns="http://www.w3.org/2000/svg" xmlns:xlink="http://www.w3.org/1999/xlink" x="0px" y="0px"
	 viewBox="0 0 512 512" style="enable-background:new 0 0 512 512;" xml:space="preserve">
<style type="text/css">
	.st0{fill:#80FFFF;stroke:#000000;stroke-width:4;stroke-miterlimit:10;}
</style>
<g transform="translate(0,0)">
	<path class="st0" d="M310.4,16.8l-221,59l58.1,50.9l135-36.3l2-0.5L310.4,16.8z M327.4,24.6l-27.2,76.8l91.7,91.9l95.6-8.8
		L327.4,24.6z M285.6,36.7L277,70.3c-0.3-15.5-38-17-107.6-4.4L285.6,36.7L285.6,36.7z M336.7,51.3l123.5,123.4l-58.8,7.6
		C417.5,160.9,369.1,91.1,336.7,51.3z M74.8,87.7L15.6,308.4l79-31.5l37.3-139.2L74.8,87.7z M282.2,109.7l-133,35.8l-35.7,133.4
		l97.2,97.5l133.1-35.8l35.7-133.4L282.2,109.7L282.2,109.7z M80.5,115.4l32.8,30.5l-30.2,119l-39,15.8
		C94.9,250.1,109.8,150.6,80.5,115.4L80.5,115.4z M276.3,130.2l82.7,83.2l-30.2,113.8l-44.7,12c119.5-107.9-34.8-238.4-131.5-140.9
		l9.9-37.4L276.3,130.2L276.3,130.2z M490.6,203l-92.9,8.5l-36,134.2l71.3,71.8L490.6,203L490.6,203z M473.3,216.9L444,333
		c6.7-68.9,0-90.9-30.7-111.5L473.3,216.9z M102.1,294.1l-81.9,32.6L182,488.2l17.3-96.7L102.1,294.1L102.1,294.1z M102.2,314.1
		l78.1,82.4l-7.4,61.4C167.7,413.3,144.6,372,102.2,314.1L102.2,314.1z M348.3,358.8l-130.5,35.1l-17.6,98.2l221.7-59.2L348.3,358.8
		L348.3,358.8z M367,401.2l24.3,24.8L276,458.8C337.3,432.4,359.4,421.4,367,401.2z"/>
</g>
</svg>
