<?xml version="1.0" encoding="utf-8"?>
<!-- Generator: Adobe Illustrator 26.2.1, SVG Export Plug-In . SVG Version: 6.00 Build 0)  -->
<svg version="1.1" id="Слой_1" xmlns="http://www.w3.org/2000/svg" xmlns:xlink="http://www.w3.org/1999/xlink" x="0px" y="0px"
	 viewBox="0 0 512 512" style="enable-background:new 0 0 512 512;" xml:space="preserve">
<style type="text/css">
	.st0{fill:#E7E7D7;stroke:#000000;stroke-width:4;stroke-miterlimit:10;}
</style>
<g transform="translate(0,0)">
	<path class="st0" d="M470.7,20L368.2,49.8l41.5-28.1c-26.2,5.9-59.3,17.5-100.9,36.2l-67.9,70.8L265,79.2
		c-23.3,13-48,29.9-71.8,49.9l-15.8,64.3l-3.4-47.6c-23.5,21.6-45.6,45.6-63.9,70.9c-19.2,26.5-34.3,54.5-41.8,82.4l-28.1-18.8
		c2.5,23.7,10.3,44.3,23.1,63.2l-33.6-10.3c7.6,23.5,20.1,38.7,41.2,51C59.1,417.5,53.5,452.3,47.6,487l18.4,3.1
		C87.3,277.4,237.9,141.8,374,81.7l6.9,17.4c-121.7,54.5-216.3,146.5-265.8,279.1c18.1,0.1,35.8-2.1,52.2-6.3l4.9-60.9l13.1,55.5
		c10.9-4,20.9-8.8,29.8-14.4l-20.7-43.5l32.8,34.8c8-6.4,14.6-13.6,19.6-21.5c30.4-47.5,62.2-94.7,124.8-134.2l-45.7-16.2l70.1,2.1
		c11.4-5.8,23.4-12.9,32.5-19.6l-49.7-4l74.7-17.6c5.8-5.8,11.2-11.9,16.1-18c17.3-21.9,29-44.8,26.2-65.6
		c-1.3-10.4-7.5-20.2-17.6-25.6C475.7,21.9,473,20.8,470.7,20L470.7,20z"/>
</g>
</svg>
