<?xml version="1.0" encoding="utf-8"?>
<!-- Generator: Adobe Illustrator 26.2.1, SVG Export Plug-In . SVG Version: 6.00 Build 0)  -->
<svg version="1.1" xmlns="http://www.w3.org/2000/svg" xmlns:xlink="http://www.w3.org/1999/xlink" x="0px" y="0px"
	 viewBox="0 0 512 512" style="enable-background:new 0 0 512 512;" xml:space="preserve">
<style type="text/css">
	.st0{opacity:0.77;stroke:#000000;stroke-width:5;stroke-miterlimit:10;}
	.st1{fill:#E7E7D7;stroke:#000000;stroke-width:5;stroke-miterlimit:10;}
</style>
<g id="Слой_2">
	<polygon class="st0" points="410.67,74.92 410.67,119.51 381.9,119.51 193.37,330.82 159.29,300.41 118.76,378.19 74.01,378.19 
		140.64,239.47 149.99,244.34 318.63,55.33 340.58,74.92 	"/>
</g>
<g id="Слой_3">
	<path class="st1" d="M470.7,20L368.2,49.81l41.5-28.09c-26.2,5.92-59.3,17.5-100.9,36.19l-67.9,70.79L265,79.25
		c-23.3,12.96-48,29.95-71.8,49.85l-15.8,64.3l-3.4-47.6c-23.5,21.6-45.6,45.6-63.9,70.9c-19.23,26.5-34.26,54.5-41.79,82.4
		l-28.12-18.8c2.52,23.7,10.31,44.3,23.09,63.2l-33.62-10.3c7.64,23.5,20.13,38.7,41.25,51C59.08,417.5,53.53,452.3,47.57,487
		l18.4,3.1C87.31,277.4,237.9,141.8,374,81.72l6.9,17.38c-121.7,54.5-216.3,146.5-265.8,279.1c18.1,0.1,35.8-2.1,52.2-6.3l4.9-60.9
		l13.1,55.5c10.9-4,20.9-8.8,29.8-14.4l-20.7-43.5l32.8,34.8c8-6.4,14.6-13.6,19.6-21.5c30.4-47.5,62.2-94.7,124.8-134.2l-45.7-16.2
		l70.1,2.1c11.4-5.8,23.4-12.9,32.5-19.6l-49.7-4l74.7-17.6c5.8-5.8,11.2-11.9,16.1-18c17.3-21.94,29-44.78,26.2-65.55
		c-1.3-10.39-7.5-20.16-17.6-25.63C475.7,21.92,473,20.77,470.7,20L470.7,20z"/>
</g>
</svg>
