<?xml version="1.0" standalone="no"?>
<!DOCTYPE svg PUBLIC "-//W3C//DTD SVG 20010904//EN"
 "http://www.w3.org/TR/2001/REC-SVG-20010904/DTD/svg10.dtd">
<svg version="1.0" xmlns="http://www.w3.org/2000/svg"
 width="16.000000pt" height="16.000000pt" viewBox="0 0 16.000000 16.000000"
 preserveAspectRatio="xMidYMid meet">

<g transform="translate(0.000000,16.000000) scale(0.100000,-0.100000)"
fill="#000000" stroke="none">
<path d="M71 146 c-7 -8 -11 -21 -9 -30 2 -8 -1 -14 -7 -13 -5 1 -9 8 -9 15 1
7 -1 11 -4 7 -10 -10 -10 -100 0 -112 16 -20 66 -15 89 8 26 26 19 65 -18 95
-28 24 -14 45 15 22 15 -12 16 -11 3 5 -16 21 -44 22 -60 3z m20 -33 c13 -16
12 -17 -3 -4 -17 13 -22 21 -14 21 2 0 10 -8 17 -17z m15 -60 c-1 -30 -5 -39
-22 -41 -35 -5 -47 21 -24 48 11 13 20 19 20 15 0 -5 5 -4 12 3 16 16 15 17
14 -25z"/>
<path d="M64 49 c-10 -17 13 -36 27 -22 12 12 4 33 -11 33 -5 0 -12 -5 -16
-11z"/>
</g>
</svg>
